M48
METRIC,LZ,000.000
;FILE_FORMAT=3:3
;TYPE=PLATED
;Layer: PTH_Through
;EasyEDA v6.5.22, 2023-01-26 14:10:14
;b877e135513245ca8f96004f63138494,c6a1bf633b9a4ba285e4988a7d74c357,10
;Gerber Generator version 0.2
;Holesize 1 = 0.635 mm
T01C0.635
;Holesize 2 = 0.701 mm
T02C0.701
;Holesize 3 = 0.800 mm
T03C0.800
;Holesize 4 = 1.501 mm
T04C1.501
;Holesize 5 = 1.524 mm
T05C1.524
;Holesize 6 = 2.000 mm
T06C2.000
%
G05
G90
T01
X077500Y006920
X077500Y014540
X008307Y033533
X008307Y041153
X030587Y033533
X030587Y041153
X052973Y033533
X052973Y041153
X018640Y033533
X018640Y041153
X016223Y041193
X016223Y033573
X005723Y033533
X005723Y041153
X021223Y033533
X021223Y041153
X010890Y033533
X010890Y041153
X013473Y041193
X013473Y033573
X041496Y033533
X041496Y041153
X038500Y041080
X038500Y033460
X027859Y033533
X027859Y041153
X044223Y033533
X044223Y041153
X033314Y033533
X033314Y041153
X036000Y041080
X036000Y033460
X063973Y033533
X063973Y041153
X061500Y041080
X061500Y033460
X050223Y033533
X050223Y041153
X066723Y033533
X066723Y041153
X055723Y033533
X055723Y041153
X058500Y041080
X058500Y033460
T02
X076000Y043500
X071000Y043500
X076000Y035000
X071000Y035000
X076000Y026500
X071000Y026500
X110730Y026413
X110746Y021575
X113596Y020375G85X113196Y020375
X113596Y027625G85X113196Y027625
T03
X045960Y026000
X048500Y026000
X048540Y032500
X046000Y032500
T04
X073500Y018277
X073500Y005850
X073500Y008335
X073500Y010821
X073500Y013306
X073500Y015792
X073500Y020763
X073500Y003364
T05
X039120Y005856
X034040Y005856
X017279Y005682
X012199Y005682
X061120Y005856
X056040Y005856
X002604Y026543
X002604Y021463
X002500Y021500
T06
X088500Y042000
X093500Y042000
M30
