M48
METRIC,LZ,000.000
;FILE_FORMAT=3:3
;TYPE=PLATED
;Layer: PTH_Through_Via
;EasyEDA v6.5.22, 2023-01-26 14:10:14
;b877e135513245ca8f96004f63138494,c6a1bf633b9a4ba285e4988a7d74c357,10
;Gerber Generator version 0.2
;Holesize 1 = 0.501 mm
T01C0.501
%
G05
G90
T01
X092329Y030734
X103886Y018161
X105156Y018161
X026500Y011000
X046000Y014500
X070000Y011000
X070000Y004500
X024500Y009500
X023500Y011500
X025500Y013000
X023495Y023114
X024500Y022000
X025527Y020701
X109000Y028000
X034500Y035500
X001500Y032000
X003000Y032000
X004500Y032000
X048514Y016891
X048500Y014000
M30
