G04 Layer: TopLayer*
G04 EasyEDA v6.5.22, 2023-01-26 14:10:14*
G04 b877e135513245ca8f96004f63138494,c6a1bf633b9a4ba285e4988a7d74c357,10*
G04 Gerber Generator version 0.2*
G04 Scale: 100 percent, Rotated: No, Reflected: No *
G04 Dimensions in millimeters *
G04 leading zeros omitted , absolute positions ,4 integer and 5 decimal *
%FSLAX45Y45*%
%MOMM*%

%AMMACRO1*21,1,$1,$2,0,0,$3*%
%ADD10C,0.2000*%
%ADD11C,0.4000*%
%ADD12C,0.1500*%
%ADD13C,0.4500*%
%ADD14C,1.5000*%
%ADD15C,1.0000*%
%ADD16C,0.7500*%
%ADD17C,0.3500*%
%ADD18C,0.5000*%
%ADD19R,12.1996X9.7511*%
%ADD20R,1.6002X3.5001*%
%ADD21R,0.6000X0.7000*%
%ADD22R,1.0000X0.8999*%
%ADD23MACRO1,5.9995X6.4999X90.0000*%
%ADD24R,3.0000X1.6000*%
%ADD25MACRO1,1.6002X3.0023X90.0000*%
%ADD26MACRO1,0.864X0.8065X0.0000*%
%ADD27R,0.8640X0.8065*%
%ADD28R,0.6706X1.3005*%
%ADD29R,10.2997X5.2502*%
%ADD30R,6.2306X5.2502*%
%ADD31O,0.6299962X1.8649950000000002*%
%ADD32R,1.8000X0.4000*%
%ADD33R,1.3000X1.6000*%
%ADD34R,0.9000X0.8000*%
%ADD35C,1.2700*%
%ADD36O,2.5999948X1.9999959999999999*%
%ADD37C,3.0480*%
%ADD38C,3.0000*%
%ADD39C,2.5000*%
%ADD40R,2.2200X2.2200*%
%ADD41C,1.2000*%
%ADD42O,1.7999964X1.1999976*%
%ADD43C,1.5240*%
%ADD44R,3.0000X3.0000*%
%ADD45R,0.0127X3.0000*%

%LPD*%
G36*
X36068Y25908D02*
G01*
X32156Y26670D01*
X28905Y28905D01*
X26670Y32156D01*
X25958Y36068D01*
X25958Y489356D01*
X26670Y493217D01*
X28905Y496519D01*
X32156Y498703D01*
X36068Y499516D01*
X133756Y499516D01*
X137668Y498703D01*
X140970Y496519D01*
X143205Y493217D01*
X143916Y489356D01*
X143916Y440588D01*
X144780Y432206D01*
X147116Y424586D01*
X150774Y417626D01*
X155600Y411784D01*
X157530Y408025D01*
X157835Y403809D01*
X156362Y399897D01*
X153416Y396849D01*
X149250Y394157D01*
X136093Y383997D01*
X133604Y381812D01*
X121564Y370179D01*
X108712Y354736D01*
X106730Y351993D01*
X97739Y337972D01*
X96012Y334975D01*
X88646Y320040D01*
X87325Y316890D01*
X81788Y301193D01*
X80822Y297891D01*
X77012Y281635D01*
X76454Y278333D01*
X74523Y261721D01*
X74371Y241655D01*
X74523Y238252D01*
X76454Y221691D01*
X77012Y218338D01*
X80822Y202082D01*
X81788Y198831D01*
X87325Y183083D01*
X88646Y179984D01*
X96012Y164998D01*
X106730Y148031D01*
X108712Y145288D01*
X121564Y129844D01*
X136093Y115976D01*
X149301Y105816D01*
X152146Y103885D01*
X166420Y95250D01*
X169418Y93675D01*
X187807Y85496D01*
X203606Y80365D01*
X206908Y79502D01*
X223316Y76200D01*
X226669Y75692D01*
X243332Y74269D01*
X246634Y74168D01*
X263398Y74625D01*
X266750Y74930D01*
X283210Y77317D01*
X286562Y77978D01*
X305968Y83261D01*
X321513Y89357D01*
X324561Y90728D01*
X339344Y98552D01*
X342239Y100279D01*
X358749Y111760D01*
X371348Y122732D01*
X373786Y125069D01*
X385064Y137363D01*
X387197Y140004D01*
X397002Y153517D01*
X398830Y156362D01*
X407060Y170891D01*
X408584Y173939D01*
X416204Y192481D01*
X421690Y211836D01*
X424535Y228244D01*
X424891Y231648D01*
X425805Y248310D01*
X425805Y251714D01*
X424891Y268376D01*
X424535Y271729D01*
X421690Y288188D01*
X416204Y307492D01*
X415035Y310692D01*
X408584Y326085D01*
X407060Y329133D01*
X398830Y343662D01*
X397002Y346506D01*
X387197Y360019D01*
X385064Y362610D01*
X373786Y374904D01*
X371348Y377291D01*
X357276Y389382D01*
X354584Y392430D01*
X353364Y396240D01*
X353720Y400253D01*
X355498Y403809D01*
X364947Y411480D01*
X369976Y417626D01*
X373634Y424586D01*
X375970Y432206D01*
X376834Y440588D01*
X376834Y489407D01*
X377545Y493318D01*
X379780Y496620D01*
X383082Y498805D01*
X386994Y499567D01*
X454050Y499567D01*
X462381Y500380D01*
X470001Y502716D01*
X476961Y506425D01*
X483158Y511454D01*
X488188Y517601D01*
X491845Y524611D01*
X494182Y532180D01*
X495046Y540562D01*
X495046Y1485950D01*
X494182Y1494332D01*
X491845Y1501902D01*
X488188Y1508912D01*
X483158Y1515059D01*
X476961Y1520088D01*
X470001Y1523796D01*
X462381Y1526133D01*
X454050Y1526946D01*
X381355Y1526946D01*
X377799Y1527606D01*
X374700Y1529435D01*
X372414Y1532331D01*
X369976Y1536903D01*
X364947Y1543050D01*
X358800Y1548079D01*
X351790Y1551838D01*
X344170Y1554124D01*
X335838Y1554937D01*
X184912Y1554937D01*
X176580Y1554124D01*
X168960Y1551838D01*
X161950Y1548079D01*
X155854Y1543050D01*
X150774Y1536903D01*
X147116Y1529943D01*
X144780Y1522323D01*
X143916Y1513941D01*
X143916Y1455216D01*
X143205Y1451356D01*
X140970Y1448054D01*
X137668Y1445869D01*
X133756Y1445056D01*
X36068Y1445056D01*
X32156Y1445869D01*
X28905Y1448054D01*
X26670Y1451356D01*
X25958Y1455216D01*
X25958Y4763922D01*
X26670Y4767834D01*
X28905Y4771085D01*
X32156Y4773320D01*
X36068Y4774082D01*
X9099702Y4774082D01*
X9169247Y4773066D01*
X9238183Y4770069D01*
X9307118Y4765040D01*
X9375800Y4758029D01*
X9444228Y4748987D01*
X9512452Y4737963D01*
X9580270Y4725009D01*
X9647631Y4710023D01*
X9714636Y4693158D01*
X9781082Y4674311D01*
X9846868Y4653534D01*
X9912146Y4630826D01*
X9976713Y4606290D01*
X10040518Y4579823D01*
X10103459Y4551578D01*
X10165638Y4521454D01*
X10226852Y4489602D01*
X10287152Y4455922D01*
X10346486Y4420514D01*
X10404754Y4383430D01*
X10461802Y4344619D01*
X10517835Y4304182D01*
X10572597Y4262170D01*
X10626191Y4218533D01*
X10678363Y4173372D01*
X10729264Y4126737D01*
X10778845Y4078579D01*
X10826902Y4029049D01*
X10873638Y3978148D01*
X10918748Y3925874D01*
X10962335Y3872331D01*
X11004397Y3817569D01*
X11044834Y3761587D01*
X11083645Y3704437D01*
X11114379Y3656126D01*
X11115852Y3652113D01*
X11115497Y3647795D01*
X11113465Y3644036D01*
X11109960Y3641445D01*
X11105743Y3640531D01*
X10980572Y3640531D01*
X10980572Y3456381D01*
X11177168Y3456381D01*
X11177168Y3509162D01*
X11178184Y3513480D01*
X11180927Y3517036D01*
X11184991Y3519017D01*
X11189462Y3519068D01*
X11193526Y3517239D01*
X11196370Y3513836D01*
X11221618Y3465322D01*
X11251692Y3403142D01*
X11279936Y3340150D01*
X11290808Y3314039D01*
X11291570Y3310128D01*
X11290808Y3306267D01*
X11288623Y3302965D01*
X11285270Y3300780D01*
X11281410Y3299968D01*
X7700670Y3299968D01*
X7696708Y3300780D01*
X7693507Y3302965D01*
X7691272Y3306267D01*
X7690459Y3310128D01*
X7690459Y3356356D01*
X7691018Y3359505D01*
X7692491Y3362401D01*
X7694777Y3364636D01*
X7702143Y3369818D01*
X7715402Y3381400D01*
X7727340Y3394354D01*
X7737856Y3408527D01*
X7746847Y3423665D01*
X7754112Y3439718D01*
X7759649Y3456432D01*
X7763408Y3473653D01*
X7765186Y3491179D01*
X7765186Y3508806D01*
X7763408Y3526332D01*
X7759649Y3543554D01*
X7754112Y3560267D01*
X7746847Y3576320D01*
X7743444Y3582060D01*
X7742072Y3586073D01*
X7742529Y3590290D01*
X7744663Y3593998D01*
X7748066Y3596487D01*
X7752181Y3597351D01*
X9711486Y3597351D01*
X9715550Y3596538D01*
X9718954Y3594100D01*
X9721088Y3590544D01*
X9721646Y3586429D01*
X9720427Y3582415D01*
X9719411Y3580485D01*
X9717125Y3572865D01*
X9716262Y3564483D01*
X9716262Y3484829D01*
X9717125Y3476447D01*
X9719411Y3468878D01*
X9723170Y3461867D01*
X9728149Y3455720D01*
X9734346Y3450691D01*
X9741306Y3446983D01*
X9748875Y3444646D01*
X9757308Y3443833D01*
X9842652Y3443833D01*
X9851085Y3444646D01*
X9858654Y3446983D01*
X9863074Y3449269D01*
X9865360Y3450183D01*
X9867849Y3450488D01*
X9888372Y3450488D01*
X9892080Y3449828D01*
X9895179Y3447846D01*
X9897465Y3444900D01*
X9900920Y3433013D01*
X9904577Y3426053D01*
X9909657Y3419906D01*
X9915804Y3414877D01*
X9922814Y3411118D01*
X9930333Y3408832D01*
X9938715Y3408019D01*
X10237724Y3408019D01*
X10246106Y3408832D01*
X10253726Y3411118D01*
X10260736Y3414877D01*
X10266883Y3419906D01*
X10271861Y3426053D01*
X10275620Y3433013D01*
X10277957Y3440633D01*
X10278770Y3449015D01*
X10278770Y3608019D01*
X10277957Y3616401D01*
X10275620Y3624021D01*
X10271861Y3630980D01*
X10266883Y3637127D01*
X10260736Y3642156D01*
X10253726Y3645915D01*
X10246106Y3648201D01*
X10237724Y3649014D01*
X10115499Y3649014D01*
X10111638Y3649776D01*
X10108336Y3652012D01*
X10088473Y3671824D01*
X10086340Y3674922D01*
X10085527Y3678529D01*
X10086035Y3682237D01*
X10087813Y3685489D01*
X10092131Y3690721D01*
X10095636Y3693464D01*
X10099954Y3694429D01*
X10104374Y3693414D01*
X10107777Y3690721D01*
X10111384Y3686403D01*
X10117531Y3681323D01*
X10124541Y3677615D01*
X10132060Y3675329D01*
X10140442Y3674465D01*
X10148620Y3674465D01*
X10148620Y3726129D01*
X10116870Y3726129D01*
X10112756Y3727043D01*
X10109352Y3729532D01*
X10107218Y3733241D01*
X10106863Y3737457D01*
X10107879Y3747058D01*
X10107422Y3758742D01*
X10106863Y3761790D01*
X10107015Y3766210D01*
X10109047Y3770172D01*
X10112552Y3772865D01*
X10116870Y3773830D01*
X10148620Y3773830D01*
X10148620Y3825494D01*
X10140442Y3825494D01*
X10132060Y3824681D01*
X10124541Y3822395D01*
X10117531Y3818636D01*
X10111384Y3813606D01*
X10107879Y3809288D01*
X10104374Y3806545D01*
X10099954Y3805580D01*
X10095636Y3806545D01*
X10092131Y3809288D01*
X10088626Y3813606D01*
X10082479Y3818636D01*
X10075468Y3822395D01*
X10067848Y3824681D01*
X10059466Y3825494D01*
X10050170Y3825494D01*
X10048240Y3825697D01*
X10038740Y3827475D01*
X10027056Y3827932D01*
X10015474Y3826611D01*
X10010038Y3825494D01*
X10000488Y3825494D01*
X9992106Y3824681D01*
X9984536Y3822395D01*
X9977475Y3818636D01*
X9971379Y3813606D01*
X9966350Y3807460D01*
X9962642Y3800500D01*
X9960051Y3792067D01*
X9959035Y3789832D01*
X9957562Y3787901D01*
X9942880Y3773119D01*
X9937140Y3766159D01*
X9935667Y3764076D01*
X9930892Y3756253D01*
X9929774Y3754018D01*
X9925456Y3743147D01*
X9923272Y3734308D01*
X9922865Y3731818D01*
X9921951Y3719880D01*
X9921951Y3651554D01*
X9921341Y3647998D01*
X9919462Y3644849D01*
X9915804Y3642156D01*
X9909657Y3637127D01*
X9904577Y3630980D01*
X9902545Y3627018D01*
X9899954Y3623970D01*
X9896500Y3622090D01*
X9892588Y3621735D01*
X9888728Y3622852D01*
X9885730Y3625392D01*
X9883851Y3628898D01*
X9883394Y3632809D01*
X9883698Y3635501D01*
X9883698Y3715156D01*
X9882835Y3723538D01*
X9880549Y3731107D01*
X9876790Y3738118D01*
X9871811Y3744264D01*
X9865664Y3749294D01*
X9858654Y3753002D01*
X9851085Y3755339D01*
X9842652Y3756151D01*
X9757308Y3756151D01*
X9748875Y3755339D01*
X9743998Y3753815D01*
X9741052Y3753408D01*
X7700670Y3753408D01*
X7696708Y3754170D01*
X7693507Y3756355D01*
X7691272Y3759657D01*
X7690459Y3763568D01*
X7690459Y4206341D01*
X7691018Y4209542D01*
X7692491Y4212386D01*
X7694777Y4214622D01*
X7702143Y4219803D01*
X7715402Y4231436D01*
X7727340Y4244340D01*
X7737856Y4258513D01*
X7746847Y4273702D01*
X7754112Y4289704D01*
X7759649Y4306468D01*
X7763357Y4323689D01*
X7765186Y4341164D01*
X7765186Y4358792D01*
X7763357Y4376318D01*
X7759649Y4393539D01*
X7754112Y4410252D01*
X7746847Y4426305D01*
X7737856Y4441494D01*
X7727340Y4455617D01*
X7715402Y4468571D01*
X7702143Y4480153D01*
X7687767Y4490313D01*
X7672324Y4498848D01*
X7656118Y4505655D01*
X7639202Y4510786D01*
X7621981Y4514037D01*
X7604404Y4515408D01*
X7586725Y4514951D01*
X7569250Y4512614D01*
X7552232Y4508449D01*
X7535570Y4502454D01*
X7519822Y4494784D01*
X7504836Y4485436D01*
X7491018Y4474565D01*
X7478318Y4462272D01*
X7467092Y4448708D01*
X7457338Y4434027D01*
X7449261Y4418380D01*
X7442809Y4401972D01*
X7438186Y4384954D01*
X7435443Y4367580D01*
X7434427Y4350004D01*
X7435443Y4332376D01*
X7438186Y4315002D01*
X7442809Y4298035D01*
X7449261Y4281627D01*
X7457338Y4265980D01*
X7467092Y4251299D01*
X7478318Y4237736D01*
X7491018Y4225442D01*
X7505547Y4214063D01*
X7507681Y4211828D01*
X7508951Y4209084D01*
X7509408Y4206036D01*
X7509408Y3643934D01*
X7508951Y3640886D01*
X7507681Y3638143D01*
X7505547Y3635908D01*
X7491018Y3624529D01*
X7478318Y3612235D01*
X7467092Y3598672D01*
X7457338Y3583990D01*
X7449312Y3568395D01*
X7442809Y3551986D01*
X7438186Y3534968D01*
X7435443Y3517595D01*
X7434427Y3499967D01*
X7435443Y3482390D01*
X7438186Y3465017D01*
X7442809Y3447999D01*
X7449312Y3431590D01*
X7457338Y3415995D01*
X7467092Y3401314D01*
X7478318Y3387750D01*
X7491018Y3375456D01*
X7505547Y3364077D01*
X7507681Y3361842D01*
X7508951Y3359099D01*
X7509509Y3356051D01*
X7509509Y3310128D01*
X7508697Y3306267D01*
X7506462Y3302965D01*
X7503159Y3300780D01*
X7499299Y3299968D01*
X7350963Y3299968D01*
X7349947Y3299002D01*
X7349947Y2567686D01*
X7349185Y2563774D01*
X7347000Y2560472D01*
X7305040Y2518511D01*
X7301788Y2516327D01*
X7297877Y2515565D01*
X7259675Y2515565D01*
X7255967Y2516276D01*
X7252766Y2518257D01*
X7250531Y2521305D01*
X7249515Y2524912D01*
X7249922Y2528671D01*
X7250734Y2531110D01*
X7251547Y2539492D01*
X7251547Y2760472D01*
X7250734Y2768904D01*
X7248347Y2776474D01*
X7244638Y2783484D01*
X7239609Y2789631D01*
X7233513Y2794660D01*
X7226452Y2798368D01*
X7218883Y2800705D01*
X7210501Y2801518D01*
X7200696Y2801518D01*
X7196785Y2802280D01*
X7193483Y2804464D01*
X7191298Y2807766D01*
X7190536Y2811678D01*
X7190536Y3338322D01*
X7191298Y3342182D01*
X7193483Y3345484D01*
X7196785Y3347720D01*
X7200696Y3348482D01*
X7210501Y3348482D01*
X7218883Y3349294D01*
X7226452Y3351631D01*
X7233513Y3355340D01*
X7239609Y3360369D01*
X7244638Y3366515D01*
X7248347Y3373526D01*
X7250734Y3381095D01*
X7251547Y3389477D01*
X7251547Y3610508D01*
X7250734Y3618890D01*
X7248347Y3626459D01*
X7244638Y3633470D01*
X7239609Y3639616D01*
X7233513Y3644646D01*
X7226452Y3648354D01*
X7218883Y3650691D01*
X7210501Y3651504D01*
X7200696Y3651504D01*
X7196785Y3652265D01*
X7193483Y3654501D01*
X7191298Y3657803D01*
X7190536Y3661664D01*
X7190536Y4188307D01*
X7191298Y4192219D01*
X7193483Y4195521D01*
X7196785Y4197705D01*
X7200696Y4198467D01*
X7210501Y4198467D01*
X7218883Y4199280D01*
X7226452Y4201617D01*
X7233513Y4205325D01*
X7239609Y4210354D01*
X7244638Y4216501D01*
X7248347Y4223512D01*
X7250633Y4231081D01*
X7251547Y4239514D01*
X7251547Y4460494D01*
X7250633Y4468876D01*
X7248347Y4476496D01*
X7244638Y4483455D01*
X7239609Y4489602D01*
X7233513Y4494631D01*
X7226452Y4498390D01*
X7218883Y4500676D01*
X7210501Y4501489D01*
X6989470Y4501489D01*
X6981088Y4500676D01*
X6973468Y4498390D01*
X6966559Y4494631D01*
X6960362Y4489602D01*
X6955332Y4483455D01*
X6951624Y4476496D01*
X6949338Y4468876D01*
X6948525Y4460494D01*
X6948525Y4239514D01*
X6949338Y4231081D01*
X6951624Y4223512D01*
X6955332Y4216501D01*
X6960362Y4210354D01*
X6966559Y4205325D01*
X6973468Y4201617D01*
X6981088Y4199280D01*
X6989470Y4198467D01*
X6999325Y4198467D01*
X7003186Y4197705D01*
X7006488Y4195521D01*
X7008723Y4192219D01*
X7009434Y4188307D01*
X7009434Y3661664D01*
X7008723Y3657803D01*
X7006488Y3654501D01*
X7003186Y3652265D01*
X6999325Y3651504D01*
X6989470Y3651504D01*
X6981088Y3650691D01*
X6973468Y3648354D01*
X6966559Y3644646D01*
X6964172Y3642715D01*
X6961124Y3640988D01*
X6957720Y3640429D01*
X5225288Y3640429D01*
X5221427Y3641191D01*
X5218074Y3643376D01*
X5215890Y3646678D01*
X5215128Y3650589D01*
X5215890Y3654450D01*
X5218074Y3657752D01*
X5354370Y3794150D01*
X5360263Y3801160D01*
X5361736Y3803243D01*
X5367528Y3813301D01*
X5371033Y3821734D01*
X5374081Y3833012D01*
X5375351Y3844594D01*
X5375351Y4043070D01*
X5376011Y4046677D01*
X5377840Y4049776D01*
X5379770Y4051960D01*
X5387340Y4063288D01*
X5393385Y4075480D01*
X5397754Y4088384D01*
X5400395Y4101693D01*
X5401310Y4115308D01*
X5400395Y4128871D01*
X5397754Y4142181D01*
X5393385Y4155084D01*
X5387340Y4167276D01*
X5379770Y4178604D01*
X5370880Y4188815D01*
X5360568Y4197807D01*
X5349341Y4205325D01*
X5337098Y4211370D01*
X5324195Y4215739D01*
X5310835Y4218381D01*
X5297322Y4219295D01*
X5283708Y4218381D01*
X5270347Y4215739D01*
X5257495Y4211370D01*
X5245354Y4205325D01*
X5234025Y4197807D01*
X5223814Y4188815D01*
X5214772Y4178604D01*
X5207254Y4167276D01*
X5201259Y4155084D01*
X5196840Y4142181D01*
X5194147Y4128871D01*
X5193334Y4115308D01*
X5194147Y4101693D01*
X5196840Y4088384D01*
X5201259Y4075480D01*
X5207254Y4063288D01*
X5214772Y4051960D01*
X5216804Y4049674D01*
X5218633Y4046575D01*
X5219293Y4042968D01*
X5219293Y3883863D01*
X5218531Y3879951D01*
X5216347Y3876700D01*
X5120640Y3780993D01*
X5117388Y3778808D01*
X5113528Y3778046D01*
X3146806Y3778046D01*
X3142843Y3778808D01*
X3139541Y3780993D01*
X3137408Y3784295D01*
X3136595Y3788206D01*
X3136595Y4042968D01*
X3137306Y4046524D01*
X3139135Y4049674D01*
X3141167Y4051960D01*
X3148736Y4063288D01*
X3154781Y4075480D01*
X3159150Y4088384D01*
X3161792Y4101693D01*
X3162604Y4115308D01*
X3161792Y4128871D01*
X3159150Y4142181D01*
X3154781Y4155084D01*
X3148736Y4167276D01*
X3141167Y4178604D01*
X3132175Y4188815D01*
X3121964Y4197807D01*
X3110636Y4205325D01*
X3098495Y4211370D01*
X3085592Y4215739D01*
X3072231Y4218381D01*
X3058617Y4219295D01*
X3045104Y4218381D01*
X3031744Y4215739D01*
X3018891Y4211370D01*
X3006648Y4205325D01*
X2995320Y4197807D01*
X2985109Y4188815D01*
X2976168Y4178604D01*
X2968650Y4167276D01*
X2962554Y4155084D01*
X2958236Y4142181D01*
X2955544Y4128871D01*
X2954629Y4115308D01*
X2955544Y4101693D01*
X2958236Y4088384D01*
X2962554Y4075480D01*
X2968650Y4063288D01*
X2976168Y4051960D01*
X2978099Y4049826D01*
X2979928Y4046677D01*
X2980588Y4043121D01*
X2980588Y3788206D01*
X2979775Y3784295D01*
X2977642Y3780993D01*
X2974340Y3778808D01*
X2970377Y3778046D01*
X986434Y3778046D01*
X982522Y3778808D01*
X979220Y3780993D01*
X911707Y3848506D01*
X909574Y3851757D01*
X908812Y3855669D01*
X908812Y4043172D01*
X909421Y4046728D01*
X911250Y4049877D01*
X913180Y4051960D01*
X920699Y4063288D01*
X926744Y4075480D01*
X931113Y4088384D01*
X933754Y4101693D01*
X934669Y4115308D01*
X933754Y4128871D01*
X931113Y4142181D01*
X926744Y4155084D01*
X920699Y4167276D01*
X916482Y4173626D01*
X914908Y4177690D01*
X915162Y4182008D01*
X917143Y4185869D01*
X920648Y4188510D01*
X924915Y4189425D01*
X994765Y4189476D01*
X998982Y4188510D01*
X1002487Y4185869D01*
X1004519Y4182059D01*
X1004722Y4177690D01*
X1003147Y4173626D01*
X998931Y4167276D01*
X992886Y4155084D01*
X988517Y4142181D01*
X985926Y4128871D01*
X985012Y4115308D01*
X985926Y4101693D01*
X988517Y4088384D01*
X992886Y4075480D01*
X998931Y4063288D01*
X1006500Y4051960D01*
X1015441Y4041749D01*
X1025652Y4032808D01*
X1037031Y4025239D01*
X1049172Y4019194D01*
X1062075Y4014825D01*
X1075385Y4012184D01*
X1088948Y4011320D01*
X1102563Y4012184D01*
X1115872Y4014825D01*
X1128776Y4019194D01*
X1141018Y4025239D01*
X1152245Y4032808D01*
X1162558Y4041749D01*
X1171498Y4051960D01*
X1179017Y4063288D01*
X1185011Y4075480D01*
X1189431Y4088384D01*
X1192072Y4101693D01*
X1192936Y4115308D01*
X1192072Y4128871D01*
X1189431Y4142181D01*
X1185011Y4155084D01*
X1179017Y4167276D01*
X1171498Y4178604D01*
X1163015Y4188206D01*
X1161186Y4191355D01*
X1160526Y4194911D01*
X1160526Y4249775D01*
X1160272Y4255008D01*
X1159713Y4259935D01*
X1158697Y4264863D01*
X1157224Y4269587D01*
X1154836Y4275531D01*
X1154074Y4279392D01*
X1154836Y4283252D01*
X1157122Y4286554D01*
X1160424Y4288739D01*
X1164285Y4289501D01*
X3279292Y4289501D01*
X3283204Y4288688D01*
X3286506Y4286504D01*
X3288690Y4283202D01*
X3289452Y4279341D01*
X3289452Y4216603D01*
X3288792Y4212945D01*
X3286760Y4209745D01*
X3283813Y4207510D01*
X3279394Y4205325D01*
X3268065Y4197807D01*
X3257854Y4188815D01*
X3248863Y4178604D01*
X3241294Y4167276D01*
X3235350Y4155084D01*
X3230981Y4142181D01*
X3228340Y4128871D01*
X3227425Y4115308D01*
X3228340Y4101693D01*
X3230981Y4088384D01*
X3235350Y4075480D01*
X3241294Y4063288D01*
X3248863Y4051960D01*
X3257854Y4041749D01*
X3268065Y4032758D01*
X3279394Y4025239D01*
X3291636Y4019194D01*
X3304438Y4014825D01*
X3317798Y4012184D01*
X3331413Y4011269D01*
X3344926Y4012184D01*
X3358286Y4014825D01*
X3371138Y4019194D01*
X3383381Y4025239D01*
X3394710Y4032758D01*
X3404920Y4041749D01*
X3413861Y4051960D01*
X3421481Y4063288D01*
X3427476Y4075480D01*
X3431794Y4088384D01*
X3434486Y4101693D01*
X3435400Y4115308D01*
X3434486Y4128871D01*
X3431794Y4142181D01*
X3427476Y4155084D01*
X3421481Y4167276D01*
X3411118Y4182770D01*
X3410458Y4186326D01*
X3410458Y4349750D01*
X3410254Y4354982D01*
X3409645Y4359910D01*
X3408629Y4364837D01*
X3407257Y4369562D01*
X3404768Y4375607D01*
X3404006Y4379468D01*
X3404819Y4383328D01*
X3407054Y4386630D01*
X3410356Y4388815D01*
X3414217Y4389577D01*
X5479338Y4389526D01*
X5483250Y4388713D01*
X5486552Y4386529D01*
X5488736Y4383227D01*
X5489498Y4379366D01*
X5489600Y4181297D01*
X5489092Y4178350D01*
X5487822Y4175658D01*
X5482285Y4167276D01*
X5476240Y4155084D01*
X5471820Y4142181D01*
X5469229Y4128871D01*
X5468315Y4115308D01*
X5469229Y4101693D01*
X5471820Y4088384D01*
X5476240Y4075480D01*
X5482285Y4063288D01*
X5489752Y4051960D01*
X5498795Y4041749D01*
X5509006Y4032758D01*
X5520334Y4025239D01*
X5532475Y4019194D01*
X5545429Y4014825D01*
X5558688Y4012184D01*
X5572302Y4011269D01*
X5585917Y4012184D01*
X5599176Y4014825D01*
X5612079Y4019194D01*
X5624322Y4025239D01*
X5635650Y4032758D01*
X5645861Y4041749D01*
X5654852Y4051960D01*
X5662320Y4063288D01*
X5668365Y4075480D01*
X5672785Y4088384D01*
X5675376Y4101693D01*
X5676290Y4115308D01*
X5675376Y4128871D01*
X5672785Y4142181D01*
X5668365Y4155084D01*
X5662320Y4167276D01*
X5654852Y4178604D01*
X5645861Y4188815D01*
X5635650Y4197807D01*
X5624322Y4205325D01*
X5616194Y4209338D01*
X5613247Y4211574D01*
X5611215Y4214723D01*
X5610606Y4218432D01*
X5610504Y4449775D01*
X5610301Y4454956D01*
X5609691Y4459986D01*
X5608675Y4464812D01*
X5607202Y4469638D01*
X5605424Y4474260D01*
X5603240Y4478782D01*
X5600649Y4483049D01*
X5597702Y4487164D01*
X5594502Y4490923D01*
X5590997Y4494530D01*
X5587136Y4497730D01*
X5583072Y4500676D01*
X5578856Y4503166D01*
X5574233Y4505401D01*
X5569712Y4507230D01*
X5564835Y4508652D01*
X5559958Y4509668D01*
X5554929Y4510278D01*
X5549849Y4510481D01*
X600151Y4510582D01*
X590143Y4509820D01*
X580440Y4507382D01*
X573125Y4504334D01*
X571246Y4503369D01*
X564489Y4499203D01*
X556869Y4492650D01*
X107492Y4042968D01*
X100888Y4035298D01*
X95808Y4026763D01*
X92710Y4019448D01*
X90271Y4009745D01*
X89560Y3999687D01*
X89560Y3271520D01*
X88646Y3267405D01*
X86207Y3264001D01*
X84886Y3262833D01*
X76809Y3253181D01*
X70104Y3242462D01*
X64922Y3230930D01*
X61467Y3218789D01*
X59740Y3206292D01*
X59740Y3193694D01*
X61467Y3181197D01*
X64922Y3169056D01*
X70104Y3157524D01*
X76809Y3146806D01*
X84886Y3137154D01*
X94335Y3128670D01*
X104800Y3121609D01*
X116078Y3116072D01*
X128117Y3112211D01*
X140512Y3109976D01*
X153111Y3109569D01*
X165760Y3110890D01*
X178003Y3113938D01*
X189687Y3118662D01*
X200558Y3124962D01*
X210566Y3132734D01*
X217678Y3140151D01*
X221183Y3142538D01*
X225399Y3143250D01*
X229463Y3142234D01*
X232765Y3139643D01*
X234899Y3137154D01*
X244297Y3128670D01*
X254711Y3121609D01*
X266090Y3116072D01*
X278130Y3112211D01*
X290525Y3109976D01*
X303123Y3109569D01*
X315722Y3110890D01*
X327964Y3113938D01*
X339699Y3118662D01*
X350570Y3124962D01*
X360578Y3132734D01*
X367690Y3140151D01*
X371195Y3142538D01*
X375361Y3143250D01*
X379425Y3142234D01*
X382778Y3139643D01*
X384860Y3137154D01*
X394309Y3128670D01*
X404723Y3121609D01*
X416051Y3116072D01*
X428142Y3112211D01*
X440537Y3109976D01*
X453135Y3109569D01*
X465734Y3110890D01*
X477977Y3113938D01*
X489661Y3118662D01*
X500583Y3124962D01*
X510590Y3132734D01*
X519328Y3141827D01*
X526745Y3152038D01*
X532688Y3163163D01*
X537006Y3175050D01*
X539597Y3187395D01*
X540461Y3199993D01*
X539597Y3212592D01*
X537006Y3224936D01*
X532688Y3236823D01*
X531520Y3239008D01*
X530301Y3242868D01*
X530758Y3246882D01*
X532688Y3250387D01*
X535889Y3252876D01*
X539699Y3253943D01*
X543763Y3253435D01*
X545388Y3252825D01*
X558698Y3250184D01*
X572312Y3249320D01*
X584962Y3250133D01*
X589280Y3249523D01*
X592836Y3247186D01*
X696569Y3143504D01*
X698754Y3140202D01*
X699516Y3136290D01*
X698754Y3132429D01*
X696569Y3129127D01*
X693267Y3126943D01*
X689356Y3126130D01*
X638200Y3126130D01*
X629869Y3125317D01*
X622249Y3123031D01*
X615238Y3119272D01*
X609142Y3114243D01*
X604062Y3108096D01*
X600405Y3101136D01*
X598068Y3093516D01*
X597204Y3085134D01*
X597204Y2956102D01*
X598068Y2947670D01*
X600405Y2940100D01*
X604062Y2933090D01*
X609142Y2926994D01*
X615238Y2921965D01*
X622249Y2918206D01*
X629869Y2915920D01*
X638200Y2915056D01*
X704291Y2915056D01*
X712724Y2915920D01*
X719124Y2917850D01*
X722122Y2918307D01*
X725068Y2917850D01*
X731469Y2915920D01*
X739800Y2915056D01*
X783742Y2915056D01*
X787654Y2914294D01*
X790956Y2912110D01*
X793089Y2908808D01*
X793902Y2904896D01*
X793902Y2742488D01*
X793089Y2738577D01*
X790956Y2735275D01*
X787654Y2733090D01*
X783742Y2732328D01*
X442976Y2732328D01*
X439318Y2733040D01*
X436067Y2735021D01*
X433882Y2738069D01*
X429717Y2746552D01*
X419760Y2762961D01*
X408127Y2778302D01*
X395020Y2792374D01*
X380644Y2805125D01*
X365048Y2816352D01*
X348386Y2825953D01*
X330860Y2833878D01*
X312572Y2839974D01*
X293827Y2844292D01*
X274777Y2846679D01*
X255574Y2847136D01*
X236321Y2845714D01*
X217474Y2842361D01*
X198932Y2837180D01*
X181000Y2830118D01*
X163880Y2821381D01*
X147777Y2810916D01*
X132689Y2798927D01*
X118922Y2785516D01*
X106629Y2770784D01*
X95758Y2754884D01*
X86563Y2738018D01*
X79044Y2720289D01*
X73456Y2701899D01*
X69596Y2683052D01*
X67665Y2663901D01*
X67665Y2644698D01*
X69596Y2625547D01*
X73456Y2606700D01*
X79044Y2588310D01*
X86563Y2570581D01*
X95758Y2553716D01*
X106629Y2537815D01*
X118922Y2523083D01*
X132689Y2509672D01*
X147777Y2497683D01*
X163880Y2487218D01*
X181000Y2478481D01*
X198932Y2471420D01*
X217474Y2466238D01*
X236321Y2462885D01*
X255574Y2461463D01*
X274777Y2461920D01*
X293827Y2464308D01*
X312572Y2468626D01*
X330860Y2474722D01*
X351536Y2484069D01*
X354177Y2484424D01*
X806704Y2484424D01*
X810564Y2483662D01*
X813866Y2481478D01*
X816000Y2478176D01*
X816864Y2474264D01*
X816864Y2154072D01*
X817625Y2145690D01*
X819912Y2138121D01*
X823721Y2131110D01*
X827735Y2126132D01*
X829614Y2122779D01*
X830071Y2119020D01*
X829106Y2115312D01*
X826820Y2112264D01*
X823671Y2110232D01*
X819912Y2109520D01*
X644702Y2109520D01*
X636320Y2108708D01*
X628751Y2106371D01*
X621741Y2102662D01*
X615645Y2097633D01*
X610616Y2091486D01*
X606856Y2084476D01*
X604520Y2076907D01*
X603758Y2068525D01*
X603758Y1544472D01*
X604520Y1536090D01*
X606856Y1528521D01*
X610616Y1521510D01*
X615645Y1515364D01*
X621741Y1510334D01*
X628751Y1506575D01*
X636320Y1504289D01*
X644702Y1503476D01*
X1083513Y1503476D01*
X1087374Y1502714D01*
X1090676Y1500479D01*
X1092911Y1497177D01*
X1093622Y1493316D01*
X1093622Y718566D01*
X1092708Y714248D01*
X1089964Y710742D01*
X1088644Y709625D01*
X1075232Y695858D01*
X1063244Y680872D01*
X1052880Y664718D01*
X1045971Y651256D01*
X1043940Y648512D01*
X1041095Y646633D01*
X1037691Y645769D01*
X1029919Y644906D01*
X1018692Y641959D01*
X1010259Y638454D01*
X1007973Y637286D01*
X1000150Y632612D01*
X998118Y631139D01*
X991108Y625297D01*
X800455Y434797D01*
X797204Y432562D01*
X793292Y431800D01*
X772820Y431800D01*
X764387Y430987D01*
X756869Y428650D01*
X749858Y424942D01*
X743661Y419912D01*
X738682Y413766D01*
X734923Y406755D01*
X732586Y399186D01*
X731824Y390804D01*
X731824Y301802D01*
X732586Y293420D01*
X734923Y285800D01*
X738682Y278790D01*
X743661Y272694D01*
X748030Y269138D01*
X750722Y265633D01*
X751687Y261264D01*
X750722Y256946D01*
X748030Y253441D01*
X743661Y249885D01*
X738682Y243789D01*
X734923Y236778D01*
X732586Y229158D01*
X731824Y220776D01*
X731824Y131775D01*
X732586Y123393D01*
X734923Y115824D01*
X738682Y108813D01*
X743661Y102666D01*
X749858Y97637D01*
X756869Y93929D01*
X764387Y91592D01*
X772820Y90779D01*
X871778Y90779D01*
X880160Y91592D01*
X887780Y93929D01*
X893724Y97078D01*
X896061Y97993D01*
X898550Y98298D01*
X2046122Y98298D01*
X2048611Y97993D01*
X2050897Y97078D01*
X2056790Y93929D01*
X2064461Y91643D01*
X2072792Y90779D01*
X2094433Y90779D01*
X2097735Y90271D01*
X2100630Y88696D01*
X2104644Y85547D01*
X2112314Y80924D01*
X2122982Y76301D01*
X2125472Y75488D01*
X2134311Y73304D01*
X2136800Y72898D01*
X2145893Y72034D01*
X2252726Y72034D01*
X2261768Y72898D01*
X2264308Y73304D01*
X2273147Y75488D01*
X2284018Y79806D01*
X2286304Y80924D01*
X2294128Y85648D01*
X2296160Y87122D01*
X2303170Y92964D01*
X2357069Y146812D01*
X2362911Y153822D01*
X2364384Y155905D01*
X2369058Y163728D01*
X2373731Y174396D01*
X2376678Y185674D01*
X2377135Y188214D01*
X2377998Y197256D01*
X2377897Y452577D01*
X2376627Y464210D01*
X2374392Y473303D01*
X2373680Y475488D01*
X2369058Y486206D01*
X2362911Y496062D01*
X2356916Y503326D01*
X2303272Y557174D01*
X2296464Y562864D01*
X2294229Y564489D01*
X2286609Y569061D01*
X2284120Y570331D01*
X2275941Y573735D01*
X2273249Y574598D01*
X2264613Y576783D01*
X2261920Y577240D01*
X2253081Y578104D01*
X2214524Y578154D01*
X2210409Y579069D01*
X2206904Y581609D01*
X2204872Y585368D01*
X2202942Y591769D01*
X2199182Y598779D01*
X2194204Y604875D01*
X2192477Y607872D01*
X2191816Y611276D01*
X2192477Y614730D01*
X2194204Y617728D01*
X2199182Y623824D01*
X2202942Y630834D01*
X2205228Y638403D01*
X2205990Y646785D01*
X2205990Y726440D01*
X2205228Y734822D01*
X2202942Y742442D01*
X2199182Y749401D01*
X2194102Y755548D01*
X2187956Y760577D01*
X2181047Y764336D01*
X2173427Y766622D01*
X2165045Y767435D01*
X2079650Y767435D01*
X2071268Y766622D01*
X2066086Y765098D01*
X2063140Y764641D01*
X1843582Y764590D01*
X1834438Y763727D01*
X1832000Y763320D01*
X1823059Y761136D01*
X1820672Y760323D01*
X1812289Y756818D01*
X1810054Y755700D01*
X1801723Y750671D01*
X1797659Y749249D01*
X1793493Y749655D01*
X1775460Y755192D01*
X1756613Y759002D01*
X1737461Y760882D01*
X1718310Y760882D01*
X1699158Y759002D01*
X1680311Y755192D01*
X1664106Y750214D01*
X1660347Y749757D01*
X1656740Y750773D01*
X1653692Y753008D01*
X1651711Y756208D01*
X1650949Y759917D01*
X1650949Y1493316D01*
X1651762Y1497177D01*
X1653997Y1500479D01*
X1657299Y1502714D01*
X1661160Y1503476D01*
X2099868Y1503476D01*
X2108250Y1504289D01*
X2115870Y1506575D01*
X2122881Y1510334D01*
X2129028Y1515364D01*
X2134006Y1521510D01*
X2137765Y1528521D01*
X2140102Y1536090D01*
X2140915Y1544472D01*
X2140915Y2068525D01*
X2140102Y2076907D01*
X2137765Y2084476D01*
X2134006Y2091486D01*
X2129028Y2097633D01*
X2122881Y2102662D01*
X2115870Y2106371D01*
X2108250Y2108708D01*
X2099868Y2109520D01*
X1924659Y2109520D01*
X1920951Y2110232D01*
X1917750Y2112264D01*
X1915515Y2115312D01*
X1914601Y2119020D01*
X1915058Y2122779D01*
X1916836Y2126132D01*
X1920951Y2131110D01*
X1924659Y2138121D01*
X1926945Y2145690D01*
X1927860Y2154072D01*
X1927860Y2324303D01*
X1928622Y2328214D01*
X1930806Y2331516D01*
X1934108Y2333701D01*
X1937969Y2334463D01*
X2249881Y2334463D01*
X2254097Y2333548D01*
X2257602Y2331008D01*
X2259634Y2327198D01*
X2259990Y2322880D01*
X2259279Y2317699D01*
X2259279Y2305100D01*
X2261006Y2292604D01*
X2264511Y2280462D01*
X2269591Y2268931D01*
X2276297Y2258212D01*
X2284374Y2248560D01*
X2288641Y2244750D01*
X2291130Y2241296D01*
X2292045Y2237181D01*
X2292045Y1223772D01*
X2291130Y1219606D01*
X2288641Y1216202D01*
X2284933Y1212850D01*
X2276754Y1203198D01*
X2270048Y1192479D01*
X2264968Y1180947D01*
X2261463Y1168806D01*
X2259736Y1156309D01*
X2259736Y1143660D01*
X2261463Y1131163D01*
X2264968Y1119073D01*
X2270048Y1107490D01*
X2276754Y1096822D01*
X2284933Y1087120D01*
X2294331Y1078687D01*
X2304745Y1071626D01*
X2316124Y1066088D01*
X2328113Y1062177D01*
X2340508Y1059992D01*
X2353157Y1059586D01*
X2365756Y1060907D01*
X2377998Y1063955D01*
X2381859Y1064717D01*
X2385822Y1063904D01*
X2389022Y1061720D01*
X2391257Y1058418D01*
X2391968Y1054557D01*
X2391968Y1023772D01*
X2391156Y1019606D01*
X2388666Y1016203D01*
X2384907Y1012850D01*
X2376779Y1003198D01*
X2370074Y992479D01*
X2364994Y980948D01*
X2361488Y968806D01*
X2359761Y956310D01*
X2359761Y943660D01*
X2361488Y931164D01*
X2364994Y919073D01*
X2370074Y907491D01*
X2376779Y896823D01*
X2384907Y887120D01*
X2394254Y878687D01*
X2404770Y871626D01*
X2416098Y866089D01*
X2428138Y862177D01*
X2440584Y859993D01*
X2453182Y859586D01*
X2465679Y860907D01*
X2477922Y863955D01*
X2489708Y868680D01*
X2500579Y874979D01*
X2510586Y882751D01*
X2519324Y891844D01*
X2526690Y902055D01*
X2532684Y913180D01*
X2537002Y925068D01*
X2539593Y937412D01*
X2540508Y950010D01*
X2539593Y962609D01*
X2537002Y974953D01*
X2532684Y986790D01*
X2526690Y997966D01*
X2519324Y1008176D01*
X2510891Y1016914D01*
X2508758Y1020165D01*
X2507996Y1023975D01*
X2507996Y1204722D01*
X2508758Y1208481D01*
X2510790Y1211681D01*
X2513888Y1213916D01*
X2517495Y1214882D01*
X2521356Y1214424D01*
X2528062Y1212189D01*
X2540508Y1210005D01*
X2553106Y1209548D01*
X2565704Y1210868D01*
X2577947Y1213916D01*
X2589631Y1218692D01*
X2600604Y1224991D01*
X2610561Y1232763D01*
X2619298Y1241856D01*
X2626715Y1252067D01*
X2632710Y1263192D01*
X2637028Y1275080D01*
X2639618Y1287424D01*
X2640533Y1299972D01*
X2639618Y1312570D01*
X2637028Y1324914D01*
X2632710Y1336802D01*
X2626715Y1347927D01*
X2619298Y1358138D01*
X2610916Y1366926D01*
X2608783Y1370177D01*
X2608072Y1373936D01*
X2608072Y1993798D01*
X2608529Y1996846D01*
X2609799Y1999589D01*
X2613202Y2002840D01*
X2622042Y2011934D01*
X2629408Y2022144D01*
X2635402Y2033270D01*
X2639720Y2045157D01*
X2642311Y2057501D01*
X2643225Y2070100D01*
X2642311Y2082698D01*
X2639720Y2095042D01*
X2635402Y2106930D01*
X2629408Y2118055D01*
X2622042Y2128266D01*
X2613202Y2137359D01*
X2603347Y2145131D01*
X2592324Y2151430D01*
X2580640Y2156155D01*
X2568397Y2159203D01*
X2555900Y2160524D01*
X2546400Y2160219D01*
X2542540Y2160828D01*
X2539238Y2162911D01*
X2536901Y2166112D01*
X2535986Y2169922D01*
X2539593Y2187397D01*
X2540508Y2199995D01*
X2539593Y2212594D01*
X2537002Y2224938D01*
X2532684Y2236825D01*
X2526792Y2247950D01*
X2519324Y2258161D01*
X2510586Y2267254D01*
X2500579Y2275027D01*
X2489708Y2281326D01*
X2477922Y2286050D01*
X2465679Y2289098D01*
X2453182Y2290419D01*
X2449779Y2290318D01*
X2445613Y2291029D01*
X2442108Y2293416D01*
X2439822Y2296972D01*
X2439263Y2301189D01*
X2440025Y2311400D01*
X2439162Y2323592D01*
X2439720Y2327706D01*
X2441854Y2331262D01*
X2445258Y2333650D01*
X2449220Y2334463D01*
X3056686Y2334463D01*
X3060547Y2333701D01*
X3063798Y2331516D01*
X3066084Y2328214D01*
X3066796Y2324303D01*
X3066796Y2154072D01*
X3067659Y2145690D01*
X3069945Y2138070D01*
X3073704Y2131110D01*
X3077768Y2126132D01*
X3079597Y2122779D01*
X3080054Y2119020D01*
X3079140Y2115312D01*
X3076854Y2112264D01*
X3073654Y2110232D01*
X3069945Y2109520D01*
X2894736Y2109520D01*
X2886354Y2108657D01*
X2878785Y2106371D01*
X2871724Y2102662D01*
X2865628Y2097582D01*
X2860598Y2091486D01*
X2856788Y2084476D01*
X2854502Y2076907D01*
X2853690Y2068474D01*
X2853690Y1544472D01*
X2854502Y1536090D01*
X2856788Y1528470D01*
X2860598Y1521510D01*
X2865628Y1515364D01*
X2871724Y1510334D01*
X2878785Y1506575D01*
X2886354Y1504289D01*
X2894736Y1503476D01*
X3333445Y1503476D01*
X3337407Y1502714D01*
X3340709Y1500479D01*
X3342894Y1497177D01*
X3343656Y1493316D01*
X3343656Y776020D01*
X3342894Y772160D01*
X3340709Y768858D01*
X3337458Y766673D01*
X3320338Y759460D01*
X3303422Y750265D01*
X3287522Y739394D01*
X3272790Y727049D01*
X3259328Y713282D01*
X3247390Y698246D01*
X3236976Y682091D01*
X3228136Y664972D01*
X3225393Y660247D01*
X3221990Y658012D01*
X3214319Y654710D01*
X3206496Y649986D01*
X3197402Y642721D01*
X2978099Y423468D01*
X2974898Y421284D01*
X2970936Y420522D01*
X2950514Y420522D01*
X2942132Y419658D01*
X2934462Y417372D01*
X2927502Y413613D01*
X2921406Y408584D01*
X2916377Y402488D01*
X2912567Y395478D01*
X2910281Y387858D01*
X2909468Y379476D01*
X2909468Y290474D01*
X2910281Y282092D01*
X2912567Y274523D01*
X2916377Y267512D01*
X2921406Y261366D01*
X2925724Y257860D01*
X2928416Y254355D01*
X2929432Y249986D01*
X2928416Y245668D01*
X2925724Y242112D01*
X2921406Y238607D01*
X2916377Y232460D01*
X2912567Y225450D01*
X2910281Y217881D01*
X2909468Y209499D01*
X2909468Y120497D01*
X2910281Y112115D01*
X2912567Y104495D01*
X2916377Y97536D01*
X2921406Y91389D01*
X2927502Y86360D01*
X2934462Y82600D01*
X2942132Y80314D01*
X2950514Y79502D01*
X3049524Y79502D01*
X3057906Y80314D01*
X3065526Y82600D01*
X3071418Y85801D01*
X3073704Y86664D01*
X3076194Y86969D01*
X4223816Y86969D01*
X4226306Y86664D01*
X4228592Y85801D01*
X4234484Y82651D01*
X4242104Y80314D01*
X4250486Y79502D01*
X4279849Y79502D01*
X4283811Y78689D01*
X4291838Y75488D01*
X4300728Y73304D01*
X4303217Y72898D01*
X4312259Y72034D01*
X4402734Y72034D01*
X4411827Y72898D01*
X4414316Y73304D01*
X4423156Y75488D01*
X4434027Y79806D01*
X4436313Y80924D01*
X4444136Y85648D01*
X4453229Y92964D01*
X4507077Y146812D01*
X4512868Y153822D01*
X4514342Y155905D01*
X4520234Y165963D01*
X4524451Y176834D01*
X4526686Y185674D01*
X4527143Y188163D01*
X4527956Y197256D01*
X4527956Y452729D01*
X4527143Y461822D01*
X4526686Y464312D01*
X4524451Y473151D01*
X4520234Y484022D01*
X4514342Y494080D01*
X4512868Y496163D01*
X4507077Y503174D01*
X4428490Y581710D01*
X4421479Y587552D01*
X4419447Y589026D01*
X4411624Y593699D01*
X4409338Y594868D01*
X4400956Y598373D01*
X4389729Y601319D01*
X4386427Y601878D01*
X4382820Y603199D01*
X4379976Y605739D01*
X4378248Y609193D01*
X4377944Y613003D01*
X4379061Y616661D01*
X4380534Y619506D01*
X4382922Y627126D01*
X4383735Y635508D01*
X4383735Y715162D01*
X4382922Y723544D01*
X4380534Y731113D01*
X4376877Y738124D01*
X4371797Y744270D01*
X4365701Y749300D01*
X4358640Y753008D01*
X4351070Y755345D01*
X4342688Y756158D01*
X4257294Y756158D01*
X4248912Y755345D01*
X4243781Y753770D01*
X4240834Y753364D01*
X4009491Y753364D01*
X4007002Y753668D01*
X4004614Y754583D01*
X3995674Y759460D01*
X3977995Y766927D01*
X3959606Y772566D01*
X3940708Y776376D01*
X3921658Y778306D01*
X3911193Y778306D01*
X3907231Y779068D01*
X3903929Y781304D01*
X3901795Y784555D01*
X3900982Y788466D01*
X3900982Y1493316D01*
X3901795Y1497177D01*
X3903929Y1500479D01*
X3907231Y1502714D01*
X3911193Y1503476D01*
X4349902Y1503476D01*
X4358335Y1504289D01*
X4365904Y1506575D01*
X4372914Y1510334D01*
X4379061Y1515364D01*
X4384040Y1521510D01*
X4387799Y1528470D01*
X4390085Y1536090D01*
X4390948Y1544472D01*
X4390948Y2068474D01*
X4390085Y2076907D01*
X4387799Y2084476D01*
X4384040Y2091486D01*
X4379061Y2097582D01*
X4372914Y2102662D01*
X4365904Y2106371D01*
X4358335Y2108657D01*
X4349902Y2109520D01*
X4174744Y2109520D01*
X4170984Y2110232D01*
X4167784Y2112264D01*
X4165549Y2115312D01*
X4164533Y2119020D01*
X4164990Y2122779D01*
X4166819Y2126132D01*
X4170984Y2131110D01*
X4174642Y2138070D01*
X4176979Y2145690D01*
X4177792Y2154072D01*
X4177792Y2290419D01*
X4178604Y2294280D01*
X4180738Y2297582D01*
X4184040Y2299817D01*
X4188002Y2300579D01*
X5306618Y2300579D01*
X5310581Y2299817D01*
X5313781Y2297582D01*
X5316016Y2294280D01*
X5316829Y2290419D01*
X5316829Y2154072D01*
X5317591Y2145690D01*
X5319979Y2138121D01*
X5323636Y2131110D01*
X5327802Y2126132D01*
X5329631Y2122779D01*
X5330088Y2119020D01*
X5329072Y2115312D01*
X5326888Y2112264D01*
X5323636Y2110232D01*
X5319877Y2109520D01*
X5144668Y2109520D01*
X5136286Y2108708D01*
X5128717Y2106371D01*
X5121757Y2102662D01*
X5115560Y2097633D01*
X5110581Y2091486D01*
X5106822Y2084476D01*
X5104536Y2076907D01*
X5103723Y2068525D01*
X5103723Y1544472D01*
X5104536Y1536090D01*
X5106822Y1528521D01*
X5110581Y1521510D01*
X5115560Y1515364D01*
X5121757Y1510334D01*
X5128717Y1506575D01*
X5136286Y1504289D01*
X5144668Y1503476D01*
X5583428Y1503476D01*
X5587390Y1502714D01*
X5590641Y1500479D01*
X5592826Y1497177D01*
X5593638Y1493316D01*
X5593638Y787450D01*
X5592927Y783793D01*
X5590997Y780592D01*
X5588050Y778357D01*
X5584444Y777341D01*
X5575249Y776376D01*
X5556402Y772566D01*
X5538063Y766927D01*
X5520334Y759460D01*
X5503367Y750265D01*
X5487466Y739394D01*
X5472734Y727049D01*
X5459374Y713282D01*
X5447334Y698246D01*
X5436920Y682091D01*
X5428183Y664972D01*
X5425440Y660247D01*
X5422036Y658012D01*
X5414314Y654710D01*
X5406491Y649986D01*
X5397449Y642721D01*
X5178145Y423468D01*
X5174843Y421284D01*
X5170982Y420522D01*
X5150459Y420522D01*
X5142077Y419658D01*
X5134508Y417372D01*
X5127548Y413613D01*
X5121351Y408584D01*
X5116322Y402488D01*
X5112613Y395478D01*
X5110327Y387858D01*
X5109514Y379476D01*
X5109514Y290474D01*
X5110327Y282092D01*
X5112613Y274523D01*
X5116322Y267512D01*
X5121351Y261366D01*
X5125669Y257860D01*
X5128463Y254355D01*
X5129377Y249986D01*
X5128463Y245668D01*
X5125669Y242112D01*
X5121351Y238607D01*
X5116322Y232460D01*
X5112613Y225450D01*
X5110327Y217881D01*
X5109514Y209499D01*
X5109514Y120497D01*
X5110327Y112115D01*
X5112613Y104495D01*
X5116322Y97536D01*
X5121351Y91389D01*
X5127548Y86360D01*
X5134508Y82600D01*
X5142077Y80314D01*
X5150459Y79502D01*
X5249468Y79502D01*
X5257850Y80314D01*
X5265470Y82600D01*
X5271363Y85801D01*
X5273751Y86664D01*
X5276240Y86969D01*
X6423761Y86969D01*
X6426250Y86664D01*
X6428638Y85801D01*
X6434531Y82651D01*
X6442100Y80314D01*
X6450533Y79502D01*
X6549491Y79502D01*
X6557924Y80314D01*
X6565493Y82651D01*
X6571386Y85801D01*
X6573672Y86664D01*
X6576161Y86969D01*
X6617766Y87020D01*
X6626758Y87884D01*
X6629349Y88341D01*
X6638188Y90525D01*
X6640575Y91287D01*
X6648958Y94792D01*
X6651244Y95961D01*
X6659067Y100634D01*
X6661200Y102108D01*
X6668211Y107950D01*
X6707022Y146812D01*
X6712915Y153822D01*
X6719062Y163728D01*
X6720179Y165963D01*
X6723684Y174396D01*
X6724497Y176834D01*
X6727088Y188163D01*
X6728002Y200101D01*
X6727901Y452729D01*
X6727088Y461822D01*
X6724497Y473151D01*
X6723684Y475589D01*
X6720179Y484022D01*
X6719062Y486257D01*
X6712915Y496163D01*
X6707022Y503174D01*
X6653174Y557072D01*
X6644081Y564337D01*
X6636258Y569061D01*
X6625590Y573684D01*
X6623202Y574497D01*
X6614261Y576681D01*
X6611772Y577088D01*
X6602831Y577951D01*
X6587947Y578002D01*
X6584340Y578662D01*
X6581241Y580542D01*
X6579006Y583387D01*
X6576822Y587502D01*
X6571843Y593547D01*
X6570167Y596595D01*
X6569557Y599998D01*
X6570167Y603402D01*
X6571843Y606450D01*
X6576822Y612495D01*
X6580581Y619506D01*
X6582867Y627126D01*
X6583730Y635508D01*
X6583730Y715162D01*
X6582867Y723544D01*
X6580581Y731113D01*
X6576822Y738124D01*
X6571843Y744270D01*
X6565696Y749300D01*
X6558686Y753008D01*
X6551117Y755345D01*
X6542735Y756158D01*
X6457238Y756158D01*
X6448907Y755345D01*
X6443827Y753770D01*
X6440881Y753364D01*
X6209436Y753364D01*
X6206947Y753668D01*
X6204559Y754583D01*
X6195720Y759460D01*
X6177940Y766927D01*
X6159093Y772668D01*
X6155944Y773938D01*
X6153302Y776224D01*
X6151524Y779221D01*
X6150965Y782624D01*
X6150965Y1493316D01*
X6151727Y1497177D01*
X6153912Y1500479D01*
X6157264Y1502714D01*
X6161125Y1503476D01*
X6599885Y1503476D01*
X6608267Y1504289D01*
X6615836Y1506575D01*
X6622897Y1510334D01*
X6628993Y1515364D01*
X6634073Y1521510D01*
X6637731Y1528521D01*
X6640118Y1536090D01*
X6640931Y1544472D01*
X6640931Y2068525D01*
X6640118Y2076907D01*
X6637731Y2084476D01*
X6634073Y2091486D01*
X6628993Y2097633D01*
X6622897Y2102662D01*
X6615836Y2106371D01*
X6608267Y2108708D01*
X6599885Y2109520D01*
X6424676Y2109520D01*
X6420916Y2110232D01*
X6417767Y2112264D01*
X6415481Y2115312D01*
X6414566Y2119020D01*
X6415024Y2122779D01*
X6416852Y2126132D01*
X6420916Y2131110D01*
X6424676Y2138121D01*
X6426962Y2145690D01*
X6427825Y2154072D01*
X6427825Y2274366D01*
X6428536Y2278278D01*
X6430772Y2281580D01*
X6434074Y2283764D01*
X6437934Y2284526D01*
X7339838Y2284526D01*
X7343698Y2283764D01*
X7347000Y2281580D01*
X7349185Y2278278D01*
X7349947Y2274366D01*
X7349947Y2226970D01*
X7349185Y2223058D01*
X7347000Y2219807D01*
X7343698Y2217572D01*
X7339838Y2216810D01*
X7320229Y2216810D01*
X7304278Y2215896D01*
X7288733Y2213254D01*
X7273544Y2208885D01*
X7259015Y2202891D01*
X7245197Y2195271D01*
X7232345Y2186127D01*
X7220661Y2175662D01*
X7210145Y2163876D01*
X7201052Y2151024D01*
X7193381Y2137257D01*
X7187336Y2122678D01*
X7183018Y2107539D01*
X7180325Y2092045D01*
X7179513Y2076297D01*
X7180325Y2060549D01*
X7183018Y2045055D01*
X7187336Y2029917D01*
X7193381Y2015337D01*
X7201052Y2001570D01*
X7210145Y1988718D01*
X7220661Y1976932D01*
X7232345Y1966468D01*
X7241082Y1960321D01*
X7243724Y1957527D01*
X7245197Y1953920D01*
X7245197Y1950110D01*
X7243724Y1946503D01*
X7241082Y1943709D01*
X7232345Y1937562D01*
X7220661Y1927098D01*
X7210145Y1915363D01*
X7201052Y1902510D01*
X7193381Y1888693D01*
X7187336Y1874164D01*
X7183018Y1859025D01*
X7180325Y1843481D01*
X7179513Y1827733D01*
X7180325Y1811985D01*
X7183018Y1796491D01*
X7187336Y1781352D01*
X7193381Y1766773D01*
X7201052Y1753006D01*
X7210145Y1740154D01*
X7220661Y1728419D01*
X7232345Y1717903D01*
X7241082Y1711756D01*
X7243724Y1708962D01*
X7245197Y1705406D01*
X7245197Y1701546D01*
X7243724Y1697939D01*
X7241082Y1695196D01*
X7232345Y1689049D01*
X7220661Y1678533D01*
X7210145Y1666798D01*
X7201052Y1653946D01*
X7193381Y1640128D01*
X7187336Y1625600D01*
X7183018Y1610461D01*
X7180325Y1594916D01*
X7179513Y1579168D01*
X7180325Y1563471D01*
X7183018Y1547926D01*
X7187336Y1532788D01*
X7193381Y1518208D01*
X7201052Y1504442D01*
X7210145Y1491589D01*
X7220661Y1479854D01*
X7232345Y1469339D01*
X7241082Y1463192D01*
X7243724Y1460398D01*
X7245197Y1456842D01*
X7245197Y1452981D01*
X7243724Y1449425D01*
X7241082Y1446631D01*
X7232345Y1440484D01*
X7220661Y1429969D01*
X7210145Y1418234D01*
X7201052Y1405382D01*
X7193381Y1391564D01*
X7187336Y1377035D01*
X7183018Y1361897D01*
X7180325Y1346352D01*
X7179513Y1330604D01*
X7180325Y1314907D01*
X7183018Y1299362D01*
X7187336Y1284224D01*
X7193381Y1269644D01*
X7201052Y1255877D01*
X7210145Y1243025D01*
X7220661Y1231290D01*
X7232345Y1220774D01*
X7241082Y1214628D01*
X7243724Y1211834D01*
X7245197Y1208278D01*
X7245197Y1204417D01*
X7243724Y1200861D01*
X7241082Y1198067D01*
X7232345Y1191920D01*
X7220661Y1181404D01*
X7210145Y1169670D01*
X7201052Y1156817D01*
X7193381Y1143050D01*
X7187336Y1128471D01*
X7183018Y1113332D01*
X7180325Y1097788D01*
X7179513Y1082090D01*
X7180325Y1066342D01*
X7183018Y1050798D01*
X7187336Y1035659D01*
X7193381Y1021130D01*
X7201052Y1007313D01*
X7210145Y994460D01*
X7220661Y982726D01*
X7232345Y972210D01*
X7241082Y966063D01*
X7243724Y963269D01*
X7245197Y959713D01*
X7245197Y955852D01*
X7243724Y952296D01*
X7241082Y949502D01*
X7232345Y943356D01*
X7220661Y932840D01*
X7210145Y921105D01*
X7201052Y908253D01*
X7193381Y894486D01*
X7187336Y879906D01*
X7183018Y864768D01*
X7180325Y849223D01*
X7179513Y833526D01*
X7180325Y817778D01*
X7183018Y802233D01*
X7187336Y787095D01*
X7193381Y772566D01*
X7201052Y758748D01*
X7210145Y745896D01*
X7220661Y734161D01*
X7232345Y723646D01*
X7241082Y717499D01*
X7243724Y714756D01*
X7245197Y711149D01*
X7245197Y707288D01*
X7243724Y703732D01*
X7241082Y700938D01*
X7232345Y694791D01*
X7220661Y684276D01*
X7210145Y672541D01*
X7201052Y659688D01*
X7193381Y645922D01*
X7187336Y631342D01*
X7183018Y616204D01*
X7180325Y600710D01*
X7179513Y584962D01*
X7180325Y569214D01*
X7183018Y553669D01*
X7187336Y538530D01*
X7193381Y524001D01*
X7201052Y510184D01*
X7210145Y497332D01*
X7220661Y485597D01*
X7232345Y475132D01*
X7241082Y468985D01*
X7243724Y466191D01*
X7245197Y462584D01*
X7245197Y458774D01*
X7243724Y455168D01*
X7241082Y452374D01*
X7232345Y446227D01*
X7220661Y435762D01*
X7210145Y423976D01*
X7201052Y411124D01*
X7193381Y397357D01*
X7187336Y382778D01*
X7183018Y367639D01*
X7180325Y352145D01*
X7179513Y336397D01*
X7180325Y320649D01*
X7183018Y305155D01*
X7187336Y290017D01*
X7193381Y275437D01*
X7201052Y261670D01*
X7210145Y248818D01*
X7220661Y237032D01*
X7232345Y226567D01*
X7245197Y217424D01*
X7259015Y209804D01*
X7273544Y203809D01*
X7288733Y199440D01*
X7304278Y196799D01*
X7320229Y195884D01*
X7339838Y195884D01*
X7343698Y195122D01*
X7347000Y192887D01*
X7349185Y189636D01*
X7349947Y185724D01*
X7349947Y36068D01*
X7349185Y32156D01*
X7347000Y28905D01*
X7343698Y26670D01*
X7339838Y25908D01*
G37*

%LPC*%
G36*
X7003186Y359562D02*
G01*
X7015683Y360883D01*
X7027925Y363931D01*
X7039609Y368655D01*
X7050582Y374954D01*
X7060488Y382727D01*
X7069328Y391820D01*
X7076694Y402031D01*
X7082688Y413156D01*
X7087006Y425043D01*
X7089597Y437388D01*
X7090511Y449986D01*
X7089597Y462584D01*
X7087006Y474929D01*
X7082688Y486816D01*
X7076694Y497941D01*
X7069328Y508152D01*
X7060895Y516890D01*
X7058761Y520141D01*
X7058050Y523951D01*
X7058050Y1026007D01*
X7058761Y1029817D01*
X7060895Y1033068D01*
X7069328Y1041857D01*
X7076694Y1052068D01*
X7082688Y1063193D01*
X7087006Y1075080D01*
X7089597Y1087424D01*
X7090511Y1099972D01*
X7089597Y1112570D01*
X7087006Y1124915D01*
X7082688Y1136802D01*
X7076694Y1147927D01*
X7069328Y1158138D01*
X7060488Y1167231D01*
X7050582Y1175004D01*
X7039609Y1181303D01*
X7027925Y1186078D01*
X7015683Y1189126D01*
X7003186Y1190447D01*
X6990486Y1189990D01*
X6978142Y1187805D01*
X6966102Y1183894D01*
X6954774Y1178356D01*
X6944258Y1171295D01*
X6934911Y1162862D01*
X6926783Y1153160D01*
X6920077Y1142492D01*
X6914997Y1130960D01*
X6911441Y1118819D01*
X6909765Y1106322D01*
X6909765Y1093673D01*
X6911441Y1081176D01*
X6914997Y1069035D01*
X6920077Y1057503D01*
X6926783Y1046784D01*
X6934911Y1037132D01*
X6938568Y1033780D01*
X6941058Y1030376D01*
X6941972Y1026261D01*
X6941972Y523748D01*
X6941058Y519633D01*
X6938568Y516178D01*
X6934911Y512826D01*
X6926783Y503174D01*
X6920077Y492455D01*
X6914997Y480923D01*
X6911441Y468782D01*
X6909765Y456285D01*
X6909765Y443687D01*
X6911441Y431190D01*
X6914997Y419049D01*
X6920077Y407517D01*
X6926783Y396798D01*
X6934911Y387146D01*
X6944258Y378663D01*
X6954774Y371602D01*
X6966102Y366064D01*
X6978142Y362204D01*
X6990486Y359968D01*
G37*
G36*
X3246628Y1096416D02*
G01*
X3256584Y1096416D01*
X3264966Y1097280D01*
X3270097Y1098804D01*
X3273044Y1099261D01*
X3275990Y1098804D01*
X3281172Y1097280D01*
X3289604Y1096416D01*
X3299460Y1096416D01*
X3299460Y1163116D01*
X3246628Y1163116D01*
G37*
G36*
X3945128Y1096416D02*
G01*
X3955084Y1096416D01*
X3963466Y1097280D01*
X3968597Y1098804D01*
X3971544Y1099261D01*
X3974490Y1098804D01*
X3979672Y1097280D01*
X3988104Y1096416D01*
X3997960Y1096416D01*
X3997960Y1163116D01*
X3945128Y1163116D01*
G37*
G36*
X996696Y1096416D02*
G01*
X1006551Y1096416D01*
X1014933Y1097280D01*
X1020114Y1098804D01*
X1023112Y1099261D01*
X1026007Y1098804D01*
X1031138Y1097280D01*
X1039520Y1096416D01*
X1049528Y1096416D01*
X1049528Y1163116D01*
X996696Y1163116D01*
G37*
G36*
X6195161Y1096416D02*
G01*
X6205016Y1096416D01*
X6213398Y1097280D01*
X6218631Y1098804D01*
X6221577Y1099261D01*
X6224524Y1098804D01*
X6229654Y1097280D01*
X6238036Y1096416D01*
X6247993Y1096416D01*
X6247993Y1163116D01*
X6195161Y1163116D01*
G37*
G36*
X5496661Y1096416D02*
G01*
X5506516Y1096416D01*
X5514898Y1097280D01*
X5520131Y1098804D01*
X5523077Y1099261D01*
X5526024Y1098804D01*
X5531154Y1097280D01*
X5539536Y1096416D01*
X5549493Y1096416D01*
X5549493Y1163116D01*
X5496661Y1163116D01*
G37*
G36*
X1695145Y1096416D02*
G01*
X1705051Y1096416D01*
X1713433Y1097280D01*
X1718614Y1098804D01*
X1721612Y1099261D01*
X1724558Y1098804D01*
X1729638Y1097280D01*
X1738020Y1096416D01*
X1748028Y1096416D01*
X1748028Y1163116D01*
X1695145Y1163116D01*
G37*
G36*
X895096Y1096416D02*
G01*
X904951Y1096416D01*
X913333Y1097280D01*
X919734Y1099210D01*
X922782Y1099667D01*
X925728Y1099210D01*
X932129Y1097280D01*
X940511Y1096416D01*
X950417Y1096416D01*
X950417Y1163116D01*
X895096Y1163116D01*
G37*
G36*
X1794256Y1096416D02*
G01*
X1804162Y1096416D01*
X1812543Y1097280D01*
X1818893Y1099210D01*
X1821942Y1099667D01*
X1824888Y1099210D01*
X1831238Y1097280D01*
X1839620Y1096416D01*
X1849628Y1096416D01*
X1849628Y1163116D01*
X1794256Y1163116D01*
G37*
G36*
X6294170Y1096416D02*
G01*
X6304127Y1096416D01*
X6312509Y1097280D01*
X6318961Y1099210D01*
X6321907Y1099667D01*
X6324854Y1099210D01*
X6331254Y1097280D01*
X6339636Y1096416D01*
X6349593Y1096416D01*
X6349593Y1163116D01*
X6294170Y1163116D01*
G37*
G36*
X3145028Y1096416D02*
G01*
X3154984Y1096416D01*
X3163366Y1097280D01*
X3169818Y1099210D01*
X3172764Y1099667D01*
X3175711Y1099210D01*
X3182112Y1097280D01*
X3190494Y1096416D01*
X3200450Y1096416D01*
X3200450Y1163116D01*
X3145028Y1163116D01*
G37*
G36*
X5395061Y1096416D02*
G01*
X5404916Y1096416D01*
X5413298Y1097280D01*
X5419801Y1099210D01*
X5422747Y1099667D01*
X5425694Y1099210D01*
X5432145Y1097280D01*
X5440527Y1096416D01*
X5450382Y1096416D01*
X5450382Y1163116D01*
X5395061Y1163116D01*
G37*
G36*
X4044238Y1096416D02*
G01*
X4054094Y1096416D01*
X4062476Y1097280D01*
X4068927Y1099210D01*
X4071874Y1099667D01*
X4074820Y1099210D01*
X4081272Y1097280D01*
X4089704Y1096416D01*
X4099560Y1096416D01*
X4099560Y1163116D01*
X4044238Y1163116D01*
G37*
G36*
X638200Y1096416D02*
G01*
X704291Y1096416D01*
X712724Y1097280D01*
X719124Y1099210D01*
X722122Y1099667D01*
X725068Y1099210D01*
X731469Y1097280D01*
X739800Y1096416D01*
X805891Y1096416D01*
X814324Y1097280D01*
X819403Y1098804D01*
X822401Y1099261D01*
X825347Y1098804D01*
X830529Y1097280D01*
X838911Y1096416D01*
X848817Y1096416D01*
X848817Y1167333D01*
X847394Y1170178D01*
X846886Y1173276D01*
X846886Y1230680D01*
X847394Y1233779D01*
X848817Y1236573D01*
X848817Y1307490D01*
X838911Y1307490D01*
X830529Y1306677D01*
X825347Y1305102D01*
X822401Y1304696D01*
X819403Y1305102D01*
X814324Y1306677D01*
X805891Y1307490D01*
X739800Y1307490D01*
X731469Y1306677D01*
X725068Y1304747D01*
X722122Y1304290D01*
X719124Y1304747D01*
X712724Y1306677D01*
X704291Y1307490D01*
X638200Y1307490D01*
X629869Y1306677D01*
X622249Y1304391D01*
X615238Y1300632D01*
X609142Y1295603D01*
X604062Y1289456D01*
X600405Y1282496D01*
X598068Y1274876D01*
X597204Y1266494D01*
X597204Y1137462D01*
X598068Y1129030D01*
X600405Y1121460D01*
X604062Y1114450D01*
X609142Y1108354D01*
X615238Y1103325D01*
X622249Y1099566D01*
X629869Y1097280D01*
G37*
G36*
X4145838Y1096416D02*
G01*
X4155694Y1096416D01*
X4164076Y1097280D01*
X4169308Y1098804D01*
X4172254Y1099261D01*
X4175201Y1098804D01*
X4180281Y1097280D01*
X4188764Y1096416D01*
X4254804Y1096416D01*
X4263186Y1097280D01*
X4269638Y1099210D01*
X4272584Y1099667D01*
X4275531Y1099210D01*
X4281881Y1097280D01*
X4290364Y1096416D01*
X4356404Y1096416D01*
X4364786Y1097280D01*
X4372356Y1099566D01*
X4379315Y1103274D01*
X4385513Y1108354D01*
X4390491Y1114450D01*
X4394250Y1121460D01*
X4396536Y1129030D01*
X4397400Y1137462D01*
X4397400Y1266494D01*
X4396536Y1274876D01*
X4394250Y1282496D01*
X4390491Y1289456D01*
X4385513Y1295603D01*
X4379315Y1300632D01*
X4372356Y1304391D01*
X4364786Y1306677D01*
X4356404Y1307490D01*
X4290364Y1307490D01*
X4281881Y1306677D01*
X4275531Y1304747D01*
X4272584Y1304290D01*
X4269638Y1304747D01*
X4263186Y1306677D01*
X4254804Y1307490D01*
X4188764Y1307490D01*
X4180281Y1306677D01*
X4175201Y1305102D01*
X4172254Y1304696D01*
X4169308Y1305102D01*
X4164076Y1306677D01*
X4155694Y1307490D01*
X4145838Y1307490D01*
X4145838Y1236573D01*
X4147261Y1233779D01*
X4147718Y1230680D01*
X4147718Y1173276D01*
X4147261Y1170178D01*
X4145838Y1167333D01*
G37*
G36*
X1895856Y1096416D02*
G01*
X1905762Y1096416D01*
X1914143Y1097280D01*
X1919224Y1098804D01*
X1922272Y1099261D01*
X1925218Y1098804D01*
X1930349Y1097280D01*
X1938731Y1096416D01*
X2004822Y1096416D01*
X2013204Y1097280D01*
X2019604Y1099210D01*
X2022551Y1099667D01*
X2025497Y1099210D01*
X2031949Y1097280D01*
X2040331Y1096416D01*
X2106422Y1096416D01*
X2114804Y1097280D01*
X2122322Y1099566D01*
X2129332Y1103325D01*
X2135479Y1108354D01*
X2140559Y1114450D01*
X2144217Y1121460D01*
X2146604Y1129030D01*
X2147366Y1137462D01*
X2147366Y1266494D01*
X2146604Y1274876D01*
X2144217Y1282496D01*
X2140559Y1289456D01*
X2135479Y1295603D01*
X2129332Y1300632D01*
X2122322Y1304391D01*
X2114804Y1306677D01*
X2106422Y1307490D01*
X2040331Y1307490D01*
X2031949Y1306677D01*
X2025497Y1304747D01*
X2022551Y1304290D01*
X2019604Y1304747D01*
X2013204Y1306677D01*
X2004822Y1307490D01*
X1938731Y1307490D01*
X1930349Y1306677D01*
X1925218Y1305102D01*
X1922272Y1304696D01*
X1919224Y1305102D01*
X1914143Y1306677D01*
X1905762Y1307490D01*
X1895856Y1307490D01*
X1895856Y1236573D01*
X1897227Y1233779D01*
X1897684Y1230680D01*
X1897684Y1173276D01*
X1897227Y1170178D01*
X1895856Y1167333D01*
G37*
G36*
X6395770Y1096416D02*
G01*
X6405727Y1096416D01*
X6414109Y1097280D01*
X6419240Y1098804D01*
X6422186Y1099261D01*
X6425133Y1098804D01*
X6430314Y1097280D01*
X6438747Y1096416D01*
X6504736Y1096416D01*
X6513118Y1097280D01*
X6519570Y1099210D01*
X6522516Y1099667D01*
X6525463Y1099210D01*
X6531914Y1097280D01*
X6540347Y1096416D01*
X6606336Y1096416D01*
X6614718Y1097280D01*
X6622338Y1099566D01*
X6629349Y1103325D01*
X6635445Y1108354D01*
X6640474Y1114450D01*
X6644284Y1121460D01*
X6646570Y1129030D01*
X6647383Y1137462D01*
X6647383Y1266494D01*
X6646570Y1274876D01*
X6644284Y1282496D01*
X6640474Y1289456D01*
X6635445Y1295603D01*
X6629349Y1300632D01*
X6622338Y1304391D01*
X6614718Y1306677D01*
X6606336Y1307490D01*
X6540347Y1307490D01*
X6531914Y1306677D01*
X6525463Y1304747D01*
X6522516Y1304290D01*
X6519570Y1304747D01*
X6513118Y1306677D01*
X6504736Y1307490D01*
X6438747Y1307490D01*
X6430314Y1306677D01*
X6425133Y1305102D01*
X6422186Y1304696D01*
X6419240Y1305102D01*
X6414109Y1306677D01*
X6405727Y1307490D01*
X6395770Y1307490D01*
X6395770Y1236573D01*
X6397244Y1233779D01*
X6397701Y1230680D01*
X6397701Y1173276D01*
X6397244Y1170178D01*
X6395770Y1167333D01*
G37*
G36*
X5138216Y1096416D02*
G01*
X5204307Y1096416D01*
X5212638Y1097280D01*
X5219090Y1099210D01*
X5222036Y1099667D01*
X5224983Y1099210D01*
X5231434Y1097280D01*
X5239816Y1096416D01*
X5305907Y1096416D01*
X5314238Y1097280D01*
X5319420Y1098804D01*
X5322366Y1099261D01*
X5325313Y1098804D01*
X5330545Y1097280D01*
X5338927Y1096416D01*
X5348782Y1096416D01*
X5348782Y1167333D01*
X5347411Y1170178D01*
X5346954Y1173276D01*
X5346954Y1230680D01*
X5347411Y1233779D01*
X5348782Y1236573D01*
X5348782Y1307490D01*
X5338927Y1307490D01*
X5330545Y1306677D01*
X5325313Y1305102D01*
X5322366Y1304696D01*
X5319420Y1305102D01*
X5314238Y1306677D01*
X5305907Y1307490D01*
X5239816Y1307490D01*
X5231434Y1306677D01*
X5224983Y1304747D01*
X5222036Y1304290D01*
X5219090Y1304747D01*
X5212638Y1306677D01*
X5204307Y1307490D01*
X5138216Y1307490D01*
X5129834Y1306677D01*
X5122214Y1304391D01*
X5115306Y1300632D01*
X5109108Y1295603D01*
X5104079Y1289456D01*
X5100370Y1282496D01*
X5098084Y1274876D01*
X5097272Y1266494D01*
X5097272Y1137462D01*
X5098084Y1129030D01*
X5100370Y1121460D01*
X5104079Y1114450D01*
X5109108Y1108354D01*
X5115306Y1103325D01*
X5122214Y1099566D01*
X5129834Y1097280D01*
G37*
G36*
X2888284Y1096416D02*
G01*
X2954274Y1096416D01*
X2962656Y1097280D01*
X2969158Y1099210D01*
X2972104Y1099667D01*
X2975051Y1099210D01*
X2981401Y1097280D01*
X2989884Y1096416D01*
X3055874Y1096416D01*
X3064256Y1097280D01*
X3069488Y1098804D01*
X3072434Y1099261D01*
X3075381Y1098804D01*
X3080512Y1097280D01*
X3088894Y1096416D01*
X3098850Y1096416D01*
X3098850Y1167333D01*
X3097377Y1170178D01*
X3096920Y1173276D01*
X3096920Y1230680D01*
X3097377Y1233779D01*
X3098850Y1236573D01*
X3098850Y1307490D01*
X3088894Y1307490D01*
X3080512Y1306677D01*
X3075381Y1305102D01*
X3072434Y1304696D01*
X3069488Y1305102D01*
X3064256Y1306677D01*
X3055874Y1307490D01*
X2989884Y1307490D01*
X2981401Y1306677D01*
X2975051Y1304747D01*
X2972104Y1304290D01*
X2969158Y1304747D01*
X2962656Y1306677D01*
X2954274Y1307490D01*
X2888284Y1307490D01*
X2879801Y1306677D01*
X2872282Y1304391D01*
X2865272Y1300632D01*
X2859125Y1295603D01*
X2854147Y1289456D01*
X2850388Y1282496D01*
X2848051Y1274876D01*
X2847238Y1266494D01*
X2847238Y1137462D01*
X2848051Y1129030D01*
X2850388Y1121460D01*
X2854147Y1114450D01*
X2859125Y1108354D01*
X2865272Y1103274D01*
X2872282Y1099566D01*
X2879801Y1097280D01*
G37*
G36*
X3246628Y1240840D02*
G01*
X3299460Y1240840D01*
X3299460Y1307490D01*
X3289604Y1307490D01*
X3281172Y1306677D01*
X3275990Y1305102D01*
X3273044Y1304696D01*
X3270097Y1305102D01*
X3264966Y1306677D01*
X3256584Y1307490D01*
X3246628Y1307490D01*
G37*
G36*
X3945128Y1240840D02*
G01*
X3997960Y1240840D01*
X3997960Y1307490D01*
X3988104Y1307490D01*
X3979672Y1306677D01*
X3974490Y1305102D01*
X3971544Y1304696D01*
X3968597Y1305102D01*
X3963466Y1306677D01*
X3955084Y1307490D01*
X3945128Y1307490D01*
G37*
G36*
X996696Y1240840D02*
G01*
X1049528Y1240840D01*
X1049528Y1307490D01*
X1039520Y1307490D01*
X1031138Y1306677D01*
X1026007Y1305102D01*
X1023112Y1304696D01*
X1020114Y1305102D01*
X1014933Y1306677D01*
X1006551Y1307490D01*
X996696Y1307490D01*
G37*
G36*
X6195161Y1240840D02*
G01*
X6247993Y1240840D01*
X6247993Y1307490D01*
X6238036Y1307490D01*
X6229654Y1306677D01*
X6224524Y1305102D01*
X6221577Y1304696D01*
X6218631Y1305102D01*
X6213398Y1306677D01*
X6205016Y1307490D01*
X6195161Y1307490D01*
G37*
G36*
X1695145Y1240840D02*
G01*
X1748028Y1240840D01*
X1748028Y1307490D01*
X1738020Y1307490D01*
X1729638Y1306677D01*
X1724558Y1305102D01*
X1721612Y1304696D01*
X1718614Y1305102D01*
X1713433Y1306677D01*
X1705051Y1307490D01*
X1695145Y1307490D01*
G37*
G36*
X5496661Y1240840D02*
G01*
X5549493Y1240840D01*
X5549493Y1307490D01*
X5539536Y1307490D01*
X5531154Y1306677D01*
X5526024Y1305102D01*
X5523077Y1304696D01*
X5520131Y1305102D01*
X5514898Y1306677D01*
X5506516Y1307490D01*
X5496661Y1307490D01*
G37*
G36*
X895096Y1240840D02*
G01*
X950417Y1240840D01*
X950417Y1307490D01*
X940511Y1307490D01*
X932129Y1306677D01*
X925728Y1304747D01*
X922782Y1304290D01*
X919734Y1304747D01*
X913333Y1306677D01*
X904951Y1307490D01*
X895096Y1307490D01*
G37*
G36*
X1794256Y1240840D02*
G01*
X1849628Y1240840D01*
X1849628Y1307490D01*
X1839620Y1307490D01*
X1831238Y1306677D01*
X1824888Y1304747D01*
X1821942Y1304290D01*
X1818893Y1304747D01*
X1812543Y1306677D01*
X1804162Y1307490D01*
X1794256Y1307490D01*
G37*
G36*
X6294170Y1240840D02*
G01*
X6349593Y1240840D01*
X6349593Y1307490D01*
X6339636Y1307490D01*
X6331254Y1306677D01*
X6324854Y1304747D01*
X6321907Y1304290D01*
X6318961Y1304747D01*
X6312509Y1306677D01*
X6304127Y1307490D01*
X6294170Y1307490D01*
G37*
G36*
X3145028Y1240840D02*
G01*
X3200450Y1240840D01*
X3200450Y1307490D01*
X3190494Y1307490D01*
X3182112Y1306677D01*
X3175711Y1304747D01*
X3172764Y1304290D01*
X3169818Y1304747D01*
X3163366Y1306677D01*
X3154984Y1307490D01*
X3145028Y1307490D01*
G37*
G36*
X5395061Y1240840D02*
G01*
X5450382Y1240840D01*
X5450382Y1307490D01*
X5440527Y1307490D01*
X5432145Y1306677D01*
X5425694Y1304747D01*
X5422747Y1304290D01*
X5419801Y1304747D01*
X5413298Y1306677D01*
X5404916Y1307490D01*
X5395061Y1307490D01*
G37*
G36*
X4044238Y1240840D02*
G01*
X4099560Y1240840D01*
X4099560Y1307490D01*
X4089704Y1307490D01*
X4081272Y1306677D01*
X4074820Y1304747D01*
X4071874Y1304290D01*
X4068927Y1304747D01*
X4062476Y1306677D01*
X4054094Y1307490D01*
X4044238Y1307490D01*
G37*
G36*
X4853279Y1309573D02*
G01*
X4865878Y1310894D01*
X4879695Y1314500D01*
X4891379Y1319530D01*
X4901895Y1325880D01*
X4911547Y1333652D01*
X4919268Y1341780D01*
X4926736Y1352042D01*
X4932883Y1363675D01*
X4937048Y1375257D01*
X4939690Y1387348D01*
X4940604Y1399997D01*
X4941925Y1689100D01*
X4941011Y1701698D01*
X4938420Y1714042D01*
X4934102Y1725930D01*
X4928108Y1737055D01*
X4920742Y1747266D01*
X4911902Y1756359D01*
X4902047Y1764131D01*
X4891024Y1770430D01*
X4879238Y1775206D01*
X4869942Y1777695D01*
X4867300Y1778203D01*
X4857699Y1779371D01*
X4854752Y1779524D01*
X4845354Y1779422D01*
X4842052Y1779117D01*
X4833213Y1777746D01*
X4829657Y1776933D01*
X4821275Y1774494D01*
X4817567Y1773072D01*
X4809947Y1769618D01*
X4806238Y1767535D01*
X4799431Y1763217D01*
X4795774Y1760474D01*
X4789779Y1755495D01*
X4781346Y1746504D01*
X4778197Y1742338D01*
X4774234Y1736445D01*
X4771491Y1731619D01*
X4768443Y1725523D01*
X4766310Y1720088D01*
X4764278Y1713890D01*
X4761738Y1701800D01*
X4761077Y1695399D01*
X4760823Y1689252D01*
X4759502Y1400606D01*
X4759706Y1393647D01*
X4760315Y1388160D01*
X4761433Y1381150D01*
X4764938Y1369009D01*
X4770069Y1357477D01*
X4772406Y1353464D01*
X4776825Y1346758D01*
X4779467Y1343355D01*
X4784902Y1337056D01*
X4794300Y1328623D01*
X4804765Y1321562D01*
X4816195Y1316024D01*
X4828235Y1312164D01*
X4840681Y1309979D01*
G37*
G36*
X255574Y1953463D02*
G01*
X274777Y1953920D01*
X293827Y1956307D01*
X306527Y1959203D01*
X308813Y1959457D01*
X399491Y1959457D01*
X407924Y1960321D01*
X415442Y1962607D01*
X422452Y1966366D01*
X428650Y1971395D01*
X433628Y1977491D01*
X437388Y1984502D01*
X439724Y1992122D01*
X440486Y2000504D01*
X440486Y2076196D01*
X441147Y2079650D01*
X444703Y2089454D01*
X449427Y2108098D01*
X452272Y2127097D01*
X453237Y2146300D01*
X452272Y2165502D01*
X449427Y2184501D01*
X444703Y2203145D01*
X441147Y2212949D01*
X440486Y2216404D01*
X440486Y2299512D01*
X439724Y2307894D01*
X437388Y2315464D01*
X433628Y2322474D01*
X428650Y2328621D01*
X422452Y2333650D01*
X415442Y2337358D01*
X407924Y2339695D01*
X399491Y2340508D01*
X100482Y2340508D01*
X92100Y2339695D01*
X84531Y2337358D01*
X77470Y2333650D01*
X71424Y2328621D01*
X66344Y2322474D01*
X62636Y2315464D01*
X60350Y2307894D01*
X59486Y2299512D01*
X59486Y2000504D01*
X60350Y1992122D01*
X62636Y1984502D01*
X66344Y1977491D01*
X71424Y1971395D01*
X77470Y1966366D01*
X84531Y1962607D01*
X92100Y1960321D01*
X100482Y1959457D01*
X211632Y1959457D01*
X217474Y1958238D01*
X236321Y1954885D01*
G37*
G36*
X10446156Y3456381D02*
G01*
X10642854Y3456381D01*
X10642854Y3640531D01*
X10487202Y3640531D01*
X10478820Y3639718D01*
X10471200Y3637381D01*
X10464190Y3633673D01*
X10458043Y3628644D01*
X10453065Y3622497D01*
X10449306Y3615486D01*
X10447020Y3607917D01*
X10446156Y3599535D01*
G37*
G36*
X10191343Y3674465D02*
G01*
X10199522Y3674465D01*
X10207904Y3675329D01*
X10215473Y3677615D01*
X10222433Y3681323D01*
X10228630Y3686403D01*
X10233660Y3692499D01*
X10237368Y3699510D01*
X10239654Y3707079D01*
X10240467Y3715512D01*
X10240467Y3726129D01*
X10191343Y3726129D01*
G37*
G36*
X10191343Y3773830D02*
G01*
X10240467Y3773830D01*
X10240467Y3784498D01*
X10239654Y3792880D01*
X10237368Y3800500D01*
X10233660Y3807460D01*
X10228630Y3813606D01*
X10222433Y3818636D01*
X10215473Y3822395D01*
X10207904Y3824681D01*
X10199522Y3825494D01*
X10191343Y3825494D01*
G37*
G36*
X8070799Y3949547D02*
G01*
X8093354Y3950208D01*
X8115706Y3953154D01*
X8134756Y3957523D01*
X8156143Y3964584D01*
X8158886Y3965651D01*
X8176717Y3973677D01*
X8196325Y3984802D01*
X8214664Y3997858D01*
X8231682Y4012641D01*
X8248954Y4031284D01*
X8262416Y4049318D01*
X8274100Y4068622D01*
X8282584Y4086250D01*
X8290407Y4107383D01*
X8296097Y4129125D01*
X8299602Y4151376D01*
X8300872Y4173880D01*
X8300872Y4176826D01*
X8299602Y4199331D01*
X8296097Y4221581D01*
X8290407Y4243324D01*
X8282584Y4264456D01*
X8274100Y4282084D01*
X8262416Y4301388D01*
X8248954Y4319422D01*
X8231682Y4338066D01*
X8214664Y4352848D01*
X8196325Y4365904D01*
X8176717Y4377029D01*
X8158886Y4385056D01*
X8137601Y4392371D01*
X8134756Y4393184D01*
X8115706Y4397552D01*
X8093354Y4400499D01*
X8067852Y4401108D01*
X8045399Y4399280D01*
X8023301Y4395216D01*
X8004454Y4389932D01*
X7983474Y4381855D01*
X7963306Y4371695D01*
X7944358Y4359605D01*
X7924393Y4343704D01*
X7908391Y4327906D01*
X7894015Y4310532D01*
X7882991Y4294378D01*
X7872120Y4274667D01*
X7863281Y4253992D01*
X7855712Y4229658D01*
X7851394Y4207560D01*
X7849463Y4188104D01*
X7849463Y4162602D01*
X7851394Y4143146D01*
X7855712Y4121048D01*
X7862265Y4099509D01*
X7863281Y4096715D01*
X7872120Y4076039D01*
X7882991Y4056329D01*
X7894015Y4040174D01*
X7908391Y4022801D01*
X7924393Y4007002D01*
X7941970Y3992829D01*
X7944358Y3991101D01*
X7963306Y3979011D01*
X7983474Y3968851D01*
X8004454Y3960774D01*
X8026196Y3954830D01*
X8045399Y3951427D01*
X8067852Y3949598D01*
G37*
G36*
X10120833Y3949547D02*
G01*
X10143286Y3950208D01*
X10165638Y3953154D01*
X10187584Y3958336D01*
X10208920Y3965651D01*
X10226700Y3973677D01*
X10246258Y3984802D01*
X10266984Y3999687D01*
X10283748Y4014724D01*
X10298988Y4031284D01*
X10312450Y4049318D01*
X10322661Y4066032D01*
X10332516Y4086250D01*
X10333685Y4088993D01*
X10341254Y4110177D01*
X10346690Y4132072D01*
X10349890Y4154322D01*
X10350804Y4176826D01*
X10349890Y4196384D01*
X10346690Y4218635D01*
X10341254Y4240530D01*
X10333685Y4261713D01*
X10322661Y4284675D01*
X10312450Y4301388D01*
X10298988Y4319422D01*
X10283748Y4335983D01*
X10266984Y4351020D01*
X10248747Y4364278D01*
X10246258Y4365904D01*
X10226700Y4377029D01*
X10208920Y4385056D01*
X10187584Y4392371D01*
X10165638Y4397552D01*
X10143286Y4400499D01*
X10117886Y4401108D01*
X10095433Y4399280D01*
X10076129Y4395876D01*
X10054488Y4389932D01*
X10033406Y4381855D01*
X10013340Y4371695D01*
X9994290Y4359605D01*
X9976612Y4345686D01*
X9960457Y4330090D01*
X9958425Y4327906D01*
X9945827Y4312920D01*
X9933025Y4294378D01*
X9931450Y4291838D01*
X9920884Y4272026D01*
X9913213Y4253992D01*
X9912197Y4251198D01*
X9905695Y4229658D01*
X9901428Y4207560D01*
X9899345Y4185107D01*
X9899345Y4165549D01*
X9901428Y4143146D01*
X9905695Y4121048D01*
X9912197Y4099509D01*
X9913213Y4096715D01*
X9922154Y4076039D01*
X9931450Y4058818D01*
X9945827Y4037787D01*
X9958425Y4022801D01*
X9976612Y4005021D01*
X9994290Y3991101D01*
X10013340Y3979011D01*
X10033406Y3968851D01*
X10054488Y3960774D01*
X10076129Y3954830D01*
X10095433Y3951427D01*
X10117886Y3949598D01*
G37*
G36*
X8845245Y4009542D02*
G01*
X8864193Y4009999D01*
X8883040Y4012387D01*
X8901531Y4016603D01*
X8919565Y4022648D01*
X8936888Y4030472D01*
X8953347Y4039971D01*
X8968740Y4051046D01*
X8983014Y4063593D01*
X8995867Y4077563D01*
X9007398Y4092701D01*
X9017304Y4108907D01*
X9025534Y4125976D01*
X9032036Y4143857D01*
X9036659Y4162247D01*
X9039504Y4181043D01*
X9040520Y4199991D01*
X9039504Y4218940D01*
X9036659Y4237736D01*
X9032036Y4256125D01*
X9025534Y4274007D01*
X9017304Y4291076D01*
X9007398Y4307281D01*
X8995867Y4322419D01*
X8983014Y4336338D01*
X8968740Y4348937D01*
X8953347Y4360011D01*
X8936888Y4369511D01*
X8919565Y4377334D01*
X8901531Y4383379D01*
X8883040Y4387596D01*
X8864193Y4389983D01*
X8845245Y4390440D01*
X8826296Y4389018D01*
X8807602Y4385716D01*
X8789263Y4380585D01*
X8771585Y4373626D01*
X8754770Y4364990D01*
X8738768Y4354677D01*
X8723934Y4342841D01*
X8710320Y4329582D01*
X8698179Y4315002D01*
X8687409Y4299305D01*
X8678367Y4282643D01*
X8671001Y4265168D01*
X8665413Y4246981D01*
X8661654Y4228388D01*
X8659723Y4209491D01*
X8659723Y4190492D01*
X8661654Y4171594D01*
X8665413Y4153001D01*
X8671001Y4134815D01*
X8678367Y4117340D01*
X8687409Y4100677D01*
X8698179Y4084980D01*
X8710320Y4070400D01*
X8723934Y4057142D01*
X8738768Y4045305D01*
X8754770Y4034993D01*
X8771585Y4026357D01*
X8789263Y4019397D01*
X8807602Y4014266D01*
X8826296Y4010964D01*
G37*
G36*
X9345218Y4009542D02*
G01*
X9364167Y4009999D01*
X9383064Y4012387D01*
X9401556Y4016603D01*
X9419590Y4022648D01*
X9436862Y4030472D01*
X9453372Y4039971D01*
X9468713Y4051046D01*
X9482988Y4063593D01*
X9495891Y4077563D01*
X9507372Y4092701D01*
X9517329Y4108907D01*
X9525508Y4125976D01*
X9532061Y4143857D01*
X9536734Y4162247D01*
X9539579Y4181043D01*
X9540494Y4199991D01*
X9539579Y4218940D01*
X9536734Y4237736D01*
X9532061Y4256125D01*
X9525508Y4274007D01*
X9517329Y4291076D01*
X9507372Y4307281D01*
X9495891Y4322419D01*
X9482988Y4336338D01*
X9468713Y4348937D01*
X9453372Y4360011D01*
X9436862Y4369511D01*
X9419590Y4377334D01*
X9401556Y4383379D01*
X9383064Y4387596D01*
X9364167Y4389983D01*
X9345218Y4390440D01*
X9326270Y4389018D01*
X9307576Y4385716D01*
X9289338Y4380585D01*
X9271609Y4373626D01*
X9254744Y4364990D01*
X9238742Y4354677D01*
X9223908Y4342841D01*
X9210294Y4329582D01*
X9198152Y4315002D01*
X9187383Y4299305D01*
X9178391Y4282643D01*
X9170924Y4265168D01*
X9165386Y4246981D01*
X9161627Y4228388D01*
X9159697Y4209491D01*
X9159697Y4190492D01*
X9161627Y4171594D01*
X9165386Y4153001D01*
X9170924Y4134815D01*
X9178391Y4117340D01*
X9187383Y4100677D01*
X9198152Y4084980D01*
X9210294Y4070400D01*
X9223908Y4057142D01*
X9238742Y4045305D01*
X9254744Y4034993D01*
X9271609Y4026357D01*
X9289338Y4019397D01*
X9307576Y4014266D01*
X9326270Y4010964D01*
G37*
G36*
X5022342Y4011269D02*
G01*
X5035854Y4012184D01*
X5049215Y4014825D01*
X5062118Y4019194D01*
X5074259Y4025239D01*
X5085638Y4032758D01*
X5095798Y4041749D01*
X5104790Y4051960D01*
X5112359Y4063288D01*
X5118404Y4075480D01*
X5122773Y4088384D01*
X5125415Y4101693D01*
X5126329Y4115257D01*
X5125415Y4128871D01*
X5122773Y4142181D01*
X5118404Y4155084D01*
X5112359Y4167276D01*
X5104790Y4178604D01*
X5095798Y4188815D01*
X5085638Y4197807D01*
X5074259Y4205325D01*
X5062118Y4211370D01*
X5049215Y4215739D01*
X5035854Y4218381D01*
X5022342Y4219295D01*
X5008727Y4218381D01*
X4995367Y4215739D01*
X4982514Y4211370D01*
X4970272Y4205325D01*
X4959045Y4197807D01*
X4948732Y4188815D01*
X4939792Y4178604D01*
X4932273Y4167276D01*
X4926279Y4155084D01*
X4921859Y4142181D01*
X4919167Y4128871D01*
X4918354Y4115257D01*
X4919167Y4101693D01*
X4921859Y4088384D01*
X4926279Y4075480D01*
X4932273Y4063288D01*
X4939792Y4051960D01*
X4948732Y4041749D01*
X4959045Y4032758D01*
X4970272Y4025239D01*
X4982514Y4019194D01*
X4995367Y4014825D01*
X5008727Y4012184D01*
G37*
G36*
X6672325Y4011269D02*
G01*
X6685838Y4012184D01*
X6699199Y4014825D01*
X6712102Y4019194D01*
X6724345Y4025239D01*
X6735572Y4032758D01*
X6745884Y4041749D01*
X6754774Y4051960D01*
X6762343Y4063288D01*
X6768388Y4075480D01*
X6772757Y4088384D01*
X6775399Y4101693D01*
X6776313Y4115308D01*
X6775399Y4128871D01*
X6772757Y4142181D01*
X6768388Y4155084D01*
X6762343Y4167276D01*
X6754774Y4178604D01*
X6745884Y4188815D01*
X6735572Y4197807D01*
X6724345Y4205325D01*
X6712102Y4211370D01*
X6699199Y4215739D01*
X6685838Y4218381D01*
X6672325Y4219295D01*
X6658711Y4218381D01*
X6645351Y4215739D01*
X6632498Y4211370D01*
X6620256Y4205325D01*
X6609029Y4197807D01*
X6598818Y4188815D01*
X6589775Y4178604D01*
X6582257Y4167276D01*
X6576263Y4155084D01*
X6571843Y4142181D01*
X6569151Y4128871D01*
X6568338Y4115308D01*
X6569151Y4101693D01*
X6571843Y4088384D01*
X6576263Y4075480D01*
X6582257Y4063288D01*
X6589775Y4051960D01*
X6598818Y4041749D01*
X6609029Y4032758D01*
X6620256Y4025239D01*
X6632498Y4019194D01*
X6645351Y4014825D01*
X6658711Y4012184D01*
G37*
G36*
X4422292Y4011269D02*
G01*
X4435856Y4012184D01*
X4449267Y4014825D01*
X4462068Y4019194D01*
X4474311Y4025239D01*
X4485640Y4032758D01*
X4495850Y4041749D01*
X4504791Y4051960D01*
X4512411Y4063288D01*
X4518406Y4075480D01*
X4522724Y4088384D01*
X4525365Y4101693D01*
X4526330Y4115308D01*
X4525365Y4128871D01*
X4522724Y4142181D01*
X4518406Y4155084D01*
X4512411Y4167276D01*
X4504791Y4178604D01*
X4495850Y4188815D01*
X4485640Y4197807D01*
X4474311Y4205325D01*
X4462068Y4211370D01*
X4449267Y4215739D01*
X4435856Y4218381D01*
X4422292Y4219295D01*
X4408779Y4218381D01*
X4395368Y4215739D01*
X4382465Y4211370D01*
X4370324Y4205325D01*
X4358995Y4197807D01*
X4348784Y4188815D01*
X4339844Y4178604D01*
X4332224Y4167276D01*
X4326229Y4155084D01*
X4321810Y4142181D01*
X4319168Y4128871D01*
X4318304Y4115308D01*
X4319168Y4101693D01*
X4321810Y4088384D01*
X4326229Y4075480D01*
X4332224Y4063288D01*
X4339844Y4051960D01*
X4348784Y4041749D01*
X4358995Y4032758D01*
X4370324Y4025239D01*
X4382465Y4019194D01*
X4395368Y4014825D01*
X4408779Y4012184D01*
G37*
G36*
X4149547Y4011269D02*
G01*
X4163161Y4012184D01*
X4176522Y4014825D01*
X4189374Y4019194D01*
X4201617Y4025239D01*
X4212844Y4032758D01*
X4223156Y4041749D01*
X4232097Y4051960D01*
X4239615Y4063288D01*
X4245610Y4075480D01*
X4250029Y4088384D01*
X4252722Y4101693D01*
X4253534Y4115308D01*
X4252722Y4128871D01*
X4250029Y4142181D01*
X4245610Y4155084D01*
X4239615Y4167276D01*
X4232097Y4178604D01*
X4223156Y4188815D01*
X4212844Y4197807D01*
X4201617Y4205325D01*
X4189374Y4211370D01*
X4176522Y4215739D01*
X4163161Y4218381D01*
X4149547Y4219295D01*
X4136034Y4218381D01*
X4122674Y4215739D01*
X4109770Y4211370D01*
X4097629Y4205325D01*
X4086301Y4197807D01*
X4076090Y4188815D01*
X4067098Y4178604D01*
X4059529Y4167276D01*
X4053535Y4155084D01*
X4049115Y4142181D01*
X4046474Y4128871D01*
X4045559Y4115308D01*
X4046474Y4101693D01*
X4049115Y4088384D01*
X4053535Y4075480D01*
X4059529Y4063288D01*
X4067098Y4051960D01*
X4076090Y4041749D01*
X4086301Y4032758D01*
X4097629Y4025239D01*
X4109770Y4019194D01*
X4122674Y4014825D01*
X4136034Y4012184D01*
G37*
G36*
X3888079Y4011320D02*
G01*
X3889756Y4011929D01*
X3901998Y4017924D01*
X3913327Y4025493D01*
X3923537Y4034485D01*
X3932529Y4044696D01*
X3940098Y4056024D01*
X3946042Y4068216D01*
X3946601Y4069892D01*
X3888079Y4069892D01*
G37*
G36*
X3811879Y4011320D02*
G01*
X3811879Y4069892D01*
X3753358Y4069892D01*
X3753916Y4068216D01*
X3759962Y4056024D01*
X3767531Y4044696D01*
X3776472Y4034485D01*
X3786682Y4025493D01*
X3798011Y4017924D01*
X3810152Y4011929D01*
G37*
G36*
X3638143Y4011320D02*
G01*
X3639769Y4011929D01*
X3652012Y4017924D01*
X3663340Y4025493D01*
X3673551Y4034434D01*
X3682492Y4044696D01*
X3690061Y4055973D01*
X3696106Y4068216D01*
X3696665Y4069892D01*
X3638143Y4069892D01*
G37*
G36*
X5888075Y4011320D02*
G01*
X5889802Y4011929D01*
X5901944Y4017924D01*
X5913272Y4025493D01*
X5923483Y4034485D01*
X5932525Y4044696D01*
X5940044Y4056024D01*
X5946038Y4068216D01*
X5946597Y4069892D01*
X5888075Y4069892D01*
G37*
G36*
X6111900Y4011320D02*
G01*
X6111900Y4069892D01*
X6053328Y4069892D01*
X6053886Y4068216D01*
X6059881Y4055973D01*
X6067501Y4044696D01*
X6076442Y4034434D01*
X6086652Y4025493D01*
X6097981Y4017924D01*
X6110224Y4011929D01*
G37*
G36*
X6188100Y4011320D02*
G01*
X6189827Y4011929D01*
X6201968Y4017924D01*
X6213297Y4025493D01*
X6223508Y4034434D01*
X6232448Y4044696D01*
X6240068Y4055973D01*
X6246063Y4068216D01*
X6246622Y4069892D01*
X6188100Y4069892D01*
G37*
G36*
X5811875Y4011320D02*
G01*
X5811875Y4069892D01*
X5753354Y4069892D01*
X5753963Y4068216D01*
X5759958Y4056024D01*
X5767527Y4044696D01*
X5776417Y4034485D01*
X5786729Y4025493D01*
X5797956Y4017924D01*
X5810199Y4011929D01*
G37*
G36*
X3561943Y4011320D02*
G01*
X3561943Y4069892D01*
X3503320Y4069892D01*
X3503879Y4068216D01*
X3509924Y4055973D01*
X3517493Y4044696D01*
X3526485Y4034434D01*
X3536645Y4025493D01*
X3548024Y4017924D01*
X3560165Y4011929D01*
G37*
G36*
X1864004Y4011320D02*
G01*
X1877517Y4012184D01*
X1890877Y4014825D01*
X1903780Y4019194D01*
X1916023Y4025239D01*
X1927301Y4032808D01*
X1937512Y4041749D01*
X1946452Y4051960D01*
X1954022Y4063288D01*
X1960067Y4075480D01*
X1964385Y4088384D01*
X1967077Y4101693D01*
X1967992Y4115308D01*
X1967077Y4128871D01*
X1964385Y4142181D01*
X1960067Y4155084D01*
X1954022Y4167276D01*
X1946452Y4178604D01*
X1937512Y4188815D01*
X1927301Y4197807D01*
X1916023Y4205325D01*
X1903780Y4211370D01*
X1890877Y4215739D01*
X1877517Y4218381D01*
X1864004Y4219295D01*
X1850389Y4218381D01*
X1837029Y4215739D01*
X1824228Y4211370D01*
X1811985Y4205325D01*
X1800707Y4197807D01*
X1790446Y4188815D01*
X1781454Y4178604D01*
X1773885Y4167276D01*
X1767941Y4155084D01*
X1763522Y4142181D01*
X1760829Y4128871D01*
X1760016Y4115308D01*
X1760829Y4101693D01*
X1763522Y4088384D01*
X1767941Y4075480D01*
X1773885Y4063288D01*
X1781454Y4051960D01*
X1790446Y4041749D01*
X1800707Y4032808D01*
X1811985Y4025239D01*
X1824228Y4019194D01*
X1837029Y4014825D01*
X1850389Y4012184D01*
G37*
G36*
X6397345Y4011320D02*
G01*
X6410858Y4012184D01*
X6424218Y4014825D01*
X6437122Y4019194D01*
X6449263Y4025239D01*
X6460591Y4032808D01*
X6470802Y4041749D01*
X6479794Y4051960D01*
X6487363Y4063288D01*
X6493408Y4075480D01*
X6497777Y4088384D01*
X6500418Y4101693D01*
X6501333Y4115308D01*
X6500418Y4128871D01*
X6497777Y4142181D01*
X6493408Y4155084D01*
X6487363Y4167276D01*
X6479794Y4178604D01*
X6470802Y4188815D01*
X6460591Y4197807D01*
X6449263Y4205325D01*
X6437122Y4211370D01*
X6424218Y4215739D01*
X6410858Y4218381D01*
X6397345Y4219295D01*
X6383731Y4218381D01*
X6370370Y4215739D01*
X6357518Y4211370D01*
X6345275Y4205325D01*
X6334048Y4197807D01*
X6323736Y4188815D01*
X6314795Y4178604D01*
X6307277Y4167276D01*
X6301282Y4155084D01*
X6296863Y4142181D01*
X6294170Y4128871D01*
X6293358Y4115308D01*
X6294170Y4101693D01*
X6296863Y4088384D01*
X6301282Y4075480D01*
X6307277Y4063288D01*
X6314795Y4051960D01*
X6323736Y4041749D01*
X6334048Y4032808D01*
X6345275Y4025239D01*
X6357518Y4019194D01*
X6370370Y4014825D01*
X6383731Y4012184D01*
G37*
G36*
X2122322Y4011320D02*
G01*
X2135835Y4012184D01*
X2149195Y4014825D01*
X2162098Y4019194D01*
X2174341Y4025239D01*
X2185568Y4032808D01*
X2195880Y4041749D01*
X2204770Y4051960D01*
X2212340Y4063288D01*
X2218385Y4075480D01*
X2222804Y4088384D01*
X2225395Y4101693D01*
X2226310Y4115308D01*
X2225395Y4128871D01*
X2222804Y4142181D01*
X2218385Y4155084D01*
X2212340Y4167276D01*
X2204770Y4178604D01*
X2195880Y4188815D01*
X2185568Y4197807D01*
X2174341Y4205325D01*
X2162098Y4211370D01*
X2149195Y4215739D01*
X2135835Y4218381D01*
X2122322Y4219295D01*
X2108708Y4218381D01*
X2095347Y4215739D01*
X2082495Y4211370D01*
X2070354Y4205325D01*
X2059025Y4197807D01*
X2048814Y4188815D01*
X2039772Y4178604D01*
X2032254Y4167276D01*
X2026259Y4155084D01*
X2021839Y4142181D01*
X2019249Y4128871D01*
X2018334Y4115308D01*
X2019249Y4101693D01*
X2021839Y4088384D01*
X2026259Y4075480D01*
X2032254Y4063288D01*
X2039772Y4051960D01*
X2048814Y4041749D01*
X2059025Y4032808D01*
X2070354Y4025239D01*
X2082495Y4019194D01*
X2095347Y4014825D01*
X2108708Y4012184D01*
G37*
G36*
X2785973Y4011320D02*
G01*
X2799486Y4012184D01*
X2812897Y4014825D01*
X2825699Y4019194D01*
X2837942Y4025239D01*
X2849270Y4032808D01*
X2859481Y4041749D01*
X2868422Y4051960D01*
X2876042Y4063288D01*
X2882036Y4075480D01*
X2886354Y4088384D01*
X2888996Y4101693D01*
X2889961Y4115308D01*
X2888996Y4128871D01*
X2886354Y4142181D01*
X2882036Y4155084D01*
X2876042Y4167276D01*
X2868422Y4178604D01*
X2859481Y4188815D01*
X2849270Y4197807D01*
X2837942Y4205325D01*
X2825699Y4211370D01*
X2812897Y4215739D01*
X2799486Y4218381D01*
X2785973Y4219295D01*
X2772410Y4218381D01*
X2758998Y4215739D01*
X2746095Y4211370D01*
X2733954Y4205325D01*
X2722626Y4197807D01*
X2712415Y4188815D01*
X2703474Y4178604D01*
X2695854Y4167276D01*
X2689860Y4155084D01*
X2685440Y4142181D01*
X2682798Y4128871D01*
X2681935Y4115308D01*
X2682798Y4101693D01*
X2685440Y4088384D01*
X2689860Y4075480D01*
X2695854Y4063288D01*
X2703474Y4051960D01*
X2712415Y4041749D01*
X2722626Y4032808D01*
X2733954Y4025239D01*
X2746095Y4019194D01*
X2758998Y4014825D01*
X2772410Y4012184D01*
G37*
G36*
X1584248Y4022648D02*
G01*
X1584248Y4081170D01*
X1525625Y4081170D01*
X1526235Y4079494D01*
X1532229Y4067301D01*
X1539798Y4055973D01*
X1548790Y4045762D01*
X1559001Y4036771D01*
X1570329Y4029252D01*
X1582470Y4023207D01*
G37*
G36*
X1660448Y4022648D02*
G01*
X1662074Y4023207D01*
X1674317Y4029252D01*
X1685645Y4036771D01*
X1695856Y4045762D01*
X1704797Y4055973D01*
X1712417Y4067301D01*
X1718411Y4079494D01*
X1718970Y4081170D01*
X1660448Y4081170D01*
G37*
G36*
X1385366Y4022648D02*
G01*
X1387094Y4023207D01*
X1399336Y4029252D01*
X1410665Y4036771D01*
X1420876Y4045762D01*
X1429816Y4055973D01*
X1437335Y4067301D01*
X1443431Y4079494D01*
X1443990Y4081170D01*
X1385366Y4081170D01*
G37*
G36*
X1309166Y4022648D02*
G01*
X1309166Y4081170D01*
X1250645Y4081170D01*
X1251254Y4079494D01*
X1257249Y4067301D01*
X1264818Y4055973D01*
X1273810Y4045762D01*
X1284020Y4036771D01*
X1295349Y4029252D01*
X1307490Y4023207D01*
G37*
G36*
X3888079Y4146092D02*
G01*
X3946601Y4146092D01*
X3946042Y4147769D01*
X3940098Y4160012D01*
X3932529Y4171289D01*
X3923537Y4181551D01*
X3913327Y4190492D01*
X3901998Y4198061D01*
X3889756Y4204055D01*
X3888079Y4204665D01*
G37*
G36*
X3753358Y4146092D02*
G01*
X3811879Y4146092D01*
X3811879Y4204665D01*
X3810152Y4204055D01*
X3798011Y4198061D01*
X3786682Y4190492D01*
X3776472Y4181551D01*
X3767531Y4171289D01*
X3759962Y4160012D01*
X3753916Y4147769D01*
G37*
G36*
X3638143Y4146092D02*
G01*
X3696665Y4146092D01*
X3696106Y4147769D01*
X3690061Y4159961D01*
X3682492Y4171289D01*
X3673551Y4181500D01*
X3663340Y4190492D01*
X3652012Y4198061D01*
X3639769Y4204055D01*
X3638143Y4204665D01*
G37*
G36*
X5888075Y4146092D02*
G01*
X5946597Y4146092D01*
X5946038Y4147769D01*
X5940044Y4160012D01*
X5932525Y4171289D01*
X5923483Y4181551D01*
X5913272Y4190492D01*
X5901944Y4198061D01*
X5889802Y4204055D01*
X5888075Y4204665D01*
G37*
G36*
X6188100Y4146092D02*
G01*
X6246622Y4146092D01*
X6246063Y4147769D01*
X6240068Y4160012D01*
X6232448Y4171289D01*
X6223508Y4181500D01*
X6213297Y4190492D01*
X6201968Y4198061D01*
X6189827Y4204055D01*
X6188100Y4204665D01*
G37*
G36*
X6053328Y4146092D02*
G01*
X6111900Y4146092D01*
X6111900Y4204665D01*
X6110224Y4204055D01*
X6097981Y4198061D01*
X6086652Y4190492D01*
X6076442Y4181500D01*
X6067501Y4171289D01*
X6059881Y4160012D01*
X6053886Y4147769D01*
G37*
G36*
X5753354Y4146092D02*
G01*
X5811875Y4146092D01*
X5811875Y4204665D01*
X5810199Y4204055D01*
X5797956Y4198061D01*
X5786729Y4190492D01*
X5776417Y4181551D01*
X5767527Y4171289D01*
X5759958Y4160012D01*
X5753963Y4147769D01*
G37*
G36*
X3503320Y4146092D02*
G01*
X3561943Y4146092D01*
X3561943Y4204665D01*
X3560165Y4204055D01*
X3548024Y4198061D01*
X3536645Y4190492D01*
X3526485Y4181500D01*
X3517493Y4171289D01*
X3509924Y4159961D01*
X3503879Y4147769D01*
G37*
G36*
X1525625Y4157370D02*
G01*
X1584248Y4157370D01*
X1584248Y4215942D01*
X1582470Y4215384D01*
X1570329Y4209338D01*
X1559001Y4201769D01*
X1548790Y4192828D01*
X1539798Y4182618D01*
X1532229Y4171289D01*
X1526235Y4159097D01*
G37*
G36*
X1660448Y4157370D02*
G01*
X1718970Y4157370D01*
X1718411Y4159097D01*
X1712417Y4171289D01*
X1704797Y4182618D01*
X1695856Y4192828D01*
X1685645Y4201769D01*
X1674317Y4209338D01*
X1662074Y4215384D01*
X1660448Y4215942D01*
G37*
G36*
X1385366Y4157370D02*
G01*
X1443990Y4157370D01*
X1443431Y4159097D01*
X1437335Y4171289D01*
X1429816Y4182618D01*
X1420876Y4192828D01*
X1410665Y4201769D01*
X1399336Y4209338D01*
X1387094Y4215384D01*
X1385366Y4215942D01*
G37*
G36*
X1250645Y4157370D02*
G01*
X1309166Y4157370D01*
X1309166Y4215942D01*
X1307490Y4215384D01*
X1295349Y4209338D01*
X1284020Y4201769D01*
X1273810Y4192828D01*
X1264818Y4182618D01*
X1257249Y4171289D01*
X1251254Y4159097D01*
G37*
G36*
X246634Y4374184D02*
G01*
X263398Y4374642D01*
X266750Y4374946D01*
X283210Y4377283D01*
X286562Y4377994D01*
X302717Y4382211D01*
X305968Y4383278D01*
X321513Y4389323D01*
X324561Y4390745D01*
X339344Y4398518D01*
X342239Y4400296D01*
X356006Y4409694D01*
X358749Y4411776D01*
X371348Y4422698D01*
X373786Y4425086D01*
X385064Y4437380D01*
X387197Y4439970D01*
X397002Y4453483D01*
X398830Y4456328D01*
X407060Y4470857D01*
X408584Y4473905D01*
X415035Y4489297D01*
X416204Y4492498D01*
X421690Y4511802D01*
X424535Y4528261D01*
X424891Y4531614D01*
X425805Y4548276D01*
X425805Y4551680D01*
X424891Y4568342D01*
X424535Y4571746D01*
X421690Y4588154D01*
X416204Y4607509D01*
X408584Y4626051D01*
X407060Y4629099D01*
X398830Y4643628D01*
X397002Y4646472D01*
X387197Y4659985D01*
X385064Y4662627D01*
X373786Y4674920D01*
X371348Y4677257D01*
X358749Y4688230D01*
X342239Y4699711D01*
X339344Y4701438D01*
X324561Y4709261D01*
X321513Y4710633D01*
X305968Y4716729D01*
X286562Y4722012D01*
X283210Y4722672D01*
X266750Y4725060D01*
X263398Y4725365D01*
X246634Y4725822D01*
X243332Y4725720D01*
X226669Y4724298D01*
X223316Y4723790D01*
X206908Y4720488D01*
X203606Y4719624D01*
X187807Y4714494D01*
X169418Y4706315D01*
X166420Y4704740D01*
X152146Y4696104D01*
X149301Y4694174D01*
X136093Y4684014D01*
X121564Y4670145D01*
X108712Y4654702D01*
X106730Y4651959D01*
X96012Y4634992D01*
X88646Y4620006D01*
X87325Y4616856D01*
X81788Y4601159D01*
X80822Y4597908D01*
X77012Y4581652D01*
X76454Y4578299D01*
X74523Y4561738D01*
X74371Y4541621D01*
X74523Y4538268D01*
X76454Y4521657D01*
X77012Y4518355D01*
X80822Y4502099D01*
X81788Y4498797D01*
X87325Y4483100D01*
X88646Y4479950D01*
X96012Y4465015D01*
X97739Y4462018D01*
X106730Y4447997D01*
X108712Y4445254D01*
X121564Y4429810D01*
X133604Y4418177D01*
X136093Y4415993D01*
X149301Y4405782D01*
X152146Y4403852D01*
X166420Y4395266D01*
X169418Y4393692D01*
X184658Y4386732D01*
X187807Y4385513D01*
X203606Y4380331D01*
X206908Y4379468D01*
X223316Y4376166D01*
X226669Y4375708D01*
X243332Y4374235D01*
G37*

%LPD*%
D10*
X49123Y550011D02*
G01*
X144627Y550011D01*
X49123Y550011D02*
G01*
X49123Y581761D01*
X53695Y595477D01*
X62839Y604621D01*
X71729Y609193D01*
X85445Y613511D01*
X108305Y613511D01*
X121767Y609193D01*
X130911Y604621D01*
X140055Y595477D01*
X144627Y581761D01*
X144627Y550011D01*
X108305Y643737D02*
G01*
X108305Y698093D01*
X99161Y698093D01*
X90017Y693521D01*
X85445Y689203D01*
X80873Y680059D01*
X80873Y666343D01*
X85445Y657199D01*
X94589Y648055D01*
X108305Y643737D01*
X117195Y643737D01*
X130911Y648055D01*
X140055Y657199D01*
X144627Y666343D01*
X144627Y680059D01*
X140055Y689203D01*
X130911Y698093D01*
X94589Y778103D02*
G01*
X85445Y773531D01*
X80873Y760069D01*
X80873Y746353D01*
X85445Y732637D01*
X94589Y728065D01*
X103733Y732637D01*
X108305Y741781D01*
X112623Y764641D01*
X117195Y773531D01*
X126339Y778103D01*
X130911Y778103D01*
X140055Y773531D01*
X144627Y760069D01*
X144627Y746353D01*
X140055Y732637D01*
X130911Y728065D01*
X49123Y808075D02*
G01*
X53695Y812647D01*
X49123Y817219D01*
X44551Y812647D01*
X49123Y808075D01*
X80873Y812647D02*
G01*
X144627Y812647D01*
X80873Y901801D02*
G01*
X153517Y901801D01*
X167233Y897229D01*
X171805Y892657D01*
X176377Y883513D01*
X176377Y870051D01*
X171805Y860907D01*
X94589Y901801D02*
G01*
X85445Y892657D01*
X80873Y883513D01*
X80873Y870051D01*
X85445Y860907D01*
X94589Y851763D01*
X108305Y847191D01*
X117195Y847191D01*
X130911Y851763D01*
X140055Y860907D01*
X144627Y870051D01*
X144627Y883513D01*
X140055Y892657D01*
X130911Y901801D01*
X80873Y931773D02*
G01*
X144627Y931773D01*
X99161Y931773D02*
G01*
X85445Y945489D01*
X80873Y954633D01*
X80873Y968095D01*
X85445Y977239D01*
X99161Y981811D01*
X144627Y981811D01*
X108305Y1011783D02*
G01*
X108305Y1066393D01*
X99161Y1066393D01*
X90017Y1061821D01*
X85445Y1057249D01*
X80873Y1048105D01*
X80873Y1034643D01*
X85445Y1025499D01*
X94589Y1016355D01*
X108305Y1011783D01*
X117195Y1011783D01*
X130911Y1016355D01*
X140055Y1025499D01*
X144627Y1034643D01*
X144627Y1048105D01*
X140055Y1057249D01*
X130911Y1066393D01*
X49123Y1150975D02*
G01*
X144627Y1150975D01*
X94589Y1150975D02*
G01*
X85445Y1141831D01*
X80873Y1132687D01*
X80873Y1118971D01*
X85445Y1110081D01*
X94589Y1100937D01*
X108305Y1096365D01*
X117195Y1096365D01*
X130911Y1100937D01*
X140055Y1110081D01*
X144627Y1118971D01*
X144627Y1132687D01*
X140055Y1141831D01*
X130911Y1150975D01*
X49123Y1250797D02*
G01*
X144627Y1250797D01*
X94589Y1250797D02*
G01*
X85445Y1259941D01*
X80873Y1269085D01*
X80873Y1282801D01*
X85445Y1291691D01*
X94589Y1300835D01*
X108305Y1305407D01*
X117195Y1305407D01*
X130911Y1300835D01*
X140055Y1291691D01*
X144627Y1282801D01*
X144627Y1269085D01*
X140055Y1259941D01*
X130911Y1250797D01*
X80873Y1339951D02*
G01*
X144627Y1367383D01*
X80873Y1394561D02*
G01*
X144627Y1367383D01*
X162661Y1358239D01*
X171805Y1349095D01*
X176377Y1339951D01*
X176377Y1335379D01*
X199034Y450087D02*
G01*
X294538Y450087D01*
X199034Y450087D02*
G01*
X199034Y490981D01*
X203606Y504444D01*
X208178Y509015D01*
X217322Y513587D01*
X226466Y513587D01*
X235356Y509015D01*
X239928Y504444D01*
X244500Y490981D01*
X244500Y450087D02*
G01*
X244500Y490981D01*
X249072Y504444D01*
X253644Y509015D01*
X262788Y513587D01*
X276250Y513587D01*
X285394Y509015D01*
X289966Y504444D01*
X294538Y490981D01*
X294538Y450087D01*
X230784Y543560D02*
G01*
X294538Y543560D01*
X258216Y543560D02*
G01*
X244500Y548131D01*
X235356Y557276D01*
X230784Y566420D01*
X230784Y579881D01*
X230784Y610107D02*
G01*
X276250Y610107D01*
X289966Y614426D01*
X294538Y623570D01*
X294538Y637286D01*
X289966Y646429D01*
X276250Y659892D01*
X230784Y659892D02*
G01*
X294538Y659892D01*
X230784Y690118D02*
G01*
X294538Y690118D01*
X249072Y690118D02*
G01*
X235356Y703579D01*
X230784Y712723D01*
X230784Y726439D01*
X235356Y735329D01*
X249072Y739902D01*
X294538Y739902D01*
X230784Y792734D02*
G01*
X235356Y783589D01*
X244500Y774445D01*
X258216Y769873D01*
X267360Y769873D01*
X280822Y774445D01*
X289966Y783589D01*
X294538Y792734D01*
X294538Y806450D01*
X289966Y815339D01*
X280822Y824484D01*
X267360Y829055D01*
X258216Y829055D01*
X244500Y824484D01*
X235356Y815339D01*
X230784Y806450D01*
X230784Y792734D01*
X212750Y992631D02*
G01*
X203606Y983742D01*
X199034Y970026D01*
X199034Y951737D01*
X203606Y938276D01*
X212750Y929131D01*
X221894Y929131D01*
X230784Y933704D01*
X235356Y938276D01*
X239928Y947165D01*
X249072Y974597D01*
X253644Y983742D01*
X258216Y988060D01*
X267360Y992631D01*
X280822Y992631D01*
X289966Y983742D01*
X294538Y970026D01*
X294538Y951737D01*
X289966Y938276D01*
X280822Y929131D01*
X230784Y1077213D02*
G01*
X294538Y1077213D01*
X244500Y1077213D02*
G01*
X235356Y1068070D01*
X230784Y1059179D01*
X230784Y1045463D01*
X235356Y1036320D01*
X244500Y1027176D01*
X258216Y1022604D01*
X267360Y1022604D01*
X280822Y1027176D01*
X289966Y1036320D01*
X294538Y1045463D01*
X294538Y1059179D01*
X289966Y1068070D01*
X280822Y1077213D01*
X230784Y1107186D02*
G01*
X294538Y1107186D01*
X249072Y1107186D02*
G01*
X235356Y1120902D01*
X230784Y1130045D01*
X230784Y1143507D01*
X235356Y1152652D01*
X249072Y1157223D01*
X294538Y1157223D01*
X249072Y1157223D02*
G01*
X235356Y1170939D01*
X230784Y1180084D01*
X230784Y1193545D01*
X235356Y1202689D01*
X249072Y1207262D01*
X294538Y1207262D01*
X230784Y1237234D02*
G01*
X326288Y1237234D01*
X244500Y1237234D02*
G01*
X235356Y1246378D01*
X230784Y1255521D01*
X230784Y1268984D01*
X235356Y1278128D01*
X244500Y1287271D01*
X258216Y1291844D01*
X267360Y1291844D01*
X280822Y1287271D01*
X289966Y1278128D01*
X294538Y1268984D01*
X294538Y1255521D01*
X289966Y1246378D01*
X280822Y1237234D01*
X230784Y1376426D02*
G01*
X294538Y1376426D01*
X244500Y1376426D02*
G01*
X235356Y1367281D01*
X230784Y1358137D01*
X230784Y1344421D01*
X235356Y1335531D01*
X244500Y1326387D01*
X258216Y1321815D01*
X267360Y1321815D01*
X280822Y1326387D01*
X289966Y1335531D01*
X294538Y1344421D01*
X294538Y1358137D01*
X289966Y1367281D01*
X280822Y1376426D01*
X199034Y1406397D02*
G01*
X203606Y1410970D01*
X199034Y1415542D01*
X194462Y1410970D01*
X199034Y1406397D01*
X230784Y1410970D02*
G01*
X294538Y1410970D01*
X230784Y1468120D02*
G01*
X235356Y1458976D01*
X244500Y1450086D01*
X258216Y1445513D01*
X267360Y1445513D01*
X280822Y1450086D01*
X289966Y1458976D01*
X294538Y1468120D01*
X294538Y1481836D01*
X289966Y1490979D01*
X280822Y1500123D01*
X267360Y1504442D01*
X258216Y1504442D01*
X244500Y1500123D01*
X235356Y1490979D01*
X230784Y1481836D01*
X230784Y1468120D01*
X348995Y550087D02*
G01*
X417321Y550087D01*
X430784Y554659D01*
X439928Y563549D01*
X444500Y577265D01*
X444500Y586409D01*
X439928Y600125D01*
X430784Y609015D01*
X417321Y613587D01*
X348995Y613587D01*
X348995Y643559D02*
G01*
X444500Y643559D01*
X348995Y643559D02*
G01*
X348995Y702741D01*
X394462Y643559D02*
G01*
X394462Y679881D01*
X362712Y796467D02*
G01*
X353568Y787323D01*
X348995Y773607D01*
X348995Y755573D01*
X353568Y741857D01*
X362712Y732713D01*
X371855Y732713D01*
X381000Y737285D01*
X385571Y741857D01*
X389889Y751001D01*
X399034Y778179D01*
X403605Y787323D01*
X408178Y791895D01*
X417321Y796467D01*
X430784Y796467D01*
X439928Y787323D01*
X444500Y773607D01*
X444500Y755573D01*
X439928Y741857D01*
X430784Y732713D01*
X348995Y826439D02*
G01*
X444500Y826439D01*
X348995Y826439D02*
G01*
X444500Y862761D01*
X348995Y899083D02*
G01*
X444500Y862761D01*
X348995Y899083D02*
G01*
X444500Y899083D01*
X371855Y1003731D02*
G01*
X367284Y1003731D01*
X358139Y1008303D01*
X353568Y1012621D01*
X348995Y1021765D01*
X348995Y1040053D01*
X353568Y1049197D01*
X358139Y1053515D01*
X367284Y1058087D01*
X376428Y1058087D01*
X385571Y1053515D01*
X399034Y1044625D01*
X444500Y999159D01*
X444500Y1062659D01*
X348995Y1120063D02*
G01*
X353568Y1106347D01*
X367284Y1097203D01*
X389889Y1092631D01*
X403605Y1092631D01*
X426465Y1097203D01*
X439928Y1106347D01*
X444500Y1120063D01*
X444500Y1129207D01*
X439928Y1142669D01*
X426465Y1151813D01*
X403605Y1156385D01*
X389889Y1156385D01*
X367284Y1151813D01*
X353568Y1142669D01*
X348995Y1129207D01*
X348995Y1120063D01*
X371855Y1190929D02*
G01*
X367284Y1190929D01*
X358139Y1195501D01*
X353568Y1200073D01*
X348995Y1208963D01*
X348995Y1227251D01*
X353568Y1236395D01*
X358139Y1240967D01*
X367284Y1245539D01*
X376428Y1245539D01*
X385571Y1240967D01*
X399034Y1231823D01*
X444500Y1186357D01*
X444500Y1250111D01*
X371855Y1284655D02*
G01*
X367284Y1284655D01*
X358139Y1288973D01*
X353568Y1293545D01*
X348995Y1302689D01*
X348995Y1320977D01*
X353568Y1330121D01*
X358139Y1334439D01*
X367284Y1339011D01*
X376428Y1339011D01*
X385571Y1334439D01*
X399034Y1325549D01*
X444500Y1280083D01*
X444500Y1343583D01*
X421894Y1378127D02*
G01*
X426465Y1373555D01*
X430784Y1378127D01*
X426465Y1382699D01*
X421894Y1378127D01*
X371855Y1417243D02*
G01*
X367284Y1417243D01*
X358139Y1421815D01*
X353568Y1426387D01*
X348995Y1435531D01*
X348995Y1453565D01*
X353568Y1462709D01*
X358139Y1467281D01*
X367284Y1471853D01*
X376428Y1471853D01*
X385571Y1467281D01*
X399034Y1458137D01*
X444500Y1412671D01*
X444500Y1476425D01*
D11*
X8213496Y2551937D02*
G01*
X8213496Y2360929D01*
X8149996Y2551937D02*
G01*
X8277250Y2551937D01*
X8337194Y2551937D02*
G01*
X8346338Y2542794D01*
X8355482Y2551937D01*
X8346338Y2560828D01*
X8337194Y2551937D01*
X8346338Y2488184D02*
G01*
X8346338Y2360929D01*
X8442604Y2551937D02*
G01*
X8442604Y2397252D01*
X8451748Y2370073D01*
X8470036Y2360929D01*
X8488070Y2360929D01*
X8415426Y2488184D02*
G01*
X8479180Y2488184D01*
X8657234Y2488184D02*
G01*
X8657234Y2360929D01*
X8657234Y2461005D02*
G01*
X8639200Y2479039D01*
X8620912Y2488184D01*
X8593734Y2488184D01*
X8575446Y2479039D01*
X8557158Y2461005D01*
X8548268Y2433573D01*
X8548268Y2415539D01*
X8557158Y2388107D01*
X8575446Y2370073D01*
X8593734Y2360929D01*
X8620912Y2360929D01*
X8639200Y2370073D01*
X8657234Y2388107D01*
X8717178Y2488184D02*
G01*
X8717178Y2360929D01*
X8717178Y2451862D02*
G01*
X8744610Y2479039D01*
X8762644Y2488184D01*
X8790076Y2488184D01*
X8808110Y2479039D01*
X8817254Y2451862D01*
X8817254Y2360929D01*
X9017152Y2551937D02*
G01*
X9017152Y2360929D01*
X9017152Y2551937D02*
G01*
X9099194Y2551937D01*
X9126372Y2542794D01*
X9135516Y2533650D01*
X9144406Y2515362D01*
X9144406Y2497328D01*
X9135516Y2479039D01*
X9126372Y2469895D01*
X9099194Y2461005D01*
X9017152Y2461005D02*
G01*
X9099194Y2461005D01*
X9126372Y2451862D01*
X9135516Y2442718D01*
X9144406Y2424429D01*
X9144406Y2397252D01*
X9135516Y2378963D01*
X9126372Y2370073D01*
X9099194Y2360929D01*
X9017152Y2360929D01*
X9250070Y2488184D02*
G01*
X9231782Y2479039D01*
X9213494Y2461005D01*
X9204604Y2433573D01*
X9204604Y2415539D01*
X9213494Y2388107D01*
X9231782Y2370073D01*
X9250070Y2360929D01*
X9277248Y2360929D01*
X9295536Y2370073D01*
X9313570Y2388107D01*
X9322714Y2415539D01*
X9322714Y2433573D01*
X9313570Y2461005D01*
X9295536Y2479039D01*
X9277248Y2488184D01*
X9250070Y2488184D01*
X9491878Y2488184D02*
G01*
X9491878Y2360929D01*
X9491878Y2461005D02*
G01*
X9473590Y2479039D01*
X9455556Y2488184D01*
X9428124Y2488184D01*
X9410090Y2479039D01*
X9391802Y2461005D01*
X9382658Y2433573D01*
X9382658Y2415539D01*
X9391802Y2388107D01*
X9410090Y2370073D01*
X9428124Y2360929D01*
X9455556Y2360929D01*
X9473590Y2370073D01*
X9491878Y2388107D01*
X9551822Y2488184D02*
G01*
X9551822Y2360929D01*
X9551822Y2433573D02*
G01*
X9560966Y2461005D01*
X9579000Y2479039D01*
X9597288Y2488184D01*
X9624466Y2488184D01*
X9793630Y2551937D02*
G01*
X9793630Y2360929D01*
X9793630Y2461005D02*
G01*
X9775342Y2479039D01*
X9757308Y2488184D01*
X9729876Y2488184D01*
X9711842Y2479039D01*
X9693554Y2461005D01*
X9684410Y2433573D01*
X9684410Y2415539D01*
X9693554Y2388107D01*
X9711842Y2370073D01*
X9729876Y2360929D01*
X9757308Y2360929D01*
X9775342Y2370073D01*
X9793630Y2388107D01*
D12*
X8150097Y2219159D02*
G01*
X8150097Y2155405D01*
X8150097Y2200871D02*
G01*
X8163559Y2214587D01*
X8172704Y2219159D01*
X8186420Y2219159D01*
X8195563Y2214587D01*
X8199881Y2200871D01*
X8199881Y2155405D01*
X8199881Y2200871D02*
G01*
X8213597Y2214587D01*
X8222741Y2219159D01*
X8236458Y2219159D01*
X8245347Y2214587D01*
X8249920Y2200871D01*
X8249920Y2155405D01*
X8334502Y2219159D02*
G01*
X8334502Y2155405D01*
X8334502Y2205443D02*
G01*
X8325358Y2214587D01*
X8316468Y2219159D01*
X8302752Y2219159D01*
X8293608Y2214587D01*
X8284463Y2205443D01*
X8279891Y2191727D01*
X8279891Y2182837D01*
X8284463Y2169121D01*
X8293608Y2159977D01*
X8302752Y2155405D01*
X8316468Y2155405D01*
X8325358Y2159977D01*
X8334502Y2169121D01*
X8419084Y2219159D02*
G01*
X8419084Y2146261D01*
X8414511Y2132799D01*
X8409940Y2128227D01*
X8400795Y2123655D01*
X8387334Y2123655D01*
X8378190Y2128227D01*
X8419084Y2205443D02*
G01*
X8409940Y2214587D01*
X8400795Y2219159D01*
X8387334Y2219159D01*
X8378190Y2214587D01*
X8369045Y2205443D01*
X8364474Y2191727D01*
X8364474Y2182837D01*
X8369045Y2169121D01*
X8378190Y2159977D01*
X8387334Y2155405D01*
X8400795Y2155405D01*
X8409940Y2159977D01*
X8419084Y2169121D01*
X8449056Y2219159D02*
G01*
X8449056Y2155405D01*
X8449056Y2200871D02*
G01*
X8462772Y2214587D01*
X8471915Y2219159D01*
X8485377Y2219159D01*
X8494522Y2214587D01*
X8499093Y2200871D01*
X8499093Y2155405D01*
X8529065Y2191727D02*
G01*
X8583675Y2191727D01*
X8583675Y2200871D01*
X8579104Y2210015D01*
X8574531Y2214587D01*
X8565388Y2219159D01*
X8551925Y2219159D01*
X8542781Y2214587D01*
X8533638Y2205443D01*
X8529065Y2191727D01*
X8529065Y2182837D01*
X8533638Y2169121D01*
X8542781Y2159977D01*
X8551925Y2155405D01*
X8565388Y2155405D01*
X8574531Y2159977D01*
X8583675Y2169121D01*
X8627363Y2250909D02*
G01*
X8627363Y2173693D01*
X8631681Y2159977D01*
X8640825Y2155405D01*
X8649970Y2155405D01*
X8613647Y2219159D02*
G01*
X8645397Y2219159D01*
X8679941Y2250909D02*
G01*
X8684513Y2246337D01*
X8689086Y2250909D01*
X8684513Y2255481D01*
X8679941Y2250909D01*
X8684513Y2219159D02*
G01*
X8684513Y2155405D01*
X8773668Y2205443D02*
G01*
X8764524Y2214587D01*
X8755379Y2219159D01*
X8741918Y2219159D01*
X8732774Y2214587D01*
X8723629Y2205443D01*
X8719058Y2191727D01*
X8719058Y2182837D01*
X8723629Y2169121D01*
X8732774Y2159977D01*
X8741918Y2155405D01*
X8755379Y2155405D01*
X8764524Y2159977D01*
X8773668Y2169121D01*
X8873743Y2191727D02*
G01*
X8928100Y2191727D01*
X8928100Y2200871D01*
X8923527Y2210015D01*
X8918956Y2214587D01*
X8910065Y2219159D01*
X8896350Y2219159D01*
X8887206Y2214587D01*
X8878061Y2205443D01*
X8873743Y2191727D01*
X8873743Y2182837D01*
X8878061Y2169121D01*
X8887206Y2159977D01*
X8896350Y2155405D01*
X8910065Y2155405D01*
X8918956Y2159977D01*
X8928100Y2169121D01*
X8958072Y2219159D02*
G01*
X8958072Y2155405D01*
X8958072Y2200871D02*
G01*
X8971788Y2214587D01*
X8980931Y2219159D01*
X8994647Y2219159D01*
X9003538Y2214587D01*
X9008109Y2200871D01*
X9008109Y2155405D01*
X9092691Y2205443D02*
G01*
X9083547Y2214587D01*
X9074404Y2219159D01*
X9060941Y2219159D01*
X9051797Y2214587D01*
X9042654Y2205443D01*
X9038081Y2191727D01*
X9038081Y2182837D01*
X9042654Y2169121D01*
X9051797Y2159977D01*
X9060941Y2155405D01*
X9074404Y2155405D01*
X9083547Y2159977D01*
X9092691Y2169121D01*
X9145524Y2219159D02*
G01*
X9136379Y2214587D01*
X9127236Y2205443D01*
X9122663Y2191727D01*
X9122663Y2182837D01*
X9127236Y2169121D01*
X9136379Y2159977D01*
X9145524Y2155405D01*
X9158986Y2155405D01*
X9168129Y2159977D01*
X9177274Y2169121D01*
X9181845Y2182837D01*
X9181845Y2191727D01*
X9177274Y2205443D01*
X9168129Y2214587D01*
X9158986Y2219159D01*
X9145524Y2219159D01*
X9266427Y2250909D02*
G01*
X9266427Y2155405D01*
X9266427Y2205443D02*
G01*
X9257284Y2214587D01*
X9248140Y2219159D01*
X9234424Y2219159D01*
X9225534Y2214587D01*
X9216390Y2205443D01*
X9211818Y2191727D01*
X9211818Y2182837D01*
X9216390Y2169121D01*
X9225534Y2159977D01*
X9234424Y2155405D01*
X9248140Y2155405D01*
X9257284Y2159977D01*
X9266427Y2169121D01*
X9296400Y2191727D02*
G01*
X9351009Y2191727D01*
X9351009Y2200871D01*
X9346438Y2210015D01*
X9341865Y2214587D01*
X9332722Y2219159D01*
X9319006Y2219159D01*
X9309861Y2214587D01*
X9300972Y2205443D01*
X9296400Y2191727D01*
X9296400Y2182837D01*
X9300972Y2169121D01*
X9309861Y2159977D01*
X9319006Y2155405D01*
X9332722Y2155405D01*
X9341865Y2159977D01*
X9351009Y2169121D01*
X9380981Y2219159D02*
G01*
X9380981Y2155405D01*
X9380981Y2191727D02*
G01*
X9385554Y2205443D01*
X9394443Y2214587D01*
X9403588Y2219159D01*
X9417304Y2219159D01*
X9517379Y2250909D02*
G01*
X9517379Y2155405D01*
X9517379Y2205443D02*
G01*
X9526270Y2214587D01*
X9535413Y2219159D01*
X9549129Y2219159D01*
X9558274Y2214587D01*
X9567163Y2205443D01*
X9571736Y2191727D01*
X9571736Y2182837D01*
X9567163Y2169121D01*
X9558274Y2159977D01*
X9549129Y2155405D01*
X9535413Y2155405D01*
X9526270Y2159977D01*
X9517379Y2169121D01*
X9624568Y2219159D02*
G01*
X9615424Y2214587D01*
X9606279Y2205443D01*
X9601708Y2191727D01*
X9601708Y2182837D01*
X9606279Y2169121D01*
X9615424Y2159977D01*
X9624568Y2155405D01*
X9638284Y2155405D01*
X9647174Y2159977D01*
X9656318Y2169121D01*
X9660890Y2182837D01*
X9660890Y2191727D01*
X9656318Y2205443D01*
X9647174Y2214587D01*
X9638284Y2219159D01*
X9624568Y2219159D01*
X9745472Y2219159D02*
G01*
X9745472Y2155405D01*
X9745472Y2205443D02*
G01*
X9736327Y2214587D01*
X9727184Y2219159D01*
X9713722Y2219159D01*
X9704577Y2214587D01*
X9695434Y2205443D01*
X9690861Y2191727D01*
X9690861Y2182837D01*
X9695434Y2169121D01*
X9704577Y2159977D01*
X9713722Y2155405D01*
X9727184Y2155405D01*
X9736327Y2159977D01*
X9745472Y2169121D01*
X9775443Y2219159D02*
G01*
X9775443Y2155405D01*
X9775443Y2191727D02*
G01*
X9780015Y2205443D01*
X9789159Y2214587D01*
X9798050Y2219159D01*
X9811765Y2219159D01*
X9896347Y2250909D02*
G01*
X9896347Y2155405D01*
X9896347Y2205443D02*
G01*
X9887204Y2214587D01*
X9878059Y2219159D01*
X9864597Y2219159D01*
X9855454Y2214587D01*
X9846309Y2205443D01*
X9841738Y2191727D01*
X9841738Y2182837D01*
X9846309Y2169121D01*
X9855454Y2159977D01*
X9864597Y2155405D01*
X9878059Y2155405D01*
X9887204Y2159977D01*
X9896347Y2169121D01*
D13*
X830757Y3353307D02*
G01*
X830757Y3269234D01*
X874191Y3225800D01*
X1074089Y3225800D01*
X1171625Y3128263D01*
X1171625Y3020568D01*
D14*
X1374995Y2499997D02*
G01*
X3624994Y2499992D01*
D11*
X5297347Y3353307D02*
G01*
X5297347Y3302762D01*
X5374309Y3225800D01*
X5524169Y3225800D01*
X5671743Y3078226D01*
X5671743Y3020568D01*
X1672005Y3020568D02*
G01*
X1672005Y3121913D01*
X1749983Y3199892D01*
X1968931Y3199892D01*
X2122347Y3353307D01*
X1622221Y3357371D02*
G01*
X1557197Y3357371D01*
X1372285Y3172205D01*
X1372285Y3020568D01*
X1171625Y3078226D02*
G01*
X1171625Y3020568D01*
D15*
X4595987Y2600007D02*
G01*
X4649990Y2654010D01*
X4649990Y2899994D01*
X4853980Y3103984D01*
X4853980Y3250006D01*
X4853863Y3249929D02*
G01*
X4853863Y3549904D01*
X7099985Y3549904D01*
X7099985Y3499865D01*
X4850053Y1400047D02*
G01*
X4851323Y1689100D01*
D11*
X5572175Y4115307D02*
G01*
X5550077Y4137660D01*
X5549988Y4449991D01*
X5349925Y4450079D01*
X1099997Y4450079D01*
X1099997Y4449991D01*
X1099997Y4449991D02*
G01*
X1099997Y4450079D01*
X599871Y4450079D01*
X150037Y3999992D01*
X150037Y3199892D01*
D16*
X3058591Y4115307D02*
G01*
X3058591Y3700018D01*
X5150027Y3700018D01*
X5297347Y3847337D01*
X5297347Y4115307D01*
X830757Y4115307D02*
G01*
X830757Y3819144D01*
X949883Y3700018D01*
X3049955Y3700018D01*
X3058591Y3708654D01*
X3058591Y4115307D01*
D11*
X1099997Y4350004D02*
G01*
X1099997Y4350004D01*
X649909Y4350004D01*
X299897Y3999992D01*
X299897Y3199892D01*
X3331387Y4115307D02*
G01*
X3349929Y4133850D01*
X3349993Y4349991D01*
X3150031Y4350004D01*
X1099997Y4350004D01*
X1099997Y4349991D01*
X1089075Y4115307D02*
G01*
X1099997Y4126229D01*
X1099997Y4249991D01*
X850061Y4249928D01*
X749985Y4249928D01*
X699998Y4249991D01*
X699947Y3700018D01*
X450011Y3450081D01*
X450011Y3199892D01*
D17*
X2450007Y949985D02*
G01*
X2450007Y2199987D01*
X2449997Y2199995D01*
D16*
X2122312Y176298D02*
G01*
X2148611Y149999D01*
X2249995Y149999D01*
X2299995Y199999D01*
X2299893Y450087D01*
X2250109Y500126D01*
X2158161Y500126D01*
X2122347Y535939D01*
D17*
X2350008Y1149985D02*
G01*
X2350008Y2303317D01*
X2350010Y2303320D01*
D16*
X3058591Y4115307D02*
G01*
X3058591Y3691381D01*
X3200069Y3549904D01*
X3450005Y3549904D01*
D11*
X572315Y3353287D02*
G01*
X775609Y3149993D01*
X999997Y3149993D01*
X1072593Y3077397D01*
X1072593Y3020611D01*
X1088984Y3353287D02*
G01*
X1092984Y3357288D01*
X1347309Y3357288D01*
X1347309Y3357288D02*
G01*
X1273253Y3283231D01*
X1273253Y3020611D01*
X1863981Y3353287D02*
G01*
X1859981Y3357288D01*
X1622313Y3357288D01*
D16*
X1372313Y1201971D02*
G01*
X1372313Y2416091D01*
X1171653Y1201971D02*
G01*
X1171653Y1590591D01*
X955753Y1806491D01*
X5872304Y1201971D02*
G01*
X5872304Y2416091D01*
X3622311Y1201966D02*
G01*
X3622311Y2416086D01*
X3822971Y1201966D02*
G01*
X3822971Y1590586D01*
X4038871Y1806486D01*
X3421651Y1201966D02*
G01*
X3421651Y1590586D01*
X3205751Y1806486D01*
X5671644Y1201971D02*
G01*
X5671644Y1590591D01*
X5455744Y1806491D01*
X6072964Y1201971D02*
G01*
X6072964Y1590591D01*
X6288864Y1806491D01*
X1727893Y568243D02*
G01*
X1846280Y686630D01*
X2122312Y686630D01*
X3403993Y585647D02*
G01*
X3421651Y603305D01*
X3421651Y1201966D01*
X3911993Y585647D02*
G01*
X3822971Y674669D01*
X3822971Y1201966D01*
X822314Y346290D02*
G01*
X1044267Y568243D01*
X1219893Y568243D01*
X2122312Y346301D02*
G01*
X2118613Y349999D01*
X1249997Y349999D01*
X1219893Y380103D01*
X1219893Y568243D01*
X2999993Y164993D02*
G01*
X4299991Y165003D01*
X2999993Y334995D02*
G01*
X3250646Y585647D01*
X3403993Y585647D01*
X2999993Y334995D02*
G01*
X4299991Y335005D01*
X3911993Y585647D02*
G01*
X4001681Y675335D01*
X4299991Y675335D01*
X4299991Y165003D02*
G01*
X4314995Y149999D01*
X4399991Y149999D01*
X4449991Y199999D01*
X4449991Y449999D01*
X4375327Y524662D01*
X4299991Y524662D01*
X5199989Y164993D02*
G01*
X6499986Y165003D01*
X5199989Y334995D02*
G01*
X6499986Y335005D01*
X5199989Y334995D02*
G01*
X5450641Y585647D01*
X5603989Y585647D01*
X6111989Y585647D02*
G01*
X6201676Y675335D01*
X6499986Y675335D01*
X6499986Y524662D02*
G01*
X6524650Y499998D01*
X6599986Y499998D01*
X6649986Y449999D01*
X6649986Y199999D01*
X6614990Y165003D01*
X6499986Y165003D01*
X6111989Y585647D02*
G01*
X6072964Y624672D01*
X6072964Y1201971D01*
X5603989Y585647D02*
G01*
X5671644Y653303D01*
X5671644Y1201971D01*
X822314Y176288D02*
G01*
X2122312Y176298D01*
X1572973Y1201971D02*
G01*
X1572973Y1590591D01*
X1788873Y1806491D01*
D14*
X3622311Y2416086D02*
G01*
X5872304Y2416091D01*
X260273Y2654300D02*
G01*
X314629Y2599944D01*
X1372285Y2599944D01*
X1372285Y2416047D01*
D11*
X871905Y3020568D02*
G01*
X871905Y2678176D01*
X1133779Y2416047D01*
X1372285Y2416047D01*
D16*
X260273Y2654300D02*
G01*
X871905Y2654300D01*
X871905Y3020568D01*
X1872665Y3020568D02*
G01*
X1872665Y2672587D01*
X1616125Y2416047D01*
X1372285Y2416047D01*
X3121837Y3020568D02*
G01*
X3121837Y2678176D01*
X3383965Y2416047D01*
X3622217Y2416047D01*
X4122597Y3020568D02*
G01*
X4122597Y2672587D01*
X3866057Y2416047D01*
X3622217Y2416047D01*
X5372023Y3020568D02*
G01*
X5372023Y2678176D01*
X5633897Y2416047D01*
X5872403Y2416047D01*
X6372783Y3020568D02*
G01*
X6372783Y2672587D01*
X6115989Y2416047D01*
X5872403Y2416047D01*
D11*
X2785932Y3353292D02*
G01*
X2989232Y3149993D01*
X3249993Y3149993D01*
X3322591Y3077395D01*
X3322591Y3020606D01*
X3849992Y3345992D02*
G01*
X3857284Y3353285D01*
X4149582Y3353285D01*
D16*
X3421651Y3020606D02*
G01*
X3421651Y2928335D01*
X3499993Y2849994D01*
X3749992Y2849994D01*
X3822971Y2922973D01*
X3822971Y3020606D01*
X5671644Y3020611D02*
G01*
X5671644Y2928338D01*
X5749988Y2849994D01*
X5999988Y2849994D01*
X6072964Y2922971D01*
X6072964Y3020611D01*
D11*
X5022306Y3353287D02*
G01*
X5225600Y3149993D01*
X5499988Y3149993D01*
X5572584Y3077397D01*
X5572584Y3020611D01*
X5572300Y3353287D02*
G01*
X5579595Y3345992D01*
X5849988Y3345992D01*
X5849988Y3345992D02*
G01*
X5773244Y3269249D01*
X5773244Y3020611D01*
X5872304Y3020611D02*
G01*
X5872304Y3172310D01*
X6045987Y3345992D01*
X6149987Y3345992D01*
X6397315Y3353287D02*
G01*
X6390020Y3345992D01*
X6149987Y3345992D01*
X6172024Y3020611D02*
G01*
X6172024Y3122030D01*
X6249987Y3199993D01*
X6519009Y3199993D01*
X6672303Y3353287D01*
D16*
X1347309Y4119288D02*
G01*
X1622313Y4119288D01*
X3599992Y4107992D02*
G01*
X3849992Y4107992D01*
X5849988Y4107992D02*
G01*
X6149987Y4107992D01*
D15*
X7099998Y2649994D02*
G01*
X7099998Y3499993D01*
X7099990Y4349991D02*
G01*
X7099998Y3499993D01*
X7599964Y4349991D02*
G01*
X7599972Y3499993D01*
X7599972Y3499993D02*
G01*
X7599972Y2649994D01*
D16*
X10029977Y3749992D02*
G01*
X9999979Y3719995D01*
X9999979Y3649992D01*
X10088257Y3561714D01*
X10088257Y3528504D01*
X10169982Y3749992D02*
G01*
X10299979Y3749992D01*
X10749940Y3300031D01*
X10811700Y3300031D01*
D11*
X11019967Y2334945D02*
G01*
X10565028Y2334945D01*
X10513479Y2386495D01*
X10513479Y2668244D01*
X10640479Y2668244D02*
G01*
X10649978Y2658745D01*
X10649978Y2449995D01*
X10700029Y2399944D01*
X11019967Y2399944D01*
D16*
X9649980Y370001D02*
G01*
X9649980Y749998D01*
X9135640Y1264338D01*
X9049992Y1264338D01*
X8299983Y1369999D02*
G01*
X8944330Y1369999D01*
X9049992Y1264338D01*
X9649980Y229996D02*
G01*
X9644339Y235638D01*
X9303992Y235638D01*
X8449983Y229996D02*
G01*
X8455624Y235638D01*
X8795992Y235638D01*
D14*
X5872403Y2416047D02*
G01*
X5888405Y2400045D01*
X7349921Y2400045D01*
X7599857Y2649981D01*
D16*
X871933Y1201971D02*
G01*
X973533Y1201971D01*
X1072593Y1201971D02*
G01*
X973533Y1201971D01*
X1672033Y1201971D02*
G01*
X1771093Y1201971D01*
X1872693Y1201971D02*
G01*
X1771093Y1201971D01*
X1572973Y1201971D02*
G01*
X1572973Y723163D01*
X1727893Y568243D01*
X1219893Y568243D02*
G01*
X1171653Y616483D01*
X1171653Y1201971D01*
X1171653Y3020611D02*
G01*
X1171653Y2928338D01*
X1249997Y2849994D01*
X1499997Y2849994D01*
X1572973Y2922971D01*
X1572973Y3020611D01*
D11*
X4422317Y3353307D02*
G01*
X4268901Y3199892D01*
X3999915Y3199892D01*
X3921937Y3121913D01*
X3921937Y3020568D01*
X3622217Y3020568D02*
G01*
X3622217Y3172205D01*
X3795953Y3345942D01*
X3850055Y3345942D01*
X3058591Y3353307D02*
G01*
X3058591Y3291331D01*
X3099993Y3249929D01*
X3260267Y3249929D01*
X3421557Y3088639D01*
X3421557Y3020568D01*
X3331387Y3353307D02*
G01*
X3331387Y3299968D01*
X3600119Y3299968D01*
X3600119Y3345942D01*
X3599992Y3345992D02*
G01*
X3523251Y3269251D01*
X3523251Y3020606D01*
D16*
X9232823Y3073400D02*
G01*
X10088803Y3071368D01*
X9799980Y3524656D02*
G01*
X9803828Y3528504D01*
X10088257Y3528504D01*
X10386479Y2668244D02*
G01*
X10386479Y2849994D01*
X10164991Y3071482D01*
X10088918Y3071482D01*
D11*
X10386479Y2668244D02*
G01*
X10399979Y2681744D01*
X10399979Y2799994D01*
X10449979Y2849994D01*
X10699978Y2849994D01*
X10749978Y2799994D01*
X10749978Y2549994D01*
X10770031Y2529941D01*
X11019967Y2529941D01*
D18*
X10388523Y1816100D02*
G01*
X10386491Y2131821D01*
X10513491Y2131821D02*
G01*
X10515523Y1816100D01*
X10259491Y2131821D02*
G01*
X10259491Y1790445D01*
X10349915Y1700021D01*
X10649889Y1700021D01*
X10749965Y1800097D01*
X10749965Y2150110D01*
X10869853Y2269997D01*
X11019967Y2269997D01*
X10259491Y1790445D02*
G01*
X10169067Y1700021D01*
X9049943Y1700021D01*
X9049943Y1264412D01*
D16*
X8449983Y370001D02*
G01*
X8449983Y399999D01*
X8549982Y499998D01*
X8999981Y499998D01*
X9264342Y235638D01*
X9303992Y235638D01*
X7599857Y3499865D02*
G01*
X7599857Y3599942D01*
X7675295Y3675379D01*
X9800005Y3675379D01*
X7599972Y2649994D02*
G01*
X7599972Y450011D01*
X7819986Y229996D01*
X8449983Y229996D01*
X7749984Y1453997D02*
G01*
X7833982Y1369999D01*
X8299983Y1369999D01*
D11*
X9649980Y229996D02*
G01*
X9779977Y229996D01*
X9849980Y299999D01*
X9849980Y1499996D01*
X9949980Y1599996D01*
X10699978Y1599996D01*
X10849978Y1749996D01*
X10849978Y1949996D01*
X10949978Y2049995D01*
X11149977Y2049995D01*
X11249977Y2149995D01*
X11249977Y2499995D01*
X11220030Y2529941D01*
X11019967Y2529941D01*
D16*
X8299881Y1230121D02*
G01*
X8349919Y1230121D01*
X8349919Y469900D01*
X8449995Y370078D01*
D17*
X6999986Y449999D02*
G01*
X6999986Y1099997D01*
X2550007Y1299997D02*
G01*
X2550007Y2067405D01*
X2552702Y2070100D01*
D11*
X10899978Y2799994D02*
G01*
X10749978Y2799994D01*
X10699976Y2849996D01*
D19*
G01*
X9049994Y1264335D03*
D20*
G01*
X9303994Y235635D03*
G01*
X8795994Y235635D03*
D21*
G01*
X10169982Y3749979D03*
G01*
X10029977Y3749979D03*
D22*
G01*
X6499986Y164998D03*
G01*
X6499986Y335000D03*
G01*
X822325Y346278D03*
G01*
X822325Y176276D03*
G01*
X2122322Y176301D03*
G01*
X2122322Y346303D03*
G01*
X2999993Y335000D03*
G01*
X2999993Y164998D03*
G01*
X4299991Y164998D03*
G01*
X4299991Y335000D03*
G01*
X5199989Y335000D03*
G01*
X5199989Y164998D03*
D23*
G01*
X10811687Y3300018D03*
D24*
G01*
X10088270Y3528517D03*
D25*
G01*
X10088905Y3071489D03*
D26*
G01*
X2122312Y686619D03*
D27*
G01*
X2122322Y535965D03*
D26*
G01*
X4299991Y675323D03*
D27*
G01*
X4299991Y524662D03*
D26*
G01*
X9799980Y3675317D03*
D27*
G01*
X9799980Y3524656D03*
D28*
G01*
X6573342Y3020618D03*
G01*
X6471742Y3020618D03*
G01*
X6372682Y3020618D03*
G01*
X6271082Y3020618D03*
G01*
X6172022Y3020618D03*
G01*
X6072962Y3020618D03*
G01*
X5971362Y3020618D03*
G01*
X5872302Y3020618D03*
G01*
X5773242Y3020618D03*
G01*
X5671642Y3020618D03*
G01*
X5572582Y3020618D03*
G01*
X5473522Y3020618D03*
G01*
X5371922Y3020618D03*
G01*
X5272862Y3020618D03*
G01*
X5171262Y3020618D03*
G01*
X6573342Y1201978D03*
G01*
X6471742Y1201978D03*
G01*
X6372682Y1201978D03*
G01*
X6271082Y1201978D03*
G01*
X6172022Y1201978D03*
G01*
X6072962Y1201978D03*
G01*
X5971362Y1201978D03*
G01*
X5872302Y1201978D03*
G01*
X5773242Y1201978D03*
G01*
X5671642Y1201978D03*
G01*
X5572582Y1201978D03*
G01*
X5473522Y1201978D03*
G01*
X5371922Y1201978D03*
G01*
X5272862Y1201978D03*
G01*
X5171262Y1201978D03*
D29*
G01*
X5872302Y2416098D03*
D30*
G01*
X6288862Y1806498D03*
G01*
X5455742Y1806498D03*
D28*
G01*
X2073351Y3020618D03*
G01*
X1971751Y3020618D03*
G01*
X1872691Y3020618D03*
G01*
X1771091Y3020618D03*
G01*
X1672031Y3020618D03*
G01*
X1572971Y3020618D03*
G01*
X1471371Y3020618D03*
G01*
X1372311Y3020618D03*
G01*
X1273251Y3020618D03*
G01*
X1171651Y3020618D03*
G01*
X1072591Y3020618D03*
G01*
X973531Y3020618D03*
G01*
X871931Y3020618D03*
G01*
X772871Y3020618D03*
G01*
X671271Y3020618D03*
G01*
X2073351Y1201978D03*
G01*
X1971751Y1201978D03*
G01*
X1872691Y1201978D03*
G01*
X1771091Y1201978D03*
G01*
X1672031Y1201978D03*
G01*
X1572971Y1201978D03*
G01*
X1471371Y1201978D03*
G01*
X1372311Y1201978D03*
G01*
X1273251Y1201978D03*
G01*
X1171651Y1201978D03*
G01*
X1072591Y1201978D03*
G01*
X973531Y1201978D03*
G01*
X871931Y1201978D03*
G01*
X772871Y1201978D03*
G01*
X671271Y1201978D03*
D29*
G01*
X1372311Y2416098D03*
D30*
G01*
X1788871Y1806498D03*
G01*
X955751Y1806498D03*
D28*
G01*
X4323359Y3020593D03*
G01*
X4221759Y3020593D03*
G01*
X4122699Y3020593D03*
G01*
X4021099Y3020593D03*
G01*
X3922039Y3020593D03*
G01*
X3822979Y3020593D03*
G01*
X3721379Y3020593D03*
G01*
X3622319Y3020593D03*
G01*
X3523259Y3020593D03*
G01*
X3421659Y3020593D03*
G01*
X3322599Y3020593D03*
G01*
X3223539Y3020593D03*
G01*
X3121939Y3020593D03*
G01*
X3022879Y3020593D03*
G01*
X2921279Y3020593D03*
G01*
X4323359Y1201953D03*
G01*
X4221759Y1201953D03*
G01*
X4122699Y1201953D03*
G01*
X4021099Y1201953D03*
G01*
X3922039Y1201953D03*
G01*
X3822979Y1201953D03*
G01*
X3721379Y1201953D03*
G01*
X3622319Y1201953D03*
G01*
X3523259Y1201953D03*
G01*
X3421659Y1201953D03*
G01*
X3322599Y1201953D03*
G01*
X3223539Y1201953D03*
G01*
X3121939Y1201953D03*
G01*
X3022879Y1201953D03*
G01*
X2921279Y1201953D03*
D29*
G01*
X3622319Y2416073D03*
D30*
G01*
X4038879Y1806473D03*
G01*
X3205759Y1806473D03*
D26*
G01*
X6499987Y675323D03*
D27*
G01*
X6499986Y524662D03*
D31*
G01*
X10640491Y2668244D03*
G01*
X10513491Y2668244D03*
G01*
X10386491Y2668244D03*
G01*
X10259491Y2668244D03*
G01*
X10640491Y2131745D03*
G01*
X10513491Y2131745D03*
G01*
X10386491Y2131745D03*
G01*
X10259491Y2131745D03*
D32*
G01*
X11019967Y2269947D03*
G01*
X11019967Y2334945D03*
G01*
X11019967Y2399944D03*
G01*
X11019967Y2464943D03*
G01*
X11019967Y2529967D03*
D33*
G01*
X11379987Y2559989D03*
G01*
X11379987Y2240000D03*
D34*
G01*
X9649993Y229996D03*
G01*
X9649993Y370001D03*
G01*
X8449995Y370001D03*
G01*
X8449995Y229996D03*
G01*
X8299983Y1369999D03*
G01*
X8299983Y1229995D03*
D35*
G01*
X7749997Y691997D03*
G01*
X7749997Y1453997D03*
D36*
G01*
X7349997Y1827733D03*
G01*
X7349997Y584936D03*
G01*
X7349997Y833501D03*
G01*
X7349997Y1082065D03*
G01*
X7349997Y1330629D03*
G01*
X7349997Y1579168D03*
G01*
X7349997Y2076297D03*
G01*
X7349997Y336397D03*
D37*
G01*
X3912006Y585647D03*
G01*
X3404006Y585647D03*
D38*
G01*
X8849995Y4199991D03*
G01*
X9349993Y4199991D03*
D39*
G01*
X7599959Y4349978D03*
D40*
G01*
X7099985Y4349978D03*
D39*
G01*
X7599984Y3499993D03*
D40*
G01*
X7099985Y3499993D03*
D39*
G01*
X7599984Y2649981D03*
D40*
G01*
X7099985Y2649981D03*
D37*
G01*
X1727885Y568248D03*
G01*
X1219885Y568248D03*
G01*
X6112002Y585647D03*
G01*
X5604002Y585647D03*
D35*
G01*
X830656Y3353282D03*
G01*
X830656Y4115282D03*
G01*
X3058668Y3353282D03*
G01*
X3058668Y4115282D03*
G01*
X5297297Y3353282D03*
G01*
X5297297Y4115282D03*
G01*
X1863979Y3353282D03*
G01*
X1863979Y4115282D03*
G01*
X1622323Y4119295D03*
G01*
X1622323Y3357295D03*
G01*
X572312Y3353282D03*
G01*
X572312Y4115282D03*
G01*
X2122322Y3353282D03*
G01*
X2122322Y4115282D03*
G01*
X1088974Y3353282D03*
G01*
X1088974Y4115282D03*
G01*
X1347317Y4119295D03*
G01*
X1347317Y3357295D03*
G01*
X4149572Y3353282D03*
G01*
X4149572Y4115282D03*
G01*
X3850004Y4107992D03*
G01*
X3850004Y3345992D03*
G01*
X2785922Y3353282D03*
G01*
X2785922Y4115282D03*
G01*
X4422317Y3353282D03*
G01*
X4422317Y4115282D03*
G01*
X3331387Y3353282D03*
G01*
X3331387Y4115282D03*
G01*
X3599992Y4107992D03*
G01*
X3599992Y3345992D03*
G01*
X6397320Y3353282D03*
G01*
X6397320Y4115282D03*
G01*
X6150000Y4107992D03*
G01*
X6150000Y3345992D03*
G01*
X5022316Y3353282D03*
G01*
X5022316Y4115282D03*
G01*
X6672300Y3353282D03*
G01*
X6672300Y4115282D03*
G01*
X5572302Y3353282D03*
G01*
X5572302Y4115282D03*
G01*
X5850000Y4107992D03*
G01*
X5850000Y3345992D03*
D41*
G01*
X11072977Y2641295D03*
G01*
X11074577Y2157476D03*
D42*
G01*
X11339601Y2037486D03*
G01*
X11339601Y2762478D03*
D37*
G01*
X260350Y2654300D03*
G01*
X260350Y2146300D03*
D43*
G01*
X4595987Y2600007D03*
G01*
X4849987Y2600007D03*
G01*
X4853980Y3250006D03*
G01*
X4599980Y3250006D03*
D44*
G01*
X249986Y2149982D03*
D15*
G01*
X9232900Y3073400D03*
G01*
X10388600Y1816100D03*
G01*
X10515600Y1816100D03*
G01*
X2650007Y1099997D03*
G01*
X4599990Y1449997D03*
G01*
X6999986Y1099997D03*
G01*
X6999986Y449986D03*
G01*
X2449995Y949998D03*
G01*
X2349995Y1149997D03*
G01*
X2549994Y1299997D03*
G01*
X2349500Y2311400D03*
G01*
X2450007Y2199995D03*
G01*
X2552700Y2070100D03*
G01*
X10899978Y2799994D03*
G01*
X3449993Y3549992D03*
G01*
X149999Y3199993D03*
G01*
X299999Y3199993D03*
G01*
X449999Y3199993D03*
G01*
X4851400Y1689100D03*
G01*
X4849990Y1399997D03*
M02*
