G04 Layer: BottomSilkscreenLayer*
G04 EasyEDA v6.5.22, 2023-01-26 14:10:14*
G04 b877e135513245ca8f96004f63138494,c6a1bf633b9a4ba285e4988a7d74c357,10*
G04 Gerber Generator version 0.2*
G04 Scale: 100 percent, Rotated: No, Reflected: No *
G04 Dimensions in millimeters *
G04 leading zeros omitted , absolute positions ,4 integer and 5 decimal *
%FSLAX45Y45*%
%MOMM*%

%ADD10C,0.1524*%
%ADD11C,0.2540*%
%ADD12C,0.2032*%
%ADD13C,0.3000*%
%ADD14C,0.4000*%
%ADD15C,0.0157*%

%LPD*%
D10*
X9458416Y2965333D02*
G01*
X9499981Y2856229D01*
X9458416Y2965333D02*
G01*
X9416854Y2856229D01*
X9484395Y2892597D02*
G01*
X9432439Y2892597D01*
X9309826Y2949747D02*
G01*
X9320217Y2960138D01*
X9335805Y2965333D01*
X9356585Y2965333D01*
X9372173Y2960138D01*
X9382564Y2949747D01*
X9382564Y2939356D01*
X9377367Y2928965D01*
X9372173Y2923768D01*
X9361782Y2918574D01*
X9330608Y2908183D01*
X9320217Y2902988D01*
X9315023Y2897792D01*
X9309826Y2887400D01*
X9309826Y2871815D01*
X9320217Y2861424D01*
X9335805Y2856229D01*
X9356585Y2856229D01*
X9372173Y2861424D01*
X9382564Y2871815D01*
X9213192Y2965333D02*
G01*
X9265145Y2965333D01*
X9270342Y2918574D01*
X9265145Y2923768D01*
X9249559Y2928965D01*
X9233974Y2928965D01*
X9218386Y2923768D01*
X9207995Y2913379D01*
X9202800Y2897792D01*
X9202800Y2887400D01*
X9207995Y2871815D01*
X9218386Y2861424D01*
X9233974Y2856229D01*
X9249559Y2856229D01*
X9265145Y2861424D01*
X9270342Y2866618D01*
X9275536Y2877009D01*
X9137337Y2965333D02*
G01*
X9152925Y2960138D01*
X9163316Y2944550D01*
X9168511Y2918574D01*
X9168511Y2902988D01*
X9163316Y2877009D01*
X9152925Y2861424D01*
X9137337Y2856229D01*
X9126946Y2856229D01*
X9111361Y2861424D01*
X9100969Y2877009D01*
X9095775Y2902988D01*
X9095775Y2918574D01*
X9100969Y2944550D01*
X9111361Y2960138D01*
X9126946Y2965333D01*
X9137337Y2965333D01*
X9009529Y2965333D02*
G01*
X9061485Y2892597D01*
X8983553Y2892597D01*
X9009529Y2965333D02*
G01*
X9009529Y2856229D01*
X8923286Y2965333D02*
G01*
X8938872Y2960138D01*
X8944066Y2949747D01*
X8944066Y2939356D01*
X8938872Y2928965D01*
X8928481Y2923768D01*
X8907698Y2918574D01*
X8892113Y2913379D01*
X8881722Y2902988D01*
X8876525Y2892597D01*
X8876525Y2877009D01*
X8881722Y2866618D01*
X8886916Y2861424D01*
X8902504Y2856229D01*
X8923286Y2856229D01*
X8938872Y2861424D01*
X8944066Y2866618D01*
X8949263Y2877009D01*
X8949263Y2892597D01*
X8944066Y2902988D01*
X8933675Y2913379D01*
X8918089Y2918574D01*
X8897307Y2923768D01*
X8886916Y2928965D01*
X8881722Y2939356D01*
X8881722Y2949747D01*
X8886916Y2960138D01*
X8902504Y2965333D01*
X8923286Y2965333D01*
X8800673Y2965333D02*
G01*
X8842235Y2856229D01*
X8800673Y2965333D02*
G01*
X8759108Y2856229D01*
X8826649Y2892597D02*
G01*
X8774696Y2892597D01*
X4108427Y1515336D02*
G01*
X4149991Y1406232D01*
X4108427Y1515336D02*
G01*
X4066865Y1406232D01*
X4134406Y1442600D02*
G01*
X4082450Y1442600D01*
X3996207Y1515336D02*
G01*
X3996207Y1406232D01*
X4032575Y1515336D02*
G01*
X3959837Y1515336D01*
X3925547Y1515336D02*
G01*
X3925547Y1406232D01*
X3925547Y1515336D02*
G01*
X3883985Y1406232D01*
X3842420Y1515336D02*
G01*
X3883985Y1406232D01*
X3842420Y1515336D02*
G01*
X3842420Y1406232D01*
X3808130Y1515336D02*
G01*
X3808130Y1406232D01*
X3808130Y1515336D02*
G01*
X3740589Y1515336D01*
X3808130Y1463382D02*
G01*
X3766565Y1463382D01*
X3808130Y1406232D02*
G01*
X3740589Y1406232D01*
X3628367Y1489359D02*
G01*
X3633563Y1499750D01*
X3643955Y1510141D01*
X3654346Y1515336D01*
X3675125Y1515336D01*
X3685517Y1510141D01*
X3695908Y1499750D01*
X3701105Y1489359D01*
X3706299Y1473771D01*
X3706299Y1447794D01*
X3701105Y1432209D01*
X3695908Y1421818D01*
X3685517Y1411427D01*
X3675125Y1406232D01*
X3654346Y1406232D01*
X3643955Y1411427D01*
X3633563Y1421818D01*
X3628367Y1432209D01*
X3628367Y1447794D01*
X3654346Y1447794D02*
G01*
X3628367Y1447794D01*
X3552515Y1515336D02*
G01*
X3594077Y1406232D01*
X3552515Y1515336D02*
G01*
X3510950Y1406232D01*
X3578491Y1442600D02*
G01*
X3526536Y1442600D01*
X3476660Y1494553D02*
G01*
X3466269Y1499750D01*
X3450683Y1515336D01*
X3450683Y1406232D01*
X3354047Y1499750D02*
G01*
X3359243Y1510141D01*
X3374829Y1515336D01*
X3385220Y1515336D01*
X3400806Y1510141D01*
X3411197Y1494553D01*
X3416393Y1468577D01*
X3416393Y1442600D01*
X3411197Y1421818D01*
X3400806Y1411427D01*
X3385220Y1406232D01*
X3380026Y1406232D01*
X3364438Y1411427D01*
X3354047Y1421818D01*
X3348852Y1437403D01*
X3348852Y1442600D01*
X3354047Y1458186D01*
X3364438Y1468577D01*
X3380026Y1473771D01*
X3385220Y1473771D01*
X3400806Y1468577D01*
X3411197Y1458186D01*
X3416393Y1442600D01*
X3288586Y1515336D02*
G01*
X3304171Y1510141D01*
X3309365Y1499750D01*
X3309365Y1489359D01*
X3304171Y1478968D01*
X3293780Y1473771D01*
X3272998Y1468577D01*
X3257412Y1463382D01*
X3247021Y1452991D01*
X3241827Y1442600D01*
X3241827Y1427012D01*
X3247021Y1416621D01*
X3252215Y1411427D01*
X3267803Y1406232D01*
X3288586Y1406232D01*
X3304171Y1411427D01*
X3309365Y1416621D01*
X3314562Y1427012D01*
X3314562Y1442600D01*
X3309365Y1452991D01*
X3298977Y1463382D01*
X3283389Y1468577D01*
X3262607Y1473771D01*
X3252215Y1478968D01*
X3247021Y1489359D01*
X3247021Y1499750D01*
X3252215Y1510141D01*
X3267803Y1515336D01*
X3288586Y1515336D01*
X3207537Y1515336D02*
G01*
X3207537Y1406232D01*
X3207537Y1515336D02*
G01*
X3160775Y1515336D01*
X3145190Y1510141D01*
X3139996Y1504944D01*
X3134799Y1494553D01*
X3134799Y1478968D01*
X3139996Y1468577D01*
X3145190Y1463382D01*
X3160775Y1458186D01*
X3207537Y1458186D01*
X1603712Y3917718D02*
G01*
X1609046Y3928132D01*
X1619460Y3938546D01*
X1629620Y3943626D01*
X1650448Y3943626D01*
X1660862Y3938546D01*
X1671276Y3928132D01*
X1676610Y3917718D01*
X1681690Y3901970D01*
X1681690Y3876062D01*
X1676610Y3860568D01*
X1671276Y3850154D01*
X1660862Y3839740D01*
X1650448Y3834660D01*
X1629620Y3834660D01*
X1619460Y3839740D01*
X1609046Y3850154D01*
X1603712Y3860568D01*
X1569422Y3943626D02*
G01*
X1569422Y3834660D01*
X1569422Y3834660D02*
G01*
X1507192Y3834660D01*
X1410418Y3943626D02*
G01*
X1462488Y3943626D01*
X1467568Y3896890D01*
X1462488Y3901970D01*
X1446740Y3907304D01*
X1431246Y3907304D01*
X1415752Y3901970D01*
X1405338Y3891810D01*
X1400004Y3876062D01*
X1400004Y3865648D01*
X1405338Y3850154D01*
X1415752Y3839740D01*
X1431246Y3834660D01*
X1446740Y3834660D01*
X1462488Y3839740D01*
X1467568Y3844820D01*
X1472902Y3855234D01*
X3874261Y3917683D02*
G01*
X3879595Y3928097D01*
X3890009Y3938511D01*
X3900170Y3943591D01*
X3920997Y3943591D01*
X3931411Y3938511D01*
X3941825Y3928097D01*
X3947159Y3917683D01*
X3952240Y3901935D01*
X3952240Y3876027D01*
X3947159Y3860533D01*
X3941825Y3850119D01*
X3931411Y3839705D01*
X3920997Y3834625D01*
X3900170Y3834625D01*
X3890009Y3839705D01*
X3879595Y3850119D01*
X3874261Y3860533D01*
X3839972Y3943591D02*
G01*
X3839972Y3834625D01*
X3839972Y3943591D02*
G01*
X3798570Y3834625D01*
X3756913Y3943591D02*
G01*
X3798570Y3834625D01*
X3756913Y3943591D02*
G01*
X3756913Y3834625D01*
X3660140Y3943591D02*
G01*
X3712209Y3943591D01*
X3717290Y3896855D01*
X3712209Y3901935D01*
X3696715Y3907269D01*
X3680968Y3907269D01*
X3665474Y3901935D01*
X3655059Y3891775D01*
X3649979Y3876027D01*
X3649979Y3865613D01*
X3655059Y3850119D01*
X3665474Y3839705D01*
X3680968Y3834625D01*
X3696715Y3834625D01*
X3712209Y3839705D01*
X3717290Y3844785D01*
X3722624Y3855199D01*
X6114072Y3917721D02*
G01*
X6119406Y3928135D01*
X6129820Y3938549D01*
X6139980Y3943629D01*
X6160808Y3943629D01*
X6171222Y3938549D01*
X6181636Y3928135D01*
X6186970Y3917721D01*
X6192050Y3901973D01*
X6192050Y3876065D01*
X6186970Y3860571D01*
X6181636Y3850157D01*
X6171222Y3839743D01*
X6160808Y3834663D01*
X6139980Y3834663D01*
X6129820Y3839743D01*
X6119406Y3850157D01*
X6114072Y3860571D01*
X6079782Y3943629D02*
G01*
X6079782Y3834663D01*
X6079782Y3943629D02*
G01*
X6033046Y3943629D01*
X6017552Y3938549D01*
X6012218Y3933215D01*
X6007138Y3922801D01*
X6007138Y3912387D01*
X6012218Y3901973D01*
X6017552Y3896893D01*
X6033046Y3891813D01*
X6079782Y3891813D01*
X6043460Y3891813D02*
G01*
X6007138Y3834663D01*
X5910364Y3943629D02*
G01*
X5962434Y3943629D01*
X5967514Y3896893D01*
X5962434Y3901973D01*
X5946940Y3907307D01*
X5931192Y3907307D01*
X5915698Y3901973D01*
X5905284Y3891813D01*
X5899950Y3876065D01*
X5899950Y3865651D01*
X5905284Y3850157D01*
X5915698Y3839743D01*
X5931192Y3834663D01*
X5946940Y3834663D01*
X5962434Y3839743D01*
X5967514Y3844823D01*
X5972848Y3855237D01*
X4807884Y2374679D02*
G01*
X4813218Y2385093D01*
X4823632Y2395507D01*
X4833792Y2400841D01*
X4854620Y2400841D01*
X4865034Y2395507D01*
X4875448Y2385093D01*
X4880782Y2374679D01*
X4885862Y2359185D01*
X4885862Y2333277D01*
X4880782Y2317529D01*
X4875448Y2307115D01*
X4865034Y2296955D01*
X4854620Y2291621D01*
X4833792Y2291621D01*
X4823632Y2296955D01*
X4813218Y2307115D01*
X4807884Y2317529D01*
X4773594Y2400841D02*
G01*
X4700950Y2291621D01*
X4700950Y2400841D02*
G01*
X4773594Y2291621D01*
X4661326Y2374679D02*
G01*
X4661326Y2380013D01*
X4656246Y2390427D01*
X4650912Y2395507D01*
X4640752Y2400841D01*
X4619924Y2400841D01*
X4609510Y2395507D01*
X4604176Y2390427D01*
X4599096Y2380013D01*
X4599096Y2369599D01*
X4604176Y2359185D01*
X4614590Y2343691D01*
X4666660Y2291621D01*
X4593762Y2291621D01*
X4772017Y3539269D02*
G01*
X4777351Y3549683D01*
X4787765Y3560097D01*
X4797925Y3565431D01*
X4818753Y3565431D01*
X4829167Y3560097D01*
X4839581Y3549683D01*
X4844915Y3539269D01*
X4849995Y3523775D01*
X4849995Y3497867D01*
X4844915Y3482119D01*
X4839581Y3471705D01*
X4829167Y3461545D01*
X4818753Y3456211D01*
X4797925Y3456211D01*
X4787765Y3461545D01*
X4777351Y3471705D01*
X4772017Y3482119D01*
X4737727Y3565431D02*
G01*
X4665083Y3456211D01*
X4665083Y3565431D02*
G01*
X4737727Y3456211D01*
X4630793Y3544603D02*
G01*
X4620379Y3549683D01*
X4604885Y3565431D01*
X4604885Y3456211D01*
X5099989Y2965333D02*
G01*
X5027254Y2856229D01*
X5027254Y2965333D02*
G01*
X5099989Y2856229D01*
X4992964Y2944550D02*
G01*
X4982573Y2949747D01*
X4966985Y2965333D01*
X4966985Y2856229D01*
D11*
X9351441Y2239975D02*
G01*
X9351441Y2331415D01*
X9351441Y2468575D02*
G01*
X9351441Y2560015D01*
X9349981Y2624996D02*
G01*
X9338416Y2624996D01*
X8861546Y2624996D02*
G01*
X8849982Y2624996D01*
X8849982Y2174994D01*
X8861546Y2174994D01*
X9338416Y2174994D02*
G01*
X9349981Y2174994D01*
X9351441Y2560015D02*
G01*
X9351441Y2624996D01*
X9351441Y2239975D02*
G01*
X9351441Y2174994D01*
X3303727Y1805000D02*
G01*
X3303727Y2394991D01*
X3893718Y2394991D01*
X3893718Y1805000D01*
X3303727Y1805000D01*
X1060996Y3889969D02*
G01*
X1060996Y3809966D01*
X1171971Y3920954D02*
G01*
X1091973Y3920954D01*
X1171971Y3778989D02*
G01*
X1091973Y3778989D01*
X1229560Y3921536D02*
G01*
X1309560Y3921536D01*
X1340543Y3890553D02*
G01*
X1340543Y3810556D01*
X1229560Y3779575D02*
G01*
X1309560Y3779575D01*
X3310991Y3939969D02*
G01*
X3310991Y3859966D01*
X3421966Y3970954D02*
G01*
X3341969Y3970954D01*
X3421966Y3828989D02*
G01*
X3341969Y3828989D01*
X3479556Y3971536D02*
G01*
X3559556Y3971536D01*
X3590538Y3940553D02*
G01*
X3590538Y3860556D01*
X3479556Y3829575D02*
G01*
X3559556Y3829575D01*
X5560987Y3939969D02*
G01*
X5560987Y3859966D01*
X5671962Y3970954D02*
G01*
X5591964Y3970954D01*
X5671962Y3828989D02*
G01*
X5591964Y3828989D01*
X5729551Y3971536D02*
G01*
X5809551Y3971536D01*
X5840534Y3940553D02*
G01*
X5840534Y3860556D01*
X5729551Y3829575D02*
G01*
X5809551Y3829575D01*
X4595990Y2726994D02*
G01*
X4849990Y2726994D01*
X4595990Y2472994D02*
G01*
X4849990Y2472994D01*
X4853990Y3122993D02*
G01*
X4599990Y3122993D01*
X4853990Y3376993D02*
G01*
X4599990Y3376993D01*
D12*
X4559990Y3069993D02*
G01*
X4939990Y3069993D01*
X4939990Y2769994D01*
X4559990Y2769994D01*
X4559990Y3069993D01*
D11*
G75*
G01*
X9351442Y2468575D02*
G03*
X9351442Y2331415I0J-68580D01*
D13*
G75*
G01*
X3224073Y2506396D02*
G02*
X3224327Y2506396I127J15001D01*
D14*
G75*
G01*
X3378759Y2299894D02*
G02*
X3379013Y2299894I127J19999D01*
D11*
G75*
G01*
X1340549Y3890554D02*
G03*
X1309566Y3921536I-30983J0D01*
G75*
G01*
X1309566Y3779571D02*
G03*
X1340549Y3810556I0J30983D01*
G75*
G01*
X1091979Y3920955D02*
G03*
X1060996Y3889969I0J-30983D01*
G75*
G01*
X1060996Y3809972D02*
G03*
X1091979Y3778989I30983J0D01*
G75*
G01*
X3590544Y3940553D02*
G03*
X3559561Y3971536I-30983J0D01*
G75*
G01*
X3559561Y3829571D02*
G03*
X3590544Y3860556I0J30983D01*
G75*
G01*
X3341975Y3970955D02*
G03*
X3310992Y3939969I0J-30983D01*
G75*
G01*
X3310992Y3859972D02*
G03*
X3341975Y3828989I30983J0D01*
G75*
G01*
X5840540Y3940553D02*
G03*
X5809557Y3971536I-30983J0D01*
G75*
G01*
X5809557Y3829571D02*
G03*
X5840540Y3860556I0J30983D01*
G75*
G01*
X5591970Y3970955D02*
G03*
X5560987Y3939969I0J-30983D01*
G75*
G01*
X5560987Y3859972D02*
G03*
X5591970Y3828989I30983J0D01*
G75*
G01*
X4849990Y2472995D02*
G03*
X4849990Y2726995I0J127000D01*
G75*
G01*
X4595990Y2472995D02*
G02*
X4595990Y2726995I0J127000D01*
G75*
G01*
X4599991Y3376993D02*
G03*
X4599991Y3122993I0J-127000D01*
G75*
G01*
X4853991Y3376993D02*
G02*
X4853991Y3122993I0J-127000D01*
D13*
G75*
G01*
X4565078Y3115066D02*
G02*
X4565333Y3115066I128J15001D01*
D14*
G75*
G01
X9394977Y2099996D02*
G03X9394977Y2099996I-19990J0D01*
M02*
