G04 Layer: BottomSolderMaskLayer*
G04 EasyEDA v6.5.22, 2023-01-26 14:10:14*
G04 b877e135513245ca8f96004f63138494,c6a1bf633b9a4ba285e4988a7d74c357,10*
G04 Gerber Generator version 0.2*
G04 Scale: 100 percent, Rotated: No, Reflected: No *
G04 Dimensions in millimeters *
G04 leading zeros omitted , absolute positions ,4 integer and 5 decimal *
%FSLAX45Y45*%
%MOMM*%

%AMMACRO1*1,1,$1,$2,$3*1,1,$1,$4,$5*1,1,$1,0-$2,0-$3*1,1,$1,0-$4,0-$5*20,1,$1,$2,$3,$4,$5,0*20,1,$1,$4,$5,0-$2,0-$3,0*20,1,$1,0-$2,0-$3,0-$4,0-$5,0*20,1,$1,0-$4,0-$5,$2,$3,0*4,1,4,$2,$3,$4,$5,0-$2,0-$3,0-$4,0-$5,$2,$3,0*%
%ADD10MACRO1,0.1016X0.6502X0.3353X0.6502X-0.3353*%
%ADD11MACRO1,0.1016X-0.3353X0.6502X0.3353X0.6502*%
%ADD12C,1.4732*%
%ADD13O,2.8031948000000004X2.2031959999999997*%
%ADD14C,3.1496*%
%ADD15C,3.1016*%
%ADD16C,2.6016*%
%ADD17MACRO1,0.1016X1.11X-1.11X-1.11X-1.11*%
%ADD18C,1.3000*%
%ADD19O,1.8999962X1.2999974*%
%ADD20MACRO1,0.1016X0.2X0.85X-0.2X0.85*%
%ADD21O,1.7516094000000002X0.5516118*%
%ADD22O,0.5516118X1.7516094000000002*%
%ADD23MACRO1,0.1016X0.4X0.45X-0.4X0.45*%
%ADD24C,1.7272*%
%ADD25MACRO1,0.1016X-0.5X-0.45X0.5X-0.45*%
%ADD26R,3.2032X3.2032*%

%LPD*%
D10*
G01*
X5511800Y1905000D03*
G01*
X5600700Y1803400D03*
G01*
X6288887Y1798396D03*
G01*
X6199987Y1899996D03*
D11*
G01*
X2799994Y3549992D03*
G01*
X3314700Y3556000D03*
D12*
G01*
X7749997Y691997D03*
G01*
X7749997Y1453997D03*
D13*
G01*
X7349997Y1827733D03*
G01*
X7349997Y584936D03*
G01*
X7349997Y833501D03*
G01*
X7349997Y1082065D03*
G01*
X7349997Y1330629D03*
G01*
X7349997Y1579168D03*
G01*
X7349997Y2076297D03*
G01*
X7349997Y336397D03*
D14*
G01*
X3912006Y585647D03*
G01*
X3404006Y585647D03*
D15*
G01*
X8849995Y4199991D03*
G01*
X9349993Y4199991D03*
D16*
G01*
X7599959Y4349978D03*
D17*
G01*
X7099978Y4349991D03*
D16*
G01*
X7599984Y3499993D03*
D17*
G01*
X7099985Y3499993D03*
D16*
G01*
X7599984Y2649981D03*
D17*
G01*
X7099985Y2649994D03*
D14*
G01*
X1727885Y568248D03*
G01*
X1219885Y568248D03*
G01*
X6112002Y585647D03*
G01*
X5604002Y585647D03*
D12*
G01*
X830656Y3353282D03*
G01*
X830656Y4115282D03*
G01*
X3058668Y3353282D03*
G01*
X3058668Y4115282D03*
G01*
X5297297Y3353282D03*
G01*
X5297297Y4115282D03*
G01*
X1863979Y3353282D03*
G01*
X1863979Y4115282D03*
G01*
X1622323Y4119295D03*
G01*
X1622323Y3357295D03*
G01*
X572312Y3353282D03*
G01*
X572312Y4115282D03*
G01*
X2122322Y3353282D03*
G01*
X2122322Y4115282D03*
G01*
X1088974Y3353282D03*
G01*
X1088974Y4115282D03*
G01*
X1347317Y4119295D03*
G01*
X1347317Y3357295D03*
G01*
X4149572Y3353282D03*
G01*
X4149572Y4115282D03*
G01*
X3850004Y4107992D03*
G01*
X3850004Y3345992D03*
G01*
X2785922Y3353282D03*
G01*
X2785922Y4115282D03*
G01*
X4422317Y3353282D03*
G01*
X4422317Y4115282D03*
G01*
X3331387Y3353282D03*
G01*
X3331387Y4115282D03*
G01*
X3599992Y4107992D03*
G01*
X3599992Y3345992D03*
G01*
X6397320Y3353282D03*
G01*
X6397320Y4115282D03*
G01*
X6150000Y4107992D03*
G01*
X6150000Y3345992D03*
G01*
X5022316Y3353282D03*
G01*
X5022316Y4115282D03*
G01*
X6672300Y3353282D03*
G01*
X6672300Y4115282D03*
G01*
X5572302Y3353282D03*
G01*
X5572302Y4115282D03*
G01*
X5850000Y4107992D03*
G01*
X5850000Y3345992D03*
D18*
G01*
X11072977Y2641295D03*
G01*
X11074577Y2157476D03*
D19*
G01*
X11339601Y2037486D03*
G01*
X11339601Y2762478D03*
D14*
G01*
X260350Y2654300D03*
G01*
X260350Y2146300D03*
D20*
G01*
X9294977Y2119985D03*
G01*
X9229979Y2119985D03*
G01*
X9164980Y2119985D03*
G01*
X9099981Y2119985D03*
G01*
X9034983Y2119985D03*
G01*
X8969984Y2119985D03*
G01*
X8904986Y2119985D03*
G01*
X8904986Y2680004D03*
G01*
X8969984Y2680004D03*
G01*
X9034983Y2680004D03*
G01*
X9099981Y2680004D03*
G01*
X9164980Y2680004D03*
G01*
X9229979Y2680004D03*
G01*
X9294977Y2680004D03*
D21*
G01*
X3161842Y2380005D03*
G01*
X3161842Y2299995D03*
G01*
X3161842Y2219985D03*
G01*
X3161842Y2140000D03*
G01*
X3161842Y2059990D03*
G01*
X3161842Y1980006D03*
G01*
X3161842Y1899996D03*
G01*
X3161842Y1819986D03*
D22*
G01*
X3319983Y1663115D03*
G01*
X3399993Y1663115D03*
G01*
X3480003Y1663115D03*
G01*
X3559987Y1663115D03*
G01*
X3639997Y1663115D03*
G01*
X3719982Y1663115D03*
G01*
X3799992Y1663115D03*
G01*
X3880002Y1663115D03*
D21*
G01*
X4038142Y1819986D03*
G01*
X4038142Y1899996D03*
G01*
X4038142Y1980006D03*
G01*
X4038142Y2059990D03*
G01*
X4038142Y2140000D03*
G01*
X4038142Y2219985D03*
G01*
X4038142Y2299995D03*
G01*
X4038142Y2380005D03*
D22*
G01*
X3880002Y2536875D03*
G01*
X3799992Y2536875D03*
G01*
X3719982Y2536875D03*
G01*
X3639997Y2536875D03*
G01*
X3559987Y2536875D03*
G01*
X3480003Y2536875D03*
G01*
X3399993Y2536875D03*
G01*
X3319983Y2536875D03*
D23*
G01*
X1129997Y3849992D03*
G01*
X1269997Y3849992D03*
G01*
X3379993Y3899992D03*
G01*
X3519992Y3899992D03*
G01*
X5629988Y3899992D03*
G01*
X5769988Y3899992D03*
D24*
G01*
X4595987Y2600007D03*
G01*
X4849987Y2600007D03*
G01*
X4853980Y3250006D03*
G01*
X4599980Y3250006D03*
D25*
G01*
X4849990Y2849991D03*
G01*
X4649990Y2989996D03*
G01*
X4649990Y2849991D03*
G01*
X4849990Y2989996D03*
D26*
G01*
X249986Y2149982D03*
M02*
