G04 Layer: BottomLayer*
G04 EasyEDA v6.5.22, 2023-01-26 14:10:14*
G04 b877e135513245ca8f96004f63138494,c6a1bf633b9a4ba285e4988a7d74c357,10*
G04 Gerber Generator version 0.2*
G04 Scale: 100 percent, Rotated: No, Reflected: No *
G04 Dimensions in millimeters *
G04 leading zeros omitted , absolute positions ,4 integer and 5 decimal *
%FSLAX45Y45*%
%MOMM*%

%AMMACRO1*21,1,$1,$2,0,0,$3*%
%ADD10C,0.4000*%
%ADD11C,0.3500*%
%ADD12C,0.7500*%
%ADD13C,0.4500*%
%ADD14R,1.3005X0.6706*%
%ADD15R,0.6706X1.3005*%
%ADD16MACRO1,0.4X1.7X0.0000*%
%ADD17O,1.6500094X0.4500118*%
%ADD18O,0.4500118X1.6500094*%
%ADD19MACRO1,0.8X0.9X0.0000*%
%ADD20MACRO1,1X0.9X0.0000*%
%ADD21C,1.2700*%
%ADD22O,2.5999948X1.9999959999999999*%
%ADD23C,3.0480*%
%ADD24C,3.0000*%
%ADD25C,2.5000*%
%ADD26R,2.2200X2.2200*%
%ADD27C,1.2000*%
%ADD28O,1.7999964X1.1999976*%
%ADD29C,1.5240*%
%ADD30R,3.0000X3.0000*%
%ADD31C,1.0000*%
%ADD32C,0.0171*%

%LPD*%
G36*
X3878224Y2728569D02*
G01*
X3874262Y2729331D01*
X3870960Y2731566D01*
X3868775Y2734818D01*
X3868013Y2738729D01*
X3868013Y2817622D01*
X3868775Y2821482D01*
X3870960Y2824784D01*
X3965194Y2918968D01*
X3968445Y2921203D01*
X3972407Y2921965D01*
X4547108Y2921965D01*
X4550714Y2921304D01*
X4553915Y2919374D01*
X4556150Y2916428D01*
X4557217Y2912872D01*
X4556861Y2909163D01*
X4555185Y2902864D01*
X4554474Y2894533D01*
X4554474Y2878836D01*
X4618685Y2878836D01*
X4618685Y2889300D01*
X4619447Y2893212D01*
X4621631Y2896514D01*
X4624882Y2898698D01*
X4628845Y2899460D01*
X4671161Y2899460D01*
X4675022Y2898698D01*
X4678324Y2896514D01*
X4680559Y2893212D01*
X4681372Y2889300D01*
X4681372Y2878836D01*
X4744313Y2878836D01*
X4748174Y2878074D01*
X4751527Y2875889D01*
X4753711Y2872587D01*
X4754524Y2868676D01*
X4754524Y2831287D01*
X4753711Y2827426D01*
X4751527Y2824124D01*
X4748174Y2821940D01*
X4744313Y2821127D01*
X4678426Y2821127D01*
X4675124Y2818892D01*
X4671161Y2818079D01*
X4628845Y2818079D01*
X4624882Y2818892D01*
X4621479Y2821127D01*
X4551629Y2821127D01*
X4548225Y2818892D01*
X4544364Y2818079D01*
X4000347Y2818079D01*
X3989324Y2817215D01*
X3978910Y2814726D01*
X3969054Y2810611D01*
X3959961Y2805074D01*
X3951579Y2797860D01*
X3885336Y2731566D01*
X3882085Y2729331D01*
G37*

%LPD*%
G36*
X4125163Y2442972D02*
G01*
X4121302Y2443784D01*
X4119168Y2444648D01*
X4108754Y2447137D01*
X4097731Y2448001D01*
X3978554Y2448001D01*
X3967530Y2447137D01*
X3957116Y2444648D01*
X3953052Y2444546D01*
X3949192Y2446020D01*
X3946245Y2448966D01*
X3944772Y2452776D01*
X3944874Y2456891D01*
X3947160Y2466238D01*
X3948023Y2477262D01*
X3948074Y2597607D01*
X3948836Y2601468D01*
X3951020Y2604770D01*
X4025188Y2679039D01*
X4028440Y2681274D01*
X4032300Y2682036D01*
X4485640Y2682036D01*
X4489958Y2681071D01*
X4493361Y2678379D01*
X4495393Y2674467D01*
X4495647Y2670098D01*
X4493920Y2666034D01*
X4492548Y2664053D01*
X4485436Y2650845D01*
X4482947Y2644444D01*
X4551527Y2644444D01*
X4551527Y2671876D01*
X4552340Y2675788D01*
X4554474Y2679039D01*
X4557776Y2681274D01*
X4561738Y2682036D01*
X4630318Y2682036D01*
X4634179Y2681274D01*
X4637481Y2679039D01*
X4639665Y2675788D01*
X4640427Y2671876D01*
X4640427Y2644444D01*
X4709261Y2644444D01*
X4703165Y2657551D01*
X4697679Y2666542D01*
X4696206Y2670556D01*
X4696561Y2674823D01*
X4698695Y2678582D01*
X4702098Y2681122D01*
X4706315Y2682036D01*
X4739640Y2682036D01*
X4743958Y2681071D01*
X4747361Y2678379D01*
X4749393Y2674467D01*
X4749647Y2670098D01*
X4747920Y2666034D01*
X4746548Y2664053D01*
X4739436Y2650845D01*
X4734001Y2636875D01*
X4730343Y2622346D01*
X4728514Y2607462D01*
X4728514Y2592527D01*
X4730343Y2577642D01*
X4734001Y2563114D01*
X4739436Y2549144D01*
X4746548Y2535936D01*
X4755184Y2523693D01*
X4765294Y2512618D01*
X4776622Y2502865D01*
X4789119Y2494584D01*
X4802581Y2487930D01*
X4816652Y2482951D01*
X4831283Y2479751D01*
X4846218Y2478379D01*
X4861204Y2478836D01*
X4876038Y2481122D01*
X4890465Y2485237D01*
X4904282Y2491079D01*
X4917236Y2498547D01*
X4929124Y2507589D01*
X4939893Y2518003D01*
X4949291Y2529687D01*
X4957165Y2542438D01*
X4963464Y2556052D01*
X4968036Y2570327D01*
X4970729Y2585059D01*
X4971643Y2599994D01*
X4970729Y2614930D01*
X4968036Y2629662D01*
X4963464Y2643936D01*
X4957165Y2657551D01*
X4949291Y2670302D01*
X4939893Y2681986D01*
X4929124Y2692400D01*
X4922113Y2697734D01*
X4919929Y2699969D01*
X4918557Y2702763D01*
X4918100Y2705862D01*
X4917998Y2756916D01*
X4918456Y2760116D01*
X4920030Y2763062D01*
X4922316Y2765348D01*
X4929225Y2770174D01*
X4934813Y2775762D01*
X4939334Y2782265D01*
X4942738Y2789428D01*
X4944770Y2797098D01*
X4945481Y2805430D01*
X4945481Y2894533D01*
X4944770Y2902864D01*
X4942738Y2910535D01*
X4940350Y2915716D01*
X4939334Y2919984D01*
X4940350Y2924302D01*
X4942738Y2929432D01*
X4944770Y2937103D01*
X4945481Y2945434D01*
X4945481Y2961132D01*
X4881372Y2961132D01*
X4881372Y2950667D01*
X4880610Y2946755D01*
X4878324Y2943504D01*
X4875022Y2941269D01*
X4871212Y2940507D01*
X4828794Y2940507D01*
X4824933Y2941269D01*
X4821631Y2943504D01*
X4819446Y2946755D01*
X4818684Y2950667D01*
X4818684Y2961132D01*
X4755642Y2961132D01*
X4751781Y2961944D01*
X4748479Y2964129D01*
X4746244Y2967431D01*
X4745532Y2971292D01*
X4745532Y3008680D01*
X4746244Y3012592D01*
X4748479Y3015894D01*
X4751781Y3018078D01*
X4755642Y3018840D01*
X4818684Y3018840D01*
X4818684Y3080512D01*
X4800447Y3080512D01*
X4792065Y3079800D01*
X4784445Y3077718D01*
X4777282Y3074365D01*
X4770729Y3069844D01*
X4765141Y3064205D01*
X4760620Y3057753D01*
X4759248Y3054705D01*
X4757013Y3051606D01*
X4753711Y3049574D01*
X4749952Y3048863D01*
X4746244Y3049574D01*
X4743043Y3051606D01*
X4740808Y3054705D01*
X4739335Y3057753D01*
X4734864Y3064205D01*
X4729226Y3069844D01*
X4722317Y3074670D01*
X4720031Y3076905D01*
X4718558Y3079750D01*
X4717999Y3082950D01*
X4717999Y3199587D01*
X4716881Y3214217D01*
X4717288Y3218180D01*
X4719574Y3227628D01*
X4721504Y3242513D01*
X4721504Y3257499D01*
X4719574Y3272332D01*
X4715967Y3286861D01*
X4710531Y3300882D01*
X4703470Y3314039D01*
X4694834Y3326282D01*
X4684674Y3337356D01*
X4673295Y3347110D01*
X4660849Y3355390D01*
X4647438Y3362045D01*
X4633264Y3367024D01*
X4618685Y3370275D01*
X4603699Y3371646D01*
X4588713Y3371189D01*
X4573981Y3368852D01*
X4559554Y3364788D01*
X4545533Y3358794D01*
X4541672Y3357524D01*
X4537608Y3357829D01*
X4534052Y3359658D01*
X4531461Y3362756D01*
X4530344Y3366617D01*
X4529886Y3370681D01*
X4526838Y3384296D01*
X4521962Y3397402D01*
X4515561Y3409797D01*
X4507534Y3421227D01*
X4498136Y3431590D01*
X4487468Y3440633D01*
X4475784Y3448253D01*
X4463186Y3454298D01*
X4449927Y3458718D01*
X4436211Y3461410D01*
X4422292Y3462274D01*
X4408322Y3461410D01*
X4394708Y3458718D01*
X4381449Y3454298D01*
X4368850Y3448253D01*
X4357166Y3440633D01*
X4346498Y3431590D01*
X4337100Y3421227D01*
X4329074Y3409797D01*
X4322673Y3397402D01*
X4317847Y3384296D01*
X4314748Y3370681D01*
X4313377Y3356762D01*
X4313834Y3342843D01*
X4316018Y3329025D01*
X4319981Y3315665D01*
X4325670Y3302863D01*
X4332935Y3290925D01*
X4341622Y3280003D01*
X4351629Y3270300D01*
X4362856Y3261918D01*
X4374997Y3255060D01*
X4388002Y3249828D01*
X4401515Y3246323D01*
X4415332Y3244494D01*
X4429302Y3244494D01*
X4443120Y3246323D01*
X4456633Y3249828D01*
X4464659Y3253079D01*
X4468418Y3253841D01*
X4472178Y3253130D01*
X4475429Y3251098D01*
X4477715Y3247999D01*
X4478629Y3244291D01*
X4479188Y3235045D01*
X4481931Y3220313D01*
X4486554Y3206038D01*
X4492802Y3192424D01*
X4500626Y3179673D01*
X4510024Y3167989D01*
X4520793Y3157575D01*
X4532731Y3148533D01*
X4545736Y3141065D01*
X4559554Y3135223D01*
X4574641Y3130956D01*
X4578400Y3128873D01*
X4581042Y3125419D01*
X4582007Y3121152D01*
X4582007Y3083001D01*
X4581448Y3079800D01*
X4579975Y3076905D01*
X4577638Y3074670D01*
X4570780Y3069844D01*
X4565142Y3064205D01*
X4561535Y3059988D01*
X4558690Y3058515D01*
X4555490Y3058007D01*
X3940352Y3058007D01*
X3929329Y3057144D01*
X3919016Y3054654D01*
X3909161Y3050540D01*
X3900068Y3045002D01*
X3891584Y3037789D01*
X3752138Y2898394D01*
X3744976Y2889961D01*
X3739438Y2880868D01*
X3735324Y2871012D01*
X3732834Y2860649D01*
X3732022Y2849575D01*
X3732022Y2825597D01*
X3731158Y2821533D01*
X3728669Y2818130D01*
X3725113Y2815996D01*
X3719576Y2815590D01*
X3635654Y2815590D01*
X3631793Y2816352D01*
X3628491Y2818536D01*
X3626256Y2821838D01*
X3625545Y2825750D01*
X3625545Y3139592D01*
X3624681Y3150260D01*
X3622294Y3160217D01*
X3618331Y3169716D01*
X3612997Y3178505D01*
X3606037Y3186633D01*
X3570681Y3221939D01*
X3568395Y3225546D01*
X3567734Y3229762D01*
X3568954Y3233877D01*
X3571697Y3237179D01*
X3575558Y3239008D01*
X3579774Y3239109D01*
X3586073Y3237890D01*
X3600043Y3236976D01*
X3613912Y3237890D01*
X3627628Y3240582D01*
X3640886Y3244951D01*
X3653485Y3250996D01*
X3665169Y3258616D01*
X3675786Y3267710D01*
X3685235Y3278022D01*
X3693160Y3289503D01*
X3699611Y3301847D01*
X3704488Y3314954D01*
X3707637Y3328619D01*
X3708908Y3342487D01*
X3708450Y3356457D01*
X3706215Y3370224D01*
X3702304Y3383635D01*
X3696665Y3396386D01*
X3689400Y3408324D01*
X3680663Y3419246D01*
X3670604Y3429000D01*
X3659479Y3437331D01*
X3647236Y3444189D01*
X3634384Y3449421D01*
X3620820Y3452977D01*
X3606952Y3454755D01*
X3593033Y3454755D01*
X3579164Y3452977D01*
X3565601Y3449421D01*
X3552748Y3444189D01*
X3540506Y3437331D01*
X3531768Y3430778D01*
X3527704Y3428949D01*
X3523183Y3429050D01*
X3519220Y3431082D01*
X3516477Y3434587D01*
X3515563Y3438956D01*
X3515563Y3476548D01*
X3516274Y3480308D01*
X3518306Y3483508D01*
X3524097Y3489706D01*
X3531565Y3500374D01*
X3537559Y3511956D01*
X3541979Y3524250D01*
X3544620Y3537000D01*
X3545535Y3550005D01*
X3544620Y3563010D01*
X3541979Y3575761D01*
X3540963Y3578504D01*
X3540404Y3582314D01*
X3541318Y3586073D01*
X3543452Y3589274D01*
X3546754Y3591356D01*
X3550513Y3592068D01*
X3807206Y3592068D01*
X3817874Y3592931D01*
X3827881Y3595319D01*
X3837381Y3599230D01*
X3846118Y3604615D01*
X3854297Y3611575D01*
X4045915Y3803243D01*
X4052925Y3811371D01*
X4058259Y3820160D01*
X4062222Y3829659D01*
X4064609Y3839616D01*
X4065422Y3850284D01*
X4065422Y4022090D01*
X4066438Y4026458D01*
X4069181Y4029964D01*
X4073144Y4031945D01*
X4077563Y4032046D01*
X4081627Y4030268D01*
X4090162Y4023918D01*
X4102252Y4017060D01*
X4115206Y4011828D01*
X4128719Y4008323D01*
X4142638Y4006494D01*
X4156608Y4006494D01*
X4162806Y4007307D01*
X4165904Y4007256D01*
X4168800Y4006240D01*
X4171238Y4004411D01*
X4270095Y3905605D01*
X4276344Y3900119D01*
X4278122Y3898798D01*
X4285081Y3894429D01*
X4287012Y3893413D01*
X4294581Y3890264D01*
X4296714Y3889603D01*
X4304690Y3887774D01*
X4306824Y3887470D01*
X4315206Y3886911D01*
X5319674Y3886911D01*
X5323535Y3886149D01*
X5326786Y3883964D01*
X5633974Y3577031D01*
X5636158Y3573779D01*
X5636920Y3569868D01*
X5636920Y3459073D01*
X5636107Y3455060D01*
X5633770Y3451707D01*
X5630367Y3449574D01*
X5626354Y3448913D01*
X5622391Y3449929D01*
X5613247Y3454298D01*
X5599988Y3458718D01*
X5586222Y3461410D01*
X5572302Y3462274D01*
X5558332Y3461410D01*
X5544616Y3458718D01*
X5531358Y3454298D01*
X5518861Y3448253D01*
X5507075Y3440633D01*
X5496458Y3431590D01*
X5487111Y3421227D01*
X5479084Y3409797D01*
X5472633Y3397402D01*
X5467858Y3384296D01*
X5464708Y3370681D01*
X5463336Y3356762D01*
X5463794Y3342843D01*
X5466029Y3329025D01*
X5469991Y3315665D01*
X5475681Y3302863D01*
X5482945Y3290925D01*
X5491581Y3280003D01*
X5501640Y3270300D01*
X5512866Y3261918D01*
X5525008Y3255060D01*
X5537962Y3249828D01*
X5551424Y3246323D01*
X5565292Y3244494D01*
X5579313Y3244494D01*
X5593181Y3246323D01*
X5606643Y3249828D01*
X5619597Y3255060D01*
X5621731Y3256330D01*
X5625795Y3257550D01*
X5630011Y3257092D01*
X5633618Y3254959D01*
X5636006Y3251555D01*
X5636920Y3247440D01*
X5636920Y2453132D01*
X5636158Y2449271D01*
X5633974Y2445969D01*
X5630672Y2443784D01*
X5626811Y2442972D01*
G37*

%LPC*%
G36*
X4551527Y2486863D02*
G01*
X4551527Y2555544D01*
X4482947Y2555544D01*
X4485436Y2549144D01*
X4492548Y2535936D01*
X4501184Y2523693D01*
X4511294Y2512618D01*
X4522622Y2502865D01*
X4535119Y2494584D01*
X4548581Y2487930D01*
G37*
G36*
X4640427Y2486914D02*
G01*
X4650282Y2491079D01*
X4663236Y2498547D01*
X4675124Y2507589D01*
X4685893Y2518003D01*
X4695291Y2529687D01*
X4703165Y2542438D01*
X4709261Y2555544D01*
X4640427Y2555544D01*
G37*
G36*
X4881372Y3018840D02*
G01*
X4945481Y3018840D01*
X4945481Y3034538D01*
X4944770Y3042869D01*
X4942738Y3050540D01*
X4939334Y3057753D01*
X4934813Y3064205D01*
X4929225Y3069844D01*
X4922774Y3074365D01*
X4915509Y3077718D01*
X4907838Y3079800D01*
X4899558Y3080512D01*
X4881372Y3080512D01*
G37*
G36*
X4898491Y3136849D02*
G01*
X4901438Y3137916D01*
X4914849Y3144621D01*
X4927295Y3152902D01*
X4938674Y3162604D01*
X4948834Y3173679D01*
X4957470Y3185922D01*
X4964531Y3199130D01*
X4967020Y3205530D01*
X4898491Y3205530D01*
G37*
G36*
X4809591Y3136900D02*
G01*
X4809591Y3205530D01*
X4740757Y3205530D01*
X4746802Y3192424D01*
X4754626Y3179673D01*
X4764024Y3167989D01*
X4774793Y3157575D01*
X4786731Y3148533D01*
X4799736Y3141065D01*
G37*
G36*
X3849979Y3236976D02*
G01*
X3863898Y3237890D01*
X3877614Y3240582D01*
X3890924Y3244951D01*
X3903472Y3251047D01*
X3915156Y3258667D01*
X3925824Y3267710D01*
X3935222Y3278022D01*
X3943197Y3289503D01*
X3949649Y3301898D01*
X3954526Y3315004D01*
X3957574Y3328619D01*
X3958945Y3342487D01*
X3958488Y3356457D01*
X3956304Y3370224D01*
X3952240Y3383635D01*
X3946601Y3396386D01*
X3939438Y3408375D01*
X3930700Y3419297D01*
X3920642Y3429000D01*
X3909415Y3437331D01*
X3897274Y3444189D01*
X3884320Y3449421D01*
X3870858Y3452977D01*
X3856990Y3454755D01*
X3842969Y3454755D01*
X3829202Y3452977D01*
X3815638Y3449421D01*
X3802684Y3444189D01*
X3790543Y3437331D01*
X3779316Y3429000D01*
X3769258Y3419297D01*
X3760622Y3408375D01*
X3753358Y3396386D01*
X3747668Y3383635D01*
X3743706Y3370224D01*
X3741470Y3356457D01*
X3741013Y3342487D01*
X3742385Y3328619D01*
X3745534Y3315004D01*
X3750310Y3301898D01*
X3756761Y3289503D01*
X3764787Y3278022D01*
X3774135Y3267710D01*
X3784752Y3258667D01*
X3796537Y3251047D01*
X3809136Y3244951D01*
X3822395Y3240582D01*
X3836009Y3237890D01*
G37*
G36*
X5290312Y3244494D02*
G01*
X5304332Y3244494D01*
X5318150Y3246323D01*
X5331663Y3249828D01*
X5344617Y3255060D01*
X5356758Y3261918D01*
X5367985Y3270300D01*
X5377942Y3280003D01*
X5386679Y3290925D01*
X5393944Y3302863D01*
X5399582Y3315665D01*
X5403545Y3329025D01*
X5405831Y3342843D01*
X5406288Y3356762D01*
X5404916Y3370681D01*
X5401767Y3384296D01*
X5396992Y3397402D01*
X5390540Y3409797D01*
X5382564Y3421227D01*
X5373166Y3431590D01*
X5362498Y3440633D01*
X5350814Y3448253D01*
X5338165Y3454298D01*
X5324957Y3458718D01*
X5311241Y3461410D01*
X5297322Y3462274D01*
X5283352Y3461410D01*
X5269636Y3458718D01*
X5256377Y3454298D01*
X5243779Y3448253D01*
X5232095Y3440633D01*
X5221478Y3431590D01*
X5212130Y3421227D01*
X5204104Y3409797D01*
X5197652Y3397402D01*
X5192776Y3384296D01*
X5189728Y3370681D01*
X5188356Y3356762D01*
X5188813Y3342843D01*
X5191048Y3329025D01*
X5195011Y3315665D01*
X5200700Y3302863D01*
X5207863Y3290925D01*
X5216601Y3280003D01*
X5226659Y3270300D01*
X5237886Y3261918D01*
X5250027Y3255060D01*
X5262981Y3249828D01*
X5276443Y3246323D01*
G37*
G36*
X4142638Y3244494D02*
G01*
X4156608Y3244494D01*
X4170426Y3246323D01*
X4183938Y3249828D01*
X4196842Y3255060D01*
X4209084Y3261918D01*
X4220210Y3270300D01*
X4230268Y3280003D01*
X4239006Y3290925D01*
X4246168Y3302863D01*
X4251858Y3315665D01*
X4255820Y3329025D01*
X4258056Y3342843D01*
X4258513Y3356762D01*
X4257141Y3370681D01*
X4254093Y3384296D01*
X4249216Y3397402D01*
X4242765Y3409797D01*
X4234840Y3421227D01*
X4225391Y3431590D01*
X4214774Y3440633D01*
X4203090Y3448253D01*
X4190492Y3454298D01*
X4177233Y3458718D01*
X4163517Y3461410D01*
X4149547Y3462274D01*
X4135628Y3461410D01*
X4121912Y3458718D01*
X4108704Y3454298D01*
X4096054Y3448253D01*
X4084370Y3440633D01*
X4073804Y3431590D01*
X4064406Y3421227D01*
X4056329Y3409797D01*
X4049877Y3397402D01*
X4045102Y3384296D01*
X4041952Y3370681D01*
X4040682Y3356762D01*
X4041140Y3342843D01*
X4043324Y3329025D01*
X4047286Y3315665D01*
X4052925Y3302863D01*
X4060190Y3290925D01*
X4068927Y3280003D01*
X4078935Y3270300D01*
X4090162Y3261918D01*
X4102252Y3255060D01*
X4115206Y3249828D01*
X4128719Y3246323D01*
G37*
G36*
X5015331Y3244494D02*
G01*
X5029250Y3244494D01*
X5043119Y3246272D01*
X5056682Y3249828D01*
X5069636Y3255060D01*
X5081778Y3261918D01*
X5093004Y3270300D01*
X5102961Y3280003D01*
X5111699Y3290925D01*
X5118963Y3302863D01*
X5124602Y3315614D01*
X5128564Y3329025D01*
X5130749Y3342792D01*
X5131206Y3356762D01*
X5129936Y3370681D01*
X5126786Y3384296D01*
X5122011Y3397402D01*
X5115560Y3409797D01*
X5107482Y3421227D01*
X5098084Y3431590D01*
X5087518Y3440633D01*
X5075834Y3448253D01*
X5063185Y3454298D01*
X5049977Y3458718D01*
X5036261Y3461359D01*
X5022342Y3462274D01*
X5008372Y3461359D01*
X4994656Y3458718D01*
X4981397Y3454298D01*
X4968798Y3448253D01*
X4957114Y3440633D01*
X4946497Y3431590D01*
X4937048Y3421227D01*
X4929124Y3409797D01*
X4922672Y3397402D01*
X4917795Y3384296D01*
X4914493Y3369513D01*
X4912715Y3365652D01*
X4909515Y3362858D01*
X4905451Y3361588D01*
X4901234Y3362147D01*
X4898491Y3363112D01*
X4898491Y3294430D01*
X4925161Y3294430D01*
X4928209Y3293973D01*
X4930952Y3292652D01*
X4933188Y3290620D01*
X4941620Y3280003D01*
X4951679Y3270300D01*
X4962804Y3261918D01*
X4974945Y3255111D01*
X4988560Y3249676D01*
X5001463Y3246272D01*
G37*
G36*
X4740757Y3294430D02*
G01*
X4809591Y3294430D01*
X4809591Y3363061D01*
X4799736Y3358946D01*
X4786731Y3351428D01*
X4774793Y3342386D01*
X4764024Y3331972D01*
X4754626Y3320287D01*
X4746802Y3307587D01*
G37*

%LPD*%
G36*
X3358184Y1780032D02*
G01*
X3354679Y1781352D01*
X3350818Y1783689D01*
X3340963Y1787753D01*
X3330651Y1790242D01*
X3319983Y1791106D01*
X3309315Y1790242D01*
X3299002Y1787753D01*
X3294887Y1787652D01*
X3291078Y1789175D01*
X3288131Y1792071D01*
X3286658Y1795932D01*
X3286760Y1800047D01*
X3288995Y1809343D01*
X3289808Y1820011D01*
X3288995Y1830628D01*
X3286506Y1840992D01*
X3282442Y1850847D01*
X3280054Y1854707D01*
X3278784Y1858162D01*
X3278784Y1861870D01*
X3280054Y1865325D01*
X3282442Y1869135D01*
X3286506Y1878990D01*
X3288995Y1889353D01*
X3289808Y1899970D01*
X3288995Y1910638D01*
X3286506Y1921002D01*
X3282442Y1930857D01*
X3280054Y1934667D01*
X3278784Y1938121D01*
X3278784Y1941830D01*
X3280054Y1945284D01*
X3282442Y1949145D01*
X3286506Y1959000D01*
X3288995Y1969363D01*
X3289808Y1979980D01*
X3288995Y1990648D01*
X3286506Y2001012D01*
X3282442Y2010867D01*
X3280054Y2014677D01*
X3278784Y2018131D01*
X3278784Y2021839D01*
X3280054Y2025294D01*
X3282442Y2029155D01*
X3286506Y2039010D01*
X3288995Y2049373D01*
X3289808Y2059990D01*
X3288995Y2070607D01*
X3286506Y2081022D01*
X3282442Y2090877D01*
X3280054Y2094687D01*
X3278784Y2098141D01*
X3278784Y2101850D01*
X3280054Y2105304D01*
X3282442Y2109114D01*
X3286506Y2118969D01*
X3288995Y2129383D01*
X3289808Y2140000D01*
X3288995Y2150618D01*
X3286506Y2160981D01*
X3282442Y2170836D01*
X3280054Y2174697D01*
X3278784Y2178151D01*
X3278784Y2181860D01*
X3280054Y2185314D01*
X3282442Y2189124D01*
X3286506Y2198979D01*
X3288995Y2209342D01*
X3289808Y2220010D01*
X3288995Y2230628D01*
X3286506Y2240991D01*
X3282442Y2250846D01*
X3280054Y2254707D01*
X3278784Y2258161D01*
X3278784Y2261870D01*
X3280054Y2265324D01*
X3282442Y2269134D01*
X3286506Y2278989D01*
X3288995Y2289352D01*
X3289808Y2299970D01*
X3288995Y2310638D01*
X3286506Y2321001D01*
X3282442Y2330856D01*
X3280054Y2334666D01*
X3278784Y2338120D01*
X3278784Y2341829D01*
X3280054Y2345283D01*
X3282442Y2349144D01*
X3286506Y2358999D01*
X3288995Y2369362D01*
X3289808Y2379980D01*
X3288995Y2390648D01*
X3286760Y2399944D01*
X3286658Y2404059D01*
X3288131Y2407920D01*
X3291078Y2410815D01*
X3294887Y2412339D01*
X3299002Y2412238D01*
X3309315Y2409748D01*
X3319983Y2408885D01*
X3330651Y2409748D01*
X3340963Y2412238D01*
X3350818Y2416302D01*
X3354679Y2418638D01*
X3358184Y2419959D01*
X3361842Y2419959D01*
X3365347Y2418638D01*
X3369157Y2416302D01*
X3378962Y2412238D01*
X3389376Y2409748D01*
X3400044Y2408885D01*
X3410661Y2409748D01*
X3421024Y2412238D01*
X3430879Y2416302D01*
X3434638Y2418638D01*
X3438144Y2419959D01*
X3441852Y2419959D01*
X3445256Y2418638D01*
X3449116Y2416302D01*
X3458972Y2412238D01*
X3462375Y2411374D01*
X3462375Y2448407D01*
X3463188Y2452268D01*
X3464661Y2455875D01*
X3467150Y2466238D01*
X3467963Y2477262D01*
X3467963Y2596489D01*
X3467150Y2607513D01*
X3464661Y2617876D01*
X3463747Y2620060D01*
X3462985Y2623921D01*
X3462985Y3099765D01*
X3462477Y3108096D01*
X3462172Y3110230D01*
X3460343Y3118256D01*
X3459530Y3120644D01*
X3459124Y3125114D01*
X3460699Y3129330D01*
X3463950Y3132429D01*
X3468166Y3133852D01*
X3472586Y3133344D01*
X3476345Y3130956D01*
X3491534Y3115818D01*
X3493668Y3112566D01*
X3494481Y3108655D01*
X3494481Y2615488D01*
X3494227Y2613101D01*
X3492804Y2607513D01*
X3491992Y2596489D01*
X3491992Y2477262D01*
X3492804Y2466238D01*
X3495294Y2455875D01*
X3496868Y2452268D01*
X3497630Y2448407D01*
X3497630Y2411374D01*
X3501034Y2412238D01*
X3510838Y2416302D01*
X3514648Y2418638D01*
X3518154Y2419959D01*
X3521811Y2419959D01*
X3525316Y2418638D01*
X3529177Y2416302D01*
X3539032Y2412238D01*
X3549345Y2409748D01*
X3560013Y2408885D01*
X3570579Y2409748D01*
X3580993Y2412238D01*
X3590848Y2416302D01*
X3594709Y2418638D01*
X3598113Y2419959D01*
X3601872Y2419959D01*
X3605276Y2418638D01*
X3609136Y2416302D01*
X3618992Y2412238D01*
X3622395Y2411374D01*
X3622395Y2448407D01*
X3623208Y2452268D01*
X3624681Y2455875D01*
X3627170Y2466238D01*
X3628034Y2477262D01*
X3628034Y2596489D01*
X3627170Y2607513D01*
X3625799Y2613152D01*
X3625545Y2615539D01*
X3625545Y2674366D01*
X3626256Y2678277D01*
X3628491Y2681579D01*
X3631793Y2683764D01*
X3635654Y2684526D01*
X3644290Y2684526D01*
X3648252Y2683764D01*
X3651554Y2681579D01*
X3653688Y2678277D01*
X3654501Y2674366D01*
X3654501Y2615590D01*
X3654247Y2613202D01*
X3652875Y2607513D01*
X3652012Y2596489D01*
X3652012Y2477262D01*
X3652875Y2466238D01*
X3655364Y2455875D01*
X3656837Y2452268D01*
X3657549Y2448407D01*
X3657549Y2411374D01*
X3660952Y2412238D01*
X3670808Y2416302D01*
X3674668Y2418638D01*
X3678174Y2419959D01*
X3681831Y2419959D01*
X3685336Y2418638D01*
X3689146Y2416302D01*
X3698951Y2412238D01*
X3709365Y2409748D01*
X3720033Y2408885D01*
X3730650Y2409748D01*
X3741013Y2412238D01*
X3750868Y2416302D01*
X3754729Y2418638D01*
X3758133Y2419959D01*
X3761841Y2419959D01*
X3765346Y2418638D01*
X3769106Y2416302D01*
X3779012Y2412238D01*
X3789324Y2409748D01*
X3799992Y2408885D01*
X3810609Y2409748D01*
X3821023Y2412238D01*
X3830828Y2416302D01*
X3834688Y2418638D01*
X3838092Y2419959D01*
X3841800Y2419959D01*
X3845306Y2418638D01*
X3849166Y2416302D01*
X3859022Y2412238D01*
X3869385Y2409748D01*
X3880002Y2408885D01*
X3890670Y2409748D01*
X3900982Y2412238D01*
X3905097Y2412339D01*
X3908958Y2410815D01*
X3911854Y2407920D01*
X3913378Y2404059D01*
X3913225Y2399944D01*
X3910990Y2390648D01*
X3910177Y2379980D01*
X3910990Y2369362D01*
X3913479Y2358999D01*
X3917543Y2349144D01*
X3919931Y2345283D01*
X3921201Y2341829D01*
X3921201Y2338120D01*
X3919931Y2334666D01*
X3917543Y2330856D01*
X3913479Y2321001D01*
X3910990Y2310638D01*
X3910177Y2299970D01*
X3910990Y2289352D01*
X3913479Y2278989D01*
X3917543Y2269134D01*
X3919931Y2265324D01*
X3921201Y2261870D01*
X3921201Y2258161D01*
X3919931Y2254707D01*
X3917543Y2250846D01*
X3913479Y2240991D01*
X3910990Y2230628D01*
X3910177Y2220010D01*
X3910990Y2209342D01*
X3913479Y2198979D01*
X3917543Y2189124D01*
X3919931Y2185314D01*
X3921201Y2181860D01*
X3921201Y2178151D01*
X3919931Y2174697D01*
X3917543Y2170836D01*
X3913479Y2160981D01*
X3910990Y2150618D01*
X3910177Y2140000D01*
X3910990Y2129383D01*
X3913479Y2118969D01*
X3917543Y2109114D01*
X3919931Y2105304D01*
X3921201Y2101850D01*
X3921201Y2098141D01*
X3919931Y2094687D01*
X3917543Y2090877D01*
X3913479Y2081022D01*
X3910990Y2070607D01*
X3910177Y2059990D01*
X3910990Y2049373D01*
X3913479Y2039010D01*
X3917543Y2029155D01*
X3919931Y2025294D01*
X3921201Y2021839D01*
X3921201Y2018131D01*
X3919931Y2014677D01*
X3917543Y2010867D01*
X3913479Y2001012D01*
X3910990Y1990648D01*
X3910177Y1979980D01*
X3910990Y1969363D01*
X3913479Y1959000D01*
X3917543Y1949145D01*
X3919931Y1945284D01*
X3921201Y1941830D01*
X3921201Y1938121D01*
X3919931Y1934667D01*
X3917543Y1930857D01*
X3913479Y1921002D01*
X3910990Y1910638D01*
X3910177Y1899970D01*
X3910990Y1889353D01*
X3913479Y1878990D01*
X3917543Y1869135D01*
X3919931Y1865325D01*
X3921201Y1861870D01*
X3921201Y1858162D01*
X3919931Y1854707D01*
X3917543Y1850847D01*
X3913479Y1840992D01*
X3910990Y1830628D01*
X3910177Y1820011D01*
X3910990Y1809343D01*
X3913225Y1800047D01*
X3913378Y1795932D01*
X3911854Y1792071D01*
X3908958Y1789175D01*
X3905097Y1787652D01*
X3900982Y1787753D01*
X3890670Y1790242D01*
X3880002Y1791106D01*
X3869385Y1790242D01*
X3859022Y1787753D01*
X3849166Y1783689D01*
X3845306Y1781352D01*
X3841800Y1780032D01*
X3838092Y1780032D01*
X3834688Y1781352D01*
X3830828Y1783689D01*
X3821023Y1787753D01*
X3810609Y1790242D01*
X3799992Y1791106D01*
X3789324Y1790242D01*
X3779012Y1787753D01*
X3769106Y1783689D01*
X3765346Y1781352D01*
X3761841Y1780032D01*
X3758133Y1780032D01*
X3754729Y1781352D01*
X3750868Y1783689D01*
X3741013Y1787753D01*
X3730650Y1790242D01*
X3720033Y1791106D01*
X3709365Y1790242D01*
X3698951Y1787753D01*
X3689146Y1783689D01*
X3685336Y1781352D01*
X3681831Y1780032D01*
X3678174Y1780032D01*
X3674668Y1781352D01*
X3670808Y1783689D01*
X3660952Y1787753D01*
X3650640Y1790242D01*
X3639972Y1791106D01*
X3629406Y1790242D01*
X3618992Y1787753D01*
X3609136Y1783689D01*
X3605276Y1781352D01*
X3601872Y1780032D01*
X3598113Y1780032D01*
X3594709Y1781352D01*
X3590848Y1783689D01*
X3580993Y1787753D01*
X3570579Y1790242D01*
X3560013Y1791106D01*
X3549345Y1790242D01*
X3539032Y1787753D01*
X3529177Y1783689D01*
X3525316Y1781352D01*
X3521811Y1780032D01*
X3518154Y1780032D01*
X3514648Y1781352D01*
X3510838Y1783689D01*
X3501034Y1787753D01*
X3490620Y1790242D01*
X3479952Y1791106D01*
X3469335Y1790242D01*
X3458972Y1787753D01*
X3449116Y1783689D01*
X3445256Y1781352D01*
X3441852Y1780032D01*
X3438144Y1780032D01*
X3434638Y1781352D01*
X3430879Y1783689D01*
X3421024Y1787753D01*
X3410661Y1790242D01*
X3400044Y1791106D01*
X3389376Y1790242D01*
X3378962Y1787753D01*
X3369157Y1783689D01*
X3365347Y1781352D01*
X3361842Y1780032D01*
G37*

%LPD*%
G36*
X3958132Y1612900D02*
G01*
X3954272Y1613712D01*
X3951020Y1615897D01*
X3948734Y1619199D01*
X3948023Y1623060D01*
X3948023Y1722729D01*
X3947160Y1733753D01*
X3944874Y1743100D01*
X3944772Y1747215D01*
X3946245Y1751025D01*
X3949192Y1753920D01*
X3953052Y1755444D01*
X3957116Y1755343D01*
X3967530Y1752854D01*
X3978554Y1751990D01*
X4097731Y1751990D01*
X4108754Y1752854D01*
X4119168Y1755343D01*
X4120997Y1756105D01*
X4124960Y1756867D01*
X5485231Y1756867D01*
X5489041Y1756156D01*
X5492242Y1754124D01*
X5494477Y1751025D01*
X5496306Y1747113D01*
X5500878Y1740662D01*
X5506415Y1735023D01*
X5512968Y1730502D01*
X5520131Y1727149D01*
X5527751Y1725066D01*
X5536133Y1724355D01*
X5665266Y1724355D01*
X5673648Y1725066D01*
X5681268Y1727149D01*
X5688431Y1730502D01*
X5694984Y1735023D01*
X5700522Y1740662D01*
X5705094Y1747113D01*
X5708497Y1754327D01*
X5710529Y1761998D01*
X5711291Y1770329D01*
X5711291Y1774952D01*
X5712002Y1778863D01*
X5714238Y1782165D01*
X5717540Y1784350D01*
X5721400Y1785112D01*
X5725261Y1784350D01*
X5728563Y1782165D01*
X5880506Y1630273D01*
X5882640Y1626971D01*
X5883452Y1623060D01*
X5882640Y1619199D01*
X5880506Y1615897D01*
X5877204Y1613712D01*
X5873242Y1612900D01*
G37*

%LPD*%
G36*
X2630322Y240792D02*
G01*
X2626461Y241604D01*
X2623159Y243789D01*
X2616047Y250901D01*
X2613761Y254203D01*
X2613050Y258114D01*
X2613050Y998016D01*
X2613660Y1001674D01*
X2615692Y1004874D01*
X2618638Y1007110D01*
X2622245Y1008126D01*
X2625902Y1007821D01*
X2630627Y1006500D01*
X2643479Y1004722D01*
X2656535Y1004722D01*
X2669438Y1006500D01*
X2682036Y1010005D01*
X2693924Y1015187D01*
X2705049Y1021994D01*
X2715158Y1030224D01*
X2724099Y1039723D01*
X2731566Y1050391D01*
X2737612Y1061974D01*
X2741980Y1074216D01*
X2744622Y1087018D01*
X2745536Y1099972D01*
X2744622Y1112977D01*
X2741980Y1125778D01*
X2737612Y1138021D01*
X2731566Y1149604D01*
X2724099Y1160272D01*
X2715158Y1169771D01*
X2705049Y1178001D01*
X2693924Y1184808D01*
X2682036Y1189990D01*
X2669438Y1193495D01*
X2656535Y1195273D01*
X2643479Y1195273D01*
X2630627Y1193495D01*
X2625902Y1192174D01*
X2622245Y1191869D01*
X2618638Y1192885D01*
X2615692Y1195120D01*
X2613660Y1198321D01*
X2613050Y1201978D01*
X2613050Y1223924D01*
X2613761Y1227632D01*
X2615793Y1230833D01*
X2624074Y1239723D01*
X2631541Y1250391D01*
X2637586Y1261973D01*
X2641904Y1274216D01*
X2644597Y1287018D01*
X2645511Y1299972D01*
X2644597Y1312976D01*
X2642666Y1322324D01*
X2642768Y1326794D01*
X2644698Y1330807D01*
X2648254Y1333550D01*
X2652623Y1334516D01*
X3399586Y1334516D01*
X3410254Y1335379D01*
X3420211Y1337767D01*
X3429762Y1341678D01*
X3438448Y1347063D01*
X3446272Y1353769D01*
X3452977Y1361541D01*
X3458311Y1370330D01*
X3462274Y1379829D01*
X3464661Y1389786D01*
X3465474Y1400454D01*
X3465474Y1525270D01*
X3466388Y1529334D01*
X3468725Y1532737D01*
X3472383Y1534871D01*
X3476447Y1535430D01*
X3479952Y1535125D01*
X3490620Y1535988D01*
X3501034Y1538478D01*
X3510838Y1542542D01*
X3514648Y1544878D01*
X3518154Y1546199D01*
X3521811Y1546199D01*
X3525316Y1544878D01*
X3529177Y1542542D01*
X3539032Y1538478D01*
X3549345Y1535988D01*
X3560013Y1535125D01*
X3570579Y1535988D01*
X3580993Y1538478D01*
X3590848Y1542542D01*
X3594709Y1544878D01*
X3598113Y1546199D01*
X3601872Y1546199D01*
X3605276Y1544878D01*
X3609136Y1542542D01*
X3618992Y1538478D01*
X3629406Y1535988D01*
X3639972Y1535125D01*
X3650640Y1535988D01*
X3660952Y1538478D01*
X3670808Y1542542D01*
X3674668Y1544878D01*
X3678174Y1546199D01*
X3681831Y1546199D01*
X3685336Y1544878D01*
X3689146Y1542542D01*
X3698951Y1538478D01*
X3709365Y1535988D01*
X3720033Y1535125D01*
X3730650Y1535988D01*
X3741013Y1538478D01*
X3750868Y1542542D01*
X3754729Y1544878D01*
X3758133Y1546199D01*
X3761841Y1546199D01*
X3765346Y1544878D01*
X3769106Y1542542D01*
X3779012Y1538478D01*
X3789324Y1535988D01*
X3799992Y1535125D01*
X3810152Y1535938D01*
X3814368Y1535379D01*
X3818077Y1533093D01*
X3820464Y1529486D01*
X3822293Y1524609D01*
X3824579Y1519936D01*
X3827272Y1515465D01*
X3830269Y1511198D01*
X3833622Y1507236D01*
X3837381Y1503527D01*
X3841343Y1500174D01*
X3845560Y1497177D01*
X3850081Y1494485D01*
X3854754Y1492199D01*
X3859580Y1490319D01*
X3864610Y1488846D01*
X3869690Y1487779D01*
X3874820Y1487119D01*
X3880256Y1486865D01*
X4497882Y1486865D01*
X4502200Y1485900D01*
X4505706Y1483156D01*
X4507738Y1479143D01*
X4507788Y1474673D01*
X4505401Y1462989D01*
X4504486Y1449984D01*
X4505401Y1436979D01*
X4507992Y1424228D01*
X4512411Y1411935D01*
X4518406Y1400403D01*
X4525924Y1389735D01*
X4534763Y1380185D01*
X4544923Y1372006D01*
X4556048Y1365199D01*
X4567986Y1360017D01*
X4580585Y1356512D01*
X4593488Y1354734D01*
X4606544Y1354734D01*
X4619447Y1356512D01*
X4631944Y1360017D01*
X4643932Y1365199D01*
X4655058Y1372006D01*
X4665167Y1380185D01*
X4674108Y1389735D01*
X4681575Y1400403D01*
X4687620Y1411935D01*
X4691938Y1424228D01*
X4694631Y1436979D01*
X4695444Y1449984D01*
X4694631Y1462989D01*
X4692142Y1474673D01*
X4692243Y1479143D01*
X4694275Y1483156D01*
X4697780Y1485900D01*
X4702098Y1486865D01*
X5869736Y1486865D01*
X5873699Y1486103D01*
X5877001Y1483918D01*
X6901586Y459232D01*
X6903974Y455625D01*
X6904532Y449986D01*
X6905345Y436981D01*
X6908038Y424230D01*
X6912356Y411937D01*
X6918401Y400354D01*
X6925868Y389737D01*
X6934809Y380187D01*
X6944918Y371957D01*
X6956044Y365201D01*
X6968032Y360019D01*
X6980529Y356514D01*
X6993432Y354736D01*
X7006488Y354736D01*
X7019391Y356514D01*
X7031990Y360019D01*
X7043928Y365201D01*
X7055103Y371957D01*
X7065213Y380187D01*
X7074052Y389737D01*
X7081570Y400354D01*
X7084974Y407009D01*
X7087362Y410006D01*
X7090613Y411886D01*
X7094372Y412496D01*
X7098131Y411632D01*
X7101179Y409498D01*
X7171791Y338988D01*
X7173874Y335940D01*
X7174738Y332384D01*
X7175449Y320090D01*
X7178141Y304038D01*
X7182612Y288340D01*
X7188911Y273253D01*
X7196785Y258978D01*
X7198258Y256844D01*
X7200036Y252780D01*
X7199833Y248361D01*
X7197801Y244449D01*
X7194346Y241757D01*
X7189978Y240792D01*
G37*

%LPC*%
G36*
X5603951Y387756D02*
G01*
X5623407Y388670D01*
X5642610Y391566D01*
X5661406Y396240D01*
X5679694Y402793D01*
X5697270Y411124D01*
X5713933Y421081D01*
X5729579Y432663D01*
X5743956Y445719D01*
X5757011Y460095D01*
X5768492Y475691D01*
X5778550Y492353D01*
X5786831Y509930D01*
X5793384Y528218D01*
X5798058Y547014D01*
X5800902Y566267D01*
X5801918Y585622D01*
X5800902Y605028D01*
X5798058Y624281D01*
X5793384Y643077D01*
X5786831Y661365D01*
X5778550Y678942D01*
X5768492Y695604D01*
X5757011Y711200D01*
X5743956Y725576D01*
X5729579Y738632D01*
X5713933Y750214D01*
X5697270Y760171D01*
X5679694Y768502D01*
X5661406Y775055D01*
X5642610Y779729D01*
X5623407Y782574D01*
X5603951Y783539D01*
X5584545Y782574D01*
X5565394Y779729D01*
X5546547Y775055D01*
X5528208Y768502D01*
X5510733Y760171D01*
X5494070Y750214D01*
X5478424Y738632D01*
X5464098Y725576D01*
X5450992Y711200D01*
X5439410Y695604D01*
X5429402Y678942D01*
X5421122Y661365D01*
X5414568Y643077D01*
X5409895Y624281D01*
X5407050Y605028D01*
X5406085Y585622D01*
X5407050Y566267D01*
X5409895Y547014D01*
X5414568Y528218D01*
X5421122Y509930D01*
X5429402Y492353D01*
X5439410Y475691D01*
X5450992Y460095D01*
X5464098Y445719D01*
X5478424Y432663D01*
X5494070Y421081D01*
X5510733Y411124D01*
X5528208Y402793D01*
X5546547Y396240D01*
X5565394Y391566D01*
X5584545Y388670D01*
G37*
G36*
X3912006Y387756D02*
G01*
X3931412Y388670D01*
X3950563Y391566D01*
X3969461Y396240D01*
X3987749Y402793D01*
X4005326Y411124D01*
X4021988Y421081D01*
X4037533Y432663D01*
X4051909Y445719D01*
X4064965Y460095D01*
X4076547Y475691D01*
X4086504Y492353D01*
X4094784Y509930D01*
X4101388Y528218D01*
X4106113Y547014D01*
X4108958Y566267D01*
X4109872Y585622D01*
X4108958Y605028D01*
X4106113Y624281D01*
X4101388Y643077D01*
X4094784Y661365D01*
X4086504Y678942D01*
X4076547Y695604D01*
X4064965Y711200D01*
X4051909Y725576D01*
X4037533Y738632D01*
X4021988Y750214D01*
X4005326Y760171D01*
X3987749Y768502D01*
X3969461Y775055D01*
X3950563Y779729D01*
X3931412Y782574D01*
X3912006Y783539D01*
X3892600Y782574D01*
X3873347Y779729D01*
X3854500Y775055D01*
X3836263Y768502D01*
X3818686Y760171D01*
X3802024Y750214D01*
X3786479Y738632D01*
X3772052Y725576D01*
X3759047Y711200D01*
X3747465Y695604D01*
X3737457Y678942D01*
X3729177Y661365D01*
X3722624Y643077D01*
X3717848Y624281D01*
X3715054Y605028D01*
X3714038Y585622D01*
X3715054Y566267D01*
X3717848Y547014D01*
X3722624Y528218D01*
X3729177Y509930D01*
X3737457Y492353D01*
X3747465Y475691D01*
X3759047Y460095D01*
X3772052Y445719D01*
X3786479Y432663D01*
X3802024Y421081D01*
X3818686Y411124D01*
X3836263Y402793D01*
X3854500Y396240D01*
X3873347Y391566D01*
X3892600Y388670D01*
G37*
G36*
X6111951Y387756D02*
G01*
X6131407Y388670D01*
X6150610Y391566D01*
X6169406Y396240D01*
X6187694Y402793D01*
X6205270Y411124D01*
X6221933Y421081D01*
X6237579Y432663D01*
X6251956Y445719D01*
X6265011Y460095D01*
X6276492Y475691D01*
X6286550Y492353D01*
X6294831Y509930D01*
X6301384Y528218D01*
X6306058Y547014D01*
X6308902Y566267D01*
X6309918Y585622D01*
X6308902Y605028D01*
X6306058Y624281D01*
X6301384Y643077D01*
X6294831Y661365D01*
X6286550Y678942D01*
X6276492Y695604D01*
X6265011Y711200D01*
X6251956Y725576D01*
X6237579Y738632D01*
X6221933Y750214D01*
X6205270Y760171D01*
X6187694Y768502D01*
X6169406Y775055D01*
X6150610Y779729D01*
X6131407Y782574D01*
X6111951Y783539D01*
X6092545Y782574D01*
X6073394Y779729D01*
X6054547Y775055D01*
X6036208Y768502D01*
X6018733Y760171D01*
X6002070Y750214D01*
X5986424Y738632D01*
X5972098Y725576D01*
X5958992Y711200D01*
X5947410Y695604D01*
X5937402Y678942D01*
X5929122Y661365D01*
X5922568Y643077D01*
X5917895Y624281D01*
X5915050Y605028D01*
X5914085Y585622D01*
X5915050Y566267D01*
X5917895Y547014D01*
X5922568Y528218D01*
X5929122Y509930D01*
X5937402Y492353D01*
X5947410Y475691D01*
X5958992Y460095D01*
X5972098Y445719D01*
X5986424Y432663D01*
X6002070Y421081D01*
X6018733Y411124D01*
X6036208Y402793D01*
X6054547Y396240D01*
X6073394Y391566D01*
X6092545Y388670D01*
G37*
G36*
X3404006Y387756D02*
G01*
X3423412Y388670D01*
X3442563Y391566D01*
X3461461Y396240D01*
X3479749Y402793D01*
X3497326Y411124D01*
X3513988Y421081D01*
X3529533Y432663D01*
X3543909Y445719D01*
X3556965Y460095D01*
X3568547Y475691D01*
X3578504Y492353D01*
X3586784Y509930D01*
X3593388Y528218D01*
X3598113Y547014D01*
X3600958Y566267D01*
X3601872Y585622D01*
X3600958Y605028D01*
X3598113Y624281D01*
X3593388Y643077D01*
X3586784Y661365D01*
X3578504Y678942D01*
X3568547Y695604D01*
X3556965Y711200D01*
X3543909Y725576D01*
X3529533Y738632D01*
X3513988Y750214D01*
X3497326Y760171D01*
X3479749Y768502D01*
X3461461Y775055D01*
X3442563Y779729D01*
X3423412Y782574D01*
X3404006Y783539D01*
X3384600Y782574D01*
X3365347Y779729D01*
X3346500Y775055D01*
X3328263Y768502D01*
X3310686Y760171D01*
X3294024Y750214D01*
X3278479Y738632D01*
X3264052Y725576D01*
X3251047Y711200D01*
X3239465Y695604D01*
X3229457Y678942D01*
X3221177Y661365D01*
X3214624Y643077D01*
X3209848Y624281D01*
X3207054Y605028D01*
X3206038Y585622D01*
X3207054Y566267D01*
X3209848Y547014D01*
X3214624Y528218D01*
X3221177Y509930D01*
X3229457Y492353D01*
X3239465Y475691D01*
X3251047Y460095D01*
X3264052Y445719D01*
X3278479Y432663D01*
X3294024Y421081D01*
X3310686Y411124D01*
X3328263Y402793D01*
X3346500Y396240D01*
X3365347Y391566D01*
X3384600Y388670D01*
G37*

%LPD*%
G36*
X36068Y25908D02*
G01*
X32156Y26670D01*
X28905Y28905D01*
X26670Y32156D01*
X25958Y36068D01*
X25958Y4763922D01*
X26670Y4767834D01*
X28905Y4771085D01*
X32156Y4773320D01*
X36068Y4774082D01*
X9099702Y4774082D01*
X9169247Y4773066D01*
X9238183Y4770069D01*
X9307118Y4765040D01*
X9375800Y4758029D01*
X9444228Y4748987D01*
X9512452Y4737963D01*
X9580270Y4725009D01*
X9647631Y4710023D01*
X9714636Y4693158D01*
X9781082Y4674311D01*
X9846868Y4653534D01*
X9912146Y4630826D01*
X9976713Y4606290D01*
X10040518Y4579823D01*
X10103459Y4551578D01*
X10165638Y4521454D01*
X10226852Y4489602D01*
X10287152Y4455922D01*
X10346486Y4420514D01*
X10404754Y4383430D01*
X10461802Y4344619D01*
X10517835Y4304182D01*
X10572597Y4262170D01*
X10626191Y4218533D01*
X10678363Y4173372D01*
X10729264Y4126737D01*
X10778845Y4078579D01*
X10826902Y4029049D01*
X10873638Y3978148D01*
X10918748Y3925874D01*
X10962335Y3872331D01*
X11004397Y3817569D01*
X11044834Y3761587D01*
X11083645Y3704437D01*
X11120729Y3646170D01*
X11156086Y3586886D01*
X11189766Y3526586D01*
X11221618Y3465322D01*
X11251692Y3403142D01*
X11279936Y3340150D01*
X11306352Y3276346D01*
X11330940Y3211830D01*
X11353647Y3146602D01*
X11374374Y3080715D01*
X11393220Y3014268D01*
X11410086Y2947314D01*
X11425072Y2879902D01*
X11427002Y2869742D01*
X11426901Y2865272D01*
X11424818Y2861259D01*
X11421211Y2858566D01*
X11416893Y2857652D01*
X11412575Y2858719D01*
X11409984Y2859938D01*
X11396929Y2864408D01*
X11383314Y2867101D01*
X11369294Y2868015D01*
X11309959Y2868015D01*
X11295786Y2867101D01*
X11282324Y2864408D01*
X11269268Y2859938D01*
X11256873Y2853842D01*
X11245342Y2846171D01*
X11235029Y2837078D01*
X11225936Y2826715D01*
X11218214Y2815234D01*
X11212118Y2802890D01*
X11207699Y2789783D01*
X11204956Y2776270D01*
X11204143Y2762504D01*
X11204956Y2748737D01*
X11207699Y2735173D01*
X11212118Y2722118D01*
X11218214Y2709773D01*
X11225936Y2698292D01*
X11235029Y2687878D01*
X11245342Y2678785D01*
X11256873Y2671114D01*
X11269268Y2665018D01*
X11282324Y2660599D01*
X11295786Y2657906D01*
X11309959Y2656992D01*
X11369294Y2656992D01*
X11383314Y2657906D01*
X11396929Y2660599D01*
X11409984Y2665018D01*
X11422329Y2671114D01*
X11433810Y2678785D01*
X11440820Y2684983D01*
X11444681Y2687066D01*
X11448999Y2687370D01*
X11453063Y2685846D01*
X11456162Y2682748D01*
X11457635Y2678633D01*
X11465001Y2606751D01*
X11470081Y2537866D01*
X11473027Y2468880D01*
X11474043Y2399842D01*
X11473027Y2330754D01*
X11470081Y2261768D01*
X11465001Y2192883D01*
X11457635Y2121357D01*
X11456162Y2117242D01*
X11453063Y2114143D01*
X11448999Y2112619D01*
X11444681Y2112924D01*
X11440820Y2115058D01*
X11433810Y2121204D01*
X11422329Y2128875D01*
X11409984Y2134971D01*
X11396929Y2139391D01*
X11383365Y2142083D01*
X11369294Y2142998D01*
X11309959Y2142998D01*
X11295786Y2142083D01*
X11282324Y2139391D01*
X11269268Y2134971D01*
X11256873Y2128875D01*
X11245342Y2121204D01*
X11235029Y2112111D01*
X11225936Y2101697D01*
X11218214Y2090267D01*
X11212118Y2077872D01*
X11207699Y2064816D01*
X11204956Y2051253D01*
X11204143Y2037486D01*
X11204956Y2023719D01*
X11207699Y2010206D01*
X11212118Y1997151D01*
X11218214Y1984756D01*
X11225936Y1973275D01*
X11235029Y1962912D01*
X11245342Y1953818D01*
X11256873Y1946148D01*
X11269268Y1940052D01*
X11282324Y1935581D01*
X11295786Y1932889D01*
X11309959Y1931974D01*
X11369294Y1931974D01*
X11383365Y1932889D01*
X11396929Y1935581D01*
X11409984Y1940052D01*
X11412575Y1941322D01*
X11416893Y1942338D01*
X11421211Y1941423D01*
X11424818Y1938731D01*
X11426901Y1934768D01*
X11427002Y1930298D01*
X11424970Y1919732D01*
X11409984Y1852320D01*
X11393170Y1785366D01*
X11374272Y1718919D01*
X11353495Y1653082D01*
X11330838Y1587855D01*
X11306251Y1523288D01*
X11279835Y1459484D01*
X11251590Y1396492D01*
X11221415Y1334363D01*
X11189563Y1273098D01*
X11155883Y1212799D01*
X11120475Y1153515D01*
X11083391Y1095248D01*
X11044631Y1038148D01*
X11004143Y982167D01*
X10962182Y927353D01*
X10918545Y873810D01*
X10873384Y821588D01*
X10826699Y770686D01*
X10778591Y721156D01*
X10729061Y673049D01*
X10678160Y626364D01*
X10625886Y581253D01*
X10572343Y537616D01*
X10517581Y495604D01*
X10461548Y455168D01*
X10404398Y416356D01*
X10346131Y379272D01*
X10286847Y343916D01*
X10226598Y310235D01*
X10165283Y278384D01*
X10103154Y248259D01*
X10040112Y220014D01*
X9976358Y193598D01*
X9911842Y169011D01*
X9846614Y146354D01*
X9780727Y125577D01*
X9714280Y106781D01*
X9647275Y89865D01*
X9579914Y74930D01*
X9512096Y61925D01*
X9443872Y50952D01*
X9375394Y41960D01*
X9306763Y34950D01*
X9244736Y30429D01*
X9240672Y30937D01*
X9237167Y33020D01*
X9234779Y36322D01*
X9233865Y40284D01*
X9234627Y44348D01*
X9236811Y47752D01*
X9893350Y704240D01*
X9897110Y706628D01*
X9901529Y707186D01*
X9905796Y705764D01*
X9908997Y702665D01*
X9910572Y698500D01*
X9910267Y694080D01*
X9905695Y678942D01*
X9901428Y656844D01*
X9899345Y634390D01*
X9899345Y614832D01*
X9901428Y592429D01*
X9905695Y570331D01*
X9912197Y548792D01*
X9913213Y545998D01*
X9922154Y525322D01*
X9931450Y508101D01*
X9945827Y487070D01*
X9958425Y472084D01*
X9976612Y454304D01*
X9994290Y440385D01*
X10013340Y428294D01*
X10033406Y418134D01*
X10054488Y410057D01*
X10076129Y404114D01*
X10095433Y400710D01*
X10117886Y398881D01*
X10140340Y399288D01*
X10143286Y399491D01*
X10165638Y402437D01*
X10187584Y407619D01*
X10208920Y414934D01*
X10226700Y422960D01*
X10246258Y434085D01*
X10266984Y448970D01*
X10283748Y464007D01*
X10298988Y480568D01*
X10312450Y498601D01*
X10322661Y515315D01*
X10332516Y535533D01*
X10333685Y538276D01*
X10341254Y559460D01*
X10346690Y581355D01*
X10349890Y603605D01*
X10350804Y626110D01*
X10349890Y645668D01*
X10346690Y667918D01*
X10341254Y689813D01*
X10333685Y710996D01*
X10322661Y733958D01*
X10312450Y750671D01*
X10298988Y768705D01*
X10283748Y785266D01*
X10266984Y800303D01*
X10248747Y813562D01*
X10246258Y815187D01*
X10226700Y826312D01*
X10208920Y834339D01*
X10187584Y841654D01*
X10165638Y846836D01*
X10143286Y849782D01*
X10117886Y850392D01*
X10095433Y848563D01*
X10076129Y845159D01*
X10055504Y839520D01*
X10051084Y839266D01*
X10047020Y840943D01*
X10044023Y844143D01*
X10042601Y848360D01*
X10043261Y852728D01*
X10045547Y856487D01*
X10559897Y1370736D01*
X10566704Y1378762D01*
X10571073Y1385722D01*
X10575188Y1395272D01*
X10575848Y1397355D01*
X10578033Y1407515D01*
X10578592Y1415846D01*
X10578592Y1739900D01*
X10579252Y1743659D01*
X10581284Y1746859D01*
X10589717Y1755851D01*
X10597184Y1766468D01*
X10603179Y1778050D01*
X10607598Y1790344D01*
X10610240Y1803095D01*
X10611104Y1816100D01*
X10610240Y1829104D01*
X10607598Y1841855D01*
X10603179Y1854149D01*
X10599674Y1860905D01*
X10598861Y1863191D01*
X10598556Y1865579D01*
X10598556Y2434132D01*
X10598302Y2440279D01*
X10597642Y2446172D01*
X10596626Y2451963D01*
X10595152Y2457704D01*
X10593324Y2463342D01*
X10591038Y2468829D01*
X10588345Y2474112D01*
X10585399Y2479192D01*
X10581995Y2484069D01*
X10578236Y2488692D01*
X10574070Y2493162D01*
X9435947Y3631336D01*
X9433661Y3634638D01*
X9432950Y3638550D01*
X9432950Y4016806D01*
X9433661Y4020515D01*
X9435693Y4023715D01*
X9438741Y4025950D01*
X9442145Y4027576D01*
X9458604Y4037431D01*
X9474047Y4048861D01*
X9488220Y4061764D01*
X9501124Y4075988D01*
X9512554Y4091381D01*
X9522358Y4107840D01*
X9530638Y4125163D01*
X9537090Y4143248D01*
X9541713Y4161840D01*
X9544558Y4180840D01*
X9545472Y4199991D01*
X9544558Y4219143D01*
X9541713Y4238142D01*
X9537090Y4256735D01*
X9530638Y4274820D01*
X9522358Y4292142D01*
X9512554Y4308602D01*
X9501124Y4323994D01*
X9488220Y4338218D01*
X9474047Y4351121D01*
X9458604Y4362551D01*
X9442145Y4372406D01*
X9424822Y4380636D01*
X9406686Y4387088D01*
X9388094Y4391761D01*
X9369145Y4394555D01*
X9349994Y4395520D01*
X9330791Y4394555D01*
X9311843Y4391761D01*
X9293250Y4387088D01*
X9275114Y4380636D01*
X9257792Y4372406D01*
X9241332Y4362551D01*
X9225940Y4351121D01*
X9211767Y4338218D01*
X9198813Y4323994D01*
X9187383Y4308602D01*
X9177528Y4292142D01*
X9169349Y4274820D01*
X9162897Y4256735D01*
X9158224Y4238142D01*
X9155379Y4219143D01*
X9154464Y4199991D01*
X9155379Y4180840D01*
X9158224Y4161840D01*
X9162897Y4143248D01*
X9169349Y4125163D01*
X9177528Y4107840D01*
X9187383Y4091381D01*
X9198813Y4075988D01*
X9211767Y4061764D01*
X9225940Y4048861D01*
X9241332Y4037431D01*
X9257792Y4027576D01*
X9261094Y4026052D01*
X9264142Y4023766D01*
X9266174Y4020565D01*
X9266885Y4016857D01*
X9266885Y3675024D01*
X9266174Y3671163D01*
X9263938Y3667861D01*
X9260636Y3665626D01*
X9256776Y3664864D01*
X9252813Y3665626D01*
X9249511Y3667861D01*
X8936075Y3981348D01*
X8933840Y3984650D01*
X8933027Y3988562D01*
X8933027Y4016857D01*
X8933738Y4020565D01*
X8935770Y4023766D01*
X8938920Y4026052D01*
X8942120Y4027576D01*
X8958630Y4037431D01*
X8973972Y4048861D01*
X8988247Y4061764D01*
X9001150Y4075988D01*
X9012529Y4091381D01*
X9022384Y4107840D01*
X9030563Y4125163D01*
X9037116Y4143248D01*
X9041688Y4161840D01*
X9044584Y4180840D01*
X9045498Y4199991D01*
X9044584Y4219143D01*
X9041688Y4238142D01*
X9037116Y4256735D01*
X9030563Y4274820D01*
X9022384Y4292142D01*
X9012529Y4308602D01*
X9001150Y4323994D01*
X8988247Y4338218D01*
X8973972Y4351121D01*
X8958630Y4362551D01*
X8942120Y4372406D01*
X8924848Y4380636D01*
X8906713Y4387088D01*
X8888120Y4391761D01*
X8869172Y4394555D01*
X8850020Y4395520D01*
X8830868Y4394555D01*
X8811818Y4391761D01*
X8793226Y4387088D01*
X8775192Y4380636D01*
X8757818Y4372406D01*
X8741410Y4362551D01*
X8725966Y4351121D01*
X8711692Y4338218D01*
X8698890Y4323994D01*
X8687409Y4308602D01*
X8677554Y4292142D01*
X8669375Y4274820D01*
X8662924Y4256735D01*
X8658250Y4238142D01*
X8655456Y4219143D01*
X8654440Y4199991D01*
X8655456Y4180840D01*
X8658250Y4161840D01*
X8662924Y4143248D01*
X8669375Y4125163D01*
X8677554Y4107840D01*
X8687409Y4091381D01*
X8698890Y4075988D01*
X8711692Y4061764D01*
X8725966Y4048861D01*
X8741410Y4037431D01*
X8757818Y4027576D01*
X8761222Y4025950D01*
X8764320Y4023715D01*
X8766352Y4020515D01*
X8767013Y4016806D01*
X8767013Y3950157D01*
X8767267Y3944010D01*
X8767927Y3938117D01*
X8768943Y3932326D01*
X8770416Y3926586D01*
X8772245Y3920947D01*
X8774531Y3915460D01*
X8777224Y3910177D01*
X8780170Y3905097D01*
X8783574Y3900220D01*
X8787333Y3895598D01*
X8791498Y3891127D01*
X10302494Y2380081D01*
X10304729Y2376779D01*
X10305542Y2372868D01*
X10305542Y1865274D01*
X10305186Y1862886D01*
X10304373Y1860600D01*
X10301020Y1854149D01*
X10296601Y1841855D01*
X10293959Y1829104D01*
X10293146Y1816100D01*
X10293959Y1803095D01*
X10296601Y1790344D01*
X10301020Y1778050D01*
X10307015Y1766468D01*
X10314482Y1755851D01*
X10322763Y1747012D01*
X10324795Y1743811D01*
X10325506Y1740052D01*
X10325506Y1468983D01*
X10324693Y1465072D01*
X10322560Y1461770D01*
X9041079Y180289D01*
X9037777Y178104D01*
X9033814Y177292D01*
X7823149Y177292D01*
X7819288Y178104D01*
X7815986Y180289D01*
X7813751Y183591D01*
X7813040Y187452D01*
X7813040Y598220D01*
X7813497Y601319D01*
X7814868Y604113D01*
X7817103Y606348D01*
X7820659Y608990D01*
X7834375Y622096D01*
X7838338Y623316D01*
X7842402Y622858D01*
X7845907Y620826D01*
X7848396Y617626D01*
X7849362Y613664D01*
X7851394Y592429D01*
X7855712Y570331D01*
X7862265Y548792D01*
X7863281Y545998D01*
X7872120Y525322D01*
X7882991Y505612D01*
X7894015Y489458D01*
X7908391Y472084D01*
X7924393Y456285D01*
X7941970Y442112D01*
X7944358Y440385D01*
X7963306Y428294D01*
X7983474Y418134D01*
X8004454Y410057D01*
X8026196Y404114D01*
X8045399Y400710D01*
X8067852Y398881D01*
X8090408Y399288D01*
X8093354Y399491D01*
X8115706Y402437D01*
X8134756Y406806D01*
X8156143Y413867D01*
X8158886Y414934D01*
X8176717Y422960D01*
X8196325Y434085D01*
X8214664Y447141D01*
X8231682Y461924D01*
X8248954Y480568D01*
X8262416Y498601D01*
X8274100Y517906D01*
X8282584Y535533D01*
X8290407Y556666D01*
X8296097Y578408D01*
X8299602Y600659D01*
X8300872Y623163D01*
X8300872Y626110D01*
X8299602Y648614D01*
X8296097Y670864D01*
X8290407Y692607D01*
X8282584Y713740D01*
X8274100Y731367D01*
X8262416Y750671D01*
X8248954Y768705D01*
X8231682Y787349D01*
X8214664Y802132D01*
X8196325Y815187D01*
X8176717Y826312D01*
X8158886Y834339D01*
X8137601Y841654D01*
X8134756Y842467D01*
X8115706Y846836D01*
X8093354Y849782D01*
X8067852Y850392D01*
X8045399Y848563D01*
X8023301Y844499D01*
X8004454Y839216D01*
X7983474Y831138D01*
X7963306Y820978D01*
X7944358Y808888D01*
X7924393Y792988D01*
X7908391Y777189D01*
X7894015Y759815D01*
X7882991Y743661D01*
X7872120Y723900D01*
X7869631Y720953D01*
X7866227Y719074D01*
X7862468Y718616D01*
X7858759Y719632D01*
X7855661Y721969D01*
X7853629Y725271D01*
X7849666Y736092D01*
X7843215Y748487D01*
X7835188Y759968D01*
X7825841Y770280D01*
X7815224Y779373D01*
X7803438Y786942D01*
X7790840Y793038D01*
X7777581Y797407D01*
X7763967Y800100D01*
X7749997Y801014D01*
X7736078Y800100D01*
X7722362Y797407D01*
X7709052Y793038D01*
X7696504Y786942D01*
X7684820Y779373D01*
X7674152Y770280D01*
X7664754Y759968D01*
X7656779Y748487D01*
X7650327Y736092D01*
X7645450Y722985D01*
X7642402Y709371D01*
X7641031Y695502D01*
X7641488Y681532D01*
X7643723Y667766D01*
X7647736Y654354D01*
X7653375Y641604D01*
X7660640Y629615D01*
X7669275Y618744D01*
X7679334Y608990D01*
X7682890Y606348D01*
X7685024Y604113D01*
X7686497Y601319D01*
X7686954Y598220D01*
X7686954Y250952D01*
X7686141Y247091D01*
X7684008Y243789D01*
X7680706Y241604D01*
X7676845Y240792D01*
X7509967Y240792D01*
X7505649Y241757D01*
X7502144Y244449D01*
X7500112Y248361D01*
X7499959Y252780D01*
X7501686Y256844D01*
X7503159Y258978D01*
X7511084Y273253D01*
X7517333Y288340D01*
X7521854Y304038D01*
X7524597Y320090D01*
X7525512Y336397D01*
X7524597Y352704D01*
X7521854Y368757D01*
X7517333Y384454D01*
X7511084Y399542D01*
X7503159Y413816D01*
X7493762Y427126D01*
X7482840Y439267D01*
X7470698Y450138D01*
X7467549Y452374D01*
X7464907Y455168D01*
X7463485Y458774D01*
X7463485Y462584D01*
X7464907Y466191D01*
X7467549Y468985D01*
X7470698Y471220D01*
X7482840Y482092D01*
X7493762Y494233D01*
X7503159Y507542D01*
X7511084Y521817D01*
X7517333Y536905D01*
X7521854Y552602D01*
X7524597Y568655D01*
X7525512Y584962D01*
X7524597Y601268D01*
X7521854Y617321D01*
X7517333Y633018D01*
X7511084Y648106D01*
X7503159Y662381D01*
X7493762Y675690D01*
X7482840Y687832D01*
X7470698Y698703D01*
X7467549Y700938D01*
X7464907Y703732D01*
X7463485Y707288D01*
X7463485Y711149D01*
X7464907Y714756D01*
X7467549Y717499D01*
X7470698Y719734D01*
X7482840Y730605D01*
X7493762Y742797D01*
X7503159Y756107D01*
X7511084Y770382D01*
X7517333Y785469D01*
X7521854Y801116D01*
X7524597Y817219D01*
X7525258Y829056D01*
X7526070Y832662D01*
X7528204Y835660D01*
X7574025Y881481D01*
X7577328Y883666D01*
X7581188Y884428D01*
X8399526Y884428D01*
X8410194Y885291D01*
X8420150Y887679D01*
X8429701Y891590D01*
X8438438Y896975D01*
X8446566Y903935D01*
X9341104Y1798421D01*
X9348063Y1806549D01*
X9353397Y1815338D01*
X9357360Y1824837D01*
X9359747Y1834794D01*
X9360611Y1845462D01*
X9360509Y2204567D01*
X9359747Y2212898D01*
X9357664Y2220569D01*
X9354312Y2227732D01*
X9349841Y2234234D01*
X9344202Y2239822D01*
X9337751Y2244394D01*
X9330486Y2247747D01*
X9322866Y2249779D01*
X9314484Y2250490D01*
X9275368Y2250490D01*
X9267088Y2249779D01*
X9262465Y2248916D01*
X9257893Y2249779D01*
X9249511Y2250490D01*
X9210395Y2250490D01*
X9202115Y2249779D01*
X9197441Y2248916D01*
X9192920Y2249779D01*
X9184538Y2250490D01*
X9145422Y2250490D01*
X9137040Y2249779D01*
X9132468Y2248916D01*
X9127845Y2249779D01*
X9119565Y2250490D01*
X9080449Y2250490D01*
X9072067Y2249779D01*
X9067495Y2248916D01*
X9062872Y2249779D01*
X9054490Y2250490D01*
X9015374Y2250490D01*
X9007094Y2249779D01*
X9002522Y2248916D01*
X8997899Y2249779D01*
X8989517Y2250490D01*
X8950401Y2250490D01*
X8942120Y2249779D01*
X8937447Y2248916D01*
X8932824Y2249779D01*
X8924544Y2250490D01*
X8885428Y2250490D01*
X8876588Y2249728D01*
X8872372Y2250236D01*
X8868867Y2252370D01*
X8866378Y2255774D01*
X8865565Y2259838D01*
X8865565Y2418740D01*
X8866327Y2422601D01*
X8868511Y2425903D01*
X8874201Y2431643D01*
X8877554Y2433828D01*
X8881414Y2434590D01*
X9049512Y2434590D01*
X9060027Y2435402D01*
X9070035Y2437790D01*
X9079534Y2441702D01*
X9088272Y2447036D01*
X9096451Y2453944D01*
X9145879Y2503170D01*
X9152890Y2511298D01*
X9158224Y2520035D01*
X9162186Y2529535D01*
X9165691Y2543759D01*
X9167977Y2546807D01*
X9171127Y2548788D01*
X9174784Y2549499D01*
X9184538Y2549499D01*
X9192920Y2550210D01*
X9197441Y2551074D01*
X9202115Y2550210D01*
X9210395Y2549499D01*
X9213646Y2549499D01*
X9213646Y2555392D01*
X9214459Y2559253D01*
X9216644Y2562555D01*
X9219793Y2565755D01*
X9221622Y2568397D01*
X9224467Y2571089D01*
X9228074Y2572562D01*
X9231934Y2572562D01*
X9235541Y2571089D01*
X9238284Y2568397D01*
X9240113Y2565755D01*
X9243364Y2562555D01*
X9245549Y2559253D01*
X9246362Y2555392D01*
X9246362Y2549499D01*
X9249511Y2549499D01*
X9257893Y2550210D01*
X9262465Y2551074D01*
X9267088Y2550210D01*
X9275470Y2549499D01*
X9314586Y2549499D01*
X9322866Y2550210D01*
X9330588Y2552293D01*
X9337751Y2555646D01*
X9344202Y2560167D01*
X9349841Y2565755D01*
X9354413Y2572258D01*
X9357715Y2579471D01*
X9359747Y2587091D01*
X9360509Y2595473D01*
X9360509Y2764586D01*
X9359747Y2772918D01*
X9357715Y2780588D01*
X9354413Y2787751D01*
X9349841Y2794254D01*
X9344202Y2799842D01*
X9337751Y2804414D01*
X9330588Y2807766D01*
X9322866Y2809798D01*
X9314586Y2810510D01*
X9275470Y2810510D01*
X9267088Y2809798D01*
X9262465Y2808935D01*
X9257893Y2809798D01*
X9249511Y2810510D01*
X9246362Y2810510D01*
X9246362Y2804617D01*
X9245549Y2800756D01*
X9243364Y2797454D01*
X9240113Y2794254D01*
X9238284Y2791612D01*
X9235541Y2788920D01*
X9231934Y2787446D01*
X9228074Y2787446D01*
X9224467Y2788920D01*
X9221622Y2791612D01*
X9219793Y2794254D01*
X9216644Y2797454D01*
X9214459Y2800756D01*
X9213646Y2804617D01*
X9213646Y2810510D01*
X9210395Y2810510D01*
X9202115Y2809798D01*
X9197441Y2808935D01*
X9192920Y2809798D01*
X9184538Y2810510D01*
X9145422Y2810510D01*
X9137040Y2809798D01*
X9132468Y2808935D01*
X9127845Y2809798D01*
X9119565Y2810510D01*
X9080449Y2810510D01*
X9072067Y2809798D01*
X9067495Y2808935D01*
X9062872Y2809798D01*
X9054592Y2810510D01*
X9015476Y2810510D01*
X9007094Y2809798D01*
X9002522Y2808935D01*
X8997899Y2809798D01*
X8989517Y2810510D01*
X8950401Y2810510D01*
X8942120Y2809798D01*
X8937447Y2808935D01*
X8932926Y2809798D01*
X8924544Y2810510D01*
X8885428Y2810510D01*
X8877147Y2809798D01*
X8869426Y2807716D01*
X8862263Y2804363D01*
X8855811Y2799842D01*
X8850122Y2794254D01*
X8845600Y2787751D01*
X8842298Y2780538D01*
X8840165Y2772918D01*
X8839504Y2764536D01*
X8839504Y2595422D01*
X8840165Y2587091D01*
X8842298Y2579420D01*
X8842908Y2578100D01*
X8843873Y2573731D01*
X8842857Y2569362D01*
X8840063Y2565857D01*
X8836101Y2563926D01*
X8829852Y2562402D01*
X8820302Y2558491D01*
X8811564Y2553106D01*
X8803436Y2546146D01*
X8754008Y2496718D01*
X8747048Y2488590D01*
X8741613Y2479802D01*
X8737752Y2470302D01*
X8735364Y2460345D01*
X8734501Y2449677D01*
X8734501Y1831441D01*
X8733688Y1827580D01*
X8731554Y1824278D01*
X8325713Y1418488D01*
X8322411Y1416304D01*
X8318550Y1415542D01*
X7881416Y1415542D01*
X7877556Y1416304D01*
X7874253Y1418488D01*
X7860893Y1431848D01*
X7858963Y1434439D01*
X7858048Y1437487D01*
X7858048Y1440637D01*
X7858506Y1443532D01*
X7858963Y1457502D01*
X7857591Y1471371D01*
X7854442Y1484985D01*
X7849666Y1498092D01*
X7843215Y1510487D01*
X7835188Y1521968D01*
X7825841Y1532280D01*
X7815224Y1541373D01*
X7803438Y1548942D01*
X7790840Y1555038D01*
X7777581Y1559407D01*
X7759293Y1563065D01*
X7756245Y1565148D01*
X7526172Y1795221D01*
X7524242Y1797812D01*
X7523327Y1800910D01*
X7523327Y1804111D01*
X7524597Y1811426D01*
X7525512Y1827733D01*
X7524597Y1844039D01*
X7521854Y1860092D01*
X7517333Y1875789D01*
X7511084Y1890877D01*
X7503159Y1905152D01*
X7493762Y1918462D01*
X7482840Y1930603D01*
X7470698Y1941474D01*
X7467549Y1943709D01*
X7464907Y1946503D01*
X7463485Y1950110D01*
X7463485Y1953920D01*
X7464907Y1957527D01*
X7467549Y1960321D01*
X7470698Y1962556D01*
X7482840Y1973427D01*
X7493762Y1985568D01*
X7503159Y1998878D01*
X7511084Y2013153D01*
X7513929Y2019960D01*
X7421372Y2019960D01*
X7421372Y1980082D01*
X7420356Y1975815D01*
X7417765Y1972360D01*
X7413802Y1970278D01*
X7409484Y1970074D01*
X7396225Y1972310D01*
X7379665Y1973275D01*
X7320229Y1973275D01*
X7303668Y1972310D01*
X7290511Y1970074D01*
X7286091Y1970278D01*
X7282281Y1972360D01*
X7279538Y1975815D01*
X7278624Y1980082D01*
X7278624Y2019960D01*
X7186117Y2019960D01*
X7188911Y2013153D01*
X7196785Y1998878D01*
X7206183Y1985568D01*
X7217054Y1973427D01*
X7229297Y1962556D01*
X7232446Y1960321D01*
X7235088Y1957527D01*
X7236561Y1953920D01*
X7236561Y1950110D01*
X7235088Y1946503D01*
X7232446Y1943709D01*
X7229297Y1941474D01*
X7222693Y1935581D01*
X7219543Y1933651D01*
X7215835Y1932990D01*
X6943191Y1932889D01*
X6939381Y1933651D01*
X6936079Y1935886D01*
X6933793Y1939188D01*
X6933031Y1943049D01*
X6933031Y2507640D01*
X6933996Y2511806D01*
X6936435Y2515260D01*
X6940143Y2517343D01*
X6944359Y2517749D01*
X6948424Y2516378D01*
X6951573Y2513482D01*
X6954113Y2509774D01*
X6959752Y2504135D01*
X6966254Y2499614D01*
X6973468Y2496261D01*
X6981088Y2494229D01*
X6989470Y2493467D01*
X7038136Y2493467D01*
X7038136Y2588158D01*
X6943191Y2588158D01*
X6939381Y2588920D01*
X6936079Y2591104D01*
X6933793Y2594406D01*
X6933031Y2598318D01*
X6933031Y2701696D01*
X6933793Y2705557D01*
X6936079Y2708859D01*
X6939381Y2711094D01*
X6943191Y2711856D01*
X7038136Y2711856D01*
X7038136Y2806496D01*
X6989470Y2806496D01*
X6981088Y2805785D01*
X6973468Y2803753D01*
X6966254Y2800400D01*
X6959752Y2795828D01*
X6954113Y2790240D01*
X6951573Y2786481D01*
X6948424Y2783586D01*
X6944359Y2782214D01*
X6940143Y2782620D01*
X6936435Y2784754D01*
X6933996Y2788158D01*
X6933031Y2792323D01*
X6933031Y3357676D01*
X6933996Y3361842D01*
X6936435Y3365246D01*
X6940143Y3367328D01*
X6944359Y3367735D01*
X6948424Y3366363D01*
X6951573Y3363468D01*
X6954113Y3359759D01*
X6959752Y3354171D01*
X6966254Y3349599D01*
X6973468Y3346246D01*
X6981088Y3344214D01*
X6989470Y3343452D01*
X7038136Y3343452D01*
X7038136Y3438144D01*
X6943191Y3438144D01*
X6939381Y3438906D01*
X6936079Y3441141D01*
X6933793Y3444392D01*
X6933031Y3448304D01*
X6933031Y3551682D01*
X6933793Y3555593D01*
X6936079Y3558844D01*
X6939381Y3561079D01*
X6943191Y3561842D01*
X7038136Y3561842D01*
X7038136Y3656533D01*
X6989470Y3656533D01*
X6981088Y3655771D01*
X6973468Y3653739D01*
X6966254Y3650386D01*
X6959752Y3645814D01*
X6954113Y3640226D01*
X6951573Y3636518D01*
X6948424Y3633622D01*
X6944359Y3632250D01*
X6940143Y3632657D01*
X6936435Y3634740D01*
X6933996Y3638143D01*
X6933031Y3642309D01*
X6933031Y4207662D01*
X6933996Y4211828D01*
X6936435Y4215231D01*
X6940143Y4217314D01*
X6944359Y4217720D01*
X6948424Y4216349D01*
X6951573Y4213453D01*
X6954113Y4209745D01*
X6959752Y4204157D01*
X6966254Y4199585D01*
X6973468Y4196232D01*
X6981088Y4194200D01*
X6989470Y4193489D01*
X7038136Y4193489D01*
X7038136Y4288129D01*
X6942988Y4288129D01*
X6941058Y4284726D01*
X6937908Y4282338D01*
X6934250Y4281271D01*
X6930288Y4281678D01*
X6926884Y4283506D01*
X6924395Y4286504D01*
X6919874Y4294784D01*
X6912813Y4304284D01*
X6904431Y4312666D01*
X6894931Y4319727D01*
X6884568Y4325416D01*
X6873443Y4329582D01*
X6861911Y4332071D01*
X6849668Y4332935D01*
X5400141Y4332935D01*
X5394045Y4332732D01*
X5388152Y4332071D01*
X5382361Y4331055D01*
X5376570Y4329582D01*
X5370931Y4327702D01*
X5365445Y4325416D01*
X5360162Y4322775D01*
X5355132Y4319778D01*
X5350256Y4316374D01*
X5345633Y4312666D01*
X5341112Y4308500D01*
X5241950Y4209288D01*
X5240274Y4207967D01*
X5232095Y4202633D01*
X5221478Y4193590D01*
X5212130Y4183227D01*
X5204104Y4171797D01*
X5197652Y4159402D01*
X5192776Y4146296D01*
X5189728Y4132681D01*
X5188356Y4118762D01*
X5188813Y4104843D01*
X5191048Y4091025D01*
X5195011Y4077665D01*
X5200700Y4064863D01*
X5207863Y4052925D01*
X5216601Y4042003D01*
X5226659Y4032300D01*
X5228031Y4031284D01*
X5230774Y4028135D01*
X5232095Y4024122D01*
X5231536Y4019905D01*
X5229504Y4016298D01*
X5225999Y4013860D01*
X5221935Y4012946D01*
X5097627Y4012946D01*
X5093563Y4013860D01*
X5090160Y4016298D01*
X5088077Y4019905D01*
X5087518Y4024122D01*
X5088788Y4028135D01*
X5091633Y4031284D01*
X5093004Y4032300D01*
X5102961Y4042003D01*
X5111699Y4052925D01*
X5118963Y4064863D01*
X5124602Y4077614D01*
X5128564Y4091025D01*
X5130749Y4104792D01*
X5131206Y4118762D01*
X5129936Y4132681D01*
X5126786Y4146296D01*
X5122011Y4159402D01*
X5115560Y4171797D01*
X5107482Y4183227D01*
X5098084Y4193590D01*
X5087518Y4202633D01*
X5078120Y4208729D01*
X5075174Y4211675D01*
X5071973Y4216552D01*
X5066588Y4222597D01*
X4944872Y4344314D01*
X4938674Y4349800D01*
X4929936Y4355490D01*
X4920386Y4359656D01*
X4918252Y4360316D01*
X4910277Y4362145D01*
X4908143Y4362450D01*
X4899761Y4362958D01*
X3350260Y4362958D01*
X3341878Y4362450D01*
X3339795Y4362145D01*
X3331768Y4360316D01*
X3329635Y4359656D01*
X3320084Y4355490D01*
X3311347Y4349800D01*
X3305098Y4344314D01*
X3155696Y4194911D01*
X3152140Y4190847D01*
X3148736Y4188358D01*
X3144672Y4187444D01*
X3140456Y4188307D01*
X3137052Y4190746D01*
X3134461Y4193590D01*
X3123895Y4202633D01*
X3112109Y4210253D01*
X3099562Y4216298D01*
X3086354Y4220718D01*
X3072638Y4223410D01*
X3058617Y4224274D01*
X3044748Y4223410D01*
X3031032Y4220718D01*
X3017774Y4216298D01*
X3005175Y4210253D01*
X2995777Y4204106D01*
X2992475Y4202734D01*
X2988868Y4202582D01*
X2985363Y4203649D01*
X2982620Y4205884D01*
X2977997Y4211167D01*
X2894888Y4294276D01*
X2888640Y4299762D01*
X2879902Y4305452D01*
X2870352Y4309618D01*
X2868218Y4310278D01*
X2860192Y4312107D01*
X2858109Y4312412D01*
X2849727Y4312920D01*
X1950212Y4312920D01*
X1941880Y4312412D01*
X1939747Y4312107D01*
X1931720Y4310278D01*
X1929638Y4309618D01*
X1920036Y4305452D01*
X1911299Y4299762D01*
X1905050Y4294276D01*
X1830882Y4220057D01*
X1826920Y4217568D01*
X1823059Y4216298D01*
X1810512Y4210253D01*
X1798828Y4202633D01*
X1788160Y4193590D01*
X1778762Y4183227D01*
X1770786Y4171797D01*
X1764334Y4159402D01*
X1759457Y4146296D01*
X1756410Y4132681D01*
X1755038Y4118762D01*
X1755495Y4104843D01*
X1757730Y4091025D01*
X1761642Y4077665D01*
X1767382Y4064863D01*
X1774545Y4052925D01*
X1783283Y4042003D01*
X1793341Y4032300D01*
X1804568Y4023918D01*
X1816709Y4017060D01*
X1829663Y4011828D01*
X1843125Y4008323D01*
X1856993Y4006494D01*
X1871014Y4006494D01*
X1884781Y4008323D01*
X1898345Y4011828D01*
X1911299Y4017060D01*
X1922627Y4023461D01*
X1926285Y4024680D01*
X1930247Y4024426D01*
X1933752Y4022750D01*
X1936343Y4019804D01*
X1937613Y4016146D01*
X1937512Y4012234D01*
X1935327Y4003192D01*
X1934514Y3992575D01*
X1934514Y3455924D01*
X1933600Y3451707D01*
X1930907Y3448202D01*
X1927148Y3446170D01*
X1922830Y3445865D01*
X1918766Y3447389D01*
X1917446Y3448253D01*
X1904847Y3454298D01*
X1891588Y3458718D01*
X1877923Y3461410D01*
X1864004Y3462274D01*
X1850085Y3461410D01*
X1836318Y3458718D01*
X1823059Y3454298D01*
X1810512Y3448253D01*
X1807667Y3446424D01*
X1804466Y3445052D01*
X1801063Y3444798D01*
X1797761Y3445764D01*
X1794967Y3447745D01*
X1696415Y3545992D01*
X1688388Y3552850D01*
X1679651Y3558235D01*
X1670100Y3562146D01*
X1660143Y3564534D01*
X1649475Y3565398D01*
X931418Y3565398D01*
X927608Y3566160D01*
X924306Y3568344D01*
X640943Y3851910D01*
X638708Y3855212D01*
X637997Y3859123D01*
X637997Y4023461D01*
X638454Y4026560D01*
X639826Y4029354D01*
X652983Y4042003D01*
X661670Y4052925D01*
X668934Y4064863D01*
X674624Y4077665D01*
X678586Y4091025D01*
X680770Y4104843D01*
X681228Y4118762D01*
X679958Y4132681D01*
X676808Y4146296D01*
X671982Y4159402D01*
X665530Y4171797D01*
X657555Y4183227D01*
X648106Y4193590D01*
X637540Y4202633D01*
X625805Y4210253D01*
X613257Y4216298D01*
X599998Y4220718D01*
X586282Y4223410D01*
X572312Y4224274D01*
X558393Y4223410D01*
X544677Y4220718D01*
X531368Y4216298D01*
X518871Y4210253D01*
X507136Y4202633D01*
X496519Y4193590D01*
X487121Y4183227D01*
X479094Y4171797D01*
X472643Y4159402D01*
X467817Y4146296D01*
X464769Y4132681D01*
X463346Y4118762D01*
X463804Y4104843D01*
X466090Y4091025D01*
X470052Y4077665D01*
X475640Y4064863D01*
X482904Y4052925D01*
X491642Y4042003D01*
X505002Y4029151D01*
X506425Y4026357D01*
X506882Y4023258D01*
X506882Y3828186D01*
X507746Y3817569D01*
X510184Y3807561D01*
X514096Y3798062D01*
X519480Y3789324D01*
X526338Y3781196D01*
X828294Y3479037D01*
X830478Y3475837D01*
X831240Y3472078D01*
X830630Y3468268D01*
X828598Y3464966D01*
X825449Y3462680D01*
X821791Y3461715D01*
X816762Y3461410D01*
X802995Y3458718D01*
X789736Y3454298D01*
X777189Y3448253D01*
X765505Y3440633D01*
X754837Y3431590D01*
X745439Y3421227D01*
X737412Y3409797D01*
X730961Y3397402D01*
X726135Y3384296D01*
X723087Y3370681D01*
X721715Y3356762D01*
X722172Y3342843D01*
X724408Y3329025D01*
X728370Y3315665D01*
X734009Y3302863D01*
X741222Y3290925D01*
X748385Y3281984D01*
X750112Y3278682D01*
X750519Y3274923D01*
X749554Y3271265D01*
X747369Y3268217D01*
X744169Y3266236D01*
X740410Y3265525D01*
X662584Y3265525D01*
X658825Y3266236D01*
X655675Y3268217D01*
X653338Y3271265D01*
X652373Y3274923D01*
X652830Y3278682D01*
X654608Y3281984D01*
X661670Y3290925D01*
X668934Y3302863D01*
X674624Y3315665D01*
X678586Y3329025D01*
X680770Y3342843D01*
X681228Y3356762D01*
X679958Y3370681D01*
X676808Y3384296D01*
X671982Y3397402D01*
X665530Y3409797D01*
X657555Y3421227D01*
X648106Y3431590D01*
X637540Y3440633D01*
X625805Y3448253D01*
X613257Y3454298D01*
X599998Y3458718D01*
X586282Y3461410D01*
X572312Y3462274D01*
X558393Y3461410D01*
X544677Y3458718D01*
X531368Y3454298D01*
X518871Y3448253D01*
X507136Y3440633D01*
X496519Y3431590D01*
X487121Y3421227D01*
X479094Y3409797D01*
X472643Y3397402D01*
X467817Y3384296D01*
X464769Y3370681D01*
X463346Y3356762D01*
X463804Y3342843D01*
X466090Y3329025D01*
X470052Y3315665D01*
X473100Y3308604D01*
X474014Y3304438D01*
X473100Y3300272D01*
X470509Y3296818D01*
X466750Y3294786D01*
X462432Y3294430D01*
X456488Y3295243D01*
X443433Y3295243D01*
X430580Y3293465D01*
X417982Y3289960D01*
X406095Y3284778D01*
X394919Y3278022D01*
X384810Y3269792D01*
X382422Y3267202D01*
X379069Y3264814D01*
X374954Y3264001D01*
X370992Y3264814D01*
X367588Y3267202D01*
X365150Y3269792D01*
X355041Y3278022D01*
X343966Y3284778D01*
X331978Y3289960D01*
X319379Y3293465D01*
X306527Y3295243D01*
X293471Y3295243D01*
X280619Y3293465D01*
X268020Y3289960D01*
X256082Y3284778D01*
X244957Y3278022D01*
X234797Y3269792D01*
X232410Y3267202D01*
X229006Y3264814D01*
X224993Y3264001D01*
X220979Y3264814D01*
X217576Y3267202D01*
X215188Y3269792D01*
X205028Y3278022D01*
X193954Y3284778D01*
X181965Y3289960D01*
X169418Y3293465D01*
X156565Y3295243D01*
X143459Y3295243D01*
X130606Y3293465D01*
X118008Y3289960D01*
X106070Y3284778D01*
X94945Y3278022D01*
X84785Y3269792D01*
X75946Y3260242D01*
X68427Y3249625D01*
X62382Y3238042D01*
X58013Y3225749D01*
X55422Y3212998D01*
X54457Y3199993D01*
X55422Y3186988D01*
X58013Y3174238D01*
X62382Y3161944D01*
X68427Y3150362D01*
X75946Y3139744D01*
X84785Y3130194D01*
X94945Y3121964D01*
X106070Y3115208D01*
X118008Y3110026D01*
X130606Y3106521D01*
X143459Y3104743D01*
X148386Y3104743D01*
X152298Y3103930D01*
X155600Y3101746D01*
X303428Y2953969D01*
X311505Y2947009D01*
X320243Y2941624D01*
X329793Y2937713D01*
X339750Y2935325D01*
X350418Y2934462D01*
X1518716Y2934462D01*
X1522577Y2933700D01*
X1525879Y2931515D01*
X1581454Y2875788D01*
X1583588Y2872486D01*
X1584401Y2868625D01*
X1584401Y2300376D01*
X1585264Y2289708D01*
X1587652Y2279751D01*
X1591513Y2270252D01*
X1596948Y2261463D01*
X1603908Y2253335D01*
X2479141Y1378102D01*
X2481326Y1374851D01*
X2482138Y1371092D01*
X2481427Y1367231D01*
X2479395Y1363980D01*
X2475890Y1360271D01*
X2468372Y1349603D01*
X2462377Y1338021D01*
X2458059Y1325778D01*
X2455367Y1312976D01*
X2454452Y1299972D01*
X2455367Y1287018D01*
X2458059Y1274216D01*
X2462377Y1261973D01*
X2468372Y1250391D01*
X2475890Y1239723D01*
X2484272Y1230782D01*
X2486304Y1227582D01*
X2486964Y1223873D01*
X2486964Y1051966D01*
X2486304Y1048308D01*
X2484374Y1045159D01*
X2481427Y1042873D01*
X2477820Y1041857D01*
X2474061Y1042162D01*
X2469438Y1043482D01*
X2456484Y1045260D01*
X2443429Y1045260D01*
X2430526Y1043482D01*
X2425954Y1042212D01*
X2422245Y1041857D01*
X2418638Y1042873D01*
X2415641Y1045159D01*
X2413711Y1048308D01*
X2413050Y1051966D01*
X2413050Y1073912D01*
X2413762Y1077620D01*
X2415794Y1080820D01*
X2424074Y1089710D01*
X2431542Y1100378D01*
X2437536Y1111961D01*
X2441956Y1124254D01*
X2444597Y1137005D01*
X2445512Y1150010D01*
X2444597Y1163015D01*
X2441956Y1175766D01*
X2437536Y1188059D01*
X2431542Y1199591D01*
X2424074Y1210259D01*
X2415184Y1219809D01*
X2405024Y1227988D01*
X2393899Y1234795D01*
X2382012Y1239977D01*
X2369413Y1243482D01*
X2356561Y1245260D01*
X2343454Y1245260D01*
X2330602Y1243482D01*
X2318054Y1239977D01*
X2306015Y1234795D01*
X2294890Y1227988D01*
X2284831Y1219809D01*
X2275941Y1210259D01*
X2268372Y1199591D01*
X2262378Y1188059D01*
X2258060Y1175766D01*
X2255418Y1163015D01*
X2254504Y1150010D01*
X2255418Y1137005D01*
X2258060Y1124254D01*
X2262378Y1111961D01*
X2268372Y1100378D01*
X2275941Y1089710D01*
X2284222Y1080820D01*
X2286304Y1077620D01*
X2286965Y1073861D01*
X2286965Y150317D01*
X2287778Y139852D01*
X2290368Y129743D01*
X2293518Y122174D01*
X2298852Y113233D01*
X2300122Y111506D01*
X2305659Y105257D01*
X2367686Y43230D01*
X2369870Y39979D01*
X2370632Y36068D01*
X2369870Y32156D01*
X2367686Y28905D01*
X2364384Y26670D01*
X2360523Y25908D01*
G37*

%LPC*%
G36*
X246634Y74168D02*
G01*
X263398Y74625D01*
X266750Y74930D01*
X283210Y77317D01*
X286562Y77978D01*
X305968Y83261D01*
X321513Y89357D01*
X324561Y90728D01*
X339344Y98552D01*
X342239Y100279D01*
X358749Y111760D01*
X371348Y122732D01*
X373786Y125069D01*
X385064Y137363D01*
X387197Y140004D01*
X397002Y153517D01*
X398830Y156362D01*
X407060Y170891D01*
X408584Y173939D01*
X416204Y192481D01*
X421690Y211836D01*
X424535Y228244D01*
X424891Y231648D01*
X425805Y248310D01*
X425805Y251714D01*
X424891Y268376D01*
X424535Y271729D01*
X421690Y288188D01*
X416204Y307492D01*
X415035Y310692D01*
X408584Y326085D01*
X407060Y329133D01*
X398830Y343662D01*
X397002Y346506D01*
X387197Y360019D01*
X385064Y362610D01*
X373786Y374904D01*
X371348Y377291D01*
X358749Y388213D01*
X356006Y390296D01*
X342239Y399694D01*
X339344Y401472D01*
X324561Y409244D01*
X321513Y410667D01*
X305968Y416712D01*
X302717Y417779D01*
X286562Y421995D01*
X283210Y422706D01*
X266750Y425043D01*
X263398Y425348D01*
X243332Y425754D01*
X226669Y424281D01*
X223316Y423824D01*
X206908Y420522D01*
X203606Y419658D01*
X187807Y414477D01*
X184658Y413258D01*
X169418Y406298D01*
X166420Y404723D01*
X152146Y396138D01*
X149301Y394208D01*
X136093Y383997D01*
X133604Y381812D01*
X121564Y370179D01*
X108712Y354736D01*
X106730Y351993D01*
X97739Y337972D01*
X96012Y334975D01*
X88646Y320040D01*
X87325Y316890D01*
X81788Y301193D01*
X80822Y297891D01*
X77012Y281635D01*
X76454Y278333D01*
X74523Y261721D01*
X74371Y241655D01*
X74523Y238252D01*
X76454Y221691D01*
X77012Y218338D01*
X80822Y202082D01*
X81788Y198831D01*
X87325Y183083D01*
X88646Y179984D01*
X96012Y164998D01*
X106730Y148031D01*
X108712Y145288D01*
X121564Y129844D01*
X136093Y115976D01*
X149301Y105816D01*
X152146Y103885D01*
X166420Y95250D01*
X169418Y93675D01*
X187807Y85496D01*
X203606Y80365D01*
X206908Y79502D01*
X223316Y76200D01*
X226669Y75692D01*
X243332Y74269D01*
G37*
G36*
X1219911Y370332D02*
G01*
X1239316Y371297D01*
X1258468Y374142D01*
X1277315Y378866D01*
X1295654Y385419D01*
X1313230Y393700D01*
X1329842Y403707D01*
X1345488Y415239D01*
X1359865Y428294D01*
X1372920Y442671D01*
X1384452Y458317D01*
X1394460Y474929D01*
X1402740Y492506D01*
X1409293Y510793D01*
X1413967Y529640D01*
X1416812Y548843D01*
X1417828Y568248D01*
X1416812Y587654D01*
X1413967Y606856D01*
X1409293Y625703D01*
X1402740Y643991D01*
X1394460Y661517D01*
X1384452Y678180D01*
X1372920Y693775D01*
X1359865Y708202D01*
X1345488Y721207D01*
X1329842Y732790D01*
X1313230Y742797D01*
X1295654Y751078D01*
X1277315Y757631D01*
X1258468Y762355D01*
X1239316Y765200D01*
X1219911Y766165D01*
X1200454Y765200D01*
X1181252Y762355D01*
X1162456Y757631D01*
X1144168Y751078D01*
X1126591Y742797D01*
X1109929Y732790D01*
X1094384Y721207D01*
X1079906Y708202D01*
X1066952Y693775D01*
X1055319Y678180D01*
X1045311Y661517D01*
X1037031Y643991D01*
X1030478Y625703D01*
X1025804Y606856D01*
X1022959Y587654D01*
X1021994Y568248D01*
X1022959Y548843D01*
X1025804Y529640D01*
X1030478Y510793D01*
X1037031Y492506D01*
X1045311Y474929D01*
X1055319Y458317D01*
X1066952Y442671D01*
X1079906Y428294D01*
X1094384Y415239D01*
X1109929Y403707D01*
X1126591Y393700D01*
X1144168Y385419D01*
X1162456Y378866D01*
X1181252Y374142D01*
X1200454Y371297D01*
G37*
G36*
X1727911Y370332D02*
G01*
X1747316Y371297D01*
X1766468Y374142D01*
X1785315Y378866D01*
X1803654Y385419D01*
X1821230Y393700D01*
X1837842Y403707D01*
X1853488Y415239D01*
X1867865Y428294D01*
X1880920Y442671D01*
X1892452Y458317D01*
X1902460Y474929D01*
X1910740Y492506D01*
X1917293Y510793D01*
X1921967Y529640D01*
X1924812Y548843D01*
X1925828Y568248D01*
X1924812Y587654D01*
X1921967Y606856D01*
X1917293Y625703D01*
X1910740Y643991D01*
X1902460Y661517D01*
X1892452Y678180D01*
X1880920Y693775D01*
X1867865Y708202D01*
X1853488Y721207D01*
X1837842Y732790D01*
X1821230Y742797D01*
X1803654Y751078D01*
X1785315Y757631D01*
X1766468Y762355D01*
X1747316Y765200D01*
X1727911Y766165D01*
X1708454Y765200D01*
X1689252Y762355D01*
X1670456Y757631D01*
X1652168Y751078D01*
X1634591Y742797D01*
X1617929Y732790D01*
X1602384Y721207D01*
X1587906Y708202D01*
X1574952Y693775D01*
X1563319Y678180D01*
X1553311Y661517D01*
X1545031Y643991D01*
X1538478Y625703D01*
X1533804Y606856D01*
X1530959Y587654D01*
X1529943Y568248D01*
X1530959Y548843D01*
X1533804Y529640D01*
X1538478Y510793D01*
X1545031Y492506D01*
X1553311Y474929D01*
X1563319Y458317D01*
X1574952Y442671D01*
X1587906Y428294D01*
X1602384Y415239D01*
X1617929Y403707D01*
X1634591Y393700D01*
X1652168Y385419D01*
X1670456Y378866D01*
X1689252Y374142D01*
X1708454Y371297D01*
G37*
G36*
X342950Y1954479D02*
G01*
X399592Y1954479D01*
X407924Y1955190D01*
X415543Y1957273D01*
X422757Y1960625D01*
X429209Y1965147D01*
X434848Y1970786D01*
X439369Y1977237D01*
X442772Y1984451D01*
X444754Y1992122D01*
X445566Y2000453D01*
X445566Y2063750D01*
X342950Y2063750D01*
G37*
G36*
X100431Y1954479D02*
G01*
X168656Y1954479D01*
X168656Y2063750D01*
X65532Y2063750D01*
X62128Y2064359D01*
X59131Y2066036D01*
X56845Y2068626D01*
X54457Y2068626D01*
X54457Y2000453D01*
X55219Y1992122D01*
X57302Y1984451D01*
X60655Y1977237D01*
X65176Y1970786D01*
X70764Y1965147D01*
X77266Y1960625D01*
X84429Y1957273D01*
X92100Y1955190D01*
G37*
G36*
X11074552Y2052015D02*
G01*
X11088370Y2052929D01*
X11101882Y2055622D01*
X11114938Y2060041D01*
X11127384Y2066137D01*
X11138763Y2073808D01*
X11149177Y2082901D01*
X11158270Y2093264D01*
X11165941Y2104745D01*
X11172088Y2117140D01*
X11176508Y2130196D01*
X11179200Y2143709D01*
X11180114Y2157476D01*
X11179200Y2171293D01*
X11176508Y2184806D01*
X11172088Y2197862D01*
X11165941Y2210257D01*
X11158270Y2221738D01*
X11149177Y2232101D01*
X11138763Y2241194D01*
X11127384Y2248865D01*
X11114938Y2254961D01*
X11101882Y2259380D01*
X11088370Y2262073D01*
X11074552Y2262987D01*
X11060836Y2262073D01*
X11047323Y2259380D01*
X11034217Y2254961D01*
X11021822Y2248865D01*
X11010392Y2241194D01*
X10999978Y2232101D01*
X10990884Y2221738D01*
X10983264Y2210257D01*
X10977168Y2197862D01*
X10972647Y2184806D01*
X10970006Y2171293D01*
X10969091Y2157476D01*
X10970006Y2143709D01*
X10972647Y2130196D01*
X10977168Y2117140D01*
X10983264Y2104745D01*
X10990884Y2093264D01*
X10999978Y2082901D01*
X11010392Y2073808D01*
X11021822Y2066137D01*
X11034217Y2060041D01*
X11047323Y2055622D01*
X11060836Y2052929D01*
G37*
G36*
X7421372Y2132634D02*
G01*
X7513929Y2132634D01*
X7511084Y2139442D01*
X7503159Y2153716D01*
X7493762Y2167026D01*
X7482840Y2179167D01*
X7470698Y2190038D01*
X7457440Y2199487D01*
X7443165Y2207412D01*
X7428077Y2213610D01*
X7421372Y2215540D01*
G37*
G36*
X7186117Y2132634D02*
G01*
X7278624Y2132634D01*
X7278624Y2215540D01*
X7271918Y2213610D01*
X7256881Y2207412D01*
X7242556Y2199487D01*
X7229297Y2190038D01*
X7217054Y2179167D01*
X7206183Y2167026D01*
X7196785Y2153716D01*
X7188911Y2139442D01*
G37*
G36*
X342950Y2231339D02*
G01*
X445566Y2231339D01*
X445566Y2299563D01*
X444754Y2307894D01*
X442772Y2315565D01*
X439369Y2322728D01*
X434848Y2329230D01*
X429209Y2334818D01*
X422757Y2339390D01*
X415543Y2342743D01*
X407924Y2344775D01*
X399592Y2345486D01*
X341884Y2345486D01*
X342950Y2341118D01*
G37*
G36*
X54457Y2231339D02*
G01*
X168656Y2231339D01*
X168656Y2345486D01*
X100431Y2345486D01*
X92100Y2344775D01*
X84429Y2342743D01*
X77266Y2339390D01*
X70764Y2334818D01*
X65176Y2329230D01*
X60655Y2322728D01*
X57302Y2315565D01*
X55219Y2307894D01*
X54457Y2299563D01*
G37*
G36*
X260400Y2456383D02*
G01*
X279704Y2457348D01*
X299008Y2460193D01*
X317754Y2464917D01*
X336092Y2471470D01*
X353669Y2479751D01*
X370332Y2489758D01*
X385927Y2501341D01*
X400304Y2514346D01*
X413359Y2528773D01*
X424891Y2544368D01*
X434898Y2561031D01*
X443230Y2578557D01*
X449732Y2596845D01*
X454456Y2615692D01*
X457352Y2634894D01*
X458266Y2654300D01*
X457352Y2673705D01*
X454456Y2692908D01*
X449732Y2711754D01*
X443230Y2730042D01*
X434898Y2747568D01*
X424891Y2764231D01*
X413359Y2779826D01*
X400304Y2794254D01*
X385927Y2807258D01*
X370332Y2818841D01*
X353669Y2828848D01*
X336092Y2837129D01*
X317754Y2843682D01*
X299008Y2848406D01*
X279704Y2851251D01*
X260400Y2852216D01*
X240995Y2851251D01*
X221691Y2848406D01*
X202946Y2843682D01*
X184658Y2837129D01*
X167081Y2828848D01*
X150368Y2818841D01*
X134772Y2807258D01*
X120396Y2794254D01*
X107340Y2779826D01*
X95808Y2764231D01*
X85801Y2747568D01*
X77470Y2730042D01*
X70967Y2711754D01*
X66243Y2692908D01*
X63398Y2673705D01*
X62433Y2654300D01*
X63398Y2634894D01*
X66243Y2615692D01*
X70967Y2596845D01*
X77470Y2578557D01*
X85801Y2561031D01*
X95808Y2544368D01*
X107340Y2528773D01*
X120396Y2514346D01*
X134772Y2501341D01*
X150368Y2489758D01*
X167081Y2479751D01*
X184658Y2471470D01*
X202946Y2464917D01*
X221691Y2460193D01*
X240995Y2457348D01*
G37*
G36*
X7599984Y2479497D02*
G01*
X7617764Y2480411D01*
X7635443Y2483205D01*
X7652613Y2487828D01*
X7669275Y2494229D01*
X7685227Y2502357D01*
X7700213Y2512060D01*
X7714081Y2523286D01*
X7726730Y2535885D01*
X7737957Y2549753D01*
X7747609Y2564739D01*
X7755686Y2580640D01*
X7762138Y2597302D01*
X7766761Y2614523D01*
X7769504Y2632151D01*
X7770520Y2649982D01*
X7769504Y2667812D01*
X7766761Y2685440D01*
X7762138Y2702661D01*
X7755686Y2719324D01*
X7747609Y2735224D01*
X7737957Y2750210D01*
X7726730Y2764078D01*
X7714081Y2776728D01*
X7700213Y2787954D01*
X7685227Y2797657D01*
X7669275Y2805734D01*
X7652613Y2812135D01*
X7635443Y2816758D01*
X7617764Y2819552D01*
X7599984Y2820517D01*
X7582153Y2819552D01*
X7564475Y2816758D01*
X7547254Y2812135D01*
X7530592Y2805734D01*
X7514691Y2797657D01*
X7499756Y2787954D01*
X7485888Y2776728D01*
X7473238Y2764078D01*
X7462012Y2750210D01*
X7452359Y2735224D01*
X7444181Y2719324D01*
X7437831Y2702661D01*
X7433208Y2685440D01*
X7430363Y2667812D01*
X7429449Y2649982D01*
X7430363Y2632151D01*
X7433208Y2614523D01*
X7437831Y2597302D01*
X7444181Y2580640D01*
X7452359Y2564739D01*
X7462012Y2549753D01*
X7473238Y2535885D01*
X7485888Y2523286D01*
X7499756Y2512060D01*
X7514691Y2502357D01*
X7530592Y2494229D01*
X7547254Y2487828D01*
X7564475Y2483205D01*
X7582153Y2480411D01*
G37*
G36*
X7161834Y2493467D02*
G01*
X7210602Y2493467D01*
X7218883Y2494229D01*
X7226553Y2496261D01*
X7233716Y2499614D01*
X7240270Y2504135D01*
X7245858Y2509774D01*
X7250379Y2516276D01*
X7253782Y2523439D01*
X7255814Y2531110D01*
X7256525Y2539441D01*
X7256525Y2588158D01*
X7161834Y2588158D01*
G37*
G36*
X11072977Y2535783D02*
G01*
X11086795Y2536698D01*
X11100308Y2539390D01*
X11113363Y2543860D01*
X11125708Y2549956D01*
X11137188Y2557627D01*
X11147602Y2566720D01*
X11156645Y2577084D01*
X11164366Y2588564D01*
X11170412Y2600909D01*
X11174831Y2614015D01*
X11177524Y2627528D01*
X11178438Y2641295D01*
X11177524Y2655062D01*
X11174831Y2668625D01*
X11170412Y2681681D01*
X11164366Y2694025D01*
X11156645Y2705506D01*
X11147602Y2715920D01*
X11137188Y2725013D01*
X11125708Y2732684D01*
X11113363Y2738780D01*
X11100308Y2743200D01*
X11086795Y2745892D01*
X11072977Y2746806D01*
X11059160Y2745892D01*
X11045647Y2743200D01*
X11032591Y2738780D01*
X11020247Y2732684D01*
X11008715Y2725013D01*
X10998352Y2715920D01*
X10989310Y2705506D01*
X10981588Y2694025D01*
X10975543Y2681681D01*
X10971123Y2668625D01*
X10968431Y2655062D01*
X10967516Y2641295D01*
X10968431Y2627528D01*
X10971123Y2614015D01*
X10975543Y2600909D01*
X10981588Y2588564D01*
X10989310Y2577084D01*
X10998352Y2566720D01*
X11008715Y2557627D01*
X11020247Y2549956D01*
X11032591Y2543860D01*
X11045647Y2539390D01*
X11059160Y2536698D01*
G37*
G36*
X7161834Y2711856D02*
G01*
X7256525Y2711856D01*
X7256525Y2760573D01*
X7255814Y2768904D01*
X7253782Y2776524D01*
X7250379Y2783738D01*
X7245858Y2790240D01*
X7240270Y2795828D01*
X7233716Y2800400D01*
X7226553Y2803753D01*
X7218883Y2805785D01*
X7210602Y2806496D01*
X7161834Y2806496D01*
G37*
G36*
X7599984Y3329482D02*
G01*
X7617764Y3330448D01*
X7635443Y3333191D01*
X7652613Y3337814D01*
X7669275Y3344214D01*
X7685227Y3352342D01*
X7700213Y3362045D01*
X7714081Y3373272D01*
X7726730Y3385921D01*
X7737957Y3399790D01*
X7747609Y3414725D01*
X7755686Y3430625D01*
X7762138Y3447287D01*
X7766761Y3464560D01*
X7769504Y3482187D01*
X7770520Y3499967D01*
X7769504Y3517798D01*
X7766761Y3535426D01*
X7762138Y3552698D01*
X7755686Y3569360D01*
X7747609Y3585260D01*
X7737957Y3600196D01*
X7726730Y3614064D01*
X7714081Y3626713D01*
X7700213Y3637940D01*
X7685227Y3647643D01*
X7669275Y3655771D01*
X7652613Y3662172D01*
X7635443Y3666794D01*
X7617764Y3669537D01*
X7599984Y3670503D01*
X7582153Y3669537D01*
X7564475Y3666794D01*
X7547254Y3662172D01*
X7530592Y3655771D01*
X7514691Y3647643D01*
X7499756Y3637940D01*
X7485888Y3626713D01*
X7473238Y3614064D01*
X7462012Y3600196D01*
X7452359Y3585260D01*
X7444181Y3569360D01*
X7437831Y3552698D01*
X7433208Y3535426D01*
X7430363Y3517798D01*
X7429449Y3499967D01*
X7430363Y3482187D01*
X7433208Y3464560D01*
X7437831Y3447287D01*
X7444181Y3430625D01*
X7452359Y3414725D01*
X7462012Y3399790D01*
X7473238Y3385921D01*
X7485888Y3373272D01*
X7499756Y3362045D01*
X7514691Y3352342D01*
X7530592Y3344214D01*
X7547254Y3337814D01*
X7564475Y3333191D01*
X7582153Y3330448D01*
G37*
G36*
X7161834Y3343452D02*
G01*
X7210602Y3343452D01*
X7218883Y3344214D01*
X7226553Y3346246D01*
X7233716Y3349599D01*
X7240270Y3354171D01*
X7245858Y3359759D01*
X7250379Y3366262D01*
X7253782Y3373424D01*
X7255814Y3381095D01*
X7256525Y3389426D01*
X7256525Y3438144D01*
X7161834Y3438144D01*
G37*
G36*
X7161834Y3561842D02*
G01*
X7256525Y3561842D01*
X7256525Y3610559D01*
X7255814Y3618890D01*
X7253782Y3626561D01*
X7250379Y3633724D01*
X7245858Y3640226D01*
X7240270Y3645814D01*
X7233716Y3650386D01*
X7226553Y3653739D01*
X7218883Y3655771D01*
X7210602Y3656533D01*
X7161834Y3656533D01*
G37*
G36*
X1090422Y3759454D02*
G01*
X1169568Y3759454D01*
X1177950Y3760215D01*
X1185570Y3762248D01*
X1192733Y3765600D01*
X1194206Y3766616D01*
X1197914Y3768242D01*
X1202029Y3768242D01*
X1205788Y3766616D01*
X1207262Y3765600D01*
X1214475Y3762248D01*
X1222095Y3760215D01*
X1230477Y3759454D01*
X1309522Y3759454D01*
X1317904Y3760215D01*
X1325524Y3762248D01*
X1332738Y3765600D01*
X1339240Y3770172D01*
X1344777Y3775760D01*
X1349400Y3782263D01*
X1352702Y3789426D01*
X1354785Y3797096D01*
X1355547Y3805428D01*
X1355547Y3838651D01*
X1356258Y3842512D01*
X1358493Y3845814D01*
X1393342Y3880713D01*
X1400251Y3888841D01*
X1405686Y3897579D01*
X1409547Y3907078D01*
X1412036Y3917086D01*
X1412798Y3927703D01*
X1412798Y4027525D01*
X1413814Y4031792D01*
X1416456Y4035247D01*
X1423162Y4040987D01*
X1432560Y4051350D01*
X1440484Y4062780D01*
X1446936Y4075176D01*
X1451813Y4088282D01*
X1454912Y4101896D01*
X1456232Y4115815D01*
X1455775Y4129735D01*
X1453540Y4143552D01*
X1449578Y4156913D01*
X1443990Y4169714D01*
X1436725Y4181652D01*
X1428038Y4192574D01*
X1417929Y4202277D01*
X1406804Y4210659D01*
X1394561Y4217466D01*
X1381658Y4222750D01*
X1368145Y4226255D01*
X1354328Y4228084D01*
X1340358Y4228084D01*
X1326438Y4226255D01*
X1312926Y4222750D01*
X1299972Y4217466D01*
X1287881Y4210659D01*
X1276654Y4202277D01*
X1266647Y4192574D01*
X1257909Y4181652D01*
X1250645Y4169714D01*
X1245006Y4156913D01*
X1241044Y4143552D01*
X1238859Y4129735D01*
X1238402Y4115815D01*
X1239672Y4101896D01*
X1242822Y4088282D01*
X1247597Y4075176D01*
X1254150Y4062780D01*
X1262126Y4051350D01*
X1271524Y4040987D01*
X1278229Y4035247D01*
X1280820Y4031792D01*
X1281836Y4027525D01*
X1281836Y3958691D01*
X1281074Y3954779D01*
X1278788Y3951478D01*
X1270863Y3943502D01*
X1267561Y3941267D01*
X1263599Y3940505D01*
X1230477Y3940505D01*
X1222095Y3939794D01*
X1214475Y3937711D01*
X1207262Y3934358D01*
X1205788Y3933393D01*
X1202029Y3931767D01*
X1197914Y3931767D01*
X1194206Y3933393D01*
X1192733Y3934358D01*
X1185570Y3937711D01*
X1177950Y3939794D01*
X1169568Y3940505D01*
X1164691Y3940505D01*
X1160729Y3941267D01*
X1157478Y3943502D01*
X1155293Y3946804D01*
X1154531Y3950665D01*
X1154531Y4023360D01*
X1154988Y4026458D01*
X1156411Y4029252D01*
X1169619Y4042003D01*
X1178407Y4052925D01*
X1185570Y4064863D01*
X1191260Y4077665D01*
X1195222Y4091025D01*
X1197508Y4104843D01*
X1197914Y4118762D01*
X1196594Y4132681D01*
X1193495Y4146296D01*
X1188618Y4159402D01*
X1182166Y4171797D01*
X1174242Y4183227D01*
X1164844Y4193590D01*
X1154176Y4202633D01*
X1142492Y4210253D01*
X1129893Y4216298D01*
X1116634Y4220718D01*
X1102918Y4223410D01*
X1088948Y4224274D01*
X1075029Y4223410D01*
X1061313Y4220718D01*
X1048054Y4216298D01*
X1035456Y4210253D01*
X1023772Y4202633D01*
X1013206Y4193590D01*
X1003808Y4183227D01*
X995730Y4171797D01*
X989330Y4159402D01*
X984503Y4146296D01*
X981405Y4132681D01*
X980084Y4118762D01*
X980490Y4104843D01*
X982675Y4091025D01*
X986739Y4077665D01*
X992327Y4064863D01*
X999591Y4052925D01*
X1008329Y4042003D01*
X1021587Y4029252D01*
X1023010Y4026458D01*
X1023467Y4023360D01*
X1023467Y3891432D01*
X1024331Y3880764D01*
X1026668Y3870807D01*
X1030579Y3861308D01*
X1036015Y3852519D01*
X1042009Y3845458D01*
X1043838Y3842359D01*
X1044498Y3838854D01*
X1044498Y3805428D01*
X1045210Y3797096D01*
X1047242Y3789426D01*
X1050645Y3782263D01*
X1055166Y3775760D01*
X1060754Y3770172D01*
X1067308Y3765600D01*
X1074470Y3762248D01*
X1082141Y3760215D01*
G37*
G36*
X8071154Y3949547D02*
G01*
X8093354Y3950208D01*
X8115706Y3953154D01*
X8134756Y3957523D01*
X8156143Y3964584D01*
X8158886Y3965651D01*
X8176717Y3973677D01*
X8196325Y3984802D01*
X8214664Y3997858D01*
X8231682Y4012641D01*
X8248954Y4031284D01*
X8262416Y4049318D01*
X8274100Y4068622D01*
X8282584Y4086250D01*
X8290407Y4107383D01*
X8296097Y4129125D01*
X8299602Y4151376D01*
X8300872Y4173880D01*
X8300872Y4176826D01*
X8299602Y4199331D01*
X8296097Y4221581D01*
X8290407Y4243324D01*
X8282584Y4264456D01*
X8274100Y4282084D01*
X8262416Y4301388D01*
X8248954Y4319422D01*
X8231682Y4338066D01*
X8214664Y4352848D01*
X8196325Y4365904D01*
X8176717Y4377029D01*
X8158886Y4385056D01*
X8137601Y4392371D01*
X8134756Y4393184D01*
X8115706Y4397552D01*
X8093354Y4400499D01*
X8067852Y4401108D01*
X8045399Y4399280D01*
X8023301Y4395216D01*
X8004454Y4389932D01*
X7983474Y4381855D01*
X7963306Y4371695D01*
X7944358Y4359605D01*
X7924393Y4343704D01*
X7908391Y4327906D01*
X7894015Y4310532D01*
X7882991Y4294378D01*
X7872120Y4274667D01*
X7863281Y4253992D01*
X7855712Y4229658D01*
X7851394Y4207560D01*
X7849463Y4188104D01*
X7849463Y4162602D01*
X7851394Y4143146D01*
X7855712Y4121048D01*
X7862265Y4099509D01*
X7863281Y4096715D01*
X7872120Y4076039D01*
X7882991Y4056329D01*
X7894015Y4040174D01*
X7908391Y4022801D01*
X7924393Y4007002D01*
X7941970Y3992829D01*
X7944358Y3991101D01*
X7963306Y3979011D01*
X7983474Y3968851D01*
X8004454Y3960774D01*
X8026196Y3954830D01*
X8045399Y3951427D01*
X8067497Y3949598D01*
G37*
G36*
X10121188Y3949547D02*
G01*
X10143286Y3950208D01*
X10165638Y3953154D01*
X10187584Y3958336D01*
X10208920Y3965651D01*
X10226700Y3973677D01*
X10246258Y3984802D01*
X10266984Y3999687D01*
X10283748Y4014724D01*
X10298988Y4031284D01*
X10312450Y4049318D01*
X10322661Y4066032D01*
X10332516Y4086250D01*
X10333685Y4088993D01*
X10341254Y4110177D01*
X10346690Y4132072D01*
X10349890Y4154322D01*
X10350804Y4176826D01*
X10349890Y4196384D01*
X10346690Y4218635D01*
X10341254Y4240530D01*
X10333685Y4261713D01*
X10322661Y4284675D01*
X10312450Y4301388D01*
X10298988Y4319422D01*
X10283748Y4335983D01*
X10266984Y4351020D01*
X10248747Y4364278D01*
X10246258Y4365904D01*
X10226700Y4377029D01*
X10208920Y4385056D01*
X10187584Y4392371D01*
X10165638Y4397552D01*
X10143286Y4400499D01*
X10117886Y4401108D01*
X10095433Y4399280D01*
X10076129Y4395876D01*
X10054488Y4389932D01*
X10033406Y4381855D01*
X10013340Y4371695D01*
X9994290Y4359605D01*
X9976612Y4345686D01*
X9960457Y4330090D01*
X9958425Y4327906D01*
X9945827Y4312920D01*
X9933025Y4294378D01*
X9931450Y4291838D01*
X9920884Y4272026D01*
X9913213Y4253992D01*
X9912197Y4251198D01*
X9905695Y4229658D01*
X9901428Y4207560D01*
X9899345Y4185107D01*
X9899345Y4165549D01*
X9901428Y4143146D01*
X9905695Y4121048D01*
X9912197Y4099509D01*
X9913213Y4096715D01*
X9922154Y4076039D01*
X9931450Y4058818D01*
X9945827Y4037787D01*
X9958425Y4022801D01*
X9976612Y4005021D01*
X9994290Y3991101D01*
X10013340Y3979011D01*
X10033406Y3968851D01*
X10054488Y3960774D01*
X10076129Y3954830D01*
X10095433Y3951427D01*
X10117531Y3949598D01*
G37*
G36*
X823671Y4006494D02*
G01*
X837590Y4006494D01*
X851509Y4008323D01*
X864971Y4011828D01*
X877976Y4017060D01*
X890117Y4023918D01*
X901344Y4032300D01*
X911301Y4042003D01*
X920038Y4052925D01*
X927303Y4064863D01*
X932992Y4077665D01*
X936955Y4091025D01*
X939139Y4104843D01*
X939546Y4118762D01*
X938225Y4132681D01*
X935177Y4146296D01*
X930300Y4159402D01*
X923899Y4171797D01*
X915822Y4183227D01*
X906475Y4193590D01*
X895858Y4202633D01*
X884174Y4210253D01*
X871575Y4216298D01*
X858316Y4220718D01*
X844600Y4223410D01*
X830630Y4224274D01*
X816762Y4223410D01*
X802995Y4220718D01*
X789736Y4216298D01*
X777189Y4210253D01*
X765505Y4202633D01*
X754837Y4193590D01*
X745439Y4183227D01*
X737412Y4171797D01*
X730961Y4159402D01*
X726135Y4146296D01*
X723087Y4132681D01*
X721715Y4118762D01*
X722172Y4104843D01*
X724408Y4091025D01*
X728370Y4077665D01*
X734009Y4064863D01*
X741222Y4052925D01*
X750011Y4042003D01*
X759968Y4032300D01*
X771144Y4023918D01*
X783336Y4017060D01*
X796340Y4011828D01*
X809802Y4008323D01*
G37*
G36*
X1622348Y4010304D02*
G01*
X1636217Y4011168D01*
X1649933Y4013860D01*
X1663192Y4018279D01*
X1675790Y4024325D01*
X1687474Y4031945D01*
X1698091Y4040987D01*
X1707540Y4051350D01*
X1715566Y4062780D01*
X1722018Y4075176D01*
X1726793Y4088282D01*
X1729892Y4101896D01*
X1731213Y4115815D01*
X1730756Y4129735D01*
X1728622Y4143552D01*
X1724558Y4156913D01*
X1718970Y4169714D01*
X1711706Y4181652D01*
X1702968Y4192574D01*
X1693011Y4202277D01*
X1681784Y4210659D01*
X1669643Y4217466D01*
X1656638Y4222750D01*
X1643125Y4226255D01*
X1629308Y4228084D01*
X1615338Y4228084D01*
X1601520Y4226255D01*
X1588008Y4222750D01*
X1575054Y4217466D01*
X1562862Y4210659D01*
X1551635Y4202277D01*
X1541627Y4192574D01*
X1532890Y4181652D01*
X1525625Y4169714D01*
X1519986Y4156913D01*
X1516024Y4143552D01*
X1513840Y4129735D01*
X1513382Y4115815D01*
X1514754Y4101896D01*
X1517802Y4088282D01*
X1522679Y4075176D01*
X1529130Y4062780D01*
X1537106Y4051350D01*
X1546504Y4040987D01*
X1557070Y4031945D01*
X1568856Y4024325D01*
X1581454Y4018279D01*
X1594713Y4013860D01*
X1608328Y4011168D01*
G37*
G36*
X7599984Y4179468D02*
G01*
X7617764Y4180433D01*
X7635443Y4183227D01*
X7652613Y4187850D01*
X7669275Y4194251D01*
X7685227Y4202328D01*
X7700213Y4212031D01*
X7714081Y4223258D01*
X7726629Y4235907D01*
X7737856Y4249775D01*
X7747609Y4264761D01*
X7755686Y4280662D01*
X7762138Y4297324D01*
X7766761Y4314545D01*
X7769504Y4332173D01*
X7770418Y4350004D01*
X7769504Y4367834D01*
X7766761Y4385462D01*
X7762138Y4402683D01*
X7755686Y4419346D01*
X7747609Y4435246D01*
X7737856Y4450232D01*
X7726629Y4464100D01*
X7714081Y4476699D01*
X7700213Y4487926D01*
X7685227Y4497628D01*
X7669275Y4505756D01*
X7652613Y4512157D01*
X7635443Y4516780D01*
X7617764Y4519574D01*
X7599984Y4520488D01*
X7582153Y4519574D01*
X7564475Y4516780D01*
X7547254Y4512157D01*
X7530592Y4505756D01*
X7514691Y4497628D01*
X7499756Y4487926D01*
X7485888Y4476699D01*
X7473238Y4464100D01*
X7462012Y4450232D01*
X7452258Y4435246D01*
X7444181Y4419346D01*
X7437831Y4402683D01*
X7433208Y4385462D01*
X7430363Y4367834D01*
X7429449Y4350004D01*
X7430363Y4332173D01*
X7433208Y4314545D01*
X7437831Y4297324D01*
X7444181Y4280662D01*
X7452258Y4264761D01*
X7462012Y4249775D01*
X7473238Y4235907D01*
X7485888Y4223258D01*
X7499756Y4212031D01*
X7514691Y4202328D01*
X7530592Y4194251D01*
X7547254Y4187850D01*
X7564475Y4183227D01*
X7582153Y4180433D01*
G37*
G36*
X7161834Y4193489D02*
G01*
X7210501Y4193489D01*
X7218883Y4194200D01*
X7226553Y4196232D01*
X7233716Y4199585D01*
X7240270Y4204157D01*
X7245858Y4209745D01*
X7250379Y4216247D01*
X7253681Y4223461D01*
X7255814Y4231081D01*
X7256525Y4239412D01*
X7256525Y4288129D01*
X7161834Y4288129D01*
G37*
G36*
X246634Y4374184D02*
G01*
X263398Y4374642D01*
X266750Y4374946D01*
X283210Y4377283D01*
X286562Y4377994D01*
X302717Y4382211D01*
X305968Y4383278D01*
X321513Y4389323D01*
X324561Y4390745D01*
X339344Y4398518D01*
X342239Y4400296D01*
X356006Y4409694D01*
X358749Y4411776D01*
X371348Y4422698D01*
X373786Y4425086D01*
X385064Y4437380D01*
X387197Y4439970D01*
X397002Y4453483D01*
X398830Y4456328D01*
X407060Y4470857D01*
X408584Y4473905D01*
X415035Y4489297D01*
X416204Y4492498D01*
X421690Y4511802D01*
X424535Y4528261D01*
X424891Y4531614D01*
X425805Y4548276D01*
X425805Y4551680D01*
X424891Y4568342D01*
X424535Y4571746D01*
X421690Y4588154D01*
X416204Y4607509D01*
X408584Y4626051D01*
X407060Y4629099D01*
X398830Y4643628D01*
X397002Y4646472D01*
X387197Y4659985D01*
X385064Y4662627D01*
X373786Y4674920D01*
X371348Y4677257D01*
X358749Y4688230D01*
X342239Y4699711D01*
X339344Y4701438D01*
X324561Y4709261D01*
X321513Y4710633D01*
X305968Y4716729D01*
X286562Y4722012D01*
X283210Y4722672D01*
X266750Y4725060D01*
X263398Y4725365D01*
X246634Y4725822D01*
X243332Y4725720D01*
X226669Y4724298D01*
X223316Y4723790D01*
X206908Y4720488D01*
X203606Y4719624D01*
X187807Y4714494D01*
X169418Y4706315D01*
X166420Y4704740D01*
X152146Y4696104D01*
X149301Y4694174D01*
X136093Y4684014D01*
X121564Y4670145D01*
X108712Y4654702D01*
X106730Y4651959D01*
X96012Y4634992D01*
X88646Y4620006D01*
X87325Y4616856D01*
X81788Y4601159D01*
X80822Y4597908D01*
X77012Y4581652D01*
X76454Y4578299D01*
X74523Y4561738D01*
X74371Y4541621D01*
X74523Y4538268D01*
X76454Y4521657D01*
X77012Y4518355D01*
X80822Y4502099D01*
X81788Y4498797D01*
X87325Y4483100D01*
X88646Y4479950D01*
X96012Y4465015D01*
X97739Y4462018D01*
X106730Y4447997D01*
X108712Y4445254D01*
X121564Y4429810D01*
X133604Y4418177D01*
X136093Y4415993D01*
X149301Y4405782D01*
X152146Y4403852D01*
X166420Y4395266D01*
X169418Y4393692D01*
X184658Y4386732D01*
X187807Y4385513D01*
X203606Y4380331D01*
X206908Y4379468D01*
X223316Y4376166D01*
X226669Y4375708D01*
X243332Y4374235D01*
G37*
G36*
X7161834Y4411827D02*
G01*
X7256525Y4411827D01*
X7256525Y4460544D01*
X7255814Y4468876D01*
X7253681Y4476546D01*
X7250379Y4483709D01*
X7245858Y4490212D01*
X7240270Y4495850D01*
X7233716Y4500372D01*
X7226553Y4503724D01*
X7218883Y4505756D01*
X7210501Y4506518D01*
X7161834Y4506518D01*
G37*
G36*
X6943445Y4411827D02*
G01*
X7038136Y4411827D01*
X7038136Y4506518D01*
X6989470Y4506518D01*
X6981088Y4505756D01*
X6973468Y4503724D01*
X6966254Y4500372D01*
X6959752Y4495850D01*
X6954113Y4490212D01*
X6949643Y4483709D01*
X6946290Y4476546D01*
X6944207Y4468876D01*
X6943445Y4460544D01*
G37*

%LPD*%
D10*
X3480003Y2536875D02*
G01*
X3480003Y3099993D01*
X3161969Y2059939D02*
G01*
X2709849Y2059939D01*
X2599867Y1949957D01*
X2500045Y1949957D01*
X2150033Y2299970D01*
X2150033Y3200145D01*
X2299893Y3350005D01*
X2299893Y3999992D01*
X2399969Y4100068D01*
X2770555Y4100068D01*
X2786049Y4115307D01*
D11*
X3161842Y2219985D02*
G01*
X2469984Y2219985D01*
X2449995Y2199995D01*
D12*
X10388523Y1816100D02*
G01*
X10388523Y2411476D01*
X8850045Y3949954D01*
X8850045Y4199889D01*
D10*
X3399993Y1663118D02*
G01*
X3399993Y1400050D01*
X2549824Y1400050D01*
X1649910Y2299970D01*
X1649910Y2899915D01*
X1550085Y2999996D01*
X350009Y2999996D01*
X150012Y3199993D01*
D11*
X3639997Y2536875D02*
G01*
X3639997Y2400045D01*
D13*
X4599990Y3249993D02*
G01*
X4650000Y3199983D01*
X4650000Y2989976D01*
D11*
X4650003Y2849994D02*
G01*
X4839893Y2990087D01*
X4850053Y2990087D01*
D13*
X4850053Y2599944D02*
G01*
X4850053Y2750057D01*
X3999915Y2750057D01*
X3880027Y2629915D01*
X3880027Y2536952D01*
D11*
X4850000Y2989988D02*
G01*
X4853990Y2993976D01*
X4853990Y3250006D01*
D13*
X4849977Y2599997D02*
G01*
X4849977Y2849981D01*
X4850002Y2849981D01*
X3799994Y2536875D02*
G01*
X3799994Y2849996D01*
X3939984Y2989986D01*
X4650003Y2989986D01*
D11*
X3699944Y2400045D02*
G01*
X3900043Y2400045D01*
X3949987Y2449995D01*
X4445977Y2449995D01*
X4595977Y2599994D01*
X4038269Y2379979D02*
G01*
X5699937Y2379979D01*
X5699937Y3600195D01*
X5349925Y3949954D01*
X4314875Y3949954D01*
X4149521Y4115307D01*
X6397421Y4115307D02*
G01*
X6397421Y3647439D01*
X6299885Y3549904D01*
X6099987Y3549904D01*
X5999911Y3449828D01*
X5999911Y2399792D01*
X5899835Y2299970D01*
X4038269Y2299970D01*
X4038269Y2219960D02*
G01*
X6470065Y2219960D01*
X6550075Y2299970D01*
X6550075Y3992879D01*
X6672249Y4115307D01*
X10388528Y1816100D02*
G01*
X10388528Y1438653D01*
X9064167Y114300D01*
X2549999Y114300D01*
X2450007Y214292D01*
X2450007Y949985D01*
X10515528Y1816100D02*
G01*
X10515528Y1415542D01*
X9150017Y50037D01*
X2449997Y50037D01*
X2350008Y150027D01*
X2350008Y1149985D01*
D10*
X5769990Y3899979D02*
G01*
X5850000Y3979989D01*
X5850000Y4107992D01*
X5629986Y3899979D02*
G01*
X5572302Y3957662D01*
X5572302Y4115282D01*
X1270000Y3850004D02*
G01*
X1347317Y3927322D01*
X1347317Y4119295D01*
X1088974Y4115282D02*
G01*
X1088974Y3891026D01*
X1129995Y3850004D01*
X3519995Y3899992D02*
G01*
X3599992Y3979989D01*
X3599992Y4107992D01*
X3331387Y4115282D02*
G01*
X3331387Y3948595D01*
X3379990Y3899992D01*
X3314623Y3556000D02*
G01*
X3314623Y3657600D01*
X3807637Y3657600D01*
X3999915Y3849878D01*
X3999915Y4199889D01*
X4041825Y4241800D01*
X4368723Y4241800D01*
X4422317Y4188205D01*
X4422317Y4115307D01*
X3161969Y2379979D02*
G01*
X2470073Y2379979D01*
X2299893Y2549905D01*
X2299893Y3249929D01*
X2399969Y3350005D01*
X2399969Y3549904D01*
X2800019Y3549904D01*
X2799994Y3549992D01*
X299999Y3199993D02*
G01*
X399922Y3100070D01*
X1599867Y3100070D01*
X1749986Y2949953D01*
X1749986Y2299970D01*
X2550086Y1499870D01*
X2900093Y1499870D01*
X3319960Y1500294D01*
X3480000Y2536875D02*
G01*
X3480000Y1999995D01*
X3699995Y1999995D01*
X4010888Y1689100D01*
X4851400Y1689100D01*
D11*
X6999909Y450087D02*
G01*
X5900089Y1549907D01*
X3880027Y1549907D01*
X3880027Y1663192D01*
X3399967Y2536952D02*
G01*
X3399967Y3100070D01*
X3200069Y3299968D01*
X3200069Y4150105D01*
X3349929Y4299965D01*
X4900091Y4299965D01*
X5022265Y4177792D01*
X5022265Y4115307D01*
D10*
X3639997Y2536875D02*
G01*
X3639997Y2649994D01*
X3161967Y1819907D02*
G01*
X2759882Y1819907D01*
X2692328Y1752600D01*
X2400228Y1752600D01*
X1850059Y2303015D01*
X1850059Y2999927D01*
X1649994Y3199993D01*
X450011Y3199993D01*
X3161969Y1899920D02*
G01*
X2749981Y1899920D01*
X2666161Y1816100D01*
X2438323Y1816100D01*
X1949881Y2304542D01*
X1949881Y3050031D01*
X1749983Y3249929D01*
X1749983Y3400044D01*
X1649907Y3499865D01*
X900099Y3499865D01*
X572439Y3827779D01*
X572439Y4115307D01*
X3161969Y1979929D02*
G01*
X2729915Y1979929D01*
X2629585Y1879600D01*
X2476423Y1879600D01*
X2049957Y2306065D01*
X2049957Y3250031D01*
X1999995Y3299993D01*
X1999995Y3992956D01*
X2122322Y4115282D01*
D11*
X3599992Y4107992D02*
G01*
X3850004Y4107992D01*
D10*
X3559982Y2750057D02*
G01*
X3559982Y3140001D01*
X3450005Y3249978D01*
X3450005Y3549980D01*
D11*
X1864029Y4115307D02*
G01*
X1864029Y4164076D01*
X1949881Y4249928D01*
X2850057Y4249928D01*
X2933623Y4166362D01*
X2933623Y3116326D01*
X3319957Y2729992D01*
X3319957Y2536952D01*
D10*
X3559987Y2536952D02*
G01*
X3559987Y2750057D01*
X3720007Y2750057D01*
X3720007Y2536952D01*
D11*
X3479977Y2536952D02*
G01*
X3479977Y2419857D01*
X3500043Y2400045D01*
X3699941Y2400045D01*
D10*
X9229979Y2680004D02*
G01*
X9232900Y2682925D01*
X9232900Y3073397D01*
X7349921Y1330705D02*
G01*
X7419263Y1330705D01*
X7600111Y1150112D01*
X8348903Y1150112D01*
X9165005Y1965960D01*
X9165005Y2120900D01*
X9230029Y2120900D02*
G01*
X9230029Y1899920D01*
X8380145Y1050036D01*
X7382179Y1050036D01*
X7349921Y1082039D01*
X7349921Y833373D02*
G01*
X7433233Y833373D01*
X7549819Y949960D01*
X8399957Y949960D01*
X9295053Y1845055D01*
X9295053Y2119884D01*
D12*
X7349985Y1827738D02*
G01*
X7376243Y1827738D01*
X7749984Y1453997D01*
D10*
X7749971Y1453895D02*
G01*
X7749971Y1450086D01*
X7850047Y1350010D01*
X8349919Y1350010D01*
X8800007Y1800097D01*
X8800007Y2450084D01*
X8850045Y2500121D01*
X9049943Y2500121D01*
X9099981Y2549905D01*
X9099981Y2679954D01*
X7349921Y2076195D02*
G01*
X7373797Y2076195D01*
X7949869Y1499870D01*
X8350173Y1499870D01*
X8699931Y1849881D01*
X8699931Y2849879D01*
X8923451Y3073400D01*
X9232823Y3073400D01*
D11*
X7349921Y336295D02*
G01*
X7263561Y336295D01*
X5619927Y1979929D01*
X4038269Y1979929D01*
X7349921Y584962D02*
G01*
X7165009Y584962D01*
X5690031Y2059939D01*
X4038269Y2059939D01*
X7349921Y833628D02*
G01*
X7066457Y833628D01*
X5759881Y2139950D01*
X4038269Y2139950D01*
X4038269Y1899920D02*
G01*
X5511723Y1899920D01*
X5511723Y1905000D01*
X4038269Y1819910D02*
G01*
X5600623Y1819910D01*
X5600623Y1803400D01*
D10*
X6288887Y1798396D02*
G01*
X6756654Y1330629D01*
X7298156Y1330629D01*
X7349921Y1579118D02*
G01*
X7270927Y1579118D01*
X7349921Y1579118D02*
G01*
X7725333Y1249934D01*
X8349919Y1249934D01*
X9099981Y1999995D01*
X9099981Y2119884D01*
X6200063Y1899920D02*
G01*
X6349923Y1899920D01*
X6670725Y1579118D01*
X7349985Y1579173D01*
D11*
X3319957Y1500294D02*
G01*
X3319957Y1663192D01*
D12*
X9349917Y4199889D02*
G01*
X9349917Y3599942D01*
X10515523Y2434336D01*
X10515523Y1816100D01*
D11*
X6999986Y1099997D02*
G01*
X7017913Y1082070D01*
X7349985Y1082070D01*
X7072045Y177800D02*
G01*
X2599994Y177800D01*
X7749971Y691895D02*
G01*
X7749971Y177800D01*
X7072045Y177800D01*
X7072045Y177800D01*
X3161842Y2140000D02*
G01*
X2622600Y2140000D01*
X2552700Y2070100D01*
X2349423Y2311400D02*
G01*
X2349423Y2299970D01*
X3161969Y2299970D01*
X2550007Y1299997D02*
G01*
X2550007Y227784D01*
X2599992Y177800D01*
D12*
X7349921Y2076195D02*
G01*
X7349921Y2450084D01*
X7229525Y2570479D01*
X7099985Y2570479D01*
X7349997Y1827733D02*
G01*
X7327722Y1849983D01*
X7190359Y1849983D01*
X5297347Y4115307D02*
G01*
X5297347Y4147312D01*
X5399963Y4249928D01*
X6850049Y4249928D01*
X6850049Y1849881D01*
X7190409Y1849881D01*
X7099990Y4349991D02*
G01*
X7099998Y3499993D01*
X10900079Y2800095D02*
G01*
X10399953Y2800095D01*
X9599853Y3599942D01*
X9599853Y4299965D01*
X9430867Y4468952D01*
X7099985Y3499865D02*
G01*
X7099998Y2649994D01*
X7099985Y4350004D02*
G01*
X7200061Y4350004D01*
X7399959Y4549902D01*
X9349917Y4549902D01*
X9430943Y4468876D01*
D14*
G01*
X5511800Y1905000D03*
G01*
X5600700Y1803400D03*
G01*
X6288887Y1798396D03*
G01*
X6199987Y1899996D03*
D15*
G01*
X2799994Y3549992D03*
G01*
X3314700Y3556000D03*
D16*
G01*
X9294977Y2119985D03*
G01*
X9229979Y2119985D03*
G01*
X9164980Y2119985D03*
G01*
X9099981Y2119985D03*
G01*
X9034983Y2119985D03*
G01*
X8969984Y2119985D03*
G01*
X8904986Y2119985D03*
G01*
X8904986Y2680004D03*
G01*
X8969984Y2680004D03*
G01*
X9034983Y2680004D03*
G01*
X9099981Y2680004D03*
G01*
X9164980Y2680004D03*
G01*
X9229979Y2680004D03*
G01*
X9294977Y2680004D03*
D17*
G01*
X3161842Y2380005D03*
G01*
X3161842Y2299995D03*
G01*
X3161842Y2219985D03*
G01*
X3161842Y2140000D03*
G01*
X3161842Y2059990D03*
G01*
X3161842Y1980006D03*
G01*
X3161842Y1899996D03*
G01*
X3161842Y1819986D03*
D18*
G01*
X3319983Y1663115D03*
G01*
X3399993Y1663115D03*
G01*
X3480003Y1663115D03*
G01*
X3559987Y1663115D03*
G01*
X3639997Y1663115D03*
G01*
X3719982Y1663115D03*
G01*
X3799992Y1663115D03*
G01*
X3880002Y1663115D03*
D17*
G01*
X4038142Y1819986D03*
G01*
X4038142Y1899996D03*
G01*
X4038142Y1980006D03*
G01*
X4038142Y2059990D03*
G01*
X4038142Y2140000D03*
G01*
X4038142Y2219985D03*
G01*
X4038142Y2299995D03*
G01*
X4038142Y2380005D03*
D18*
G01*
X3880002Y2536875D03*
G01*
X3799992Y2536875D03*
G01*
X3719982Y2536875D03*
G01*
X3639997Y2536875D03*
G01*
X3559987Y2536875D03*
G01*
X3480003Y2536875D03*
G01*
X3399993Y2536875D03*
G01*
X3319983Y2536875D03*
D19*
G01*
X1129997Y3849992D03*
G01*
X1269997Y3849992D03*
G01*
X3379993Y3899992D03*
G01*
X3519992Y3899992D03*
G01*
X5629988Y3899992D03*
G01*
X5769988Y3899992D03*
D20*
G01*
X4849990Y2849991D03*
G01*
X4649990Y2989996D03*
G01*
X4649990Y2849991D03*
G01*
X4849990Y2989996D03*
D21*
G01*
X7749997Y691997D03*
G01*
X7749997Y1453997D03*
D22*
G01*
X7349997Y1827733D03*
G01*
X7349997Y584936D03*
G01*
X7349997Y833501D03*
G01*
X7349997Y1082065D03*
G01*
X7349997Y1330629D03*
G01*
X7349997Y1579168D03*
G01*
X7349997Y2076297D03*
G01*
X7349997Y336397D03*
D23*
G01*
X3912006Y585647D03*
G01*
X3404006Y585647D03*
D24*
G01*
X8849995Y4199991D03*
G01*
X9349993Y4199991D03*
D25*
G01*
X7599959Y4349978D03*
D26*
G01*
X7099985Y4349978D03*
D25*
G01*
X7599984Y3499993D03*
D26*
G01*
X7099985Y3499993D03*
D25*
G01*
X7599984Y2649981D03*
D26*
G01*
X7099985Y2649981D03*
D23*
G01*
X1727885Y568248D03*
G01*
X1219885Y568248D03*
G01*
X6112002Y585647D03*
G01*
X5604002Y585647D03*
D21*
G01*
X830656Y3353282D03*
G01*
X830656Y4115282D03*
G01*
X3058668Y3353282D03*
G01*
X3058668Y4115282D03*
G01*
X5297297Y3353282D03*
G01*
X5297297Y4115282D03*
G01*
X1863979Y3353282D03*
G01*
X1863979Y4115282D03*
G01*
X1622323Y4119295D03*
G01*
X1622323Y3357295D03*
G01*
X572312Y3353282D03*
G01*
X572312Y4115282D03*
G01*
X2122322Y3353282D03*
G01*
X2122322Y4115282D03*
G01*
X1088974Y3353282D03*
G01*
X1088974Y4115282D03*
G01*
X1347317Y4119295D03*
G01*
X1347317Y3357295D03*
G01*
X4149572Y3353282D03*
G01*
X4149572Y4115282D03*
G01*
X3850004Y4107992D03*
G01*
X3850004Y3345992D03*
G01*
X2785922Y3353282D03*
G01*
X2785922Y4115282D03*
G01*
X4422317Y3353282D03*
G01*
X4422317Y4115282D03*
G01*
X3331387Y3353282D03*
G01*
X3331387Y4115282D03*
G01*
X3599992Y4107992D03*
G01*
X3599992Y3345992D03*
G01*
X6397320Y3353282D03*
G01*
X6397320Y4115282D03*
G01*
X6150000Y4107992D03*
G01*
X6150000Y3345992D03*
G01*
X5022316Y3353282D03*
G01*
X5022316Y4115282D03*
G01*
X6672300Y3353282D03*
G01*
X6672300Y4115282D03*
G01*
X5572302Y3353282D03*
G01*
X5572302Y4115282D03*
G01*
X5850000Y4107992D03*
G01*
X5850000Y3345992D03*
D27*
G01*
X11072977Y2641295D03*
G01*
X11074577Y2157476D03*
D28*
G01*
X11339601Y2037486D03*
G01*
X11339601Y2762478D03*
D23*
G01*
X260350Y2654300D03*
G01*
X260350Y2146300D03*
D29*
G01*
X4595987Y2600007D03*
G01*
X4849987Y2600007D03*
G01*
X4853980Y3250006D03*
G01*
X4599980Y3250006D03*
D30*
G01*
X249986Y2149982D03*
D31*
G01*
X9232900Y3073400D03*
G01*
X10388600Y1816100D03*
G01*
X10515600Y1816100D03*
G01*
X2650007Y1099997D03*
G01*
X4599990Y1449997D03*
G01*
X6999986Y1099997D03*
G01*
X6999986Y449986D03*
G01*
X2449995Y949998D03*
G01*
X2349995Y1149997D03*
G01*
X2549994Y1299997D03*
G01*
X2349500Y2311400D03*
G01*
X2450007Y2199995D03*
G01*
X2552700Y2070100D03*
G01*
X10899978Y2799994D03*
G01*
X3449993Y3549992D03*
G01*
X149999Y3199993D03*
G01*
X299999Y3199993D03*
G01*
X449999Y3199993D03*
G01*
X4851400Y1689100D03*
G01*
X4849990Y1399997D03*
M02*
