G04 Layer: TopSilkscreenLayer*
G04 EasyEDA v6.5.22, 2023-01-26 14:10:14*
G04 b877e135513245ca8f96004f63138494,c6a1bf633b9a4ba285e4988a7d74c357,10*
G04 Gerber Generator version 0.2*
G04 Scale: 100 percent, Rotated: No, Reflected: No *
G04 Dimensions in millimeters *
G04 leading zeros omitted , absolute positions ,4 integer and 5 decimal *
%FSLAX45Y45*%
%MOMM*%

%ADD10C,0.1524*%
%ADD11C,0.2540*%
%ADD12C,0.2000*%
%ADD13C,0.1500*%
%ADD14C,0.1520*%
%ADD15C,0.4000*%
%ADD16C,0.3000*%
%ADD17C,0.0148*%

%LPD*%
D10*
X7842341Y913866D02*
G01*
X7951444Y913866D01*
X7842341Y913866D02*
G01*
X7842341Y960625D01*
X7847535Y976210D01*
X7852732Y981407D01*
X7863123Y986602D01*
X7873514Y986602D01*
X7883906Y981407D01*
X7889100Y976210D01*
X7894294Y960625D01*
X7894294Y913866D01*
X7894294Y950234D02*
G01*
X7951444Y986602D01*
X7842341Y1020892D02*
G01*
X7951444Y1020892D01*
X7842341Y1020892D02*
G01*
X7842341Y1067650D01*
X7847535Y1083238D01*
X7852732Y1088433D01*
X7863123Y1093630D01*
X7873514Y1093630D01*
X7883906Y1088433D01*
X7889100Y1083238D01*
X7894294Y1067650D01*
X7894294Y1020892D01*
X7894294Y1057262D02*
G01*
X7951444Y1093630D01*
X7857926Y1200655D02*
G01*
X7847535Y1190264D01*
X7842341Y1174678D01*
X7842341Y1153896D01*
X7847535Y1138311D01*
X7857926Y1127920D01*
X7868318Y1127920D01*
X7878709Y1133114D01*
X7883906Y1138311D01*
X7889100Y1148702D01*
X7899491Y1179873D01*
X7904685Y1190264D01*
X7909882Y1195461D01*
X7920273Y1200655D01*
X7935859Y1200655D01*
X7946250Y1190264D01*
X7951444Y1174678D01*
X7951444Y1153896D01*
X7946250Y1138311D01*
X7935859Y1127920D01*
X7842341Y1271313D02*
G01*
X7951444Y1271313D01*
X7842341Y1234945D02*
G01*
X7842341Y1307680D01*
X7534678Y249999D02*
G01*
X7643644Y249999D01*
X7550172Y356933D02*
G01*
X7539758Y346519D01*
X7534678Y331025D01*
X7534678Y310197D01*
X7539758Y294703D01*
X7550172Y284289D01*
X7560586Y284289D01*
X7571000Y289369D01*
X7576334Y294703D01*
X7581414Y305117D01*
X7591828Y336359D01*
X7596908Y346519D01*
X7602242Y351853D01*
X7612656Y356933D01*
X7628150Y356933D01*
X7638564Y346519D01*
X7643644Y331025D01*
X7643644Y310197D01*
X7638564Y294703D01*
X7628150Y284289D01*
X7534678Y391223D02*
G01*
X7643644Y391223D01*
X7534678Y391223D02*
G01*
X7534678Y437959D01*
X7539758Y453707D01*
X7545092Y458787D01*
X7555506Y464121D01*
X7571000Y464121D01*
X7581414Y458787D01*
X7586494Y453707D01*
X7591828Y437959D01*
X7591828Y391223D01*
X7596908Y498411D02*
G01*
X7596908Y591883D01*
X7560586Y704151D02*
G01*
X7550172Y698817D01*
X7539758Y688403D01*
X7534678Y677989D01*
X7534678Y657415D01*
X7539758Y647001D01*
X7550172Y636587D01*
X7560586Y631253D01*
X7576334Y626173D01*
X7602242Y626173D01*
X7617736Y631253D01*
X7628150Y636587D01*
X7638564Y647001D01*
X7643644Y657415D01*
X7643644Y677989D01*
X7638564Y688403D01*
X7628150Y698817D01*
X7617736Y704151D01*
X7534678Y769429D02*
G01*
X7539758Y759269D01*
X7550172Y748855D01*
X7560586Y743521D01*
X7576334Y738441D01*
X7602242Y738441D01*
X7617736Y743521D01*
X7628150Y748855D01*
X7638564Y759269D01*
X7643644Y769429D01*
X7643644Y790257D01*
X7638564Y800671D01*
X7628150Y811085D01*
X7617736Y816419D01*
X7602242Y821499D01*
X7576334Y821499D01*
X7560586Y816419D01*
X7550172Y811085D01*
X7539758Y800671D01*
X7534678Y790257D01*
X7534678Y769429D01*
X7534678Y855789D02*
G01*
X7643644Y855789D01*
X7534678Y855789D02*
G01*
X7643644Y928433D01*
X7534678Y928433D02*
G01*
X7643644Y928433D01*
X3543703Y364439D02*
G01*
X3543703Y255336D01*
X3543703Y364439D02*
G01*
X3585268Y255336D01*
X3626830Y364439D02*
G01*
X3585268Y255336D01*
X3626830Y364439D02*
G01*
X3626830Y255336D01*
X3661120Y364439D02*
G01*
X3661120Y255336D01*
X3661120Y364439D02*
G01*
X3702684Y255336D01*
X3744249Y364439D02*
G01*
X3702684Y255336D01*
X3744249Y364439D02*
G01*
X3744249Y255336D01*
X8910342Y560463D02*
G01*
X8910342Y482531D01*
X8915537Y466945D01*
X8925928Y456554D01*
X8941516Y451360D01*
X8951907Y451360D01*
X8967492Y456554D01*
X8977884Y466945D01*
X8983078Y482531D01*
X8983078Y560463D01*
X9069324Y560463D02*
G01*
X9017368Y487728D01*
X9095300Y487728D01*
X9069324Y560463D02*
G01*
X9069324Y451360D01*
X8849982Y3865308D02*
G01*
X8849982Y3756342D01*
X8849982Y3865308D02*
G01*
X8896718Y3865308D01*
X8912212Y3860228D01*
X8917546Y3854894D01*
X8922626Y3844480D01*
X8922626Y3834066D01*
X8917546Y3823652D01*
X8912212Y3818572D01*
X8896718Y3813492D01*
X8849982Y3813492D01*
X8886304Y3813492D02*
G01*
X8922626Y3756342D01*
X8956916Y3865308D02*
G01*
X9029814Y3756342D01*
X9029814Y3865308D02*
G01*
X8956916Y3756342D01*
X9064104Y3803078D02*
G01*
X9157576Y3803078D01*
X9228188Y3865308D02*
G01*
X9228188Y3756342D01*
X9191866Y3865308D02*
G01*
X9264510Y3865308D01*
X9298800Y3865308D02*
G01*
X9371698Y3756342D01*
X9371698Y3865308D02*
G01*
X9298800Y3756342D01*
X7827962Y4689259D02*
G01*
X7822628Y4699673D01*
X7812214Y4710087D01*
X7802054Y4715421D01*
X7781226Y4715421D01*
X7770812Y4710087D01*
X7760398Y4699673D01*
X7755064Y4689259D01*
X7749984Y4673765D01*
X7749984Y4647857D01*
X7755064Y4632109D01*
X7760398Y4621695D01*
X7770812Y4611535D01*
X7781226Y4606201D01*
X7802054Y4606201D01*
X7812214Y4611535D01*
X7822628Y4621695D01*
X7827962Y4632109D01*
X7862252Y4715421D02*
G01*
X7862252Y4606201D01*
X7862252Y4606201D02*
G01*
X7924482Y4606201D01*
X7728038Y3889260D02*
G01*
X7722704Y3899674D01*
X7712290Y3910088D01*
X7701876Y3915422D01*
X7681048Y3915422D01*
X7670888Y3910088D01*
X7660474Y3899674D01*
X7655140Y3889260D01*
X7650060Y3873766D01*
X7650060Y3847858D01*
X7655140Y3832110D01*
X7660474Y3821696D01*
X7670888Y3811536D01*
X7681048Y3806202D01*
X7701876Y3806202D01*
X7712290Y3811536D01*
X7722704Y3821696D01*
X7728038Y3832110D01*
X7762328Y3915422D02*
G01*
X7762328Y3806202D01*
X7762328Y3915422D02*
G01*
X7803730Y3806202D01*
X7845386Y3915422D02*
G01*
X7803730Y3806202D01*
X7845386Y3915422D02*
G01*
X7845386Y3806202D01*
X7777861Y2989262D02*
G01*
X7772781Y2999676D01*
X7762366Y3010090D01*
X7751952Y3015424D01*
X7731125Y3015424D01*
X7720711Y3010090D01*
X7710297Y2999676D01*
X7705216Y2989262D01*
X7699883Y2973768D01*
X7699883Y2947860D01*
X7705216Y2932112D01*
X7710297Y2921698D01*
X7720711Y2911538D01*
X7731125Y2906204D01*
X7751952Y2906204D01*
X7762366Y2911538D01*
X7772781Y2921698D01*
X7777861Y2932112D01*
X7812150Y3015424D02*
G01*
X7812150Y2906204D01*
X7812150Y3015424D02*
G01*
X7858886Y3015424D01*
X7874634Y3010090D01*
X7879715Y3005010D01*
X7885049Y2994596D01*
X7885049Y2984182D01*
X7879715Y2973768D01*
X7874634Y2968688D01*
X7858886Y2963354D01*
X7812150Y2963354D01*
X7848472Y2963354D02*
G01*
X7885049Y2906204D01*
X1372280Y308902D02*
G01*
X1372280Y199936D01*
X1372280Y308902D02*
G01*
X1413936Y199936D01*
X1455338Y308902D02*
G01*
X1413936Y199936D01*
X1455338Y308902D02*
G01*
X1455338Y199936D01*
X1489628Y308902D02*
G01*
X1489628Y199936D01*
X1489628Y199936D02*
G01*
X1552112Y199936D01*
X5749965Y315328D02*
G01*
X5749965Y206108D01*
X5749965Y315328D02*
G01*
X5791621Y206108D01*
X5833023Y315328D02*
G01*
X5791621Y206108D01*
X5833023Y315328D02*
G01*
X5833023Y206108D01*
X5867313Y315328D02*
G01*
X5867313Y206108D01*
X5867313Y315328D02*
G01*
X5914049Y315328D01*
X5929797Y310248D01*
X5934877Y304914D01*
X5940211Y294500D01*
X5940211Y284086D01*
X5934877Y273672D01*
X5929797Y268592D01*
X5914049Y263258D01*
X5867313Y263258D01*
X5903889Y263258D02*
G01*
X5940211Y206108D01*
X769279Y4229468D02*
G01*
X878499Y4229468D01*
X769279Y4229468D02*
G01*
X769279Y4276458D01*
X774359Y4291952D01*
X779693Y4297032D01*
X790107Y4302366D01*
X800521Y4302366D01*
X810935Y4297032D01*
X816015Y4291952D01*
X821349Y4276458D01*
X821349Y4229468D01*
X821349Y4266044D02*
G01*
X878499Y4302366D01*
X769279Y4336656D02*
G01*
X878499Y4336656D01*
X878499Y4336656D02*
G01*
X878499Y4398886D01*
X769279Y4485246D02*
G01*
X841923Y4433176D01*
X841923Y4511154D01*
X769279Y4485246D02*
G01*
X878499Y4485246D01*
X2989320Y4242285D02*
G01*
X3098286Y4242285D01*
X2989320Y4242285D02*
G01*
X2989320Y4289021D01*
X2994400Y4304515D01*
X2999734Y4309849D01*
X3010148Y4314929D01*
X3020562Y4314929D01*
X3030976Y4309849D01*
X3036056Y4304515D01*
X3041136Y4289021D01*
X3041136Y4242285D01*
X3041136Y4278607D02*
G01*
X3098286Y4314929D01*
X2989320Y4349219D02*
G01*
X3098286Y4349219D01*
X2989320Y4349219D02*
G01*
X3098286Y4390875D01*
X2989320Y4432531D02*
G01*
X3098286Y4390875D01*
X2989320Y4432531D02*
G01*
X3098286Y4432531D01*
X2989320Y4518637D02*
G01*
X3061964Y4466821D01*
X3061964Y4544547D01*
X2989320Y4518637D02*
G01*
X3098286Y4518637D01*
X5250248Y4211286D02*
G01*
X5359214Y4211286D01*
X5250248Y4211286D02*
G01*
X5250248Y4258022D01*
X5255328Y4273516D01*
X5260662Y4278850D01*
X5271076Y4283930D01*
X5281490Y4283930D01*
X5291904Y4278850D01*
X5296984Y4273516D01*
X5302064Y4258022D01*
X5302064Y4211286D01*
X5302064Y4247608D02*
G01*
X5359214Y4283930D01*
X5250248Y4318220D02*
G01*
X5359214Y4318220D01*
X5250248Y4318220D02*
G01*
X5250248Y4364956D01*
X5255328Y4380704D01*
X5260662Y4385784D01*
X5271076Y4391118D01*
X5281490Y4391118D01*
X5291904Y4385784D01*
X5296984Y4380704D01*
X5302064Y4364956D01*
X5302064Y4318220D01*
X5302064Y4354796D02*
G01*
X5359214Y4391118D01*
X5250248Y4477224D02*
G01*
X5322892Y4425408D01*
X5322892Y4503386D01*
X5250248Y4477224D02*
G01*
X5359214Y4477224D01*
X10034457Y3934132D02*
G01*
X10034457Y3825166D01*
X10034457Y3934132D02*
G01*
X10070779Y3934132D01*
X10086527Y3929052D01*
X10096687Y3918638D01*
X10102021Y3908224D01*
X10107101Y3892476D01*
X10107101Y3866568D01*
X10102021Y3851074D01*
X10096687Y3840660D01*
X10086527Y3830246D01*
X10070779Y3825166D01*
X10034457Y3825166D01*
X10141391Y3934132D02*
G01*
X10141391Y3825166D01*
X10141391Y3934132D02*
G01*
X10188127Y3934132D01*
X10203875Y3929052D01*
X10208955Y3923718D01*
X10214289Y3913304D01*
X10214289Y3897810D01*
X10208955Y3887396D01*
X10203875Y3882316D01*
X10188127Y3876982D01*
X10141391Y3876982D01*
X6634746Y100076D02*
G01*
X6743712Y100076D01*
X6743712Y100076D02*
G01*
X6743712Y162305D01*
X6634746Y196595D02*
G01*
X6743712Y196595D01*
X6634746Y196595D02*
G01*
X6634746Y264160D01*
X6686562Y196595D02*
G01*
X6686562Y238252D01*
X6743712Y196595D02*
G01*
X6743712Y264160D01*
X6634746Y298450D02*
G01*
X6743712Y298450D01*
X6634746Y298450D02*
G01*
X6634746Y334771D01*
X6639826Y350520D01*
X6650240Y360934D01*
X6660654Y366013D01*
X6676148Y371094D01*
X6702310Y371094D01*
X6717804Y366013D01*
X6728218Y360934D01*
X6738632Y350520D01*
X6743712Y334771D01*
X6743712Y298450D01*
X6696976Y405384D02*
G01*
X6696976Y499110D01*
X6634746Y533400D02*
G01*
X6743712Y533400D01*
X6634746Y533400D02*
G01*
X6634746Y580136D01*
X6639826Y595629D01*
X6645160Y600963D01*
X6655320Y606044D01*
X6665734Y606044D01*
X6676148Y600963D01*
X6681482Y595629D01*
X6686562Y580136D01*
X6686562Y533400D01*
X6686562Y569721D02*
G01*
X6743712Y606044D01*
X6660654Y718312D02*
G01*
X6650240Y712978D01*
X6639826Y702563D01*
X6634746Y692404D01*
X6634746Y671576D01*
X6639826Y661162D01*
X6650240Y650747D01*
X6660654Y645413D01*
X6676148Y640334D01*
X6702310Y640334D01*
X6717804Y645413D01*
X6728218Y650747D01*
X6738632Y661162D01*
X6743712Y671576D01*
X6743712Y692404D01*
X6738632Y702563D01*
X6728218Y712978D01*
X6717804Y718312D01*
X6634746Y752602D02*
G01*
X6743712Y778510D01*
X6634746Y804418D02*
G01*
X6743712Y778510D01*
X6634746Y804418D02*
G01*
X6743712Y830579D01*
X6634746Y856487D02*
G01*
X6743712Y830579D01*
X557075Y161371D02*
G01*
X666041Y161371D01*
X666041Y161371D02*
G01*
X666041Y223601D01*
X557075Y257891D02*
G01*
X666041Y257891D01*
X557075Y257891D02*
G01*
X557075Y325455D01*
X608891Y257891D02*
G01*
X608891Y299547D01*
X666041Y257891D02*
G01*
X666041Y325455D01*
X557075Y359745D02*
G01*
X666041Y359745D01*
X557075Y359745D02*
G01*
X557075Y396067D01*
X562155Y411815D01*
X572569Y422229D01*
X582983Y427309D01*
X598477Y432389D01*
X624639Y432389D01*
X640133Y427309D01*
X650547Y422229D01*
X660961Y411815D01*
X666041Y396067D01*
X666041Y359745D01*
X702363Y466679D02*
G01*
X702363Y560405D01*
X557075Y594695D02*
G01*
X666041Y594695D01*
X666041Y594695D02*
G01*
X666041Y656925D01*
X582983Y769193D02*
G01*
X572569Y763859D01*
X562155Y753699D01*
X557075Y743285D01*
X557075Y722457D01*
X562155Y712043D01*
X572569Y701629D01*
X582983Y696549D01*
X598477Y691215D01*
X624639Y691215D01*
X640133Y696549D01*
X650547Y701629D01*
X660961Y712043D01*
X666041Y722457D01*
X666041Y743285D01*
X660961Y753699D01*
X650547Y763859D01*
X640133Y769193D01*
X582983Y881461D02*
G01*
X572569Y876127D01*
X562155Y865713D01*
X557075Y855299D01*
X557075Y834725D01*
X562155Y824311D01*
X572569Y813897D01*
X582983Y808563D01*
X598477Y803483D01*
X624639Y803483D01*
X640133Y808563D01*
X650547Y813897D01*
X660961Y824311D01*
X666041Y834725D01*
X666041Y855299D01*
X660961Y865713D01*
X650547Y876127D01*
X640133Y881461D01*
X557075Y915751D02*
G01*
X666041Y941659D01*
X557075Y967567D02*
G01*
X666041Y941659D01*
X557075Y967567D02*
G01*
X666041Y993729D01*
X557075Y1019637D02*
G01*
X666041Y993729D01*
X2257071Y111371D02*
G01*
X2366037Y111371D01*
X2366037Y111371D02*
G01*
X2366037Y173601D01*
X2257071Y207891D02*
G01*
X2366037Y207891D01*
X2257071Y207891D02*
G01*
X2257071Y275455D01*
X2308887Y207891D02*
G01*
X2308887Y249547D01*
X2366037Y207891D02*
G01*
X2366037Y275455D01*
X2257071Y309745D02*
G01*
X2366037Y309745D01*
X2257071Y309745D02*
G01*
X2257071Y346067D01*
X2262151Y361815D01*
X2272565Y372229D01*
X2282979Y377309D01*
X2298473Y382389D01*
X2324635Y382389D01*
X2340129Y377309D01*
X2350543Y372229D01*
X2360957Y361815D01*
X2366037Y346067D01*
X2366037Y309745D01*
X2402359Y416679D02*
G01*
X2402359Y510405D01*
X2257071Y544695D02*
G01*
X2366037Y544695D01*
X2366037Y544695D02*
G01*
X2366037Y606925D01*
X2282979Y719193D02*
G01*
X2272565Y713859D01*
X2262151Y703699D01*
X2257071Y693285D01*
X2257071Y672457D01*
X2262151Y662043D01*
X2272565Y651629D01*
X2282979Y646549D01*
X2298473Y641215D01*
X2324635Y641215D01*
X2340129Y646549D01*
X2350543Y651629D01*
X2360957Y662043D01*
X2366037Y672457D01*
X2366037Y693285D01*
X2360957Y703699D01*
X2350543Y713859D01*
X2340129Y719193D01*
X2257071Y753483D02*
G01*
X2366037Y779391D01*
X2257071Y805299D02*
G01*
X2366037Y779391D01*
X2257071Y805299D02*
G01*
X2366037Y831461D01*
X2257071Y857369D02*
G01*
X2366037Y831461D01*
X2734754Y100076D02*
G01*
X2843720Y100076D01*
X2843720Y100076D02*
G01*
X2843720Y162305D01*
X2734754Y196595D02*
G01*
X2843720Y196595D01*
X2734754Y196595D02*
G01*
X2734754Y264160D01*
X2786570Y196595D02*
G01*
X2786570Y238252D01*
X2843720Y196595D02*
G01*
X2843720Y264160D01*
X2734754Y298450D02*
G01*
X2843720Y298450D01*
X2734754Y298450D02*
G01*
X2734754Y334771D01*
X2739834Y350520D01*
X2750248Y360934D01*
X2760662Y366013D01*
X2776156Y371094D01*
X2802318Y371094D01*
X2817812Y366013D01*
X2828226Y360934D01*
X2838640Y350520D01*
X2843720Y334771D01*
X2843720Y298450D01*
X2880042Y405384D02*
G01*
X2880042Y499110D01*
X2734754Y533400D02*
G01*
X2843720Y533400D01*
X2734754Y533400D02*
G01*
X2843720Y574802D01*
X2734754Y616457D02*
G01*
X2843720Y574802D01*
X2734754Y616457D02*
G01*
X2843720Y616457D01*
X2760662Y728726D02*
G01*
X2750248Y723392D01*
X2739834Y712978D01*
X2734754Y702563D01*
X2734754Y681989D01*
X2739834Y671576D01*
X2750248Y661162D01*
X2760662Y655828D01*
X2776156Y650747D01*
X2802318Y650747D01*
X2817812Y655828D01*
X2828226Y661162D01*
X2838640Y671576D01*
X2843720Y681989D01*
X2843720Y702563D01*
X2838640Y712978D01*
X2828226Y723392D01*
X2817812Y728726D01*
X2760662Y840994D02*
G01*
X2750248Y835660D01*
X2739834Y825245D01*
X2734754Y814831D01*
X2734754Y794004D01*
X2739834Y783844D01*
X2750248Y773429D01*
X2760662Y768095D01*
X2776156Y763015D01*
X2802318Y763015D01*
X2817812Y768095D01*
X2828226Y773429D01*
X2838640Y783844D01*
X2843720Y794004D01*
X2843720Y814831D01*
X2838640Y825245D01*
X2828226Y835660D01*
X2817812Y840994D01*
X2734754Y875284D02*
G01*
X2843720Y901192D01*
X2734754Y927100D02*
G01*
X2843720Y901192D01*
X2734754Y927100D02*
G01*
X2843720Y953007D01*
X2734754Y979170D02*
G01*
X2843720Y953007D01*
X4434751Y100076D02*
G01*
X4543717Y100076D01*
X4543717Y100076D02*
G01*
X4543717Y162305D01*
X4434751Y196595D02*
G01*
X4543717Y196595D01*
X4434751Y196595D02*
G01*
X4434751Y264160D01*
X4486567Y196595D02*
G01*
X4486567Y238252D01*
X4543717Y196595D02*
G01*
X4543717Y264160D01*
X4434751Y298450D02*
G01*
X4543717Y298450D01*
X4434751Y298450D02*
G01*
X4434751Y334771D01*
X4439831Y350520D01*
X4450245Y360934D01*
X4460659Y366013D01*
X4476153Y371094D01*
X4502315Y371094D01*
X4517809Y366013D01*
X4528223Y360934D01*
X4538637Y350520D01*
X4543717Y334771D01*
X4543717Y298450D01*
X4580039Y405384D02*
G01*
X4580039Y499110D01*
X4434751Y533400D02*
G01*
X4543717Y533400D01*
X4434751Y533400D02*
G01*
X4543717Y574802D01*
X4434751Y616457D02*
G01*
X4543717Y574802D01*
X4434751Y616457D02*
G01*
X4543717Y616457D01*
X4460659Y728726D02*
G01*
X4450245Y723392D01*
X4439831Y712978D01*
X4434751Y702563D01*
X4434751Y681989D01*
X4439831Y671576D01*
X4450245Y661162D01*
X4460659Y655828D01*
X4476153Y650747D01*
X4502315Y650747D01*
X4517809Y655828D01*
X4528223Y661162D01*
X4538637Y671576D01*
X4543717Y681989D01*
X4543717Y702563D01*
X4538637Y712978D01*
X4528223Y723392D01*
X4517809Y728726D01*
X4434751Y763015D02*
G01*
X4543717Y788923D01*
X4434751Y814831D02*
G01*
X4543717Y788923D01*
X4434751Y814831D02*
G01*
X4543717Y840994D01*
X4434751Y866902D02*
G01*
X4543717Y840994D01*
X4934750Y100076D02*
G01*
X5043716Y100076D01*
X5043716Y100076D02*
G01*
X5043716Y162305D01*
X4934750Y196595D02*
G01*
X5043716Y196595D01*
X4934750Y196595D02*
G01*
X4934750Y264160D01*
X4986566Y196595D02*
G01*
X4986566Y238252D01*
X5043716Y196595D02*
G01*
X5043716Y264160D01*
X4934750Y298450D02*
G01*
X5043716Y298450D01*
X4934750Y298450D02*
G01*
X4934750Y334771D01*
X4939830Y350520D01*
X4950244Y360934D01*
X4960658Y366013D01*
X4976152Y371094D01*
X5002314Y371094D01*
X5017808Y366013D01*
X5028222Y360934D01*
X5038636Y350520D01*
X5043716Y334771D01*
X5043716Y298450D01*
X5080038Y405384D02*
G01*
X5080038Y499110D01*
X4934750Y533400D02*
G01*
X5043716Y533400D01*
X4934750Y533400D02*
G01*
X4934750Y580136D01*
X4939830Y595629D01*
X4945164Y600963D01*
X4955324Y606044D01*
X4965738Y606044D01*
X4976152Y600963D01*
X4981486Y595629D01*
X4986566Y580136D01*
X4986566Y533400D01*
X4986566Y569721D02*
G01*
X5043716Y606044D01*
X4960658Y718312D02*
G01*
X4950244Y712978D01*
X4939830Y702563D01*
X4934750Y692404D01*
X4934750Y671576D01*
X4939830Y661162D01*
X4950244Y650747D01*
X4960658Y645413D01*
X4976152Y640334D01*
X5002314Y640334D01*
X5017808Y645413D01*
X5028222Y650747D01*
X5038636Y661162D01*
X5043716Y671576D01*
X5043716Y692404D01*
X5038636Y702563D01*
X5028222Y712978D01*
X5017808Y718312D01*
X4960658Y830579D02*
G01*
X4950244Y825245D01*
X4939830Y814831D01*
X4934750Y804418D01*
X4934750Y783844D01*
X4939830Y773429D01*
X4950244Y763015D01*
X4960658Y757681D01*
X4976152Y752602D01*
X5002314Y752602D01*
X5017808Y757681D01*
X5028222Y763015D01*
X5038636Y773429D01*
X5043716Y783844D01*
X5043716Y804418D01*
X5038636Y814831D01*
X5028222Y825245D01*
X5017808Y830579D01*
X4934750Y864870D02*
G01*
X5043716Y890778D01*
X4934750Y916686D02*
G01*
X5043716Y890778D01*
X4934750Y916686D02*
G01*
X5043716Y942594D01*
X4934750Y968755D02*
G01*
X5043716Y942594D01*
X10449895Y3815224D02*
G01*
X10449895Y3706258D01*
X10449895Y3815224D02*
G01*
X10491551Y3706258D01*
X10533207Y3815224D02*
G01*
X10491551Y3706258D01*
X10533207Y3815224D02*
G01*
X10533207Y3706258D01*
X10598485Y3815224D02*
G01*
X10588071Y3810144D01*
X10577657Y3799730D01*
X10572577Y3789316D01*
X10567497Y3773822D01*
X10567497Y3747660D01*
X10572577Y3732166D01*
X10577657Y3721752D01*
X10588071Y3711338D01*
X10598485Y3706258D01*
X10619313Y3706258D01*
X10629727Y3711338D01*
X10640141Y3721752D01*
X10645221Y3732166D01*
X10650555Y3747660D01*
X10650555Y3773822D01*
X10645221Y3789316D01*
X10640141Y3799730D01*
X10629727Y3810144D01*
X10619313Y3815224D01*
X10598485Y3815224D01*
X10757489Y3799730D02*
G01*
X10747075Y3810144D01*
X10731581Y3815224D01*
X10710753Y3815224D01*
X10695259Y3810144D01*
X10684845Y3799730D01*
X10684845Y3789316D01*
X10689925Y3778902D01*
X10695259Y3773822D01*
X10705673Y3768488D01*
X10736661Y3758074D01*
X10747075Y3752994D01*
X10752409Y3747660D01*
X10757489Y3737500D01*
X10757489Y3721752D01*
X10747075Y3711338D01*
X10731581Y3706258D01*
X10710753Y3706258D01*
X10695259Y3711338D01*
X10684845Y3721752D01*
X10791779Y3669936D02*
G01*
X10885251Y3669936D01*
X10919541Y3815224D02*
G01*
X10919541Y3706258D01*
X10919541Y3815224D02*
G01*
X10966277Y3815224D01*
X10982025Y3810144D01*
X10987105Y3804810D01*
X10992439Y3794650D01*
X10992439Y3778902D01*
X10987105Y3768488D01*
X10982025Y3763408D01*
X10966277Y3758074D01*
X10919541Y3758074D01*
X2070496Y827194D02*
G01*
X2179462Y827194D01*
X2070496Y827194D02*
G01*
X2070496Y873930D01*
X2075576Y889424D01*
X2080910Y894758D01*
X2091324Y899838D01*
X2101738Y899838D01*
X2112152Y894758D01*
X2117232Y889424D01*
X2122312Y873930D01*
X2122312Y827194D01*
X2122312Y863516D02*
G01*
X2179462Y899838D01*
X2070496Y934128D02*
G01*
X2179462Y934128D01*
X2179462Y934128D02*
G01*
X2179462Y996612D01*
X1761365Y4229592D02*
G01*
X1870331Y4229592D01*
X1761365Y4229592D02*
G01*
X1761365Y4276328D01*
X1766445Y4291822D01*
X1771779Y4297156D01*
X1782193Y4302236D01*
X1792607Y4302236D01*
X1803021Y4297156D01*
X1808101Y4291822D01*
X1813181Y4276328D01*
X1813181Y4229592D01*
X1813181Y4265914D02*
G01*
X1870331Y4302236D01*
X1761365Y4336526D02*
G01*
X1870331Y4336526D01*
X1870331Y4336526D02*
G01*
X1870331Y4399010D01*
X1782193Y4433300D02*
G01*
X1776859Y4443714D01*
X1761365Y4459208D01*
X1870331Y4459208D01*
X1906907Y4493498D02*
G01*
X1906907Y4586970D01*
X1782193Y4621260D02*
G01*
X1776859Y4631674D01*
X1761365Y4647422D01*
X1870331Y4647422D01*
X1506997Y4211286D02*
G01*
X1615963Y4211286D01*
X1506997Y4211286D02*
G01*
X1506997Y4258022D01*
X1512077Y4273516D01*
X1517411Y4278850D01*
X1527825Y4283930D01*
X1538239Y4283930D01*
X1548653Y4278850D01*
X1553733Y4273516D01*
X1558813Y4258022D01*
X1558813Y4211286D01*
X1558813Y4247608D02*
G01*
X1615963Y4283930D01*
X1506997Y4318220D02*
G01*
X1615963Y4318220D01*
X1615963Y4318220D02*
G01*
X1615963Y4380704D01*
X1527825Y4414994D02*
G01*
X1522491Y4425408D01*
X1506997Y4440902D01*
X1615963Y4440902D01*
X1652539Y4475192D02*
G01*
X1652539Y4568664D01*
X1532905Y4608288D02*
G01*
X1527825Y4608288D01*
X1517411Y4613368D01*
X1512077Y4618702D01*
X1506997Y4629116D01*
X1506997Y4649690D01*
X1512077Y4660104D01*
X1517411Y4665438D01*
X1527825Y4670518D01*
X1538239Y4670518D01*
X1548653Y4665438D01*
X1564147Y4655024D01*
X1615963Y4602954D01*
X1615963Y4675852D01*
X531672Y4229587D02*
G01*
X640638Y4229587D01*
X531672Y4229587D02*
G01*
X531672Y4276323D01*
X536752Y4291817D01*
X542086Y4297151D01*
X552500Y4302231D01*
X562914Y4302231D01*
X573328Y4297151D01*
X578408Y4291817D01*
X583488Y4276323D01*
X583488Y4229587D01*
X583488Y4265909D02*
G01*
X640638Y4302231D01*
X531672Y4336521D02*
G01*
X640638Y4336521D01*
X640638Y4336521D02*
G01*
X640638Y4399005D01*
X557580Y4438375D02*
G01*
X552500Y4438375D01*
X542086Y4443709D01*
X536752Y4448789D01*
X531672Y4459203D01*
X531672Y4480031D01*
X536752Y4490445D01*
X542086Y4495525D01*
X552500Y4500859D01*
X562914Y4500859D01*
X573328Y4495525D01*
X588822Y4485111D01*
X640638Y4433295D01*
X640638Y4505939D01*
X2065754Y4229587D02*
G01*
X2174720Y4229587D01*
X2065754Y4229587D02*
G01*
X2065754Y4276323D01*
X2070834Y4291817D01*
X2076168Y4297151D01*
X2086582Y4302231D01*
X2096996Y4302231D01*
X2107410Y4297151D01*
X2112490Y4291817D01*
X2117570Y4276323D01*
X2117570Y4229587D01*
X2117570Y4265909D02*
G01*
X2174720Y4302231D01*
X2065754Y4336521D02*
G01*
X2174720Y4336521D01*
X2174720Y4336521D02*
G01*
X2174720Y4399005D01*
X2065754Y4443709D02*
G01*
X2065754Y4500859D01*
X2107410Y4469617D01*
X2107410Y4485111D01*
X2112490Y4495525D01*
X2117570Y4500859D01*
X2133318Y4505939D01*
X2143732Y4505939D01*
X2159226Y4500859D01*
X2169640Y4490445D01*
X2174720Y4474697D01*
X2174720Y4459203D01*
X2169640Y4443709D01*
X2164560Y4438375D01*
X2154146Y4433295D01*
X1016505Y4229592D02*
G01*
X1125471Y4229592D01*
X1016505Y4229592D02*
G01*
X1016505Y4276328D01*
X1021585Y4291822D01*
X1026919Y4297156D01*
X1037333Y4302236D01*
X1047747Y4302236D01*
X1058161Y4297156D01*
X1063241Y4291822D01*
X1068321Y4276328D01*
X1068321Y4229592D01*
X1068321Y4265914D02*
G01*
X1125471Y4302236D01*
X1016505Y4336526D02*
G01*
X1125471Y4336526D01*
X1125471Y4336526D02*
G01*
X1125471Y4399010D01*
X1016505Y4495530D02*
G01*
X1016505Y4443714D01*
X1063241Y4438380D01*
X1058161Y4443714D01*
X1052827Y4459208D01*
X1052827Y4474702D01*
X1058161Y4490450D01*
X1068321Y4500864D01*
X1084069Y4505944D01*
X1094483Y4505944D01*
X1109977Y4500864D01*
X1120391Y4490450D01*
X1125471Y4474702D01*
X1125471Y4459208D01*
X1120391Y4443714D01*
X1115311Y4438380D01*
X1104897Y4433300D01*
X1162047Y4540234D02*
G01*
X1162047Y4633706D01*
X1037333Y4667996D02*
G01*
X1031999Y4678410D01*
X1016505Y4694158D01*
X1125471Y4694158D01*
X1281993Y4211286D02*
G01*
X1390959Y4211286D01*
X1281993Y4211286D02*
G01*
X1281993Y4258022D01*
X1287073Y4273516D01*
X1292407Y4278850D01*
X1302821Y4283930D01*
X1313235Y4283930D01*
X1323649Y4278850D01*
X1328729Y4273516D01*
X1333809Y4258022D01*
X1333809Y4211286D01*
X1333809Y4247608D02*
G01*
X1390959Y4283930D01*
X1281993Y4318220D02*
G01*
X1390959Y4318220D01*
X1390959Y4318220D02*
G01*
X1390959Y4380704D01*
X1281993Y4477224D02*
G01*
X1281993Y4425408D01*
X1328729Y4420074D01*
X1323649Y4425408D01*
X1318315Y4440902D01*
X1318315Y4456396D01*
X1323649Y4472144D01*
X1333809Y4482558D01*
X1349557Y4487638D01*
X1359971Y4487638D01*
X1375465Y4482558D01*
X1385879Y4472144D01*
X1390959Y4456396D01*
X1390959Y4440902D01*
X1385879Y4425408D01*
X1380799Y4420074D01*
X1370385Y4414994D01*
X1427535Y4521928D02*
G01*
X1427535Y4615400D01*
X1307901Y4655024D02*
G01*
X1302821Y4655024D01*
X1292407Y4660104D01*
X1287073Y4665438D01*
X1281993Y4675852D01*
X1281993Y4696426D01*
X1287073Y4706840D01*
X1292407Y4712174D01*
X1302821Y4717254D01*
X1313235Y4717254D01*
X1323649Y4712174D01*
X1339143Y4701760D01*
X1390959Y4649690D01*
X1390959Y4722588D01*
X4222775Y828598D02*
G01*
X4331741Y828598D01*
X4222775Y828598D02*
G01*
X4222775Y875334D01*
X4227855Y890828D01*
X4233189Y896162D01*
X4243603Y901242D01*
X4254017Y901242D01*
X4264431Y896162D01*
X4269511Y890828D01*
X4274591Y875334D01*
X4274591Y828598D01*
X4274591Y864920D02*
G01*
X4331741Y901242D01*
X4222775Y935532D02*
G01*
X4331741Y935532D01*
X4222775Y935532D02*
G01*
X4331741Y977188D01*
X4222775Y1018844D02*
G01*
X4331741Y977188D01*
X4222775Y1018844D02*
G01*
X4331741Y1018844D01*
X4104617Y4242282D02*
G01*
X4213583Y4242282D01*
X4104617Y4242282D02*
G01*
X4104617Y4289018D01*
X4109697Y4304515D01*
X4115031Y4309846D01*
X4125445Y4314926D01*
X4135859Y4314926D01*
X4146273Y4309846D01*
X4151353Y4304515D01*
X4156433Y4289018D01*
X4156433Y4242282D01*
X4156433Y4278607D02*
G01*
X4213583Y4314926D01*
X4104617Y4349216D02*
G01*
X4213583Y4349216D01*
X4104617Y4349216D02*
G01*
X4213583Y4390872D01*
X4104617Y4432528D02*
G01*
X4213583Y4390872D01*
X4104617Y4432528D02*
G01*
X4213583Y4432528D01*
X4125445Y4466818D02*
G01*
X4120111Y4477232D01*
X4104617Y4492726D01*
X4213583Y4492726D01*
X4250159Y4527016D02*
G01*
X4250159Y4620488D01*
X4125445Y4654778D02*
G01*
X4120111Y4665192D01*
X4104617Y4680686D01*
X4213583Y4680686D01*
X3802860Y4204007D02*
G01*
X3911826Y4204007D01*
X3802860Y4204007D02*
G01*
X3802860Y4250743D01*
X3807940Y4266239D01*
X3813274Y4271571D01*
X3823688Y4276651D01*
X3834102Y4276651D01*
X3844516Y4271571D01*
X3849596Y4266239D01*
X3854676Y4250743D01*
X3854676Y4204007D01*
X3854676Y4240331D02*
G01*
X3911826Y4276651D01*
X3802860Y4310941D02*
G01*
X3911826Y4310941D01*
X3802860Y4310941D02*
G01*
X3911826Y4352597D01*
X3802860Y4394253D02*
G01*
X3911826Y4352597D01*
X3802860Y4394253D02*
G01*
X3911826Y4394253D01*
X3823688Y4428543D02*
G01*
X3818354Y4438957D01*
X3802860Y4454451D01*
X3911826Y4454451D01*
X3948402Y4488741D02*
G01*
X3948402Y4582213D01*
X3828768Y4621839D02*
G01*
X3823688Y4621839D01*
X3813274Y4626917D01*
X3807940Y4631997D01*
X3802860Y4642411D01*
X3802860Y4663239D01*
X3807940Y4673653D01*
X3813274Y4678989D01*
X3823688Y4684067D01*
X3834102Y4684067D01*
X3844516Y4678989D01*
X3860010Y4668573D01*
X3911826Y4616503D01*
X3911826Y4689147D01*
X2765356Y4242290D02*
G01*
X2874322Y4242290D01*
X2765356Y4242290D02*
G01*
X2765356Y4289026D01*
X2770436Y4304520D01*
X2775770Y4309854D01*
X2786184Y4314934D01*
X2796598Y4314934D01*
X2807012Y4309854D01*
X2812092Y4304520D01*
X2817172Y4289026D01*
X2817172Y4242290D01*
X2817172Y4278612D02*
G01*
X2874322Y4314934D01*
X2765356Y4349224D02*
G01*
X2874322Y4349224D01*
X2765356Y4349224D02*
G01*
X2874322Y4390880D01*
X2765356Y4432536D02*
G01*
X2874322Y4390880D01*
X2765356Y4432536D02*
G01*
X2874322Y4432536D01*
X2791264Y4471906D02*
G01*
X2786184Y4471906D01*
X2775770Y4477240D01*
X2770436Y4482320D01*
X2765356Y4492734D01*
X2765356Y4513562D01*
X2770436Y4523976D01*
X2775770Y4529056D01*
X2786184Y4534390D01*
X2796598Y4534390D01*
X2807012Y4529056D01*
X2822506Y4518642D01*
X2874322Y4466826D01*
X2874322Y4539470D01*
X4377342Y4242285D02*
G01*
X4486308Y4242285D01*
X4377342Y4242285D02*
G01*
X4377342Y4289021D01*
X4382422Y4304512D01*
X4387756Y4309849D01*
X4398170Y4314929D01*
X4408584Y4314929D01*
X4418998Y4309849D01*
X4424078Y4304512D01*
X4429158Y4289021D01*
X4429158Y4242285D01*
X4429158Y4278607D02*
G01*
X4486308Y4314929D01*
X4377342Y4349219D02*
G01*
X4486308Y4349219D01*
X4377342Y4349219D02*
G01*
X4486308Y4390875D01*
X4377342Y4432528D02*
G01*
X4486308Y4390875D01*
X4377342Y4432528D02*
G01*
X4486308Y4432528D01*
X4377342Y4477235D02*
G01*
X4377342Y4534385D01*
X4418998Y4503143D01*
X4418998Y4518637D01*
X4424078Y4529051D01*
X4429158Y4534385D01*
X4444906Y4539462D01*
X4455320Y4539462D01*
X4470814Y4534385D01*
X4481228Y4523971D01*
X4486308Y4508223D01*
X4486308Y4492729D01*
X4481228Y4477235D01*
X4476148Y4471901D01*
X4465734Y4466821D01*
X3274240Y4242282D02*
G01*
X3383206Y4242282D01*
X3274240Y4242282D02*
G01*
X3274240Y4289018D01*
X3279320Y4304515D01*
X3284654Y4309846D01*
X3295068Y4314926D01*
X3305482Y4314926D01*
X3315896Y4309846D01*
X3320976Y4304515D01*
X3326056Y4289018D01*
X3326056Y4242282D01*
X3326056Y4278607D02*
G01*
X3383206Y4314926D01*
X3274240Y4349216D02*
G01*
X3383206Y4349216D01*
X3274240Y4349216D02*
G01*
X3383206Y4390872D01*
X3274240Y4432528D02*
G01*
X3383206Y4390872D01*
X3274240Y4432528D02*
G01*
X3383206Y4432528D01*
X3274240Y4529048D02*
G01*
X3274240Y4477232D01*
X3320976Y4471898D01*
X3315896Y4477232D01*
X3310562Y4492726D01*
X3310562Y4508220D01*
X3315896Y4523968D01*
X3326056Y4534382D01*
X3341804Y4539465D01*
X3352218Y4539465D01*
X3367712Y4534382D01*
X3378126Y4523968D01*
X3383206Y4508220D01*
X3383206Y4492726D01*
X3378126Y4477232D01*
X3373046Y4471898D01*
X3362632Y4466818D01*
X3419782Y4573752D02*
G01*
X3419782Y4667224D01*
X3295068Y4701514D02*
G01*
X3289734Y4711928D01*
X3274240Y4727422D01*
X3383206Y4727422D01*
X3530132Y4204002D02*
G01*
X3639098Y4204002D01*
X3530132Y4204002D02*
G01*
X3530132Y4250738D01*
X3535212Y4266234D01*
X3540546Y4271566D01*
X3550960Y4276646D01*
X3561374Y4276646D01*
X3571788Y4271566D01*
X3576868Y4266234D01*
X3581948Y4250738D01*
X3581948Y4204002D01*
X3581948Y4240326D02*
G01*
X3639098Y4276646D01*
X3530132Y4310936D02*
G01*
X3639098Y4310936D01*
X3530132Y4310936D02*
G01*
X3639098Y4352592D01*
X3530132Y4394248D02*
G01*
X3639098Y4352592D01*
X3530132Y4394248D02*
G01*
X3639098Y4394248D01*
X3530132Y4490768D02*
G01*
X3530132Y4438952D01*
X3576868Y4433618D01*
X3571788Y4438952D01*
X3566454Y4454446D01*
X3566454Y4469940D01*
X3571788Y4485688D01*
X3581948Y4496102D01*
X3597696Y4501184D01*
X3608110Y4501184D01*
X3623604Y4496102D01*
X3634018Y4485688D01*
X3639098Y4469940D01*
X3639098Y4454446D01*
X3634018Y4438952D01*
X3628938Y4433618D01*
X3618524Y4428538D01*
X3675674Y4535472D02*
G01*
X3675674Y4628944D01*
X3556040Y4668568D02*
G01*
X3550960Y4668568D01*
X3540546Y4673648D01*
X3535212Y4678984D01*
X3530132Y4689142D01*
X3530132Y4709970D01*
X3535212Y4720384D01*
X3540546Y4725718D01*
X3550960Y4730798D01*
X3561374Y4730798D01*
X3571788Y4725718D01*
X3587282Y4715304D01*
X3639098Y4663234D01*
X3639098Y4736134D01*
X9715500Y3950715D02*
G01*
X9715500Y3841750D01*
X9715500Y3950715D02*
G01*
X9762236Y3950715D01*
X9777729Y3945636D01*
X9783063Y3940302D01*
X9788143Y3929887D01*
X9788143Y3919473D01*
X9783063Y3909060D01*
X9777729Y3903979D01*
X9762236Y3898900D01*
X9715500Y3898900D01*
X9751822Y3898900D02*
G01*
X9788143Y3841750D01*
X9822434Y3950715D02*
G01*
X9822434Y3841750D01*
X9822434Y3950715D02*
G01*
X9869170Y3950715D01*
X9884918Y3945636D01*
X9889997Y3940302D01*
X9895331Y3929887D01*
X9895331Y3914394D01*
X9889997Y3903979D01*
X9884918Y3898900D01*
X9869170Y3893565D01*
X9822434Y3893565D01*
X6350269Y4211281D02*
G01*
X6459235Y4211281D01*
X6350269Y4211281D02*
G01*
X6350269Y4258017D01*
X6355349Y4273511D01*
X6360683Y4278845D01*
X6371097Y4283925D01*
X6381511Y4283925D01*
X6391925Y4278845D01*
X6397005Y4273511D01*
X6402085Y4258017D01*
X6402085Y4211281D01*
X6402085Y4247603D02*
G01*
X6459235Y4283925D01*
X6350269Y4318215D02*
G01*
X6459235Y4318215D01*
X6350269Y4318215D02*
G01*
X6350269Y4364951D01*
X6355349Y4380699D01*
X6360683Y4385779D01*
X6371097Y4391113D01*
X6381511Y4391113D01*
X6391925Y4385779D01*
X6397005Y4380699D01*
X6402085Y4364951D01*
X6402085Y4318215D01*
X6402085Y4354791D02*
G01*
X6459235Y4391113D01*
X6371097Y4425403D02*
G01*
X6365763Y4435817D01*
X6350269Y4451311D01*
X6459235Y4451311D01*
X6495811Y4485601D02*
G01*
X6495811Y4579073D01*
X6371097Y4613363D02*
G01*
X6365763Y4623777D01*
X6350269Y4639271D01*
X6459235Y4639271D01*
X6059672Y4204014D02*
G01*
X6168638Y4204014D01*
X6059672Y4204014D02*
G01*
X6059672Y4250750D01*
X6064752Y4266244D01*
X6070086Y4271578D01*
X6080500Y4276658D01*
X6090914Y4276658D01*
X6101328Y4271578D01*
X6106408Y4266244D01*
X6111488Y4250750D01*
X6111488Y4204014D01*
X6111488Y4240336D02*
G01*
X6168638Y4276658D01*
X6059672Y4310948D02*
G01*
X6168638Y4310948D01*
X6059672Y4310948D02*
G01*
X6059672Y4357684D01*
X6064752Y4373432D01*
X6070086Y4378512D01*
X6080500Y4383846D01*
X6090914Y4383846D01*
X6101328Y4378512D01*
X6106408Y4373432D01*
X6111488Y4357684D01*
X6111488Y4310948D01*
X6111488Y4347524D02*
G01*
X6168638Y4383846D01*
X6080500Y4418136D02*
G01*
X6075166Y4428550D01*
X6059672Y4444044D01*
X6168638Y4444044D01*
X6205214Y4478334D02*
G01*
X6205214Y4571806D01*
X6085580Y4611430D02*
G01*
X6080500Y4611430D01*
X6070086Y4616510D01*
X6064752Y4621844D01*
X6059672Y4632004D01*
X6059672Y4652832D01*
X6064752Y4663246D01*
X6070086Y4668580D01*
X6080500Y4673660D01*
X6090914Y4673660D01*
X6101328Y4668580D01*
X6116822Y4658166D01*
X6168638Y4606096D01*
X6168638Y4678994D01*
X4975260Y4211281D02*
G01*
X5084226Y4211281D01*
X4975260Y4211281D02*
G01*
X4975260Y4258017D01*
X4980340Y4273511D01*
X4985674Y4278845D01*
X4996088Y4283925D01*
X5006502Y4283925D01*
X5016916Y4278845D01*
X5021996Y4273511D01*
X5027076Y4258017D01*
X5027076Y4211281D01*
X5027076Y4247603D02*
G01*
X5084226Y4283925D01*
X4975260Y4318215D02*
G01*
X5084226Y4318215D01*
X4975260Y4318215D02*
G01*
X4975260Y4364951D01*
X4980340Y4380699D01*
X4985674Y4385779D01*
X4996088Y4391113D01*
X5006502Y4391113D01*
X5016916Y4385779D01*
X5021996Y4380699D01*
X5027076Y4364951D01*
X5027076Y4318215D01*
X5027076Y4354791D02*
G01*
X5084226Y4391113D01*
X5001168Y4430483D02*
G01*
X4996088Y4430483D01*
X4985674Y4435817D01*
X4980340Y4440897D01*
X4975260Y4451311D01*
X4975260Y4472139D01*
X4980340Y4482553D01*
X4985674Y4487633D01*
X4996088Y4492967D01*
X5006502Y4492967D01*
X5016916Y4487633D01*
X5032410Y4477219D01*
X5084226Y4425403D01*
X5084226Y4498047D01*
X6625257Y4211281D02*
G01*
X6734223Y4211281D01*
X6625257Y4211281D02*
G01*
X6625257Y4258017D01*
X6630337Y4273511D01*
X6635671Y4278845D01*
X6646085Y4283925D01*
X6656499Y4283925D01*
X6666913Y4278845D01*
X6671993Y4273511D01*
X6677073Y4258017D01*
X6677073Y4211281D01*
X6677073Y4247603D02*
G01*
X6734223Y4283925D01*
X6625257Y4318215D02*
G01*
X6734223Y4318215D01*
X6625257Y4318215D02*
G01*
X6625257Y4364951D01*
X6630337Y4380699D01*
X6635671Y4385779D01*
X6646085Y4391113D01*
X6656499Y4391113D01*
X6666913Y4385779D01*
X6671993Y4380699D01*
X6677073Y4364951D01*
X6677073Y4318215D01*
X6677073Y4354791D02*
G01*
X6734223Y4391113D01*
X6625257Y4435817D02*
G01*
X6625257Y4492967D01*
X6666913Y4461725D01*
X6666913Y4477219D01*
X6671993Y4487633D01*
X6677073Y4492967D01*
X6692821Y4498047D01*
X6703235Y4498047D01*
X6718729Y4492967D01*
X6729143Y4482553D01*
X6734223Y4466805D01*
X6734223Y4451311D01*
X6729143Y4435817D01*
X6724063Y4430483D01*
X6713649Y4425403D01*
X5525254Y4211281D02*
G01*
X5634220Y4211281D01*
X5525254Y4211281D02*
G01*
X5525254Y4258017D01*
X5530334Y4273511D01*
X5535668Y4278845D01*
X5546082Y4283925D01*
X5556496Y4283925D01*
X5566910Y4278845D01*
X5571990Y4273511D01*
X5577070Y4258017D01*
X5577070Y4211281D01*
X5577070Y4247603D02*
G01*
X5634220Y4283925D01*
X5525254Y4318215D02*
G01*
X5634220Y4318215D01*
X5525254Y4318215D02*
G01*
X5525254Y4364951D01*
X5530334Y4380699D01*
X5535668Y4385779D01*
X5546082Y4391113D01*
X5556496Y4391113D01*
X5566910Y4385779D01*
X5571990Y4380699D01*
X5577070Y4364951D01*
X5577070Y4318215D01*
X5577070Y4354791D02*
G01*
X5634220Y4391113D01*
X5525254Y4487633D02*
G01*
X5525254Y4435817D01*
X5571990Y4430483D01*
X5566910Y4435817D01*
X5561576Y4451311D01*
X5561576Y4466805D01*
X5566910Y4482553D01*
X5577070Y4492967D01*
X5592818Y4498047D01*
X5603232Y4498047D01*
X5618726Y4492967D01*
X5629140Y4482553D01*
X5634220Y4466805D01*
X5634220Y4451311D01*
X5629140Y4435817D01*
X5624060Y4430483D01*
X5613646Y4425403D01*
X5670796Y4532337D02*
G01*
X5670796Y4625809D01*
X5546082Y4660099D02*
G01*
X5540748Y4670513D01*
X5525254Y4686261D01*
X5634220Y4686261D01*
X5784672Y4204014D02*
G01*
X5893638Y4204014D01*
X5784672Y4204014D02*
G01*
X5784672Y4250750D01*
X5789752Y4266244D01*
X5795086Y4271578D01*
X5805500Y4276658D01*
X5815914Y4276658D01*
X5826328Y4271578D01*
X5831408Y4266244D01*
X5836488Y4250750D01*
X5836488Y4204014D01*
X5836488Y4240336D02*
G01*
X5893638Y4276658D01*
X5784672Y4310948D02*
G01*
X5893638Y4310948D01*
X5784672Y4310948D02*
G01*
X5784672Y4357684D01*
X5789752Y4373432D01*
X5795086Y4378512D01*
X5805500Y4383846D01*
X5815914Y4383846D01*
X5826328Y4378512D01*
X5831408Y4373432D01*
X5836488Y4357684D01*
X5836488Y4310948D01*
X5836488Y4347524D02*
G01*
X5893638Y4383846D01*
X5784672Y4480366D02*
G01*
X5784672Y4428550D01*
X5831408Y4423216D01*
X5826328Y4428550D01*
X5820994Y4444044D01*
X5820994Y4459538D01*
X5826328Y4475286D01*
X5836488Y4485700D01*
X5852236Y4490780D01*
X5862650Y4490780D01*
X5878144Y4485700D01*
X5888558Y4475286D01*
X5893638Y4459538D01*
X5893638Y4444044D01*
X5888558Y4428550D01*
X5883478Y4423216D01*
X5873064Y4418136D01*
X5930214Y4525070D02*
G01*
X5930214Y4618542D01*
X5810580Y4658166D02*
G01*
X5805500Y4658166D01*
X5795086Y4663246D01*
X5789752Y4668580D01*
X5784672Y4678994D01*
X5784672Y4699568D01*
X5789752Y4709982D01*
X5795086Y4715316D01*
X5805500Y4720396D01*
X5815914Y4720396D01*
X5826328Y4715316D01*
X5841822Y4704902D01*
X5893638Y4652832D01*
X5893638Y4725730D01*
X6784543Y1299974D02*
G01*
X6893763Y1299974D01*
X6784543Y1372618D02*
G01*
X6893763Y1372618D01*
X6836613Y1299974D02*
G01*
X6836613Y1372618D01*
X6847027Y1406908D02*
G01*
X6847027Y1500634D01*
X6784543Y1534924D02*
G01*
X6893763Y1534924D01*
X6784543Y1534924D02*
G01*
X6784543Y1571246D01*
X6789877Y1586740D01*
X6800291Y1597154D01*
X6810705Y1602488D01*
X6826199Y1607568D01*
X6852107Y1607568D01*
X6867855Y1602488D01*
X6878269Y1597154D01*
X6888683Y1586740D01*
X6893763Y1571246D01*
X6893763Y1534924D01*
X6784543Y1641858D02*
G01*
X6893763Y1641858D01*
X6784543Y1676148D02*
G01*
X6893763Y1676148D01*
X6784543Y1676148D02*
G01*
X6784543Y1722884D01*
X6789877Y1738378D01*
X6794957Y1743712D01*
X6805371Y1748792D01*
X6815785Y1748792D01*
X6826199Y1743712D01*
X6831533Y1738378D01*
X6836613Y1722884D01*
X6836613Y1676148D01*
X6836613Y1712470D02*
G01*
X6893763Y1748792D01*
X6784543Y1783082D02*
G01*
X6893763Y1783082D01*
X6784543Y1783082D02*
G01*
X6784543Y1850646D01*
X6836613Y1783082D02*
G01*
X6836613Y1824738D01*
X6893763Y1783082D02*
G01*
X6893763Y1850646D01*
X6784543Y1884936D02*
G01*
X6893763Y1884936D01*
X6784543Y1955548D02*
G01*
X6893763Y1955548D01*
X6784543Y1919226D02*
G01*
X6784543Y1992124D01*
X6784543Y2067816D02*
G01*
X6893763Y2026414D01*
X6784543Y2067816D02*
G01*
X6893763Y2109472D01*
X6857441Y2041908D02*
G01*
X6857441Y2093978D01*
X2284577Y1300098D02*
G01*
X2393797Y1300098D01*
X2284577Y1372743D02*
G01*
X2393797Y1372743D01*
X2336647Y1300098D02*
G01*
X2336647Y1372743D01*
X2347061Y1407032D02*
G01*
X2347061Y1500504D01*
X2284577Y1534795D02*
G01*
X2393797Y1534795D01*
X2284577Y1534795D02*
G01*
X2284577Y1602359D01*
X2336647Y1534795D02*
G01*
X2336647Y1576451D01*
X2393797Y1534795D02*
G01*
X2393797Y1602359D01*
X2300325Y1709293D02*
G01*
X2289911Y1699132D01*
X2284577Y1683385D01*
X2284577Y1662556D01*
X2289911Y1647062D01*
X2300325Y1636648D01*
X2310739Y1636648D01*
X2320899Y1641982D01*
X2326233Y1647062D01*
X2331313Y1657477D01*
X2341727Y1688719D01*
X2347061Y1699132D01*
X2352141Y1704212D01*
X2362555Y1709293D01*
X2378049Y1709293D01*
X2388463Y1699132D01*
X2393797Y1683385D01*
X2393797Y1662556D01*
X2388463Y1647062D01*
X2378049Y1636648D01*
X2284577Y1774825D02*
G01*
X2289911Y1764411D01*
X2300325Y1753996D01*
X2310739Y1748917D01*
X2326233Y1743582D01*
X2352141Y1743582D01*
X2367889Y1748917D01*
X2378049Y1753996D01*
X2388463Y1764411D01*
X2393797Y1774825D01*
X2393797Y1795653D01*
X2388463Y1806067D01*
X2378049Y1816480D01*
X2367889Y1821561D01*
X2352141Y1826895D01*
X2326233Y1826895D01*
X2310739Y1821561D01*
X2300325Y1816480D01*
X2289911Y1806067D01*
X2284577Y1795653D01*
X2284577Y1774825D01*
X2372969Y1790572D02*
G01*
X2404211Y1821561D01*
X2284577Y1861185D02*
G01*
X2362555Y1861185D01*
X2378049Y1866264D01*
X2388463Y1876679D01*
X2393797Y1892172D01*
X2393797Y1902587D01*
X2388463Y1918335D01*
X2378049Y1928748D01*
X2362555Y1933829D01*
X2284577Y1933829D01*
X2284577Y1968119D02*
G01*
X2393797Y1968119D01*
X2284577Y1968119D02*
G01*
X2284577Y2035682D01*
X2336647Y1968119D02*
G01*
X2336647Y2009775D01*
X2393797Y1968119D02*
G01*
X2393797Y2035682D01*
X2284577Y2069972D02*
G01*
X2393797Y2069972D01*
X2284577Y2069972D02*
G01*
X2284577Y2116709D01*
X2289911Y2132203D01*
X2294991Y2137537D01*
X2305405Y2142617D01*
X2315819Y2142617D01*
X2326233Y2137537D01*
X2331313Y2132203D01*
X2336647Y2116709D01*
X2336647Y2069972D01*
X2336647Y2106295D02*
G01*
X2393797Y2142617D01*
X2284577Y2176906D02*
G01*
X2393797Y2176906D01*
X2284577Y2176906D02*
G01*
X2284577Y2213482D01*
X2289911Y2228977D01*
X2300325Y2239390D01*
X2310739Y2244470D01*
X2326233Y2249804D01*
X2352141Y2249804D01*
X2367889Y2244470D01*
X2378049Y2239390D01*
X2388463Y2228977D01*
X2393797Y2213482D01*
X2393797Y2176906D01*
X2284577Y2325496D02*
G01*
X2393797Y2284095D01*
X2284577Y2325496D02*
G01*
X2393797Y2367153D01*
X2357475Y2299588D02*
G01*
X2357475Y2351659D01*
X4534585Y1350076D02*
G01*
X4643805Y1350076D01*
X4534585Y1422720D02*
G01*
X4643805Y1422720D01*
X4586655Y1350076D02*
G01*
X4586655Y1422720D01*
X4597069Y1457010D02*
G01*
X4597069Y1550482D01*
X4534585Y1584772D02*
G01*
X4643805Y1584772D01*
X4534585Y1584772D02*
G01*
X4643805Y1626428D01*
X4534585Y1668084D02*
G01*
X4643805Y1626428D01*
X4534585Y1668084D02*
G01*
X4643805Y1668084D01*
X4534585Y1702374D02*
G01*
X4643805Y1702374D01*
X4534585Y1702374D02*
G01*
X4534585Y1769684D01*
X4586655Y1702374D02*
G01*
X4586655Y1743776D01*
X4643805Y1702374D02*
G01*
X4643805Y1769684D01*
X4534585Y1803974D02*
G01*
X4643805Y1803974D01*
X4534585Y1869506D02*
G01*
X4539919Y1859092D01*
X4550333Y1848678D01*
X4560747Y1843598D01*
X4576241Y1838264D01*
X4602149Y1838264D01*
X4617897Y1843598D01*
X4628057Y1848678D01*
X4638471Y1859092D01*
X4643805Y1869506D01*
X4643805Y1890334D01*
X4638471Y1900748D01*
X4628057Y1911162D01*
X4617897Y1916242D01*
X4602149Y1921576D01*
X4576241Y1921576D01*
X4560747Y1916242D01*
X4550333Y1911162D01*
X4539919Y1900748D01*
X4534585Y1890334D01*
X4534585Y1869506D01*
X6448188Y790465D02*
G01*
X6557154Y790465D01*
X6448188Y790465D02*
G01*
X6448188Y837201D01*
X6453268Y852949D01*
X6458602Y858029D01*
X6469016Y863109D01*
X6479430Y863109D01*
X6489844Y858029D01*
X6494924Y852949D01*
X6500004Y837201D01*
X6500004Y790465D01*
X6500004Y826787D02*
G01*
X6557154Y863109D01*
X6448188Y897399D02*
G01*
X6557154Y897399D01*
X6557154Y897399D02*
G01*
X6557154Y959883D01*
X6448188Y994173D02*
G01*
X6557154Y994173D01*
X6448188Y994173D02*
G01*
X6448188Y1040909D01*
X6453268Y1056403D01*
X6458602Y1061737D01*
X6469016Y1066817D01*
X6479430Y1066817D01*
X6489844Y1061737D01*
X6494924Y1056403D01*
X6500004Y1040909D01*
X6500004Y994173D01*
X6500004Y1030495D02*
G01*
X6557154Y1066817D01*
X10050183Y2172677D02*
G01*
X10039769Y2162263D01*
X10034689Y2146769D01*
X10034689Y2125941D01*
X10039769Y2110447D01*
X10050183Y2100033D01*
X10060597Y2100033D01*
X10071011Y2105113D01*
X10076091Y2110447D01*
X10081425Y2120861D01*
X10091839Y2151849D01*
X10096919Y2162263D01*
X10102253Y2167597D01*
X10112667Y2172677D01*
X10128161Y2172677D01*
X10138575Y2162263D01*
X10143655Y2146769D01*
X10143655Y2125941D01*
X10138575Y2110447D01*
X10128161Y2100033D01*
X10034689Y2206967D02*
G01*
X10143655Y2206967D01*
X10034689Y2206967D02*
G01*
X10034689Y2274531D01*
X10086505Y2206967D02*
G01*
X10086505Y2248623D01*
X10143655Y2206967D02*
G01*
X10143655Y2274531D01*
X10034689Y2308821D02*
G01*
X10143655Y2308821D01*
X10034689Y2308821D02*
G01*
X10034689Y2355557D01*
X10039769Y2371305D01*
X10045103Y2376385D01*
X10055517Y2381465D01*
X10065931Y2381465D01*
X10076091Y2376385D01*
X10081425Y2371305D01*
X10086505Y2355557D01*
X10086505Y2308821D01*
X10086505Y2345143D02*
G01*
X10143655Y2381465D01*
X10034689Y2415755D02*
G01*
X10143655Y2415755D01*
X10034689Y2491701D02*
G01*
X10143655Y2450045D01*
X10034689Y2491701D02*
G01*
X10143655Y2533357D01*
X10107333Y2465793D02*
G01*
X10107333Y2517609D01*
X10034689Y2567647D02*
G01*
X10143655Y2567647D01*
X10143655Y2567647D02*
G01*
X10143655Y2629877D01*
X11049863Y1915452D02*
G01*
X11049863Y1837474D01*
X11055197Y1821726D01*
X11065611Y1811312D01*
X11081105Y1806232D01*
X11091519Y1806232D01*
X11107013Y1811312D01*
X11117427Y1821726D01*
X11122761Y1837474D01*
X11122761Y1915452D01*
X11229695Y1899704D02*
G01*
X11219281Y1910118D01*
X11203787Y1915452D01*
X11182959Y1915452D01*
X11167465Y1910118D01*
X11157051Y1899704D01*
X11157051Y1889290D01*
X11162131Y1878876D01*
X11167465Y1873796D01*
X11177879Y1868462D01*
X11208867Y1858302D01*
X11219281Y1852968D01*
X11224615Y1847888D01*
X11229695Y1837474D01*
X11229695Y1821726D01*
X11219281Y1811312D01*
X11203787Y1806232D01*
X11182959Y1806232D01*
X11167465Y1811312D01*
X11157051Y1821726D01*
X11263985Y1915452D02*
G01*
X11263985Y1806232D01*
X11263985Y1915452D02*
G01*
X11310721Y1915452D01*
X11326469Y1910118D01*
X11331549Y1905038D01*
X11336883Y1894624D01*
X11336883Y1884210D01*
X11331549Y1873796D01*
X11326469Y1868462D01*
X11310721Y1863382D01*
X11263985Y1863382D02*
G01*
X11310721Y1863382D01*
X11326469Y1858302D01*
X11331549Y1852968D01*
X11336883Y1842554D01*
X11336883Y1827060D01*
X11331549Y1816646D01*
X11326469Y1811312D01*
X11310721Y1806232D01*
X11263985Y1806232D01*
X49999Y3065310D02*
G01*
X91655Y2956344D01*
X133057Y3065310D02*
G01*
X91655Y2956344D01*
X167347Y3065310D02*
G01*
X167347Y2956344D01*
X167347Y3065310D02*
G01*
X214083Y3065310D01*
X229831Y3060230D01*
X234911Y3054896D01*
X240245Y3044482D01*
X240245Y3034068D01*
X234911Y3023654D01*
X229831Y3018574D01*
X214083Y3013494D01*
X167347Y3013494D02*
G01*
X214083Y3013494D01*
X229831Y3008160D01*
X234911Y3003080D01*
X240245Y2992666D01*
X240245Y2976918D01*
X234911Y2966504D01*
X229831Y2961424D01*
X214083Y2956344D01*
X167347Y2956344D01*
X315937Y3065310D02*
G01*
X274535Y2956344D01*
X315937Y3065310D02*
G01*
X357593Y2956344D01*
X290029Y2992666D02*
G01*
X342099Y2992666D01*
X428205Y3065310D02*
G01*
X428205Y2956344D01*
X391883Y3065310D02*
G01*
X464527Y3065310D01*
X9810572Y227901D02*
G01*
X9800158Y222821D01*
X9789744Y212407D01*
X9784664Y201993D01*
X9784664Y181165D01*
X9789744Y170751D01*
X9800158Y160337D01*
X9810572Y155257D01*
X9826320Y149923D01*
X9852228Y149923D01*
X9867722Y155257D01*
X9878136Y160337D01*
X9888550Y170751D01*
X9893630Y181165D01*
X9893630Y201993D01*
X9888550Y212407D01*
X9878136Y222821D01*
X9867722Y227901D01*
X9784664Y293433D02*
G01*
X9789744Y283019D01*
X9800158Y272605D01*
X9810572Y267525D01*
X9826320Y262191D01*
X9852228Y262191D01*
X9867722Y267525D01*
X9878136Y272605D01*
X9888550Y283019D01*
X9893630Y293433D01*
X9893630Y314261D01*
X9888550Y324675D01*
X9878136Y334835D01*
X9867722Y340169D01*
X9852228Y345249D01*
X9826320Y345249D01*
X9810572Y340169D01*
X9800158Y334835D01*
X9789744Y324675D01*
X9784664Y314261D01*
X9784664Y293433D01*
X9784664Y379539D02*
G01*
X9862642Y379539D01*
X9878136Y384873D01*
X9888550Y395287D01*
X9893630Y410781D01*
X9893630Y421195D01*
X9888550Y436689D01*
X9878136Y447103D01*
X9862642Y452437D01*
X9784664Y452437D01*
X9784664Y523049D02*
G01*
X9893630Y523049D01*
X9784664Y486727D02*
G01*
X9784664Y559371D01*
X8260524Y277901D02*
G01*
X8250110Y272821D01*
X8239950Y262407D01*
X8234616Y251993D01*
X8234616Y231165D01*
X8239950Y220751D01*
X8250110Y210337D01*
X8260524Y205257D01*
X8276272Y199923D01*
X8302180Y199923D01*
X8317674Y205257D01*
X8328088Y210337D01*
X8338502Y220751D01*
X8343836Y231165D01*
X8343836Y251993D01*
X8338502Y262407D01*
X8328088Y272821D01*
X8317674Y277901D01*
X8234616Y312191D02*
G01*
X8343836Y312191D01*
X8234616Y346481D02*
G01*
X8343836Y346481D01*
X8234616Y346481D02*
G01*
X8343836Y419125D01*
X8234616Y419125D02*
G01*
X8343836Y419125D01*
X8110626Y1077899D02*
G01*
X8100212Y1072819D01*
X8089798Y1062405D01*
X8084718Y1051991D01*
X8084718Y1031163D01*
X8089798Y1020749D01*
X8100212Y1010335D01*
X8110626Y1005255D01*
X8126120Y999921D01*
X8152282Y999921D01*
X8167776Y1005255D01*
X8178190Y1010335D01*
X8188604Y1020749D01*
X8193684Y1031163D01*
X8193684Y1051991D01*
X8188604Y1062405D01*
X8178190Y1072819D01*
X8167776Y1077899D01*
X8084718Y1112189D02*
G01*
X8193684Y1112189D01*
X8084718Y1112189D02*
G01*
X8084718Y1179753D01*
X8136534Y1112189D02*
G01*
X8136534Y1153845D01*
X8084718Y1214043D02*
G01*
X8193684Y1214043D01*
X8084718Y1248333D02*
G01*
X8193684Y1248333D01*
X8193684Y1248333D02*
G01*
X8193684Y1310563D01*
X8084718Y1381429D02*
G01*
X8193684Y1381429D01*
X8084718Y1344853D02*
G01*
X8084718Y1417751D01*
X8084718Y1452041D02*
G01*
X8193684Y1452041D01*
X8084718Y1452041D02*
G01*
X8084718Y1519605D01*
X8136534Y1452041D02*
G01*
X8136534Y1493443D01*
X8193684Y1452041D02*
G01*
X8193684Y1519605D01*
X8084718Y1553895D02*
G01*
X8193684Y1553895D01*
X8084718Y1553895D02*
G01*
X8084718Y1600631D01*
X8089798Y1616125D01*
X8095132Y1621459D01*
X8105546Y1626539D01*
X8115706Y1626539D01*
X8126120Y1621459D01*
X8131454Y1616125D01*
X8136534Y1600631D01*
X8136534Y1553895D01*
X8136534Y1590217D02*
G01*
X8193684Y1626539D01*
G36*
X7009993Y4550003D02*
G01*
X6979970Y4499965D01*
X6949998Y4399991D01*
X6949998Y4290009D01*
X6969963Y4220006D01*
X7009993Y4150004D01*
X7119975Y4150004D01*
X7079996Y4209999D01*
X7059980Y4269994D01*
X7049973Y4309973D01*
X7049973Y4389983D01*
X7059980Y4439970D01*
X7079996Y4480001D01*
X7119975Y4550003D01*
G37*
G36*
X7009993Y3699967D02*
G01*
X6979970Y3649979D01*
X6949998Y3550005D01*
X6949998Y3439972D01*
X6969963Y3370021D01*
X7009993Y3299968D01*
X7119975Y3299968D01*
X7079996Y3360013D01*
X7059980Y3419957D01*
X7049973Y3459987D01*
X7049973Y3539998D01*
X7059980Y3589985D01*
X7079996Y3630015D01*
X7119975Y3699967D01*
G37*
G36*
X7009993Y2849981D02*
G01*
X6979970Y2799994D01*
X6949998Y2699969D01*
X6949998Y2589987D01*
X6969963Y2519984D01*
X7009993Y2449982D01*
X7119975Y2449982D01*
X7079996Y2509977D01*
X7059980Y2569972D01*
X7049973Y2610002D01*
X7049973Y2690012D01*
X7059980Y2739999D01*
X7079996Y2779979D01*
X7119975Y2849981D01*
G37*
G36*
X6463995Y262026D02*
G01*
X6500012Y236016D01*
X6535978Y261010D01*
G37*
G36*
X822299Y275285D02*
G01*
X786333Y250291D01*
X858316Y249275D01*
G37*
G36*
X2086305Y273304D02*
G01*
X2122322Y247294D01*
X2158288Y272288D01*
G37*
G36*
X2999994Y264007D02*
G01*
X2963976Y239014D01*
X3036011Y237998D01*
G37*
G36*
X4263999Y262026D02*
G01*
X4300016Y236016D01*
X4335983Y261010D01*
G37*
G36*
X5199989Y264007D02*
G01*
X5163972Y239014D01*
X5235956Y237998D01*
G37*
D11*
X7749984Y907897D02*
G01*
X7749984Y691997D01*
X7749984Y1288897D02*
G01*
X7749984Y1453997D01*
X7749984Y1238097D01*
X7800784Y1161897D02*
G01*
X7800784Y984097D01*
X7699184Y984097D02*
G01*
X7699184Y1161897D01*
X7788084Y907897D02*
G01*
X7711884Y907897D01*
X7800784Y984097D02*
G01*
X7813484Y971397D01*
X7813484Y933297D02*
G01*
X7813484Y971397D01*
X7699184Y984097D02*
G01*
X7686484Y971397D01*
X7686484Y933297D02*
G01*
X7686484Y971397D01*
X7788084Y1238097D02*
G01*
X7711884Y1238097D01*
X7813484Y1212697D02*
G01*
X7813484Y1174597D01*
X7800784Y1161897D02*
G01*
X7813484Y1174597D01*
X7686484Y1212697D02*
G01*
X7686484Y1174597D01*
X7699184Y1161897D02*
G01*
X7686484Y1174597D01*
X7197585Y2190602D02*
G01*
X7502385Y2190602D01*
X7502385Y222102D01*
X7197585Y222102D01*
X7197585Y2190602D01*
X4153293Y160197D02*
G01*
X3149993Y160197D01*
X4152988Y1099997D02*
G01*
X4152988Y97002D01*
X3149993Y97002D01*
X3149993Y1099997D01*
X4152988Y1099997D01*
X9570681Y606491D02*
G01*
X9570681Y753805D01*
X8529281Y606491D02*
G01*
X9570681Y606491D01*
X8529281Y753805D02*
G01*
X8529281Y606491D01*
X9099981Y4499990D02*
G01*
X9099981Y3899992D01*
X8599995Y4499990D02*
G01*
X9599993Y4499990D01*
X9599993Y3899992D01*
X8599995Y3899992D01*
X8599995Y4499990D01*
X7349977Y4349991D02*
G01*
X7349977Y4649990D01*
X7349977Y4349991D02*
G01*
X7089978Y4199991D01*
X7349977Y4349991D02*
G01*
X7609977Y4199991D01*
X7109947Y4150093D02*
G01*
X7009871Y4150093D01*
X7109947Y4549889D02*
G01*
X7009871Y4549889D01*
X7349985Y3499993D02*
G01*
X7349985Y3799992D01*
X7349985Y3499993D02*
G01*
X7089985Y3349993D01*
X7349985Y3499993D02*
G01*
X7609984Y3349993D01*
X7109955Y3300095D02*
G01*
X7009879Y3300095D01*
X7109955Y3699890D02*
G01*
X7009879Y3699890D01*
X7349985Y2649994D02*
G01*
X7349985Y2949994D01*
X7349985Y2649994D02*
G01*
X7089985Y2499995D01*
X7349985Y2649994D02*
G01*
X7609984Y2499995D01*
X7109955Y2450096D02*
G01*
X7009879Y2450096D01*
X7109955Y2849892D02*
G01*
X7009879Y2849892D01*
X1969193Y142793D02*
G01*
X965893Y142793D01*
X1968888Y1082593D02*
G01*
X1968888Y79598D01*
X965893Y79598D01*
X965893Y1082593D01*
X1968888Y1082593D01*
X6353289Y160197D02*
G01*
X5349989Y160197D01*
X6352984Y1099997D02*
G01*
X6352984Y97002D01*
X5349989Y97002D01*
X5349989Y1099997D01*
X6352984Y1099997D01*
X830653Y3569187D02*
G01*
X830653Y3353287D01*
X830653Y3950187D02*
G01*
X830653Y4115287D01*
X830653Y3899387D01*
X881453Y3823187D02*
G01*
X881453Y3645387D01*
X779853Y3645387D02*
G01*
X779853Y3823187D01*
X868753Y3569187D02*
G01*
X792553Y3569187D01*
X881453Y3645387D02*
G01*
X894153Y3632687D01*
X894153Y3594587D02*
G01*
X894153Y3632687D01*
X779853Y3645387D02*
G01*
X767153Y3632687D01*
X767153Y3594587D02*
G01*
X767153Y3632687D01*
X868753Y3899387D02*
G01*
X792553Y3899387D01*
X894153Y3873987D02*
G01*
X894153Y3835887D01*
X881453Y3823187D02*
G01*
X894153Y3835887D01*
X767153Y3873987D02*
G01*
X767153Y3835887D01*
X779853Y3823187D02*
G01*
X767153Y3835887D01*
X3058662Y3569185D02*
G01*
X3058662Y3353285D01*
X3058662Y3950185D02*
G01*
X3058662Y4115285D01*
X3058662Y3899385D01*
X3109462Y3823185D02*
G01*
X3109462Y3645385D01*
X3007862Y3645385D02*
G01*
X3007862Y3823185D01*
X3096762Y3569185D02*
G01*
X3020562Y3569185D01*
X3109462Y3645385D02*
G01*
X3122162Y3632685D01*
X3122162Y3594585D02*
G01*
X3122162Y3632685D01*
X3007862Y3645385D02*
G01*
X2995162Y3632685D01*
X2995162Y3594585D02*
G01*
X2995162Y3632685D01*
X3096762Y3899385D02*
G01*
X3020562Y3899385D01*
X3122162Y3873985D02*
G01*
X3122162Y3835885D01*
X3109462Y3823185D02*
G01*
X3122162Y3835885D01*
X2995162Y3873985D02*
G01*
X2995162Y3835885D01*
X3007862Y3823185D02*
G01*
X2995162Y3835885D01*
X5297299Y3569187D02*
G01*
X5297299Y3353287D01*
X5297299Y3950187D02*
G01*
X5297299Y4115287D01*
X5297299Y3899387D01*
X5348099Y3823187D02*
G01*
X5348099Y3645387D01*
X5246499Y3645387D02*
G01*
X5246499Y3823187D01*
X5335399Y3569187D02*
G01*
X5259199Y3569187D01*
X5348099Y3645387D02*
G01*
X5360799Y3632687D01*
X5360799Y3594587D02*
G01*
X5360799Y3632687D01*
X5246499Y3645387D02*
G01*
X5233799Y3632687D01*
X5233799Y3594587D02*
G01*
X5233799Y3632687D01*
X5335399Y3899387D02*
G01*
X5259199Y3899387D01*
X5360799Y3873987D02*
G01*
X5360799Y3835887D01*
X5348099Y3823187D02*
G01*
X5360799Y3835887D01*
X5233799Y3873987D02*
G01*
X5233799Y3835887D01*
X5246499Y3823187D02*
G01*
X5233799Y3835887D01*
D12*
X10159982Y3799992D02*
G01*
X10039977Y3799992D01*
X10159982Y3699992D02*
G01*
X10039979Y3699992D01*
X10069977Y3699992D02*
G01*
X10069977Y3799992D01*
D13*
X6572986Y212999D02*
G01*
X6572986Y98000D01*
X6427988Y98000D01*
X6427988Y218000D01*
X6426987Y279999D02*
G01*
X6426987Y403999D01*
X6571985Y403999D01*
X6571985Y279999D01*
X6572986Y98000D02*
G01*
X6572986Y94998D01*
X6552986Y74998D01*
X6450987Y74998D01*
X6447988Y78000D01*
X6427988Y98000D01*
X749315Y298295D02*
G01*
X749315Y413293D01*
X894313Y413293D01*
X894313Y293293D01*
X895314Y231294D02*
G01*
X895314Y107294D01*
X750315Y107294D01*
X750315Y231294D01*
X749315Y413293D02*
G01*
X749315Y416295D01*
X769315Y436295D01*
X871313Y436295D01*
X874313Y433293D01*
X894313Y413293D01*
X2195311Y224294D02*
G01*
X2195311Y109296D01*
X2050313Y109296D01*
X2050313Y229295D01*
X2049312Y291294D02*
G01*
X2049312Y415295D01*
X2194311Y415295D01*
X2194311Y291294D01*
X2195311Y109296D02*
G01*
X2195311Y106293D01*
X2175311Y86293D01*
X2073313Y86293D01*
X2070313Y89296D01*
X2050313Y109296D01*
X2926994Y286999D02*
G01*
X2926994Y401998D01*
X3071992Y401998D01*
X3071992Y281998D01*
X3072993Y219999D02*
G01*
X3072993Y95999D01*
X2927995Y95999D01*
X2927995Y219999D01*
X2926994Y401998D02*
G01*
X2926994Y405000D01*
X2946994Y425000D01*
X3048993Y425000D01*
X3051992Y421998D01*
X3071992Y401998D01*
X4372990Y212999D02*
G01*
X4372990Y98000D01*
X4227992Y98000D01*
X4227992Y218000D01*
X4226991Y279999D02*
G01*
X4226991Y403999D01*
X4371990Y403999D01*
X4371990Y279999D01*
X4372990Y98000D02*
G01*
X4372990Y94998D01*
X4352991Y74998D01*
X4250992Y74998D01*
X4247992Y78000D01*
X4227992Y98000D01*
X5126990Y286999D02*
G01*
X5126990Y401998D01*
X5271988Y401998D01*
X5271988Y281998D01*
X5272989Y219999D02*
G01*
X5272989Y95999D01*
X5127990Y95999D01*
X5127990Y219999D01*
X5126990Y401998D02*
G01*
X5126990Y405000D01*
X5146989Y425000D01*
X5248988Y425000D01*
X5251988Y421998D01*
X5271988Y401998D01*
D11*
X10314467Y2969793D02*
G01*
X10314467Y3630193D01*
X10921527Y3630193D01*
X10314467Y2969793D02*
G01*
X10924067Y2969793D01*
X10314467Y3031815D02*
G01*
X10263667Y3031815D01*
X10314467Y3111281D02*
G01*
X10263667Y3111281D01*
X10313807Y3488837D02*
G01*
X10263007Y3488837D01*
X10313807Y3568303D02*
G01*
X10263007Y3568303D01*
D10*
X2188372Y653915D02*
G01*
X2188372Y749802D01*
X2056251Y749802D01*
X2056251Y653915D01*
X2188372Y568672D02*
G01*
X2188372Y472785D01*
X2056251Y472785D01*
X2056251Y568672D01*
D11*
X1863981Y3569187D02*
G01*
X1863981Y3353287D01*
X1863981Y3950187D02*
G01*
X1863981Y4115287D01*
X1863981Y3899387D01*
X1914781Y3823187D02*
G01*
X1914781Y3645387D01*
X1813181Y3645387D02*
G01*
X1813181Y3823187D01*
X1902081Y3569187D02*
G01*
X1825881Y3569187D01*
X1914781Y3645387D02*
G01*
X1927481Y3632687D01*
X1927481Y3594587D02*
G01*
X1927481Y3632687D01*
X1813181Y3645387D02*
G01*
X1800481Y3632687D01*
X1800481Y3594587D02*
G01*
X1800481Y3632687D01*
X1902081Y3899387D02*
G01*
X1825881Y3899387D01*
X1927481Y3873987D02*
G01*
X1927481Y3835887D01*
X1914781Y3823187D02*
G01*
X1927481Y3835887D01*
X1800481Y3873987D02*
G01*
X1800481Y3835887D01*
X1813181Y3823187D02*
G01*
X1800481Y3835887D01*
X1622313Y3903388D02*
G01*
X1622313Y4119288D01*
X1622313Y3522388D02*
G01*
X1622313Y3357288D01*
X1622313Y3573188D01*
X1571513Y3649388D02*
G01*
X1571513Y3827188D01*
X1673113Y3827188D02*
G01*
X1673113Y3649388D01*
X1584213Y3903388D02*
G01*
X1660413Y3903388D01*
X1571513Y3827188D02*
G01*
X1558813Y3839888D01*
X1558813Y3877988D02*
G01*
X1558813Y3839888D01*
X1673113Y3827188D02*
G01*
X1685813Y3839888D01*
X1685813Y3877988D02*
G01*
X1685813Y3839888D01*
X1584213Y3573188D02*
G01*
X1660413Y3573188D01*
X1558813Y3598588D02*
G01*
X1558813Y3636688D01*
X1571513Y3649388D02*
G01*
X1558813Y3636688D01*
X1685813Y3598588D02*
G01*
X1685813Y3636688D01*
X1673113Y3649388D02*
G01*
X1685813Y3636688D01*
X572315Y3569187D02*
G01*
X572315Y3353287D01*
X572315Y3950187D02*
G01*
X572315Y4115287D01*
X572315Y3899387D01*
X623115Y3823187D02*
G01*
X623115Y3645387D01*
X521515Y3645387D02*
G01*
X521515Y3823187D01*
X610415Y3569187D02*
G01*
X534215Y3569187D01*
X623115Y3645387D02*
G01*
X635815Y3632687D01*
X635815Y3594587D02*
G01*
X635815Y3632687D01*
X521515Y3645387D02*
G01*
X508815Y3632687D01*
X508815Y3594587D02*
G01*
X508815Y3632687D01*
X610415Y3899387D02*
G01*
X534215Y3899387D01*
X635815Y3873987D02*
G01*
X635815Y3835887D01*
X623115Y3823187D02*
G01*
X635815Y3835887D01*
X508815Y3873987D02*
G01*
X508815Y3835887D01*
X521515Y3823187D02*
G01*
X508815Y3835887D01*
X2122312Y3569187D02*
G01*
X2122312Y3353287D01*
X2122312Y3950187D02*
G01*
X2122312Y4115287D01*
X2122312Y3899387D01*
X2173112Y3823187D02*
G01*
X2173112Y3645387D01*
X2071512Y3645387D02*
G01*
X2071512Y3823187D01*
X2160412Y3569187D02*
G01*
X2084212Y3569187D01*
X2173112Y3645387D02*
G01*
X2185812Y3632687D01*
X2185812Y3594587D02*
G01*
X2185812Y3632687D01*
X2071512Y3645387D02*
G01*
X2058812Y3632687D01*
X2058812Y3594587D02*
G01*
X2058812Y3632687D01*
X2160412Y3899387D02*
G01*
X2084212Y3899387D01*
X2185812Y3873987D02*
G01*
X2185812Y3835887D01*
X2173112Y3823187D02*
G01*
X2185812Y3835887D01*
X2058812Y3873987D02*
G01*
X2058812Y3835887D01*
X2071512Y3823187D02*
G01*
X2058812Y3835887D01*
X1088984Y3569187D02*
G01*
X1088984Y3353287D01*
X1088984Y3950187D02*
G01*
X1088984Y4115287D01*
X1088984Y3899387D01*
X1139784Y3823187D02*
G01*
X1139784Y3645387D01*
X1038184Y3645387D02*
G01*
X1038184Y3823187D01*
X1127084Y3569187D02*
G01*
X1050884Y3569187D01*
X1139784Y3645387D02*
G01*
X1152484Y3632687D01*
X1152484Y3594587D02*
G01*
X1152484Y3632687D01*
X1038184Y3645387D02*
G01*
X1025484Y3632687D01*
X1025484Y3594587D02*
G01*
X1025484Y3632687D01*
X1127084Y3899387D02*
G01*
X1050884Y3899387D01*
X1152484Y3873987D02*
G01*
X1152484Y3835887D01*
X1139784Y3823187D02*
G01*
X1152484Y3835887D01*
X1025484Y3873987D02*
G01*
X1025484Y3835887D01*
X1038184Y3823187D02*
G01*
X1025484Y3835887D01*
X1347309Y3903388D02*
G01*
X1347309Y4119288D01*
X1347309Y3522388D02*
G01*
X1347309Y3357288D01*
X1347309Y3573188D01*
X1296509Y3649388D02*
G01*
X1296509Y3827188D01*
X1398109Y3827188D02*
G01*
X1398109Y3649388D01*
X1309209Y3903388D02*
G01*
X1385409Y3903388D01*
X1296509Y3827188D02*
G01*
X1283809Y3839888D01*
X1283809Y3877988D02*
G01*
X1283809Y3839888D01*
X1398109Y3827188D02*
G01*
X1410809Y3839888D01*
X1410809Y3877988D02*
G01*
X1410809Y3839888D01*
X1309209Y3573188D02*
G01*
X1385409Y3573188D01*
X1283809Y3598588D02*
G01*
X1283809Y3636688D01*
X1296509Y3649388D02*
G01*
X1283809Y3636688D01*
X1410809Y3598588D02*
G01*
X1410809Y3636688D01*
X1398109Y3649388D02*
G01*
X1410809Y3636688D01*
D10*
X4366051Y642620D02*
G01*
X4366051Y738507D01*
X4233931Y738507D01*
X4233931Y642620D01*
X4366051Y557377D02*
G01*
X4366051Y461490D01*
X4233931Y461490D01*
X4233931Y557377D01*
D11*
X4149582Y3569185D02*
G01*
X4149582Y3353285D01*
X4149582Y3950185D02*
G01*
X4149582Y4115285D01*
X4149582Y3899385D01*
X4200382Y3823185D02*
G01*
X4200382Y3645385D01*
X4098782Y3645385D02*
G01*
X4098782Y3823185D01*
X4187682Y3569185D02*
G01*
X4111482Y3569185D01*
X4200382Y3645385D02*
G01*
X4213082Y3632685D01*
X4213082Y3594585D02*
G01*
X4213082Y3632685D01*
X4098782Y3645385D02*
G01*
X4086082Y3632685D01*
X4086082Y3594585D02*
G01*
X4086082Y3632685D01*
X4187682Y3899385D02*
G01*
X4111482Y3899385D01*
X4213082Y3873985D02*
G01*
X4213082Y3835885D01*
X4200382Y3823185D02*
G01*
X4213082Y3835885D01*
X4086082Y3873985D02*
G01*
X4086082Y3835885D01*
X4098782Y3823185D02*
G01*
X4086082Y3835885D01*
X3849992Y3892092D02*
G01*
X3849992Y4107992D01*
X3849992Y3511092D02*
G01*
X3849992Y3345992D01*
X3849992Y3561892D01*
X3799192Y3638092D02*
G01*
X3799192Y3815892D01*
X3900792Y3815892D02*
G01*
X3900792Y3638092D01*
X3811892Y3892092D02*
G01*
X3888092Y3892092D01*
X3799192Y3815892D02*
G01*
X3786492Y3828592D01*
X3786492Y3866692D02*
G01*
X3786492Y3828592D01*
X3900792Y3815892D02*
G01*
X3913492Y3828592D01*
X3913492Y3866692D02*
G01*
X3913492Y3828592D01*
X3811892Y3561892D02*
G01*
X3888092Y3561892D01*
X3786492Y3587292D02*
G01*
X3786492Y3625392D01*
X3799192Y3638092D02*
G01*
X3786492Y3625392D01*
X3913492Y3587292D02*
G01*
X3913492Y3625392D01*
X3900792Y3638092D02*
G01*
X3913492Y3625392D01*
X2785932Y3569192D02*
G01*
X2785932Y3353292D01*
X2785932Y3950192D02*
G01*
X2785932Y4115292D01*
X2785932Y3899392D01*
X2836732Y3823192D02*
G01*
X2836732Y3645392D01*
X2735132Y3645392D02*
G01*
X2735132Y3823192D01*
X2824032Y3569192D02*
G01*
X2747832Y3569192D01*
X2836732Y3645392D02*
G01*
X2849432Y3632692D01*
X2849432Y3594592D02*
G01*
X2849432Y3632692D01*
X2735132Y3645392D02*
G01*
X2722432Y3632692D01*
X2722432Y3594592D02*
G01*
X2722432Y3632692D01*
X2824032Y3899392D02*
G01*
X2747832Y3899392D01*
X2849432Y3873992D02*
G01*
X2849432Y3835892D01*
X2836732Y3823192D02*
G01*
X2849432Y3835892D01*
X2722432Y3873992D02*
G01*
X2722432Y3835892D01*
X2735132Y3823192D02*
G01*
X2722432Y3835892D01*
X4422307Y3569187D02*
G01*
X4422307Y3353287D01*
X4422307Y3950187D02*
G01*
X4422307Y4115287D01*
X4422307Y3899387D01*
X4473107Y3823187D02*
G01*
X4473107Y3645387D01*
X4371507Y3645387D02*
G01*
X4371507Y3823187D01*
X4460407Y3569187D02*
G01*
X4384207Y3569187D01*
X4473107Y3645387D02*
G01*
X4485807Y3632687D01*
X4485807Y3594587D02*
G01*
X4485807Y3632687D01*
X4371507Y3645387D02*
G01*
X4358807Y3632687D01*
X4358807Y3594587D02*
G01*
X4358807Y3632687D01*
X4460407Y3899387D02*
G01*
X4384207Y3899387D01*
X4485807Y3873987D02*
G01*
X4485807Y3835887D01*
X4473107Y3823187D02*
G01*
X4485807Y3835887D01*
X4358807Y3873987D02*
G01*
X4358807Y3835887D01*
X4371507Y3823187D02*
G01*
X4358807Y3835887D01*
X3331397Y3569185D02*
G01*
X3331397Y3353285D01*
X3331397Y3950185D02*
G01*
X3331397Y4115285D01*
X3331397Y3899385D01*
X3382197Y3823185D02*
G01*
X3382197Y3645385D01*
X3280597Y3645385D02*
G01*
X3280597Y3823185D01*
X3369497Y3569185D02*
G01*
X3293297Y3569185D01*
X3382197Y3645385D02*
G01*
X3394897Y3632685D01*
X3394897Y3594585D02*
G01*
X3394897Y3632685D01*
X3280597Y3645385D02*
G01*
X3267897Y3632685D01*
X3267897Y3594585D02*
G01*
X3267897Y3632685D01*
X3369497Y3899385D02*
G01*
X3293297Y3899385D01*
X3394897Y3873985D02*
G01*
X3394897Y3835885D01*
X3382197Y3823185D02*
G01*
X3394897Y3835885D01*
X3267897Y3873985D02*
G01*
X3267897Y3835885D01*
X3280597Y3823185D02*
G01*
X3267897Y3835885D01*
X3599992Y3892092D02*
G01*
X3599992Y4107992D01*
X3599992Y3511092D02*
G01*
X3599992Y3345992D01*
X3599992Y3561892D01*
X3549192Y3638092D02*
G01*
X3549192Y3815892D01*
X3650792Y3815892D02*
G01*
X3650792Y3638092D01*
X3561892Y3892092D02*
G01*
X3638092Y3892092D01*
X3549192Y3815892D02*
G01*
X3536492Y3828592D01*
X3536492Y3866692D02*
G01*
X3536492Y3828592D01*
X3650792Y3815892D02*
G01*
X3663492Y3828592D01*
X3663492Y3866692D02*
G01*
X3663492Y3828592D01*
X3561892Y3561892D02*
G01*
X3638092Y3561892D01*
X3536492Y3587292D02*
G01*
X3536492Y3625392D01*
X3549192Y3638092D02*
G01*
X3536492Y3625392D01*
X3663492Y3587292D02*
G01*
X3663492Y3625392D01*
X3650792Y3638092D02*
G01*
X3663492Y3625392D01*
D10*
X9866040Y3642613D02*
G01*
X9866040Y3738501D01*
X9733920Y3738501D01*
X9733920Y3642613D01*
X9866040Y3557371D02*
G01*
X9866040Y3461484D01*
X9733920Y3461484D01*
X9733920Y3557371D01*
D11*
X6397315Y3569187D02*
G01*
X6397315Y3353287D01*
X6397315Y3950187D02*
G01*
X6397315Y4115287D01*
X6397315Y3899387D01*
X6448115Y3823187D02*
G01*
X6448115Y3645387D01*
X6346515Y3645387D02*
G01*
X6346515Y3823187D01*
X6435415Y3569187D02*
G01*
X6359215Y3569187D01*
X6448115Y3645387D02*
G01*
X6460815Y3632687D01*
X6460815Y3594587D02*
G01*
X6460815Y3632687D01*
X6346515Y3645387D02*
G01*
X6333815Y3632687D01*
X6333815Y3594587D02*
G01*
X6333815Y3632687D01*
X6435415Y3899387D02*
G01*
X6359215Y3899387D01*
X6460815Y3873987D02*
G01*
X6460815Y3835887D01*
X6448115Y3823187D02*
G01*
X6460815Y3835887D01*
X6333815Y3873987D02*
G01*
X6333815Y3835887D01*
X6346515Y3823187D02*
G01*
X6333815Y3835887D01*
X6149987Y3892092D02*
G01*
X6149987Y4107992D01*
X6149987Y3511092D02*
G01*
X6149987Y3345992D01*
X6149987Y3561892D01*
X6099187Y3638092D02*
G01*
X6099187Y3815892D01*
X6200787Y3815892D02*
G01*
X6200787Y3638092D01*
X6111887Y3892092D02*
G01*
X6188087Y3892092D01*
X6099187Y3815892D02*
G01*
X6086487Y3828592D01*
X6086487Y3866692D02*
G01*
X6086487Y3828592D01*
X6200787Y3815892D02*
G01*
X6213487Y3828592D01*
X6213487Y3866692D02*
G01*
X6213487Y3828592D01*
X6111887Y3561892D02*
G01*
X6188087Y3561892D01*
X6086487Y3587292D02*
G01*
X6086487Y3625392D01*
X6099187Y3638092D02*
G01*
X6086487Y3625392D01*
X6213487Y3587292D02*
G01*
X6213487Y3625392D01*
X6200787Y3638092D02*
G01*
X6213487Y3625392D01*
X5022306Y3569187D02*
G01*
X5022306Y3353287D01*
X5022306Y3950187D02*
G01*
X5022306Y4115287D01*
X5022306Y3899387D01*
X5073106Y3823187D02*
G01*
X5073106Y3645387D01*
X4971506Y3645387D02*
G01*
X4971506Y3823187D01*
X5060406Y3569187D02*
G01*
X4984206Y3569187D01*
X5073106Y3645387D02*
G01*
X5085806Y3632687D01*
X5085806Y3594587D02*
G01*
X5085806Y3632687D01*
X4971506Y3645387D02*
G01*
X4958806Y3632687D01*
X4958806Y3594587D02*
G01*
X4958806Y3632687D01*
X5060406Y3899387D02*
G01*
X4984206Y3899387D01*
X5085806Y3873987D02*
G01*
X5085806Y3835887D01*
X5073106Y3823187D02*
G01*
X5085806Y3835887D01*
X4958806Y3873987D02*
G01*
X4958806Y3835887D01*
X4971506Y3823187D02*
G01*
X4958806Y3835887D01*
X6672303Y3569187D02*
G01*
X6672303Y3353287D01*
X6672303Y3950187D02*
G01*
X6672303Y4115287D01*
X6672303Y3899387D01*
X6723103Y3823187D02*
G01*
X6723103Y3645387D01*
X6621503Y3645387D02*
G01*
X6621503Y3823187D01*
X6710403Y3569187D02*
G01*
X6634203Y3569187D01*
X6723103Y3645387D02*
G01*
X6735803Y3632687D01*
X6735803Y3594587D02*
G01*
X6735803Y3632687D01*
X6621503Y3645387D02*
G01*
X6608803Y3632687D01*
X6608803Y3594587D02*
G01*
X6608803Y3632687D01*
X6710403Y3899387D02*
G01*
X6634203Y3899387D01*
X6735803Y3873987D02*
G01*
X6735803Y3835887D01*
X6723103Y3823187D02*
G01*
X6735803Y3835887D01*
X6608803Y3873987D02*
G01*
X6608803Y3835887D01*
X6621503Y3823187D02*
G01*
X6608803Y3835887D01*
X5572300Y3569187D02*
G01*
X5572300Y3353287D01*
X5572300Y3950187D02*
G01*
X5572300Y4115287D01*
X5572300Y3899387D01*
X5623100Y3823187D02*
G01*
X5623100Y3645387D01*
X5521500Y3645387D02*
G01*
X5521500Y3823187D01*
X5610400Y3569187D02*
G01*
X5534200Y3569187D01*
X5623100Y3645387D02*
G01*
X5635800Y3632687D01*
X5635800Y3594587D02*
G01*
X5635800Y3632687D01*
X5521500Y3645387D02*
G01*
X5508800Y3632687D01*
X5508800Y3594587D02*
G01*
X5508800Y3632687D01*
X5610400Y3899387D02*
G01*
X5534200Y3899387D01*
X5635800Y3873987D02*
G01*
X5635800Y3835887D01*
X5623100Y3823187D02*
G01*
X5635800Y3835887D01*
X5508800Y3873987D02*
G01*
X5508800Y3835887D01*
X5521500Y3823187D02*
G01*
X5508800Y3835887D01*
X5849988Y3892092D02*
G01*
X5849988Y4107992D01*
X5849988Y3511092D02*
G01*
X5849988Y3345992D01*
X5849988Y3561892D01*
X5799188Y3638092D02*
G01*
X5799188Y3815892D01*
X5900788Y3815892D02*
G01*
X5900788Y3638092D01*
X5811888Y3892092D02*
G01*
X5888088Y3892092D01*
X5799188Y3815892D02*
G01*
X5786488Y3828592D01*
X5786488Y3866692D02*
G01*
X5786488Y3828592D01*
X5900788Y3815892D02*
G01*
X5913488Y3828592D01*
X5913488Y3866692D02*
G01*
X5913488Y3828592D01*
X5811888Y3561892D02*
G01*
X5888088Y3561892D01*
X5786488Y3587292D02*
G01*
X5786488Y3625392D01*
X5799188Y3638092D02*
G01*
X5786488Y3625392D01*
X5913488Y3587292D02*
G01*
X5913488Y3625392D01*
X5900788Y3638092D02*
G01*
X5913488Y3625392D01*
X6636844Y2916471D02*
G01*
X6735904Y2916471D01*
X6735904Y2916471D02*
G01*
X6735904Y1306111D01*
X6735904Y1306111D02*
G01*
X6636844Y1306111D01*
X5105224Y1306111D02*
G01*
X5006164Y1306111D01*
X5006164Y1306111D02*
G01*
X5006164Y2916471D01*
X5006164Y2916471D02*
G01*
X5105224Y2916471D01*
X2136853Y2916471D02*
G01*
X2235913Y2916471D01*
X2235913Y2916471D02*
G01*
X2235913Y1306111D01*
X2235913Y1306111D02*
G01*
X2136853Y1306111D01*
X605233Y1306111D02*
G01*
X506173Y1306111D01*
X506173Y1306111D02*
G01*
X506173Y2916471D01*
X506173Y2916471D02*
G01*
X605233Y2916471D01*
X4386851Y2916466D02*
G01*
X4485911Y2916466D01*
X4485911Y2916466D02*
G01*
X4485911Y1306106D01*
X4485911Y1306106D02*
G01*
X4386851Y1306106D01*
X2855231Y1306106D02*
G01*
X2756171Y1306106D01*
X2756171Y1306106D02*
G01*
X2756171Y2916466D01*
X2756171Y2916466D02*
G01*
X2855231Y2916466D01*
D10*
X6566047Y642620D02*
G01*
X6566047Y738507D01*
X6433926Y738507D01*
X6433926Y642620D01*
X6566047Y557377D02*
G01*
X6566047Y461490D01*
X6433926Y461490D01*
X6433926Y557377D01*
X10707598Y2552136D02*
G01*
X10707598Y2247854D01*
X10192359Y2247854D01*
X10192359Y2552136D01*
X10707598Y2552136D01*
D14*
X11232603Y2024898D02*
G01*
X11048677Y2024898D01*
X11446591Y2774995D02*
G01*
X11554576Y2774995D01*
X11554576Y2024898D01*
X11446573Y2024898D01*
X11048578Y2715384D02*
G01*
X11048578Y2774995D01*
X11232586Y2774995D01*
X11048578Y2024997D02*
G01*
X11048578Y2083963D01*
D11*
X685800Y2895600D02*
G01*
X685800Y1892300D01*
X-254000Y2895295D02*
G01*
X748995Y2895295D01*
X748995Y1892300D01*
X-254000Y1892300D01*
X-254000Y2895295D01*
X9689957Y160997D02*
G01*
X9609955Y160997D01*
X9720943Y271973D02*
G01*
X9720943Y191975D01*
X9578977Y271973D02*
G01*
X9578977Y191975D01*
X9721524Y329562D02*
G01*
X9721524Y409562D01*
X9690541Y440545D02*
G01*
X9610544Y440545D01*
X9579564Y329562D02*
G01*
X9579564Y409562D01*
X8410006Y439000D02*
G01*
X8490008Y439000D01*
X8379020Y328025D02*
G01*
X8379020Y408023D01*
X8520986Y328025D02*
G01*
X8520986Y408023D01*
X8378438Y270436D02*
G01*
X8378438Y190436D01*
X8409421Y159453D02*
G01*
X8489419Y159453D01*
X8520399Y270436D02*
G01*
X8520399Y190436D01*
X8260006Y1438998D02*
G01*
X8340008Y1438998D01*
X8229020Y1328023D02*
G01*
X8229020Y1408021D01*
X8370986Y1328023D02*
G01*
X8370986Y1408021D01*
X8228439Y1270434D02*
G01*
X8228439Y1190434D01*
X8259422Y1159451D02*
G01*
X8339419Y1159451D01*
X8370399Y1270434D02*
G01*
X8370399Y1190434D01*
G75*
G01*
X7686485Y1212698D02*
G02*
X7711885Y1238098I25400J0D01*
G75*
G01*
X7813485Y1212698D02*
G03*
X7788085Y1238098I-25400J0D01*
G75*
G01*
X7788085Y907898D02*
G03*
X7813485Y933298I0J25400D01*
G75*
G01*
X7711885Y907898D02*
G02*
X7686485Y933298I0J25400D01*
G75*
G01*
X767154Y3873988D02*
G02*
X792554Y3899388I25400J0D01*
G75*
G01*
X894154Y3873988D02*
G03*
X868754Y3899388I-25400J0D01*
G75*
G01*
X868754Y3569188D02*
G03*
X894154Y3594588I0J25400D01*
G75*
G01*
X792554Y3569188D02*
G02*
X767154Y3594588I0J25400D01*
G75*
G01*
X2995163Y3873985D02*
G02*
X3020563Y3899385I25400J0D01*
G75*
G01*
X3122163Y3873985D02*
G03*
X3096763Y3899385I-25400J0D01*
G75*
G01*
X3096763Y3569185D02*
G03*
X3122163Y3594585I0J25400D01*
G75*
G01*
X3020563Y3569185D02*
G02*
X2995163Y3594585I0J25400D01*
G75*
G01*
X5233800Y3873988D02*
G02*
X5259200Y3899388I25400J0D01*
G75*
G01*
X5360800Y3873988D02*
G03*
X5335400Y3899388I-25400J0D01*
G75*
G01*
X5335400Y3569188D02*
G03*
X5360800Y3594588I0J25400D01*
G75*
G01*
X5259200Y3569188D02*
G02*
X5233800Y3594588I0J25400D01*
D15*
G75*
G01*
X10116348Y3686073D02*
G03*
X10116094Y3686073I-127J20000D01*
D11*
G75*
G01*
X1800482Y3873988D02*
G02*
X1825882Y3899388I25400J0D01*
G75*
G01*
X1927482Y3873988D02*
G03*
X1902082Y3899388I-25400J0D01*
G75*
G01*
X1902082Y3569188D02*
G03*
X1927482Y3594588I0J25400D01*
G75*
G01*
X1825882Y3569188D02*
G02*
X1800482Y3594588I0J25400D01*
G75*
G01*
X1685813Y3598588D02*
G02*
X1660413Y3573188I-25400J0D01*
G75*
G01*
X1558813Y3598588D02*
G03*
X1584213Y3573188I25400J0D01*
G75*
G01*
X1584213Y3903388D02*
G03*
X1558813Y3877988I0J-25400D01*
G75*
G01*
X1660413Y3903388D02*
G02*
X1685813Y3877988I0J-25400D01*
G75*
G01*
X508815Y3873988D02*
G02*
X534215Y3899388I25400J0D01*
G75*
G01*
X635815Y3873988D02*
G03*
X610415Y3899388I-25400J0D01*
G75*
G01*
X610415Y3569188D02*
G03*
X635815Y3594588I0J25400D01*
G75*
G01*
X534215Y3569188D02*
G02*
X508815Y3594588I0J25400D01*
G75*
G01*
X2058812Y3873988D02*
G02*
X2084212Y3899388I25400J0D01*
G75*
G01*
X2185812Y3873988D02*
G03*
X2160412Y3899388I-25400J0D01*
G75*
G01*
X2160412Y3569188D02*
G03*
X2185812Y3594588I0J25400D01*
G75*
G01*
X2084212Y3569188D02*
G02*
X2058812Y3594588I0J25400D01*
G75*
G01*
X1025484Y3873988D02*
G02*
X1050884Y3899388I25400J0D01*
G75*
G01*
X1152484Y3873988D02*
G03*
X1127084Y3899388I-25400J0D01*
G75*
G01*
X1127084Y3569188D02*
G03*
X1152484Y3594588I0J25400D01*
G75*
G01*
X1050884Y3569188D02*
G02*
X1025484Y3594588I0J25400D01*
G75*
G01*
X1410810Y3598588D02*
G02*
X1385410Y3573188I-25400J0D01*
G75*
G01*
X1283810Y3598588D02*
G03*
X1309210Y3573188I25400J0D01*
G75*
G01*
X1309210Y3903388D02*
G03*
X1283810Y3877988I0J-25400D01*
G75*
G01*
X1385410Y3903388D02*
G02*
X1410810Y3877988I0J-25400D01*
G75*
G01*
X4086083Y3873985D02*
G02*
X4111483Y3899385I25400J0D01*
G75*
G01*
X4213083Y3873985D02*
G03*
X4187683Y3899385I-25400J0D01*
G75*
G01*
X4187683Y3569185D02*
G03*
X4213083Y3594585I0J25400D01*
G75*
G01*
X4111483Y3569185D02*
G02*
X4086083Y3594585I0J25400D01*
G75*
G01*
X3913492Y3587293D02*
G02*
X3888092Y3561893I-25400J0D01*
G75*
G01*
X3786492Y3587293D02*
G03*
X3811892Y3561893I25400J0D01*
G75*
G01*
X3811892Y3892093D02*
G03*
X3786492Y3866693I0J-25400D01*
G75*
G01*
X3888092Y3892093D02*
G02*
X3913492Y3866693I0J-25400D01*
G75*
G01*
X2722433Y3873993D02*
G02*
X2747833Y3899393I25400J0D01*
G75*
G01*
X2849433Y3873993D02*
G03*
X2824033Y3899393I-25400J0D01*
G75*
G01*
X2824033Y3569193D02*
G03*
X2849433Y3594593I0J25400D01*
G75*
G01*
X2747833Y3569193D02*
G02*
X2722433Y3594593I0J25400D01*
G75*
G01*
X4358808Y3873988D02*
G02*
X4384208Y3899388I25400J0D01*
G75*
G01*
X4485808Y3873988D02*
G03*
X4460408Y3899388I-25400J0D01*
G75*
G01*
X4460408Y3569188D02*
G03*
X4485808Y3594588I0J25400D01*
G75*
G01*
X4384208Y3569188D02*
G02*
X4358808Y3594588I0J25400D01*
G75*
G01*
X3267898Y3873985D02*
G02*
X3293298Y3899385I25400J0D01*
G75*
G01*
X3394898Y3873985D02*
G03*
X3369498Y3899385I-25400J0D01*
G75*
G01*
X3369498Y3569185D02*
G03*
X3394898Y3594585I0J25400D01*
G75*
G01*
X3293298Y3569185D02*
G02*
X3267898Y3594585I0J25400D01*
G75*
G01*
X3663493Y3587293D02*
G02*
X3638093Y3561893I-25400J0D01*
G75*
G01*
X3536493Y3587293D02*
G03*
X3561893Y3561893I25400J0D01*
G75*
G01*
X3561893Y3892093D02*
G03*
X3536493Y3866693I0J-25400D01*
G75*
G01*
X3638093Y3892093D02*
G02*
X3663493Y3866693I0J-25400D01*
G75*
G01*
X6333815Y3873988D02*
G02*
X6359215Y3899388I25400J0D01*
G75*
G01*
X6460815Y3873988D02*
G03*
X6435415Y3899388I-25400J0D01*
G75*
G01*
X6435415Y3569188D02*
G03*
X6460815Y3594588I0J25400D01*
G75*
G01*
X6359215Y3569188D02*
G02*
X6333815Y3594588I0J25400D01*
G75*
G01*
X6213488Y3587293D02*
G02*
X6188088Y3561893I-25400J0D01*
G75*
G01*
X6086488Y3587293D02*
G03*
X6111888Y3561893I25400J0D01*
G75*
G01*
X6111888Y3892093D02*
G03*
X6086488Y3866693I0J-25400D01*
G75*
G01*
X6188088Y3892093D02*
G02*
X6213488Y3866693I0J-25400D01*
G75*
G01*
X4958806Y3873988D02*
G02*
X4984206Y3899388I25400J0D01*
G75*
G01*
X5085806Y3873988D02*
G03*
X5060406Y3899388I-25400J0D01*
G75*
G01*
X5060406Y3569188D02*
G03*
X5085806Y3594588I0J25400D01*
G75*
G01*
X4984206Y3569188D02*
G02*
X4958806Y3594588I0J25400D01*
G75*
G01*
X6608803Y3873988D02*
G02*
X6634203Y3899388I25400J0D01*
G75*
G01*
X6735803Y3873988D02*
G03*
X6710403Y3899388I-25400J0D01*
G75*
G01*
X6710403Y3569188D02*
G03*
X6735803Y3594588I0J25400D01*
G75*
G01*
X6634203Y3569188D02*
G02*
X6608803Y3594588I0J25400D01*
G75*
G01*
X5508800Y3873988D02*
G02*
X5534200Y3899388I25400J0D01*
G75*
G01*
X5635800Y3873988D02*
G03*
X5610400Y3899388I-25400J0D01*
G75*
G01*
X5610400Y3569188D02*
G03*
X5635800Y3594588I0J25400D01*
G75*
G01*
X5534200Y3569188D02*
G02*
X5508800Y3594588I0J25400D01*
G75*
G01*
X5913488Y3587293D02*
G02*
X5888088Y3561893I-25400J0D01*
G75*
G01*
X5786488Y3587293D02*
G03*
X5811888Y3561893I25400J0D01*
G75*
G01*
X5811888Y3892093D02*
G03*
X5786488Y3866693I0J-25400D01*
G75*
G01*
X5888088Y3892093D02*
G02*
X5913488Y3866693I0J-25400D01*
G75*
G01*
X9690542Y440550D02*
G02*
X9721525Y409567I0J-30983D01*
G75*
G01*
X9579559Y409567D02*
G02*
X9610545Y440550I30983J0D01*
G75*
G01*
X9720943Y191981D02*
G02*
X9689958Y160998I-30983J0D01*
G75*
G01*
X9609960Y160998D02*
G02*
X9578978Y191981I0J30983D01*
G75*
G01*
X8409422Y159449D02*
G02*
X8378439Y190431I0J30982D01*
G75*
G01*
X8520405Y190431D02*
G02*
X8489419Y159449I-30983J0D01*
G75*
G01*
X8379021Y408018D02*
G02*
X8410006Y439001I30982J0D01*
G75*
G01*
X8490003Y439001D02*
G02*
X8520986Y408018I0J-30983D01*
G75*
G01*
X8259422Y1159447D02*
G02*
X8228439Y1190429I0J30982D01*
G75*
G01*
X8370405Y1190429D02*
G02*
X8339419Y1159447I-30983J0D01*
G75*
G01*
X8229021Y1408016D02*
G02*
X8260006Y1438999I30983J0D01*
G75*
G01*
X8340004Y1438999D02*
G02*
X8370987Y1408016I0J-30983D01*
G75*
G01
X7152056Y2139798D02*
G03X7152056Y2139798I-17958J0D01*
D15*
G75*
G01
X8654466Y220472D02*
G03X8654466Y220472I-40157J0D01*
D11*
G75*
G01
X7749972Y4349979D02*
G03X7749972Y4349979I-399999J0D01*
G75*
G01
X7649972Y4349979D02*
G03X7649972Y4349979I-299999J0D01*
G75*
G01
X7749997Y3499993D02*
G03X7749997Y3499993I-399999J0D01*
G75*
G01
X7649997Y3499993D02*
G03X7649997Y3499993I-299999J0D01*
G75*
G01
X7749997Y2649982D02*
G03X7749997Y2649982I-399999J0D01*
G75*
G01
X7649997Y2649982D02*
G03X7649997Y2649982I-299999J0D01*
G75*
G01
X6674942Y2756459D02*
G03X6674942Y2756459I-99060J0D01*
G75*
G01
X2174951Y2756459D02*
G03X2174951Y2756459I-99060J0D01*
G75*
G01
X4424959Y2756433D02*
G03X4424959Y2756433I-99060J0D01*
D16*
G75*
G01
X10655503Y2476906D02*
G03X10655503Y2476906I-15011J0D01*
G75*
G01
X10732237Y2668245D02*
G03X10732237Y2668245I-15011J0D01*
M02*
