G04 Layer: TopLayer*
G04 EasyEDA v6.5.34, 2023-10-17 08:56:34*
G04 9b9491d4cbba47eb895c739f745705de,f7ef88abfe76465a867f88fcbadf87ca,10*
G04 Gerber Generator version 0.2*
G04 Scale: 100 percent, Rotated: No, Reflected: No *
G04 Dimensions in millimeters *
G04 leading zeros omitted , absolute positions ,4 integer and 5 decimal *
%FSLAX45Y45*%
%MOMM*%

%AMMACRO1*21,1,$1,$2,0,0,$3*%
%ADD10C,0.4500*%
%ADD11MACRO1,0.4X1.7X45.0000*%
%ADD12MACRO1,0.4X1.7X45.0026*%
%ADD13MACRO1,0.4X1.7X44.9974*%
%ADD14MACRO1,1.35X1.41X135.0000*%
%ADD15MACRO1,1.35X1.41X-45.0000*%
%ADD16MACRO1,1.377X1.1325X135.0000*%
%ADD17C,1.5748*%
%ADD18MACRO1,1.5748X1.5748X135.0000*%
%ADD19MACRO1,1.5748X1.5748X135.0007*%
%ADD20C,0.0194*%

%LPD*%
G36*
X2067560Y26162D02*
G01*
X2003094Y28194D01*
X1938731Y32207D01*
X1874469Y38201D01*
X1810461Y46228D01*
X1746757Y56235D01*
X1683359Y68173D01*
X1620367Y82143D01*
X1557832Y98044D01*
X1495856Y115874D01*
X1434439Y135585D01*
X1373632Y157276D01*
X1313586Y180797D01*
X1254302Y206146D01*
X1195781Y233375D01*
X1138174Y262432D01*
X1081481Y293217D01*
X1025804Y325780D01*
X971143Y360019D01*
X917549Y395986D01*
X865124Y433578D01*
X813917Y472795D01*
X763930Y513588D01*
X715264Y555904D01*
X667918Y599694D01*
X621944Y644956D01*
X577392Y691642D01*
X534314Y739648D01*
X492759Y789025D01*
X452780Y839622D01*
X414375Y891489D01*
X377596Y944473D01*
X342493Y998626D01*
X309118Y1053795D01*
X277418Y1109980D01*
X247548Y1167180D01*
X219405Y1225194D01*
X193141Y1284122D01*
X168656Y1343812D01*
X146100Y1404264D01*
X125374Y1465376D01*
X106629Y1527098D01*
X89763Y1589328D01*
X74828Y1652117D01*
X61925Y1715312D01*
X50901Y1778863D01*
X41910Y1842770D01*
X34899Y1906879D01*
X29921Y1971192D01*
X26924Y2035657D01*
X25908Y2100173D01*
X26924Y2164638D01*
X29921Y2229104D01*
X34950Y2293416D01*
X41960Y2357526D01*
X50952Y2421432D01*
X61976Y2484983D01*
X74930Y2548178D01*
X89814Y2610967D01*
X106680Y2673197D01*
X125476Y2734919D01*
X146202Y2796032D01*
X168808Y2856484D01*
X193243Y2916174D01*
X219557Y2975051D01*
X247650Y3033115D01*
X277571Y3090265D01*
X309270Y3146450D01*
X342696Y3201670D01*
X377799Y3255772D01*
X414578Y3308756D01*
X452983Y3360623D01*
X492963Y3411220D01*
X534517Y3460546D01*
X577596Y3508603D01*
X622147Y3555237D01*
X668121Y3600500D01*
X715467Y3644341D01*
X764184Y3686606D01*
X814171Y3727399D01*
X865378Y3766616D01*
X917854Y3804208D01*
X971397Y3840124D01*
X1026058Y3874414D01*
X1081786Y3906926D01*
X1138478Y3937711D01*
X1196086Y3966768D01*
X1254556Y3993946D01*
X1313891Y4019346D01*
X1373936Y4042867D01*
X1434744Y4064508D01*
X1496161Y4084218D01*
X1558137Y4102049D01*
X1620672Y4117949D01*
X1683664Y4131868D01*
X1747062Y4143806D01*
X1810766Y4153814D01*
X1874824Y4161840D01*
X1939036Y4167835D01*
X2003399Y4171848D01*
X2067915Y4173829D01*
X2132431Y4173829D01*
X2196896Y4171797D01*
X2261260Y4167784D01*
X2325522Y4161790D01*
X2389530Y4153763D01*
X2453233Y4143756D01*
X2516632Y4131818D01*
X2579624Y4117848D01*
X2642158Y4101947D01*
X2704134Y4084116D01*
X2765552Y4064406D01*
X2826359Y4042714D01*
X2886405Y4019194D01*
X2945688Y3993845D01*
X3004210Y3966616D01*
X3061817Y3937558D01*
X3118510Y3906774D01*
X3174187Y3874211D01*
X3228848Y3839972D01*
X3282442Y3804005D01*
X3334867Y3766413D01*
X3386074Y3727196D01*
X3436061Y3686403D01*
X3484727Y3644087D01*
X3532073Y3600297D01*
X3578047Y3555034D01*
X3622598Y3508349D01*
X3665677Y3460343D01*
X3707231Y3410965D01*
X3747211Y3360369D01*
X3785615Y3308502D01*
X3822395Y3255517D01*
X3857498Y3201365D01*
X3890873Y3146196D01*
X3922572Y3090011D01*
X3952443Y3032810D01*
X3980586Y2974797D01*
X4006850Y2915869D01*
X4031335Y2856179D01*
X4053890Y2795727D01*
X4074617Y2734614D01*
X4093362Y2672892D01*
X4110228Y2610662D01*
X4125163Y2547874D01*
X4138066Y2484678D01*
X4149090Y2421128D01*
X4158081Y2357221D01*
X4165092Y2293112D01*
X4170070Y2228799D01*
X4173067Y2164334D01*
X4174083Y2099818D01*
X4173067Y2035352D01*
X4170070Y1970887D01*
X4165041Y1906574D01*
X4158030Y1842465D01*
X4149039Y1778558D01*
X4138015Y1715007D01*
X4125061Y1651812D01*
X4110177Y1589024D01*
X4093311Y1526794D01*
X4074515Y1465072D01*
X4053789Y1403959D01*
X4031183Y1343507D01*
X4006748Y1283817D01*
X3980434Y1224940D01*
X3952341Y1166876D01*
X3922420Y1109726D01*
X3890721Y1053541D01*
X3857294Y998321D01*
X3822192Y944219D01*
X3785412Y891235D01*
X3747008Y839368D01*
X3707028Y788771D01*
X3665474Y739444D01*
X3622395Y691388D01*
X3577844Y644753D01*
X3531870Y599490D01*
X3484524Y555650D01*
X3435807Y513384D01*
X3385820Y472592D01*
X3334613Y433374D01*
X3282137Y395782D01*
X3228594Y359867D01*
X3173933Y325577D01*
X3118205Y293065D01*
X3061512Y262280D01*
X3003905Y233222D01*
X2945434Y206044D01*
X2886100Y180644D01*
X2826054Y157124D01*
X2765247Y135483D01*
X2703830Y115773D01*
X2641854Y97942D01*
X2579319Y82042D01*
X2516327Y68122D01*
X2452928Y56184D01*
X2389225Y46177D01*
X2325166Y38150D01*
X2260955Y32156D01*
X2196592Y28143D01*
X2132076Y26162D01*
G37*

%LPC*%
G36*
X2099970Y326085D02*
G01*
X2120646Y327050D01*
X2141118Y329946D01*
X2161235Y334670D01*
X2180793Y341274D01*
X2199690Y349605D01*
X2217724Y359714D01*
X2234793Y371398D01*
X2250643Y384606D01*
X2265222Y399237D01*
X2278380Y415188D01*
X2290064Y432257D01*
X2300071Y450342D01*
X2308352Y469290D01*
X2314854Y488899D01*
X2319528Y509016D01*
X2322322Y529488D01*
X2323185Y549605D01*
X2322322Y570534D01*
X2319528Y591007D01*
X2314854Y611124D01*
X2308352Y630732D01*
X2300071Y649681D01*
X2290064Y667715D01*
X2278380Y684834D01*
X2265222Y700735D01*
X2250643Y715365D01*
X2234793Y728624D01*
X2217724Y740308D01*
X2199690Y750366D01*
X2180793Y758748D01*
X2161235Y765352D01*
X2141118Y770077D01*
X2120646Y772922D01*
X2099970Y773887D01*
X2079345Y772922D01*
X2058873Y770077D01*
X2038756Y765352D01*
X2019198Y758748D01*
X2000300Y750366D01*
X1982266Y740308D01*
X1965198Y728624D01*
X1949348Y715365D01*
X1934768Y700735D01*
X1921611Y684834D01*
X1909927Y667715D01*
X1899920Y649681D01*
X1891639Y630732D01*
X1885137Y611124D01*
X1880463Y591007D01*
X1877669Y570534D01*
X1876806Y550367D01*
X1877669Y529488D01*
X1880463Y509016D01*
X1885137Y488899D01*
X1891639Y469290D01*
X1899920Y450342D01*
X1909927Y432257D01*
X1921611Y415188D01*
X1934768Y399237D01*
X1949348Y384606D01*
X1965198Y371398D01*
X1982266Y359714D01*
X2000300Y349605D01*
X2019198Y341274D01*
X2038756Y334670D01*
X2058873Y329946D01*
X2079345Y327050D01*
G37*
G36*
X2330500Y1391818D02*
G01*
X2539593Y1391818D01*
X2549550Y1392631D01*
X2558846Y1395018D01*
X2567584Y1398828D01*
X2575712Y1404162D01*
X2581249Y1409039D01*
X3590645Y2418689D01*
X3597097Y2426309D01*
X3601974Y2434539D01*
X3605479Y2443429D01*
X3607460Y2452928D01*
X3607917Y2460294D01*
X3607917Y2538730D01*
X3608832Y2542997D01*
X3611473Y2546451D01*
X3615334Y2548534D01*
X3619652Y2548788D01*
X3628034Y2547467D01*
X3642410Y2547010D01*
X3656685Y2548331D01*
X3670655Y2551480D01*
X3684168Y2556357D01*
X3696970Y2562860D01*
X3708806Y2570937D01*
X3719576Y2580386D01*
X3729075Y2591155D01*
X3737152Y2603042D01*
X3743655Y2615793D01*
X3748481Y2629306D01*
X3751630Y2643327D01*
X3753002Y2657602D01*
X3752545Y2671927D01*
X3750310Y2686100D01*
X3746296Y2699867D01*
X3740607Y2713024D01*
X3733292Y2725369D01*
X3724503Y2736697D01*
X3714343Y2746857D01*
X3703015Y2755646D01*
X3690670Y2762961D01*
X3677513Y2768650D01*
X3663746Y2772664D01*
X3649573Y2774899D01*
X3635197Y2775356D01*
X3620922Y2773984D01*
X3606952Y2770886D01*
X3593439Y2766009D01*
X3580637Y2759506D01*
X3568801Y2751429D01*
X3558032Y2741930D01*
X3548532Y2731211D01*
X3540506Y2719324D01*
X3533952Y2706522D01*
X3529126Y2693060D01*
X3525977Y2679039D01*
X3524656Y2664764D01*
X3525062Y2650439D01*
X3527145Y2637434D01*
X3527145Y2634284D01*
X3526180Y2631236D01*
X3524300Y2628696D01*
X3509162Y2613558D01*
X3502710Y2605938D01*
X3497834Y2597708D01*
X3494328Y2588818D01*
X3492347Y2579319D01*
X3491890Y2571953D01*
X3491890Y2488234D01*
X3491128Y2484323D01*
X3488944Y2481021D01*
X2518918Y1510842D01*
X2515666Y1508607D01*
X2511755Y1507845D01*
X2429967Y1507845D01*
X2426055Y1508607D01*
X2422753Y1510842D01*
X2420569Y1514094D01*
X2419807Y1518005D01*
X2420569Y1521866D01*
X2422753Y1525168D01*
X2428544Y1530959D01*
X2383586Y1575917D01*
X2342032Y1534363D01*
X2338730Y1532178D01*
X2334869Y1531416D01*
X2330958Y1532178D01*
X2327656Y1534363D01*
X2284374Y1577695D01*
X2282190Y1580997D01*
X2281428Y1584858D01*
X2282190Y1588770D01*
X2284374Y1592072D01*
X2325928Y1633626D01*
X2280970Y1678584D01*
X2265781Y1663395D01*
X2261057Y1657604D01*
X2257806Y1651507D01*
X2255774Y1644853D01*
X2255113Y1637944D01*
X2255672Y1631848D01*
X2255266Y1627733D01*
X2253234Y1624177D01*
X2249932Y1621688D01*
X2245918Y1620672D01*
X2241854Y1621383D01*
X2238400Y1623669D01*
X2219756Y1642313D01*
X2217623Y1645412D01*
X2216810Y1649120D01*
X2217318Y1652828D01*
X2219198Y1656080D01*
X2222144Y1658467D01*
X2225751Y1660398D01*
X2231542Y1665122D01*
X2259126Y1692706D01*
X2263851Y1698447D01*
X2266899Y1703273D01*
X2271725Y1706372D01*
X2277516Y1711096D01*
X2305100Y1738680D01*
X2309825Y1744421D01*
X2312873Y1749247D01*
X2317699Y1752295D01*
X2323439Y1757019D01*
X2351024Y1784604D01*
X2355748Y1790395D01*
X2358847Y1795221D01*
X2363673Y1798269D01*
X2369413Y1802993D01*
X2380945Y1814525D01*
X2384247Y1816760D01*
X2388158Y1817522D01*
X2392019Y1816760D01*
X2395321Y1814525D01*
X2400046Y1809800D01*
X2402382Y1806193D01*
X2403043Y1801977D01*
X2401824Y1797812D01*
X2399233Y1792935D01*
X2397201Y1786280D01*
X2396540Y1779371D01*
X2397201Y1772412D01*
X2399233Y1765807D01*
X2400655Y1763064D01*
X2401874Y1758950D01*
X2401214Y1754682D01*
X2398877Y1751075D01*
X2395270Y1748789D01*
X2391054Y1748129D01*
X2386939Y1749298D01*
X2384196Y1750771D01*
X2377541Y1752803D01*
X2370632Y1753463D01*
X2363724Y1752803D01*
X2357069Y1750771D01*
X2350922Y1747469D01*
X2345182Y1742744D01*
X2329992Y1727606D01*
X2374950Y1682648D01*
X2419553Y1727200D01*
X2422855Y1729435D01*
X2426716Y1730197D01*
X2430627Y1729435D01*
X2433929Y1727200D01*
X2477211Y1683918D01*
X2479395Y1680616D01*
X2480157Y1676704D01*
X2479395Y1672843D01*
X2477211Y1669542D01*
X2432608Y1624939D01*
X2477566Y1579981D01*
X2492756Y1595170D01*
X2497480Y1600962D01*
X2500782Y1607058D01*
X2502763Y1613712D01*
X2503474Y1620621D01*
X2502763Y1627581D01*
X2500782Y1634185D01*
X2499309Y1636928D01*
X2498140Y1641043D01*
X2498750Y1645310D01*
X2501087Y1648917D01*
X2504694Y1651203D01*
X2508961Y1651863D01*
X2513076Y1650695D01*
X2515768Y1649222D01*
X2522423Y1647189D01*
X2529332Y1646529D01*
X2536291Y1647189D01*
X2542946Y1649222D01*
X2549042Y1652524D01*
X2554833Y1657248D01*
X2634183Y1736598D01*
X2638907Y1742389D01*
X2642209Y1748485D01*
X2644190Y1755139D01*
X2644902Y1762048D01*
X2644190Y1769008D01*
X2642209Y1775612D01*
X2638907Y1781759D01*
X2634183Y1787550D01*
X2537510Y1884172D01*
X2531770Y1888896D01*
X2525623Y1892198D01*
X2518968Y1894230D01*
X2512060Y1894890D01*
X2505151Y1894230D01*
X2498496Y1892198D01*
X2494229Y1889912D01*
X2490114Y1888743D01*
X2485847Y1889353D01*
X2482240Y1891690D01*
X2477363Y1896567D01*
X2475179Y1899869D01*
X2474417Y1903780D01*
X2475179Y1907641D01*
X2477363Y1910943D01*
X2488946Y1922525D01*
X2493670Y1928266D01*
X2496718Y1933092D01*
X2501544Y1936140D01*
X2507284Y1940864D01*
X2534869Y1968449D01*
X2539593Y1974240D01*
X2542895Y1980336D01*
X2544927Y1986991D01*
X2545588Y1993900D01*
X2544927Y2000859D01*
X2542895Y2007514D01*
X2539593Y2013610D01*
X2534869Y2019401D01*
X2430272Y2123998D01*
X2428087Y2127300D01*
X2427274Y2131212D01*
X2428087Y2135073D01*
X2430272Y2138375D01*
X2991053Y2699004D01*
X2994355Y2701188D01*
X2998266Y2701950D01*
X3378047Y2701950D01*
X3388004Y2702763D01*
X3397300Y2705150D01*
X3406038Y2708960D01*
X3414166Y2714294D01*
X3419703Y2719171D01*
X3426764Y2726232D01*
X3429355Y2728112D01*
X3432352Y2729128D01*
X3435553Y2729128D01*
X3448456Y2727045D01*
X3462782Y2726588D01*
X3477056Y2727960D01*
X3491077Y2731109D01*
X3504590Y2735935D01*
X3517341Y2742438D01*
X3529228Y2750515D01*
X3539998Y2760014D01*
X3549446Y2770784D01*
X3557524Y2782620D01*
X3564026Y2795422D01*
X3568903Y2808935D01*
X3572001Y2822905D01*
X3573373Y2837180D01*
X3572916Y2851556D01*
X3570681Y2865678D01*
X3566668Y2879496D01*
X3560978Y2892653D01*
X3553663Y2904998D01*
X3544874Y2916326D01*
X3534765Y2926486D01*
X3523386Y2935274D01*
X3511042Y2942539D01*
X3497884Y2948279D01*
X3484118Y2952242D01*
X3469944Y2954528D01*
X3455619Y2954934D01*
X3441344Y2953613D01*
X3427323Y2950464D01*
X3413861Y2945638D01*
X3401060Y2939084D01*
X3389172Y2931058D01*
X3378454Y2921558D01*
X3368954Y2910789D01*
X3360877Y2898952D01*
X3354374Y2886151D01*
X3349498Y2872638D01*
X3346399Y2858668D01*
X3345027Y2844393D01*
X3345535Y2829712D01*
X3345281Y2825394D01*
X3343198Y2821533D01*
X3339744Y2818892D01*
X3335477Y2817977D01*
X3024378Y2817977D01*
X3020466Y2818739D01*
X3017164Y2820924D01*
X3014980Y2824226D01*
X3014218Y2828137D01*
X3014980Y2831998D01*
X3017164Y2835300D01*
X3030982Y2849067D01*
X3034233Y2851302D01*
X3038144Y2852064D01*
X3168751Y2852064D01*
X3178708Y2852877D01*
X3188004Y2855264D01*
X3196742Y2859074D01*
X3204870Y2864408D01*
X3210356Y2869234D01*
X3247085Y2905861D01*
X3249676Y2907741D01*
X3252673Y2908706D01*
X3255873Y2908706D01*
X3268827Y2906674D01*
X3283204Y2906217D01*
X3297478Y2907588D01*
X3311448Y2910687D01*
X3324961Y2915564D01*
X3337763Y2922066D01*
X3349599Y2930144D01*
X3360369Y2939592D01*
X3369868Y2950362D01*
X3377946Y2962249D01*
X3384448Y2975000D01*
X3389274Y2988513D01*
X3392424Y3002534D01*
X3393795Y3016808D01*
X3393338Y3031134D01*
X3391052Y3045307D01*
X3387090Y3059074D01*
X3381400Y3072231D01*
X3374085Y3084576D01*
X3365296Y3095904D01*
X3355136Y3106064D01*
X3343808Y3114852D01*
X3331464Y3122168D01*
X3318306Y3127857D01*
X3304540Y3131870D01*
X3290366Y3134106D01*
X3275990Y3134563D01*
X3261715Y3133191D01*
X3247745Y3130092D01*
X3234232Y3125216D01*
X3221431Y3118713D01*
X3209594Y3110636D01*
X3198825Y3101136D01*
X3189325Y3090418D01*
X3181299Y3078530D01*
X3174746Y3065729D01*
X3169920Y3052267D01*
X3166770Y3038246D01*
X3165449Y3023971D01*
X3165856Y3009646D01*
X3167938Y2996742D01*
X3167938Y2993542D01*
X3166922Y2990494D01*
X3165043Y2987954D01*
X3148126Y2971038D01*
X3144824Y2968853D01*
X3140964Y2968091D01*
X3074670Y2968091D01*
X3070758Y2968853D01*
X3067456Y2971088D01*
X3065272Y2974340D01*
X3064510Y2978251D01*
X3065272Y2982112D01*
X3067456Y2985414D01*
X3140811Y3058769D01*
X3147263Y3066389D01*
X3152140Y3074619D01*
X3155696Y3083610D01*
X3157270Y3090418D01*
X3157778Y3096717D01*
X3159099Y3100933D01*
X3162096Y3104184D01*
X3169970Y3109671D01*
X3180791Y3119221D01*
X3190240Y3129991D01*
X3198317Y3141827D01*
X3204819Y3154629D01*
X3209696Y3168142D01*
X3212795Y3182112D01*
X3214166Y3196386D01*
X3213709Y3210763D01*
X3211474Y3224936D01*
X3207461Y3238703D01*
X3201771Y3251860D01*
X3194456Y3264204D01*
X3185668Y3275533D01*
X3175558Y3285693D01*
X3164179Y3294481D01*
X3151835Y3301796D01*
X3138678Y3307486D01*
X3124911Y3311448D01*
X3110738Y3313734D01*
X3096412Y3314141D01*
X3082137Y3312820D01*
X3068116Y3309670D01*
X3054604Y3304844D01*
X3041853Y3298291D01*
X3029966Y3290265D01*
X3019196Y3280765D01*
X3009747Y3269996D01*
X3001670Y3258159D01*
X2995168Y3245358D01*
X2990291Y3231845D01*
X2987192Y3217875D01*
X2985820Y3203600D01*
X2986278Y3189224D01*
X2988513Y3175050D01*
X2992526Y3161284D01*
X2998216Y3148126D01*
X3005531Y3135782D01*
X3014319Y3124454D01*
X3021177Y3117596D01*
X3023362Y3114294D01*
X3024174Y3110382D01*
X3023362Y3106521D01*
X3021177Y3103219D01*
X2365400Y2447442D01*
X2362098Y2445258D01*
X2358237Y2444496D01*
X2354326Y2445258D01*
X2351074Y2447442D01*
X2348839Y2450744D01*
X2348077Y2454656D01*
X2348077Y2509621D01*
X2347264Y2519578D01*
X2344877Y2528874D01*
X2341067Y2537612D01*
X2335733Y2545740D01*
X2330856Y2551277D01*
X1931314Y2950819D01*
X1923694Y2957271D01*
X1915464Y2962148D01*
X1906574Y2965653D01*
X1897075Y2967634D01*
X1889709Y2968091D01*
X1760372Y2968091D01*
X1750415Y2967278D01*
X1741119Y2964891D01*
X1732381Y2961081D01*
X1724253Y2955747D01*
X1718716Y2950870D01*
X1498904Y2731058D01*
X1495602Y2728823D01*
X1491691Y2728061D01*
X1382674Y2728061D01*
X1378254Y2729077D01*
X1374749Y2731871D01*
X1372768Y2735935D01*
X1372768Y2740456D01*
X1373225Y2742539D01*
X1374546Y2756814D01*
X1374089Y2771140D01*
X1371854Y2785313D01*
X1367891Y2799080D01*
X1362151Y2812237D01*
X1354886Y2824581D01*
X1346098Y2835910D01*
X1335938Y2846070D01*
X1324610Y2854858D01*
X1312265Y2862173D01*
X1299108Y2867863D01*
X1285290Y2871876D01*
X1271117Y2874111D01*
X1256792Y2874568D01*
X1242517Y2873197D01*
X1237437Y2872079D01*
X1234084Y2871876D01*
X1230833Y2872841D01*
X1228039Y2874822D01*
X1195222Y2907639D01*
X1193241Y2910433D01*
X1192276Y2913684D01*
X1192479Y2917037D01*
X1193596Y2922117D01*
X1194968Y2936392D01*
X1194511Y2950768D01*
X1192276Y2964891D01*
X1188262Y2978708D01*
X1182573Y2991866D01*
X1175258Y3004210D01*
X1166469Y3015538D01*
X1156309Y3025698D01*
X1144981Y3034487D01*
X1132636Y3041751D01*
X1119479Y3047492D01*
X1105712Y3051454D01*
X1091539Y3053740D01*
X1077214Y3054146D01*
X1062939Y3052826D01*
X1057859Y3051657D01*
X1054455Y3051505D01*
X1051204Y3052470D01*
X1048461Y3054400D01*
X1015593Y3087268D01*
X1013663Y3090011D01*
X1012698Y3093262D01*
X1012850Y3096666D01*
X1014018Y3101746D01*
X1015339Y3116021D01*
X1014882Y3130346D01*
X1012647Y3144520D01*
X1008634Y3158286D01*
X1002944Y3171444D01*
X995680Y3183788D01*
X986891Y3195116D01*
X976731Y3205276D01*
X965403Y3214065D01*
X953058Y3221380D01*
X939850Y3227070D01*
X926084Y3231083D01*
X911910Y3233318D01*
X897585Y3233775D01*
X883310Y3232404D01*
X869289Y3229305D01*
X855827Y3224428D01*
X843026Y3217926D01*
X831189Y3209848D01*
X820419Y3200349D01*
X810920Y3189630D01*
X802843Y3177743D01*
X796340Y3164941D01*
X791464Y3151479D01*
X788365Y3137458D01*
X786993Y3123184D01*
X787450Y3108858D01*
X789686Y3094685D01*
X793699Y3080918D01*
X799388Y3067761D01*
X806704Y3055416D01*
X815492Y3044037D01*
X825652Y3033928D01*
X836980Y3025140D01*
X849325Y3017824D01*
X862482Y3012135D01*
X876249Y3008122D01*
X890422Y3005886D01*
X904748Y3005429D01*
X919073Y3006801D01*
X924204Y3007918D01*
X927557Y3008122D01*
X930808Y3007156D01*
X933602Y3005175D01*
X966368Y2972409D01*
X968349Y2969615D01*
X969314Y2966364D01*
X969111Y2963011D01*
X967943Y2957880D01*
X966622Y2943606D01*
X967079Y2929229D01*
X969314Y2915056D01*
X973328Y2901289D01*
X979017Y2888132D01*
X986332Y2875788D01*
X995121Y2864459D01*
X1005230Y2854299D01*
X1016558Y2845511D01*
X1028953Y2838196D01*
X1042111Y2832506D01*
X1055878Y2828493D01*
X1070051Y2826258D01*
X1084376Y2825800D01*
X1098651Y2827172D01*
X1103782Y2828340D01*
X1107186Y2828493D01*
X1110437Y2827528D01*
X1113180Y2825597D01*
X1145997Y2792780D01*
X1147927Y2790037D01*
X1148892Y2786786D01*
X1148740Y2783382D01*
X1147572Y2778252D01*
X1146200Y2763977D01*
X1146657Y2749651D01*
X1148892Y2735478D01*
X1152906Y2721711D01*
X1158595Y2708554D01*
X1165910Y2696159D01*
X1174699Y2684830D01*
X1184859Y2674721D01*
X1196187Y2665933D01*
X1208532Y2658618D01*
X1221689Y2652928D01*
X1235456Y2648915D01*
X1249629Y2646680D01*
X1263954Y2646222D01*
X1278280Y2647543D01*
X1283411Y2648712D01*
X1286764Y2648915D01*
X1290015Y2647950D01*
X1292809Y2645968D01*
X1309471Y2629306D01*
X1317091Y2622854D01*
X1325321Y2617978D01*
X1334211Y2614472D01*
X1343710Y2612491D01*
X1351076Y2612034D01*
X1519529Y2612034D01*
X1529486Y2612847D01*
X1538782Y2615234D01*
X1547520Y2619044D01*
X1555648Y2624378D01*
X1561185Y2629255D01*
X1780997Y2849067D01*
X1784299Y2851302D01*
X1788210Y2852064D01*
X1861769Y2852064D01*
X1865680Y2851302D01*
X1868982Y2849067D01*
X1907641Y2810408D01*
X1909927Y2806954D01*
X1910638Y2802890D01*
X1909673Y2798876D01*
X1907184Y2795574D01*
X1903577Y2793542D01*
X1899462Y2793085D01*
X1892807Y2793746D01*
X1885899Y2793085D01*
X1879244Y2791053D01*
X1873148Y2787751D01*
X1867357Y2783027D01*
X1847291Y2762961D01*
X1891792Y2718460D01*
X1938477Y2765196D01*
X1941779Y2767380D01*
X1945690Y2768193D01*
X1949551Y2767380D01*
X1952853Y2765196D01*
X1995220Y2722880D01*
X1997405Y2719578D01*
X1998167Y2715666D01*
X1997405Y2711805D01*
X1995220Y2708503D01*
X1948484Y2661767D01*
X1992985Y2617266D01*
X2013051Y2637383D01*
X2017775Y2643124D01*
X2021027Y2649270D01*
X2023059Y2655925D01*
X2023770Y2662834D01*
X2023110Y2669489D01*
X2023516Y2673604D01*
X2025548Y2677160D01*
X2028850Y2679649D01*
X2032863Y2680614D01*
X2036927Y2679903D01*
X2040382Y2677668D01*
X2229053Y2488996D01*
X2231288Y2485694D01*
X2232050Y2481783D01*
X2232050Y2428290D01*
X2231288Y2424379D01*
X2229053Y2421077D01*
X2048916Y2240940D01*
X2045665Y2238756D01*
X2041855Y2237994D01*
X2037994Y2238705D01*
X2034692Y2240838D01*
X2032457Y2244039D01*
X2030984Y2247392D01*
X2030120Y2251354D01*
X2030882Y2255316D01*
X2033117Y2258669D01*
X2046935Y2272538D01*
X2051710Y2278278D01*
X2054758Y2283104D01*
X2059584Y2286152D01*
X2065324Y2290927D01*
X2092909Y2318461D01*
X2097633Y2324252D01*
X2100732Y2329078D01*
X2105558Y2332126D01*
X2111298Y2336850D01*
X2138883Y2364435D01*
X2143607Y2370226D01*
X2146909Y2376322D01*
X2148890Y2382977D01*
X2149602Y2389886D01*
X2148890Y2396845D01*
X2146909Y2403449D01*
X2143607Y2409596D01*
X2138883Y2415387D01*
X2019401Y2534869D01*
X2013610Y2539593D01*
X2007463Y2542895D01*
X2000859Y2544876D01*
X1993900Y2545588D01*
X1986991Y2544876D01*
X1980336Y2542895D01*
X1974240Y2539593D01*
X1968449Y2534869D01*
X1940864Y2507284D01*
X1936140Y2501544D01*
X1933092Y2496718D01*
X1928266Y2493619D01*
X1922475Y2488895D01*
X1894890Y2461310D01*
X1890166Y2455570D01*
X1887118Y2450744D01*
X1882292Y2447696D01*
X1876552Y2442972D01*
X1864969Y2431389D01*
X1861718Y2429205D01*
X1857806Y2428443D01*
X1853895Y2429205D01*
X1850643Y2431389D01*
X1836013Y2445969D01*
X1833829Y2449271D01*
X1833067Y2453182D01*
X1833829Y2457043D01*
X1836013Y2460345D01*
X1871624Y2495956D01*
X1876348Y2501696D01*
X1879600Y2507843D01*
X1881632Y2514498D01*
X1882089Y2518816D01*
X1883003Y2522169D01*
X1884984Y2525014D01*
X1887829Y2526995D01*
X1891182Y2527909D01*
X1895500Y2528366D01*
X1902155Y2530348D01*
X1908302Y2533650D01*
X1914042Y2538374D01*
X1934108Y2558440D01*
X1889658Y2602941D01*
X1859788Y2573070D01*
X1856486Y2570886D01*
X1852574Y2570073D01*
X1848713Y2570886D01*
X1845411Y2573070D01*
X1803095Y2615387D01*
X1800860Y2618689D01*
X1800098Y2622600D01*
X1800860Y2626461D01*
X1803095Y2629763D01*
X1832914Y2659634D01*
X1788464Y2704134D01*
X1768348Y2684068D01*
X1763623Y2678277D01*
X1760372Y2672181D01*
X1758340Y2665526D01*
X1757934Y2661158D01*
X1757019Y2657856D01*
X1754987Y2655011D01*
X1752142Y2652979D01*
X1748789Y2652064D01*
X1744472Y2651658D01*
X1737817Y2649626D01*
X1731721Y2646324D01*
X1725930Y2641600D01*
X1626920Y2542641D01*
X1622196Y2536850D01*
X1618945Y2530754D01*
X1616913Y2524099D01*
X1616252Y2517140D01*
X1616913Y2510231D01*
X1618945Y2503576D01*
X1622196Y2497480D01*
X1624787Y2494330D01*
X1626768Y2490419D01*
X1626920Y2486050D01*
X1625193Y2482037D01*
X1621942Y2479090D01*
X1617726Y2477770D01*
X1610461Y2477160D01*
X1601165Y2474823D01*
X1592326Y2470962D01*
X1586382Y2467254D01*
X1581454Y2463038D01*
X1578406Y2461260D01*
X1574952Y2460650D01*
X1571498Y2461209D01*
X1568399Y2462936D01*
X1562557Y2467762D01*
X1556410Y2471064D01*
X1549755Y2473045D01*
X1542846Y2473756D01*
X1535938Y2473045D01*
X1529283Y2471064D01*
X1523136Y2467762D01*
X1517345Y2463038D01*
X1418386Y2364028D01*
X1413662Y2358288D01*
X1410360Y2352141D01*
X1408328Y2345486D01*
X1407922Y2341168D01*
X1407007Y2337816D01*
X1404975Y2334971D01*
X1402181Y2332990D01*
X1398828Y2332075D01*
X1394510Y2331618D01*
X1387856Y2329637D01*
X1381709Y2326335D01*
X1375918Y2321610D01*
X1355852Y2301544D01*
X1400352Y2257044D01*
X1430223Y2286914D01*
X1433525Y2289098D01*
X1437386Y2289911D01*
X1441297Y2289098D01*
X1444599Y2286914D01*
X1486916Y2244598D01*
X1489100Y2241296D01*
X1489913Y2237384D01*
X1489100Y2233523D01*
X1486916Y2230221D01*
X1457045Y2200351D01*
X1501546Y2155850D01*
X1521612Y2175916D01*
X1526336Y2181707D01*
X1529638Y2187854D01*
X1531620Y2194509D01*
X1532077Y2198827D01*
X1532991Y2202180D01*
X1534972Y2204974D01*
X1537817Y2207006D01*
X1541170Y2207920D01*
X1545488Y2208326D01*
X1552143Y2210358D01*
X1558290Y2213660D01*
X1564030Y2218385D01*
X1663039Y2317343D01*
X1667764Y2323134D01*
X1671066Y2329281D01*
X1672132Y2332786D01*
X1674114Y2336444D01*
X1677416Y2338984D01*
X1681429Y2340000D01*
X1685543Y2339289D01*
X1689049Y2337003D01*
X1742084Y2283968D01*
X1744472Y2280208D01*
X1745030Y2275789D01*
X1743608Y2271522D01*
X1740560Y2268321D01*
X1736394Y2266696D01*
X1731975Y2267051D01*
X1725828Y2268931D01*
X1723542Y2269896D01*
X1721561Y2271420D01*
X1713280Y2279700D01*
X1711045Y2277465D01*
X1706321Y2271725D01*
X1703273Y2266899D01*
X1698447Y2263851D01*
X1692706Y2259126D01*
X1665122Y2231542D01*
X1660398Y2225751D01*
X1657096Y2219655D01*
X1655064Y2213000D01*
X1654403Y2206091D01*
X1655064Y2199132D01*
X1657096Y2192477D01*
X1660398Y2186381D01*
X1665122Y2180590D01*
X1784604Y2061108D01*
X1790344Y2056384D01*
X1796491Y2053082D01*
X1803146Y2051100D01*
X1810054Y2050389D01*
X1816963Y2051100D01*
X1823618Y2053082D01*
X1829765Y2056384D01*
X1835454Y2061057D01*
X1838807Y2062886D01*
X1842566Y2063343D01*
X1846275Y2062378D01*
X1849323Y2060143D01*
X1851355Y2056942D01*
X1852066Y2053183D01*
X1852066Y1870354D01*
X1852879Y1860397D01*
X1855266Y1851101D01*
X1859076Y1842363D01*
X1864410Y1834235D01*
X1869287Y1828698D01*
X2288895Y1409090D01*
X2296515Y1402638D01*
X2304745Y1397762D01*
X2313635Y1394256D01*
X2323134Y1392275D01*
G37*
G36*
X3649979Y1876094D02*
G01*
X3670655Y1877060D01*
X3691077Y1879904D01*
X3711194Y1884680D01*
X3730802Y1891233D01*
X3749700Y1899615D01*
X3767734Y1909673D01*
X3784752Y1921408D01*
X3800652Y1934616D01*
X3815232Y1949246D01*
X3828389Y1965198D01*
X3840022Y1982266D01*
X3850030Y2000351D01*
X3858361Y2019249D01*
X3864864Y2038857D01*
X3869537Y2059025D01*
X3872331Y2079498D01*
X3873144Y2099614D01*
X3872331Y2120493D01*
X3869537Y2140966D01*
X3864864Y2161133D01*
X3858361Y2180742D01*
X3850030Y2199640D01*
X3840022Y2217724D01*
X3828389Y2234793D01*
X3815232Y2250744D01*
X3800652Y2265375D01*
X3784752Y2278583D01*
X3767734Y2290318D01*
X3749700Y2300376D01*
X3730802Y2308758D01*
X3711194Y2315311D01*
X3691077Y2320086D01*
X3670655Y2322931D01*
X3649979Y2323896D01*
X3629355Y2322931D01*
X3608882Y2320086D01*
X3588765Y2315311D01*
X3569208Y2308758D01*
X3550310Y2300376D01*
X3532225Y2290318D01*
X3515207Y2278583D01*
X3499358Y2265375D01*
X3484778Y2250744D01*
X3471570Y2234793D01*
X3459937Y2217724D01*
X3449929Y2199640D01*
X3441649Y2180742D01*
X3435146Y2161133D01*
X3430473Y2140966D01*
X3427679Y2120493D01*
X3426815Y2100376D01*
X3427679Y2079498D01*
X3430473Y2059025D01*
X3435146Y2038857D01*
X3441649Y2019249D01*
X3449929Y2000351D01*
X3459937Y1982266D01*
X3471570Y1965198D01*
X3484778Y1949246D01*
X3499358Y1934616D01*
X3515207Y1921408D01*
X3532225Y1909673D01*
X3550310Y1899615D01*
X3569208Y1891233D01*
X3588765Y1884680D01*
X3608882Y1879904D01*
X3629355Y1877060D01*
G37*
G36*
X550011Y1876298D02*
G01*
X570636Y1877263D01*
X591058Y1880107D01*
X611174Y1884832D01*
X630732Y1891436D01*
X649630Y1899767D01*
X667664Y1909825D01*
X684682Y1921510D01*
X700582Y1934768D01*
X715162Y1949348D01*
X728319Y1965248D01*
X739952Y1982317D01*
X749960Y2000402D01*
X758291Y2019300D01*
X764794Y2038908D01*
X769467Y2058974D01*
X772312Y2079447D01*
X773176Y2099716D01*
X772312Y2120544D01*
X769467Y2141016D01*
X764794Y2161082D01*
X758291Y2180691D01*
X749960Y2199589D01*
X739952Y2217674D01*
X728319Y2234742D01*
X715162Y2250643D01*
X700582Y2265222D01*
X684682Y2278481D01*
X667664Y2290165D01*
X649630Y2300224D01*
X630732Y2308555D01*
X611174Y2315159D01*
X591058Y2319883D01*
X570636Y2322728D01*
X550011Y2323693D01*
X529386Y2322728D01*
X508914Y2319883D01*
X488797Y2315159D01*
X469239Y2308555D01*
X450342Y2300224D01*
X432308Y2290165D01*
X415290Y2278481D01*
X399440Y2265222D01*
X384860Y2250643D01*
X371652Y2234742D01*
X360019Y2217674D01*
X350012Y2199589D01*
X341731Y2180691D01*
X335178Y2161082D01*
X330504Y2141016D01*
X327710Y2120544D01*
X326796Y2100275D01*
X327710Y2079447D01*
X330504Y2058974D01*
X335178Y2038908D01*
X341731Y2019300D01*
X350012Y2000402D01*
X360019Y1982317D01*
X371652Y1965248D01*
X384860Y1949348D01*
X399440Y1934768D01*
X415290Y1921510D01*
X432308Y1909825D01*
X450342Y1899767D01*
X469239Y1891436D01*
X488797Y1884832D01*
X508914Y1880107D01*
X529386Y1877263D01*
G37*
G36*
X1397152Y2066239D02*
G01*
X1404061Y2066899D01*
X1410716Y2068931D01*
X1416862Y2072233D01*
X1422603Y2076957D01*
X1442720Y2097024D01*
X1398219Y2141524D01*
X1352702Y2095957D01*
X1371701Y2076957D01*
X1377442Y2072233D01*
X1383588Y2068931D01*
X1390243Y2066899D01*
G37*
G36*
X1295958Y2152700D02*
G01*
X1341526Y2198217D01*
X1297025Y2242718D01*
X1276959Y2222601D01*
X1272235Y2216861D01*
X1268933Y2210714D01*
X1266901Y2204059D01*
X1266240Y2197150D01*
X1266901Y2190242D01*
X1268933Y2183587D01*
X1272235Y2177440D01*
X1276959Y2171700D01*
G37*
G36*
X3818432Y2334768D02*
G01*
X3825341Y2335428D01*
X3831996Y2337460D01*
X3838092Y2340711D01*
X3843883Y2345436D01*
X3866896Y2368448D01*
X3818432Y2416911D01*
X3769969Y2368448D01*
X3792931Y2345436D01*
X3798722Y2340711D01*
X3804869Y2337460D01*
X3811473Y2335428D01*
G37*
G36*
X3705301Y2433116D02*
G01*
X3753764Y2481580D01*
X3705301Y2530043D01*
X3682288Y2507030D01*
X3677564Y2501290D01*
X3674313Y2495143D01*
X3672281Y2488488D01*
X3671620Y2481580D01*
X3672281Y2474671D01*
X3674313Y2468016D01*
X3677564Y2461869D01*
X3682288Y2456129D01*
G37*
G36*
X3931513Y2433116D02*
G01*
X3954526Y2456129D01*
X3959250Y2461869D01*
X3962552Y2468016D01*
X3964533Y2474671D01*
X3965244Y2481580D01*
X3964533Y2488488D01*
X3962552Y2495143D01*
X3959250Y2501290D01*
X3954526Y2507030D01*
X3931513Y2530043D01*
X3883050Y2481580D01*
G37*
G36*
X3818432Y2546248D02*
G01*
X3866896Y2594711D01*
X3843883Y2617673D01*
X3838092Y2622397D01*
X3831996Y2625699D01*
X3825341Y2627680D01*
X3818432Y2628392D01*
X3811473Y2627680D01*
X3804869Y2625699D01*
X3798722Y2622397D01*
X3792931Y2617673D01*
X3769969Y2594711D01*
G37*
G36*
X1439976Y2793187D02*
G01*
X1446936Y2793847D01*
X1453591Y2795879D01*
X1459687Y2799130D01*
X1465478Y2803906D01*
X1576120Y2914548D01*
X1580845Y2920288D01*
X1584096Y2926435D01*
X1586128Y2933090D01*
X1586788Y2939999D01*
X1586128Y2946908D01*
X1584096Y2953562D01*
X1580845Y2959709D01*
X1576120Y2965450D01*
X1568907Y2972663D01*
X1566722Y2975914D01*
X1565960Y2979826D01*
X1566722Y2983738D01*
X1568907Y2986989D01*
X1570939Y2989021D01*
X1574241Y2991256D01*
X1578152Y2992018D01*
X2590393Y2992018D01*
X2600350Y2992831D01*
X2609646Y2995218D01*
X2618384Y2999028D01*
X2626512Y3004362D01*
X2632049Y3009239D01*
X2888081Y3265068D01*
X2890621Y3266948D01*
X2893669Y3267913D01*
X2896819Y3267913D01*
X2909620Y3265881D01*
X2923997Y3265424D01*
X2938272Y3266795D01*
X2952242Y3269894D01*
X2965754Y3274771D01*
X2978556Y3281273D01*
X2990392Y3289350D01*
X3001162Y3298850D01*
X3010662Y3309569D01*
X3018688Y3321456D01*
X3025241Y3334258D01*
X3030067Y3347720D01*
X3033217Y3361740D01*
X3034538Y3376015D01*
X3034131Y3390341D01*
X3031845Y3404514D01*
X3027883Y3418281D01*
X3022142Y3431438D01*
X3014878Y3443782D01*
X3006090Y3455162D01*
X2995930Y3465271D01*
X2984601Y3474059D01*
X2972257Y3481374D01*
X2959100Y3487064D01*
X2945282Y3491077D01*
X2931160Y3493312D01*
X2916783Y3493770D01*
X2902508Y3492398D01*
X2888538Y3489299D01*
X2875026Y3484422D01*
X2862224Y3477920D01*
X2850388Y3469843D01*
X2839618Y3460394D01*
X2830118Y3449624D01*
X2822041Y3437737D01*
X2815539Y3424986D01*
X2810713Y3411474D01*
X2807563Y3397453D01*
X2806192Y3383178D01*
X2806649Y3368852D01*
X2808732Y3355746D01*
X2808732Y3352546D01*
X2807766Y3349548D01*
X2805887Y3346958D01*
X2569768Y3110992D01*
X2566466Y3108807D01*
X2562555Y3108045D01*
X1550314Y3108045D01*
X1540357Y3107232D01*
X1531061Y3104845D01*
X1522323Y3101035D01*
X1514195Y3095701D01*
X1508658Y3090824D01*
X1486865Y3069031D01*
X1483614Y3066846D01*
X1479702Y3066084D01*
X1475790Y3066846D01*
X1472539Y3069031D01*
X1465478Y3076092D01*
X1459687Y3080816D01*
X1453591Y3084118D01*
X1446936Y3086150D01*
X1439976Y3086811D01*
X1433068Y3086150D01*
X1426413Y3084118D01*
X1420317Y3080816D01*
X1414526Y3076092D01*
X1303883Y2965450D01*
X1299159Y2959709D01*
X1295857Y2953562D01*
X1293876Y2946908D01*
X1293164Y2939999D01*
X1293876Y2933090D01*
X1295857Y2926435D01*
X1299159Y2920288D01*
X1303883Y2914548D01*
X1414526Y2803906D01*
X1420317Y2799130D01*
X1426413Y2795879D01*
X1433068Y2793847D01*
G37*
G36*
X1263954Y3005429D02*
G01*
X1278280Y3006801D01*
X1292250Y3009900D01*
X1305763Y3014776D01*
X1318514Y3021279D01*
X1330401Y3029356D01*
X1341170Y3038805D01*
X1350670Y3049574D01*
X1358696Y3061462D01*
X1365250Y3074212D01*
X1370076Y3087725D01*
X1373225Y3101746D01*
X1374546Y3116021D01*
X1374089Y3130346D01*
X1372514Y3140303D01*
X1372819Y3144621D01*
X1374851Y3148482D01*
X1378305Y3151124D01*
X1382572Y3152038D01*
X2499461Y3152038D01*
X2509418Y3152851D01*
X2518714Y3155238D01*
X2527452Y3159048D01*
X2535580Y3164382D01*
X2541117Y3169259D01*
X2781401Y3409543D01*
X2787853Y3417163D01*
X2792730Y3425393D01*
X2796235Y3434283D01*
X2798216Y3443782D01*
X2798673Y3451148D01*
X2798673Y3455314D01*
X2799181Y3458565D01*
X2800756Y3461461D01*
X2803144Y3463747D01*
X2810814Y3468928D01*
X2821533Y3478428D01*
X2831033Y3489198D01*
X2839110Y3501034D01*
X2845612Y3513836D01*
X2850489Y3527348D01*
X2853588Y3541318D01*
X2854960Y3555593D01*
X2854502Y3569970D01*
X2852267Y3584143D01*
X2848254Y3597910D01*
X2842564Y3611067D01*
X2835249Y3623411D01*
X2826461Y3634740D01*
X2816301Y3644900D01*
X2804972Y3653688D01*
X2792628Y3661003D01*
X2779471Y3666693D01*
X2765704Y3670655D01*
X2751531Y3672941D01*
X2737205Y3673398D01*
X2722930Y3672027D01*
X2708910Y3668877D01*
X2695397Y3664051D01*
X2682646Y3657549D01*
X2670759Y3649472D01*
X2659989Y3639972D01*
X2650540Y3629202D01*
X2642463Y3617366D01*
X2638298Y3609187D01*
X2635453Y3605733D01*
X2631389Y3603853D01*
X2626868Y3603904D01*
X2622854Y3605885D01*
X2620060Y3609441D01*
X2619095Y3613810D01*
X2619095Y3634943D01*
X2619603Y3638194D01*
X2621178Y3641090D01*
X2623566Y3643376D01*
X2631186Y3648557D01*
X2641955Y3658057D01*
X2651455Y3668776D01*
X2659481Y3680663D01*
X2666034Y3693464D01*
X2670860Y3706926D01*
X2674010Y3720947D01*
X2675331Y3735222D01*
X2674924Y3749548D01*
X2672638Y3763721D01*
X2668676Y3777487D01*
X2662936Y3790645D01*
X2655671Y3803040D01*
X2646883Y3814368D01*
X2636723Y3824478D01*
X2625394Y3833266D01*
X2613050Y3840581D01*
X2599893Y3846271D01*
X2586075Y3850284D01*
X2571953Y3852519D01*
X2557576Y3852976D01*
X2543302Y3851656D01*
X2529332Y3848506D01*
X2515819Y3843629D01*
X2503017Y3837127D01*
X2491181Y3829050D01*
X2480411Y3819601D01*
X2470912Y3808831D01*
X2462834Y3796944D01*
X2456332Y3784193D01*
X2451506Y3770680D01*
X2448356Y3756660D01*
X2446985Y3742385D01*
X2447442Y3728059D01*
X2449677Y3713886D01*
X2453690Y3700119D01*
X2459380Y3686962D01*
X2466695Y3674618D01*
X2475484Y3663289D01*
X2485644Y3653129D01*
X2500731Y3641394D01*
X2502458Y3638346D01*
X2503068Y3634943D01*
X2503068Y3539286D01*
X2502306Y3535375D01*
X2500071Y3532073D01*
X2399080Y3431082D01*
X2395778Y3428847D01*
X2391867Y3428085D01*
X2199132Y3428085D01*
X2195271Y3428847D01*
X2191969Y3431032D01*
X2189784Y3434232D01*
X2188972Y3438093D01*
X2189683Y3441954D01*
X2191766Y3445256D01*
X2195017Y3447542D01*
X2199690Y3449624D01*
X2217724Y3459683D01*
X2234793Y3471367D01*
X2250643Y3484626D01*
X2265222Y3499256D01*
X2278380Y3515156D01*
X2290064Y3532276D01*
X2300071Y3550310D01*
X2308352Y3569258D01*
X2314854Y3588867D01*
X2319528Y3608984D01*
X2322322Y3629456D01*
X2323185Y3649624D01*
X2322322Y3670503D01*
X2319528Y3690975D01*
X2314854Y3711092D01*
X2308352Y3730701D01*
X2300071Y3749649D01*
X2290064Y3767734D01*
X2278380Y3784803D01*
X2265222Y3800754D01*
X2250643Y3815384D01*
X2234793Y3828592D01*
X2217724Y3840276D01*
X2199690Y3850386D01*
X2180793Y3858717D01*
X2161235Y3865321D01*
X2141118Y3870045D01*
X2120646Y3872941D01*
X2099970Y3873906D01*
X2079345Y3872941D01*
X2058873Y3870045D01*
X2038756Y3865321D01*
X2019198Y3858717D01*
X2000300Y3850386D01*
X1982266Y3840276D01*
X1965198Y3828592D01*
X1949348Y3815384D01*
X1934768Y3800754D01*
X1921611Y3784803D01*
X1909927Y3767734D01*
X1899920Y3749649D01*
X1891639Y3730701D01*
X1885137Y3711092D01*
X1880463Y3690975D01*
X1877669Y3670503D01*
X1876806Y3650386D01*
X1877669Y3629456D01*
X1880463Y3608984D01*
X1885137Y3588867D01*
X1891639Y3569258D01*
X1899920Y3550310D01*
X1909927Y3532276D01*
X1921611Y3515156D01*
X1934768Y3499256D01*
X1949348Y3484626D01*
X1965198Y3471367D01*
X1982266Y3459683D01*
X2000300Y3449624D01*
X2004974Y3447542D01*
X2008225Y3445256D01*
X2010308Y3441954D01*
X2011019Y3438093D01*
X2010206Y3434232D01*
X2008022Y3431032D01*
X2004720Y3428847D01*
X2000859Y3428085D01*
X1152042Y3428085D01*
X1142085Y3427272D01*
X1132789Y3424885D01*
X1123950Y3421024D01*
X1118006Y3417315D01*
X1113028Y3413099D01*
X1109218Y3411067D01*
X1104900Y3410813D01*
X1091539Y3412947D01*
X1077214Y3413353D01*
X1062939Y3412032D01*
X1048918Y3408883D01*
X1035405Y3404057D01*
X1022654Y3397504D01*
X1010767Y3389477D01*
X999998Y3379978D01*
X990549Y3369208D01*
X982471Y3357372D01*
X975969Y3344570D01*
X971092Y3331057D01*
X967943Y3317087D01*
X966622Y3302812D01*
X967079Y3288436D01*
X969314Y3274263D01*
X973328Y3260496D01*
X979017Y3247339D01*
X986332Y3234994D01*
X995121Y3223666D01*
X1005230Y3213506D01*
X1016558Y3204718D01*
X1028953Y3197402D01*
X1042111Y3191713D01*
X1055878Y3187700D01*
X1070051Y3185464D01*
X1084376Y3185007D01*
X1098651Y3186379D01*
X1112672Y3189528D01*
X1126134Y3194354D01*
X1138936Y3200857D01*
X1150823Y3208934D01*
X1161542Y3218434D01*
X1171041Y3229203D01*
X1179118Y3241040D01*
X1185621Y3253841D01*
X1190498Y3267354D01*
X1193596Y3281324D01*
X1194968Y3295599D01*
X1194765Y3301593D01*
X1195476Y3305556D01*
X1197610Y3308959D01*
X1200962Y3311245D01*
X1204925Y3312058D01*
X2419705Y3312058D01*
X2429662Y3312871D01*
X2438958Y3315258D01*
X2447696Y3319068D01*
X2455824Y3324402D01*
X2461361Y3329279D01*
X2601823Y3469741D01*
X2608275Y3477361D01*
X2613152Y3485591D01*
X2616657Y3494481D01*
X2618638Y3503980D01*
X2618740Y3505758D01*
X2620010Y3510076D01*
X2623007Y3513429D01*
X2627122Y3515156D01*
X2631592Y3514953D01*
X2635554Y3512820D01*
X2638196Y3509162D01*
X2639009Y3507333D01*
X2646324Y3494989D01*
X2655062Y3483660D01*
X2666085Y3472738D01*
X2668320Y3469436D01*
X2669133Y3465576D01*
X2668320Y3461664D01*
X2666136Y3458362D01*
X2478836Y3271062D01*
X2475534Y3268827D01*
X2471623Y3268065D01*
X1351178Y3268065D01*
X1341221Y3267252D01*
X1331925Y3264865D01*
X1323187Y3261055D01*
X1315059Y3255721D01*
X1309522Y3250844D01*
X1292809Y3234131D01*
X1290218Y3232251D01*
X1287221Y3231286D01*
X1284020Y3231286D01*
X1271117Y3233318D01*
X1256792Y3233775D01*
X1242517Y3232404D01*
X1228547Y3229305D01*
X1215034Y3224428D01*
X1202232Y3217926D01*
X1190396Y3209848D01*
X1179626Y3200349D01*
X1170127Y3189630D01*
X1162050Y3177743D01*
X1155547Y3164941D01*
X1150721Y3151479D01*
X1147572Y3137458D01*
X1146200Y3123184D01*
X1146657Y3108858D01*
X1148892Y3094685D01*
X1152906Y3080918D01*
X1158595Y3067761D01*
X1165910Y3055416D01*
X1174699Y3044037D01*
X1184859Y3033928D01*
X1196187Y3025140D01*
X1208532Y3017824D01*
X1221689Y3012135D01*
X1235456Y3008122D01*
X1249629Y3005886D01*
G37*

%LPD*%
D10*
X1439926Y2940050D02*
G01*
X1549907Y3050031D01*
X2590800Y3050031D01*
X2920491Y3379470D01*
X1080770Y3299205D02*
G01*
X1151636Y3370071D01*
X2420111Y3370071D01*
X2561081Y3511042D01*
X2561081Y3738879D01*
X1260347Y3119628D02*
G01*
X1350771Y3210052D01*
X2499868Y3210052D01*
X2740659Y3450844D01*
X2740659Y3559302D01*
X2251963Y1855978D02*
G01*
X2139950Y1967992D01*
X2139950Y2039873D01*
X3009900Y2910078D01*
X3169158Y2910078D01*
X3279647Y3020313D01*
X1810004Y2205989D02*
G01*
X1726184Y2290063D01*
X1690115Y2290063D01*
X1519936Y2119884D01*
X1478534Y2119884D01*
X1399286Y2199386D01*
X1540713Y2340711D02*
G01*
X1619996Y2419995D01*
X1688076Y2419995D01*
X1856041Y2252030D01*
X2160015Y1764029D02*
G01*
X1979929Y1944115D01*
X1979929Y2089912D01*
X2290063Y2400045D01*
X2290063Y2510028D01*
X1890013Y2910078D01*
X1759965Y2910078D01*
X1519936Y2670047D01*
X1350771Y2670047D01*
X901192Y3119628D01*
X1901952Y2297937D02*
G01*
X1979929Y2219960D01*
X1979929Y2189987D01*
X1910079Y2119884D01*
X1910079Y1869947D01*
X2330195Y1449831D01*
X2540000Y1449831D01*
X3549904Y2459989D01*
X3549904Y2572257D01*
X3638804Y2661157D01*
X2297938Y1901952D02*
G01*
X2229865Y1970023D01*
X2229865Y2020062D01*
X2970022Y2759963D01*
X3378454Y2759963D01*
X3459225Y2840736D01*
X2205990Y1810004D02*
G01*
X2059940Y1956054D01*
X2059940Y2059939D01*
X3100070Y3100070D01*
X3100070Y3199892D01*
X1901997Y2297993D02*
G01*
X1749272Y2450719D01*
X1749272Y2519298D01*
X2343955Y1947961D02*
G01*
X2520695Y1771220D01*
X2520695Y1770710D01*
D11*
G01*
X2160109Y1764116D03*
D12*
G01*
X2206071Y1810076D03*
G01*
X2252032Y1856037D03*
D11*
G01*
X2297992Y1901998D03*
D13*
G01*
X2343952Y1947960D03*
G01*
X2389913Y1993921D03*
D11*
G01*
X2435875Y2039882D03*
D13*
G01*
X2039881Y2435875D03*
G01*
X1993920Y2389915D03*
G01*
X1947959Y2343953D03*
D11*
G01*
X1901998Y2297992D03*
D12*
G01*
X1856038Y2252031D03*
G01*
X1810077Y2206070D03*
G01*
X1764116Y2160108D03*
D14*
G01*
X1540709Y2340707D03*
G01*
X1399284Y2199283D03*
D15*
G01*
X1749284Y2519282D03*
G01*
X1890708Y2660707D03*
D16*
G01*
X2520709Y1770710D03*
G01*
X2379281Y1629281D03*
D17*
G01*
X901192Y3119602D03*
G01*
X1080795Y3299205D03*
G01*
X1080795Y2939999D03*
G01*
X1260398Y3119602D03*
G01*
X1260398Y2760395D03*
D18*
G01*
X1439997Y2939994D03*
D19*
G01*
X3818415Y2481573D03*
D17*
G01*
X3638804Y2661183D03*
G01*
X3459200Y2840786D03*
G01*
X3279597Y3020390D03*
G01*
X3099993Y3199993D03*
G01*
X2920390Y3379596D03*
G01*
X2740786Y3559200D03*
G01*
X2561183Y3738803D03*
M02*
